<svg xmlns="http://www.w3.org/2000/svg" width="305.759" height="304.34" viewBox="0 0 305.759 304.34">
  <defs>
    <style>
      .cls-1, .cls-2, .cls-5 {
        fill: #03b898;
      }

      .cls-1 {
        font-size: 37px;
        font-family: Goldplay-SemiBold, Goldplay;
        font-weight: 600;
      }

      .cls-1, .cls-2 {
        opacity: 0.502;
      }

      .cls-3 {
        fill: #fff;
      }

      .cls-4 {
        fill: #231f20;
      }
    </style>
  </defs>
  <g id="_123_process_building_flatline" data-name="#123_process_building_flatline" transform="translate(-47.794 46.21)">
    <text id="not_found" data-name="not found" class="cls-1" transform="translate(266.553 100.316)"><tspan x="-86.284" y="0">not found</tspan></text>
    <path id="Tracé_882" data-name="Tracé 882" class="cls-2" d="M-67.124-40.828h-9.515V-105.7c0-4.152-2.422-6.747-6.574-6.747h-4.844c-6.055,0-7.958,2.422-10.9,6.055l-50,61.761c-2.6,3.114-3.806,5.19-3.806,9.342v4.671c0,4.325,2.249,6.574,6.574,6.574h47.056V-6.574C-99.129-2.422-96.707,0-92.382,0h9.169c4.325,0,6.574-2.249,6.574-6.574V-24.047h9.515c4.325,0,6.747-2.249,6.747-6.574v-3.633C-60.377-38.579-62.626-40.828-67.124-40.828Zm-62.107,0,30.275-38.06v38.06Zm176.979-15.4c0-34.946-19.376-58.3-47.748-58.3s-47.748,23.355-47.748,58.3c0,34.773,19.376,58.3,47.748,58.3S47.748-21.452,47.748-56.225Zm-72.487,0C-24.739-79.58-14.7-95.15,0-95.15S24.739-79.58,24.739-56.225C24.739-33.043,14.705-17.473,0-17.473S-24.739-33.043-24.739-56.225Zm167.983,15.4h-9.515V-105.7c0-4.152-2.422-6.747-6.574-6.747h-4.844c-6.055,0-7.958,2.422-10.9,6.055l-50,61.761c-2.6,3.114-3.806,5.19-3.806,9.342v4.671c0,4.325,2.249,6.574,6.574,6.574h47.056V-6.574c0,4.152,2.422,6.574,6.747,6.574h9.169c4.325,0,6.574-2.249,6.574-6.574V-24.047h9.515c4.325,0,6.747-2.249,6.747-6.574v-3.633C149.991-38.579,147.742-40.828,143.244-40.828Zm-62.107,0,30.275-38.06v38.06Z" transform="translate(200.553 68.316)"/>
    <path id="Tracé_844" data-name="Tracé 844" class="cls-3" d="M267.6,130.93a118.536,118.536,0,0,0,8.85-14.65,52.43,52.43,0,0,0,4.31-16,7.871,7.871,0,0,1,.92-3.36c1.36-2,4-1.35,4.73.81a11.729,11.729,0,0,1,.35,3.14,15.6,15.6,0,0,0,2.3,7.58c1.51,2.39,3.93,3.81,5.89,5.79a45.508,45.508,0,0,1,5.18,6.17c.76,1.12,2.33,3.12,2,4.6-.85,3.38-15.63,16.33-29.14,20.56"/>
    <path id="Tracé_845" data-name="Tracé 845" class="cls-4" d="M273,146a.45.45,0,0,1-.44-.32.46.46,0,0,1,.3-.57c13.9-4.34,28.11-17.33,28.83-20.23.29-1.12-.86-2.75-1.61-3.83l-.28-.4a44.1,44.1,0,0,0-5.13-6.11c-.68-.69-1.44-1.32-2.17-1.94a17.41,17.41,0,0,1-3.78-3.92,16.14,16.14,0,0,1-2.36-7.81v-.6a8.589,8.589,0,0,0-.3-2.42,2.45,2.45,0,0,0-1.92-1.7,2,2,0,0,0-2,1,7,7,0,0,0-.83,3v.14a52.54,52.54,0,0,1-4.34,16.14,117.722,117.722,0,0,1-8.89,14.7.46.46,0,0,1-.64.12.45.45,0,0,1-.12-.63A115.6,115.6,0,0,0,276,116.09a52.08,52.08,0,0,0,4.27-15.86v-.14a7.76,7.76,0,0,1,1-3.42,2.9,2.9,0,0,1,2.88-1.4,3.35,3.35,0,0,1,2.66,2.31,9.51,9.51,0,0,1,.36,2.68v.59a15.15,15.15,0,0,0,2.22,7.36,16.639,16.639,0,0,0,3.6,3.71c.75.63,1.52,1.28,2.23,2a44.58,44.58,0,0,1,5.23,6.24l.28.38c.85,1.22,2.13,3.06,1.75,4.58-.88,3.55-15.66,16.57-29.45,20.88H273Z"/>
    <path id="Tracé_846" data-name="Tracé 846" class="cls-4" d="M135.35,99.11s48.35,3.25,54.37,7,27.1,28.05,41.84,29.61A48,48,0,0,0,267.61,125l10.69,21.83s-27.3,25.82-50.4,19.85c-17.61-4.55-45.27-18.82-45.27-18.82l-50.07,13.78Z"/>
    <path id="Tracé_847" data-name="Tracé 847" class="cls-4" d="M235.09,168.07a29.29,29.29,0,0,1-7.32-.9C211,162.84,185,149.62,182.58,148.4l-49.89,13.72a.52.52,0,0,1-.45-.09.51.51,0,0,1-.18-.42l2.79-62.52a.53.53,0,0,1,.17-.35.49.49,0,0,1,.37-.12c2,.13,48.54,3.3,54.6,7a76.521,76.521,0,0,1,8.26,7.14c9.14,8.48,22.94,21.3,33.36,22.41a47.9,47.9,0,0,0,35.66-10.57.49.49,0,0,1,.43-.13.5.5,0,0,1,.36.27l10.69,21.83a.52.52,0,0,1-.11.59C278.39,147.44,256.29,168.07,235.09,168.07Zm-52.46-20.71a.46.46,0,0,1,.23.06c.28.14,27.81,14.29,45.16,18.78,21.36,5.52,46.77-16.84,49.66-19.47l-10.23-20.92a49.25,49.25,0,0,1-35.95,10.4c-10.75-1.14-24.7-14.1-33.93-22.67-3.61-3.35-6.45-6-8.11-7-5.52-3.42-48.44-6.51-53.63-6.87L133.09,161l49.41-13.59Z"/>
    <path id="Tracé_848" data-name="Tracé 848" class="cls-5" d="M197.4,183.86c.73-15.22,1.28-33.14.22-39.75-1.31-1.61-3.89-4.36-3.89-4.36a122.3,122.3,0,0,0-6.52-36.51l-8-1s4.92,14.22,5.53,37.16L143.29,137s-.94-24.09-7.32-39h-8.73s-.62,26.92-1.15,42c0,0-10.15,8.59-13,12.86-1.41,2.12-1.4,16.79-1,31Z"/>
    <path id="Tracé_849" data-name="Tracé 849" class="cls-3" d="M238,164.38a1.38,1.38,0,0,0-.38-2.64c-9.84-1.3-32.12-4.22-44-5.72a6.47,6.47,0,0,0-7.26,7.08l1.43,14.27a6.48,6.48,0,0,0,9.09,5.27Z"/>
    <path id="Tracé_850" data-name="Tracé 850" class="cls-4" d="M194.25,183.67a7,7,0,0,1-6.9-6.26l-1.44-14.26a6.95,6.95,0,0,1,7.78-7.59c11.47,1.45,32.5,4.21,44,5.72a1.85,1.85,0,0,1,.51,3.52l-41.14,18.26a6.86,6.86,0,0,1-2.81.61Zm-1.45-27.25a6,6,0,0,0-6,6.63l1.44,14.27a6,6,0,0,0,8.44,4.91L237.83,164h0a.93.93,0,0,0-.25-1.77c-11.51-1.51-32.54-4.27-44-5.72a6.642,6.642,0,0,0-.78-.09Z"/>
    <path id="Tracé_851" data-name="Tracé 851" class="cls-3" d="M200.65,170s-14.57,3.73-16.66,2.36-5-8.77-5-8.77L169,167.13l-.25-5.27s11.32-5.5,12.32-3.89,3.29,11.24,5.12,11S200.51,167,200.51,167"/>
    <path id="Tracé_852" data-name="Tracé 852" class="cls-4" d="M185.82,173.1a4.14,4.14,0,0,1-2.08-.37c-1.91-1.25-4.36-7-5-8.57l-9.53,3.4a.46.46,0,0,1-.41-.05.45.45,0,0,1-.2-.36l-.25-5.26a.46.46,0,0,1,.25-.44c4.37-2.12,11.85-5.43,12.9-3.72a23.74,23.74,0,0,1,1.39,3.63c.66,2,2.38,7.24,3.28,7.12,1.81-.27,14.17-1.92,14.3-1.93a.454.454,0,1,1,.12.9c-.13,0-12.49,1.67-14.29,1.94-1.5.23-2.66-2.92-4.28-7.74a25.512,25.512,0,0,0-1.29-3.44c-.57-.6-5.78,1.2-11.46,3.93l.21,4.35,9.36-3.34a.47.47,0,0,1,.58.26c.8,2,3.23,7.5,4.84,8.56,1.4.92,10.74-1,16.3-2.42a.455.455,0,1,1,.23.88C198.75,171,190.1,173.1,185.82,173.1Z"/>
    <path id="Tracé_853" data-name="Tracé 853" class="cls-3" d="M139.85,146.88s17.91-.31,21.82.89,15.73,13,14.47,17.77S163,176.1,158.93,174.37s-8.48-7.6-8.48-7.6-11.81-4.81-17.89-5.13Z"/>
    <path id="Tracé_854" data-name="Tracé 854" class="cls-4" d="M160.77,175.14a5.279,5.279,0,0,1-2-.35c-3.88-1.66-8-6.82-8.59-7.64-1.23-.5-12-4.76-17.63-5.06a.47.47,0,0,1-.37-.22.46.46,0,0,1,0-.44l7.29-14.75a.45.45,0,0,1,.4-.26c.73,0,18-.29,22,.91,4.23,1.29,16.11,13.3,14.77,18.33-.74,2.82-4.67,5.62-8.09,7.29a19.54,19.54,0,0,1-7.78,2.19Zm-27.5-13.91c6.22.61,16.88,4.93,17.35,5.12a.4.4,0,0,1,.19.15c.05.05,4.4,5.78,8.3,7.45,1.7.72,5.23,0,9-1.82,4.07-2,7.06-4.62,7.61-6.71,1.19-4.47-10.47-16.1-14.16-17.22-3.54-1.08-19.13-.9-21.41-.87Z"/>
    <path id="Tracé_855" data-name="Tracé 855" class="cls-4" d="M127.8,99.11a87.71,87.71,0,0,0-24.73,10.79c-6.8,4.4-37,22.86-41.67,28.33s-10.78,22.57,3.88,29.32,69.66-2.24,69.66-2.24l9.18-21.39-25.86,1.24,14.3-6.77s.5-7.75-1-21.54C130.32,104.66,127.8,99.11,127.8,99.11Z"/>
    <path id="Tracé_856" data-name="Tracé 856" class="cls-4" d="M84.5,170.57c-8.19,0-15.32-.68-19.43-2.57-5-2.3-8.06-5.93-9.12-10.79-1.61-7.39,2-15.74,5.07-19.31,3.92-4.57,25-17.84,36.33-25,2.36-1.48,4.26-2.68,5.45-3.45A88.86,88.86,0,0,1,127.69,98.6a.5.5,0,0,1,.57.28c.1.23,2.56,5.76,3.84,17.89a145.32,145.32,0,0,1,1,21.62.54.54,0,0,1-.29.42l-12,5.7,23.36-1.12a.51.51,0,0,1,.44.21.56.56,0,0,1,.05.49l-9.18,21.39a.51.51,0,0,1-.38.3C133.4,166.07,105.48,170.57,84.5,170.57Zm43-70.87a88.64,88.64,0,0,0-24.16,10.62c-1.19.77-3.09,2-5.45,3.46-11.29,7.1-32.29,20.32-36.12,24.77C58.84,142,55.39,149.94,56.93,157c1,4.54,3.87,7.93,8.56,10.09,13.83,6.36,64.9-1.56,69.1-2.23l8.75-20.4-25.06,1.2a.5.5,0,0,1-.51-.38.52.52,0,0,1,.27-.58l14-6.64a149.669,149.669,0,0,0-1-21.16c-1.04-10.19-2.97-15.75-3.54-17.2Z"/>
    <path id="Tracé_857" data-name="Tracé 857" class="cls-3" d="M134,54a10.439,10.439,0,0,1,.72-2.6c1.43-3.15,6.13-4.59,9.28-4.89,3.74-.35,7,.05,10.27-1.74a16.6,16.6,0,0,1,10.83-1.64,12.77,12.77,0,0,1,3.51,1.19A10.33,10.33,0,0,1,174,53.67c-.19,4.5-2.91,8.88-5.91,12.08a47.872,47.872,0,0,1-6.55,5.49l-4.86,3.6c-5,3.68-12,7.32-18.46,5.44-4.91-1.44-7.52-6.88-8.41-11.52-1-5.11-1.64-11.12,4-13.67C133.88,54.71,133.93,54.34,134,54Z"/>
    <path id="Tracé_858" data-name="Tracé 858" class="cls-4" d="M141.9,81.29a13.68,13.68,0,0,1-3.84-.53c-6.36-1.87-8.31-9.58-8.76-11.9-.74-3.9-2.13-11.11,4.07-14.11a5.225,5.225,0,0,1,.13-.87h0a10.509,10.509,0,0,1,.75-2.71c1.49-3.29,6.16-4.85,9.7-5.19,1-.09,1.87-.13,2.76-.17,2.65-.12,4.94-.22,7.31-1.51a17.12,17.12,0,0,1,11.16-1.69,13.17,13.17,0,0,1,3.65,1.23,10.81,10.81,0,0,1,5.66,9.86c-.23,5.41-3.89,10.09-6.05,12.39a46.851,46.851,0,0,1-6.61,5.55L157,75.24C153,78.17,147.47,81.29,141.9,81.29Zm-7.42-27.24c-.06.37-.11.74-.16,1.11a.48.48,0,0,1-.29.38c-5.32,2.4-4.72,8-3.74,13.13.86,4.49,3.43,9.77,8.06,11.13,6.38,1.86,13.32-1.89,18-5.36l4.86-3.6a46.62,46.62,0,0,0,6.48-5.43c2.07-2.21,5.57-6.67,5.79-11.76a9.81,9.81,0,0,0-5.13-8.92A12,12,0,0,0,165,43.6a16,16,0,0,0-10.5,1.58c-2.57,1.4-5.09,1.51-7.75,1.63-.87,0-1.78.08-2.71.17-2.64.25-7.47,1.5-8.88,4.6a10.13,10.13,0,0,0-.68,2.47Zm-.66,1Z"/>
    <path id="Tracé_859" data-name="Tracé 859" class="cls-3" d="M167.3,89.39l1.91,15s-1.46,8-10.78,7.27a18.62,18.62,0,0,1-13.8-8.07l-4-25.32s6.08-4.63,1.77-18.76A45,45,0,0,0,166.22,59s6.62,15,6.67,22.13S167.3,89.39,167.3,89.39Z"/>
    <path id="Tracé_860" data-name="Tracé 860" class="cls-4" d="M159.57,112.24h-1.18a18.94,18.94,0,0,1-14.19-8.31.48.48,0,0,1-.07-.18l-4-25.33a.48.48,0,0,1,.19-.47c.05,0,5.73-4.65,1.59-18.21a.51.51,0,0,1,.63-.63,44.9,44.9,0,0,0,23.55-.55.51.51,0,0,1,.6.28c.27.61,6.66,15.18,6.71,22.32,0,6.24-4.14,8.16-5.54,8.63l1.85,14.62a.38.38,0,0,1,0,.15,9.93,9.93,0,0,1-10.14,7.68Zm-14.47-8.79a18.31,18.31,0,0,0,13.37,7.75c8.4.64,10.06-6,10.23-6.79l-1.9-15a.5.5,0,0,1,.4-.55c.21,0,5.23-1.16,5.19-7.77,0-6.3-5.41-19.1-6.46-21.53a46.81,46.81,0,0,1-22.82.66c3.47,12.24-.86,17.22-2,18.24Z"/>
    <path id="Tracé_861" data-name="Tracé 861" class="cls-3" d="M145.8,77a5.94,5.94,0,0,0-2.5-2.81,10.55,10.55,0,0,0-3.4-1.07,4.43,4.43,0,0,0-2,0,3.48,3.48,0,0,0-1.2.67,4.58,4.58,0,0,0-1.7,2.6,5.42,5.42,0,0,0,.3,2.58,10.87,10.87,0,0,0,1.13,2.62,7.2,7.2,0,0,0,10,2.17"/>
    <path id="Tracé_862" data-name="Tracé 862" class="cls-4" d="M142.46,85.43a8,8,0,0,1-1.62-.17,7.81,7.81,0,0,1-4.87-3.4,11.581,11.581,0,0,1-1.19-2.74,5.9,5.9,0,0,1-.31-2.82,5,5,0,0,1,2-2.92,4.05,4.05,0,0,1,1.37-.76,4.72,4.72,0,0,1,2.18,0,10.9,10.9,0,0,1,3.56,1.13,6.46,6.46,0,0,1,2.71,3,.5.5,0,0,1-.27.66.49.49,0,0,1-.65-.27,5.45,5.45,0,0,0-2.29-2.57,10.14,10.14,0,0,0-3.24-1,3.87,3.87,0,0,0-1.72,0,3.14,3.14,0,0,0-1,.58,4.16,4.16,0,0,0-1.61,2.32,4.85,4.85,0,0,0,.29,2.34,9.841,9.841,0,0,0,1.08,2.5,6.68,6.68,0,0,0,9.31,2,.5.5,0,0,1,.69.15.49.49,0,0,1-.14.69,7.77,7.77,0,0,1-4.28,1.28Z"/>
    <path id="Tracé_863" data-name="Tracé 863" class="cls-4" d="M168.56,98a18.76,18.76,0,0,1-9.63-3.18c-4.57-3.17-4.59-5.43-4.59-5.43s6.94,2.45,12.63.32Z"/>
    <path id="Tracé_864" data-name="Tracé 864" class="cls-4" d="M168.56,98.46h0a19.12,19.12,0,0,1-9.91-3.27c-4.65-3.22-4.8-5.58-4.8-5.84a.52.52,0,0,1,.21-.41.48.48,0,0,1,.45-.06c.07,0,6.85,2.37,12.29.32a.5.5,0,0,1,.67.37l1.58,8.3a.51.51,0,0,1-.1.41A.53.53,0,0,1,168.56,98.46ZM155.07,90.1c.39.86,1.43,2.39,4.14,4.27A18.52,18.52,0,0,0,168,97.43l-1.36-7.1C162.09,91.78,157.09,90.67,155.07,90.1Z"/>
    <path id="Tracé_865" data-name="Tracé 865" class="cls-3" d="M157.42,69.47s6.06,6,5.2,7.47-4.14,1.25-4.14,1.25"/>
    <path id="Tracé_866" data-name="Tracé 866" class="cls-4" d="M158.89,78.7h-.44a.5.5,0,0,1,.06-1c.77,0,3.1,0,3.68-1,.35-.57-2.09-3.84-5.12-6.86a.5.5,0,1,1,.71-.71C159.68,71,164,75.6,163,77.2,162.23,78.55,159.9,78.7,158.89,78.7Z"/>
    <ellipse id="Ellipse_50" data-name="Ellipse 50" class="cls-4" cx="1.18" cy="1.66" rx="1.18" ry="1.66" transform="translate(150.342 68.582) rotate(-6.39)"/>
    <ellipse id="Ellipse_51" data-name="Ellipse 51" class="cls-4" cx="1.18" cy="1.66" rx="1.18" ry="1.66" transform="translate(160.892 66.916) rotate(-23.53)"/>
    <path id="Tracé_867" data-name="Tracé 867" class="cls-4" d="M162.34,87.71h-.63a12.94,12.94,0,0,1-10.58-5.79.53.53,0,0,1,0-.49.49.49,0,0,1,.41-.25l17-.87a.5.5,0,0,1,.52.47,7.28,7.28,0,0,1-1.83,5.18,6.55,6.55,0,0,1-4.89,1.75Zm-9.84-5.6a12.45,12.45,0,0,0,9.27,4.59,5.92,5.92,0,0,0,4.74-1.47,6.06,6.06,0,0,0,1.54-3.91Z"/>
    <rect id="Rectangle_129" data-name="Rectangle 129" class="cls-3" width="63.76" height="21.42" transform="translate(103.78 187.24)"/>
    <path id="Tracé_868" data-name="Tracé 868" class="cls-4" d="M167.54,209.16H103.78a.5.5,0,0,1-.5-.5V187.24a.5.5,0,0,1,.5-.5h63.76a.5.5,0,0,1,.5.5v21.42A.5.5,0,0,1,167.54,209.16Zm-63.26-1H167V187.74H104.28Z"/>
    <rect id="Rectangle_130" data-name="Rectangle 130" class="cls-3" width="43.27" height="21.42" transform="translate(57.7 187.24)"/>
    <path id="Tracé_869" data-name="Tracé 869" class="cls-4" d="M101,209.16H57.7a.5.5,0,0,1-.5-.5V187.24a.5.5,0,0,1,.5-.5H101a.5.5,0,0,1,.5.5v21.42A.5.5,0,0,1,101,209.16Zm-42.77-1H100.5V187.74H58.2Z"/>
    <rect id="Rectangle_131" data-name="Rectangle 131" class="cls-3" width="63.76" height="21.42" transform="translate(171.35 187.24)"/>
    <path id="Tracé_870" data-name="Tracé 870" class="cls-4" d="M235.11,209.16H171.35a.5.5,0,0,1-.5-.5V187.24a.5.5,0,0,1,.5-.5h63.76a.5.5,0,0,1,.5.5v21.42A.5.5,0,0,1,235.11,209.16Zm-63.26-1h62.76V187.74H171.85Z"/>
    <rect id="Rectangle_132" data-name="Rectangle 132" class="cls-3" width="44.41" height="21.42" transform="translate(299.54 187.24)"/>
    <path id="Tracé_871" data-name="Tracé 871" class="cls-4" d="M344,209.16H299.54a.5.5,0,0,1-.5-.5V187.24a.5.5,0,0,1,.5-.5H344a.5.5,0,0,1,.5.5v21.42A.5.5,0,0,1,344,209.16Zm-43.91-1H343.5V187.74H300Z"/>
    <rect id="Rectangle_133" data-name="Rectangle 133" class="cls-3" width="63.76" height="21.42" transform="translate(86.5 211.72)"/>
    <path id="Tracé_872" data-name="Tracé 872" class="cls-4" d="M150.25,233.64H86.5a.5.5,0,0,1-.5-.5V211.72a.5.5,0,0,1,.5-.5h63.75a.5.5,0,0,1,.5.5v21.42A.5.5,0,0,1,150.25,233.64Zm-63.25-1h62.75V212.22H87Z"/>
    <rect id="Rectangle_134" data-name="Rectangle 134" class="cls-3" width="63.76" height="21.42" transform="translate(153.06 211.72)"/>
    <path id="Tracé_873" data-name="Tracé 873" class="cls-4" d="M216.82,233.64H153.06a.5.5,0,0,1-.5-.5V211.72a.5.5,0,0,1,.5-.5h63.76a.5.5,0,0,1,.5.5v21.42A.5.5,0,0,1,216.82,233.64Zm-63.26-1h62.76V212.22H153.56Z"/>
    <rect id="Rectangle_135" data-name="Rectangle 135" class="cls-3" width="63.76" height="21.42" transform="translate(219.62 211.72)"/>
    <path id="Tracé_874" data-name="Tracé 874" class="cls-4" d="M283.38,233.64H219.62a.5.5,0,0,1-.5-.5V211.72a.51.51,0,0,1,.5-.5h63.76a.5.5,0,0,1,.5.5v21.42A.5.5,0,0,1,283.38,233.64Zm-63.26-1h62.76V212.22H220.12Z"/>
    <rect id="Rectangle_136" data-name="Rectangle 136" class="cls-3" width="45.23" height="21.42" transform="translate(286.19 211.72)"/>
    <path id="Tracé_875" data-name="Tracé 875" class="cls-4" d="M331.42,233.64H286.19a.5.5,0,0,1-.5-.5V211.72a.5.5,0,0,1,.5-.5h45.23a.51.51,0,0,1,.5.5v21.42A.5.5,0,0,1,331.42,233.64Zm-44.73-1h44.23V212.22H286.69Z"/>
    <rect id="Rectangle_137" data-name="Rectangle 137" class="cls-3" width="63.76" height="21.42" transform="matrix(0.763, 0.646, -0.646, 0.763, 268.747, 93.358)"/>
    <path id="Tracé_876" data-name="Tracé 876" class="cls-4" d="M303.61,151.33a.44.44,0,0,1-.29-.11l-48.68-41.17a.46.46,0,0,1-.06-.65l13.84-16.35a.43.43,0,0,1,.31-.16.44.44,0,0,1,.33.1l48.68,41.18a.46.46,0,0,1,.06.64L304,151.17a.47.47,0,0,1-.31.16Zm-48-41.69,48,40.59,13.24-15.66L268.82,94Z"/>
    <rect id="Rectangle_138" data-name="Rectangle 138" class="cls-3" width="63.76" height="21.42" transform="translate(100.44 236.21)"/>
    <path id="Tracé_877" data-name="Tracé 877" class="cls-4" d="M164.2,258.13H100.44a.5.5,0,0,1-.5-.5V236.21a.5.5,0,0,1,.5-.5H164.2a.5.5,0,0,1,.5.5v21.42A.51.51,0,0,1,164.2,258.13Zm-63.26-1H163.7V236.71H100.94Z"/>
    <rect id="Rectangle_139" data-name="Rectangle 139" class="cls-3" width="63.76" height="21.42" transform="translate(167 236.21)"/>
    <path id="Tracé_878" data-name="Tracé 878" class="cls-4" d="M230.76,258.13H167a.51.51,0,0,1-.5-.5V236.21a.5.5,0,0,1,.5-.5h63.76a.5.5,0,0,1,.5.5v21.42A.5.5,0,0,1,230.76,258.13Zm-63.26-1h62.76V236.71H167.5Z"/>
    <rect id="Rectangle_140" data-name="Rectangle 140" class="cls-3" width="63.76" height="21.42" transform="translate(233.57 236.21)"/>
    <path id="Tracé_879" data-name="Tracé 879" class="cls-4" d="M297.33,258.13H233.57a.5.5,0,0,1-.5-.5V236.21a.5.5,0,0,1,.5-.5h63.76a.5.5,0,0,1,.5.5v21.42A.51.51,0,0,1,297.33,258.13Zm-63.26-1h62.76V236.71H234.07Z"/>
    <path id="Tracé_880" data-name="Tracé 880" class="cls-3" d="M284.25,109.34c-.09.29-.18.59-.28.88-.85,2.42-2.55,4.76-2.05,7.27a7.3,7.3,0,0,0,1.67,3.09c3.47,4.29,8.6,7.57,14.34,6.76,2.63-.37,5.2-2.18,5.73-4.78.48-2.34-.72-4.68-2.08-6.64a42.49,42.49,0,0,0-10.25-9.9c-1.18-.83-2.61-1.62-4-1.24a3.88,3.88,0,0,0-2.32,2.27A15,15,0,0,0,284.25,109.34Z"/>
    <path id="Tracé_881" data-name="Tracé 881" class="cls-4" d="M296.21,127.92c-4.65,0-9.3-2.5-13-7a7.89,7.89,0,0,1-1.76-3.3c-.39-1.94.44-3.76,1.23-5.51.3-.65.61-1.33.84-2,.1-.28.18-.57.27-.86l.1-.35a13.866,13.866,0,0,1,.68-2,4.4,4.4,0,0,1,2.62-2.52c1.62-.44,3.19.47,4.38,1.31a43.489,43.489,0,0,1,10.37,10c1.18,1.72,2.7,4.31,2.15,7a6.97,6.97,0,0,1-6.11,5.14,12.068,12.068,0,0,1-1.77.09Zm-8.13-22.78a2.72,2.72,0,0,0-.63.08,3.47,3.47,0,0,0-2,2,12.316,12.316,0,0,0-.63,1.89l-.11.34h0c-.08.31-.18.62-.28.92-.25.69-.56,1.39-.86,2.06-.77,1.69-1.5,3.3-1.17,5a7,7,0,0,0,1.57,2.89c3.95,4.88,9,7.29,13.93,6.6,2.2-.31,4.81-1.83,5.34-4.42.48-2.34-.92-4.71-2-6.29a42.14,42.14,0,0,0-10.14-9.78,5.54,5.54,0,0,0-3.02-1.29Zm-3.83,4.2Z"/>
  </g>
</svg>
