<svg xmlns="http://www.w3.org/2000/svg" width="44.468" height="39.189" viewBox="0 0 44.468 39.189">
  <defs>
    <style>
      .cls-1 {
        fill: #d1d3d4;
      }

      .cls-2 {
        fill: #fff;
      }

      .cls-3 {
        fill: #231f20;
      }

      .cls-4 {
        fill: #a7a9ac;
      }

      .cls-5 {
        fill: #03b898;
      }
    </style>
  </defs>
  <g id="_230_designer_flatline" data-name="#230_designer_flatline" transform="translate(-70.87 -36.192)">
    <path id="Tracé_688" data-name="Tracé 688" class="cls-1" d="M115.252,241.292h-44.3a.086.086,0,1,1,0-.172h44.3a.086.086,0,1,1,0,.172Z" transform="translate(0 -169.643)"/>
    <rect id="Rectangle_101" data-name="Rectangle 101" class="cls-2" width="9.888" height="16.977" transform="translate(101.655 56.549)"/>
    <path id="Tracé_689" data-name="Tracé 689" class="cls-3" d="M259.135,171.069h-9.888a.086.086,0,0,1-.086-.086V154.006a.086.086,0,0,1,.086-.086h9.888a.086.086,0,0,1,.086.086V170.98a.086.086,0,0,1-.086.09Zm-9.8-.172h9.716V154.092h-9.716Z" transform="translate(-147.592 -97.458)"/>
    <rect id="Rectangle_102" data-name="Rectangle 102" class="cls-2" width="9.888" height="16.977" transform="translate(74.412 56.549)"/>
    <path id="Tracé_690" data-name="Tracé 690" class="cls-3" d="M100.915,171.069H91.026a.086.086,0,0,1-.086-.086V154.006a.086.086,0,0,1,.086-.086h9.888a.086.086,0,0,1,.086.086V170.98a.086.086,0,0,1-.086.09Zm-9.8-.172h9.716V154.092H91.112Z" transform="translate(-16.614 -97.458)"/>
    <path id="Tracé_691" data-name="Tracé 691" class="cls-3" d="M244.307,125.83l1.958,3.931H240.97Z" transform="translate(-140.812 -74.204)"/>
    <path id="Tracé_692" data-name="Tracé 692" class="cls-3" d="M245.872,129.437h-5.289a.088.088,0,0,1-.079-.05.084.084,0,0,1,.014-.091l3.337-3.931a.081.081,0,0,1,.076-.029.086.086,0,0,1,.067.046l1.956,3.931a.083.083,0,0,1,0,.083A.084.084,0,0,1,245.872,129.437Zm-5.109-.172h4.969l-1.837-3.688Z" transform="translate(-140.419 -73.794)"/>
    <path id="Tracé_693" data-name="Tracé 693" class="cls-3" d="M173.02,116.441h12.605l4.573-6.7H178.3Z" transform="translate(-84.562 -60.885)"/>
    <path id="Tracé_694" data-name="Tracé 694" class="cls-3" d="M185.2,116.114H172.588a.086.086,0,0,1-.067-.139l5.279-6.7a.084.084,0,0,1,.067-.033h11.9a.09.09,0,0,1,.076.046.084.084,0,0,1,0,.09l-4.573,6.7A.084.084,0,0,1,185.2,116.114Zm-12.428-.172h12.389l4.456-6.529h-11.7Z" transform="translate(-84.133 -60.471)"/>
    <path id="Tracé_695" data-name="Tracé 695" class="cls-2" d="M187.767,113.52,184,118.4h9.355l3.54-4.881Z" transform="translate(-93.651 -64.014)"/>
    <path id="Tracé_696" data-name="Tracé 696" class="cls-3" d="M192.923,118.073h-9.355a.086.086,0,0,1-.077-.048.091.091,0,0,1,0-.091l3.769-4.881a.084.084,0,0,1,.067-.033h9.126a.083.083,0,0,1,.076.046.084.084,0,0,1,0,.09l-3.54,4.881A.084.084,0,0,1,192.923,118.073Zm-9.179-.172h9.126l3.425-4.713h-8.916Z" transform="translate(-93.22 -63.6)"/>
    <path id="Tracé_697" data-name="Tracé 697" class="cls-1" d="M196.786,121.991a.086.086,0,0,1-.081-.059,8.653,8.653,0,0,0-1.312-2.832h0a20.964,20.964,0,0,0-3.59,2.87.087.087,0,0,1-.117-.127c.541-.491,3.228-2.913,3.723-2.913h.019c.441.067,1.221,2.273,1.45,2.948a.084.084,0,0,1-.055.108A.071.071,0,0,1,196.786,121.991Z" transform="translate(-99.99 -68.492)"/>
    <path id="Tracé_698" data-name="Tracé 698" class="cls-1" d="M222.928,125.638a.086.086,0,0,1-.083-.064,6.383,6.383,0,0,0-.938-2.285c-.2-.06-1.147.792-1.915,1.612a.086.086,0,0,1-.126-.119c.393-.418,1.7-1.773,2.09-1.656s.947,2.021,1.054,2.411a.086.086,0,0,1-.059.107Z" transform="translate(-123.322 -71.96)"/>
    <path id="Tracé_699" data-name="Tracé 699" class="cls-4" d="M252.009,126.79c-.212,0-.379-.1-.379-.231s.172-.229.379-.229.379.1.379.229S252.221,126.79,252.009,126.79Zm0-.417c-.182,0-.344.084-.344.186s.153.188.344.188.336-.086.336-.188-.153-.181-.336-.181Z" transform="translate(-149.636 -74.618)"/>
    <path id="Tracé_700" data-name="Tracé 700" class="cls-4" d="M258.8,117.453h-.764a.022.022,0,0,1,0-.043h.764a.022.022,0,0,1,0,.043Z" transform="translate(-154.918 -67.234)"/>
    <path id="Tracé_701" data-name="Tracé 701" class="cls-2" d="M245.814,132.226a.091.091,0,0,1-.052-.016.088.088,0,0,1-.019-.121l2.442-3.351a.086.086,0,0,1,.121-.019.088.088,0,0,1,.019.121l-2.442,3.358A.088.088,0,0,1,245.814,132.226Z" transform="translate(-144.75 -76.583)"/>
    <path id="Tracé_702" data-name="Tracé 702" class="cls-1" d="M219.619,117.1a.379.379,0,1,1,.379-.379A.379.379,0,0,1,219.619,117.1Zm0-.585a.2.2,0,1,0,.147.06A.207.207,0,0,0,219.619,116.512Z" transform="translate(-122.823 -66.348)"/>
    <rect id="Rectangle_103" data-name="Rectangle 103" class="cls-2" width="38.865" height="1.648" transform="translate(73.098 55.703)"/>
    <path id="Tracé_703" data-name="Tracé 703" class="cls-3" d="M122.263,150.83H83.4a.086.086,0,0,1-.086-.086V149.1a.088.088,0,0,1,.086-.086h38.867a.088.088,0,0,1,.086.086v1.648A.086.086,0,0,1,122.263,150.83Zm-38.781-.172H122.17V149.18H83.482Z" transform="translate(-10.298 -93.393)"/>
    <path id="Tracé_704" data-name="Tracé 704" class="cls-2" d="M158.429,189.9c.036.122-2.139,7.929-2.139,7.929l3.039.489,3.592-10.786Z" transform="translate(-70.712 -125.28)"/>
    <path id="Tracé_705" data-name="Tracé 705" class="cls-3" d="M158.912,198H158.9l-3.039-.489a.088.088,0,0,1-.06-.038.1.1,0,0,1-.01-.071c.849-3.041,2.113-7.64,2.137-7.9a.086.086,0,0,1,.046-.083l4.492-2.368a.09.09,0,0,1,.1.01.091.091,0,0,1,.026.093l-3.593,10.786A.084.084,0,0,1,158.912,198Zm-2.927-.646,2.872.463,3.5-10.512-4.27,2.249c-.095.494-.8,3.113-2.108,7.8Z" transform="translate(-70.295 -124.879)"/>
    <path id="Tracé_706" data-name="Tracé 706" class="cls-3" d="M152.993,245.122l-.463,1.457,7.278.563a3.025,3.025,0,0,0-1.653-1.489c-.756-.265-1.57-.582-1.57-.582l-.368.878Z" transform="translate(-67.6 -172.913)"/>
    <path id="Tracé_707" data-name="Tracé 707" class="cls-3" d="M159.425,246.816h0l-7.278-.563a.086.086,0,0,1-.076-.112l.463-1.457a.086.086,0,0,1,.1-.057l3.151.808.344-.809a.084.084,0,0,1,.11-.046c.009,0,.821.319,1.569.58a3.1,3.1,0,0,1,1.7,1.536.086.086,0,0,1,0,.084.083.083,0,0,1-.09.036Zm-7.165-.727,7.016.544a2.953,2.953,0,0,0-1.532-1.312c-.615-.215-1.274-.467-1.5-.551l-.336.8a.088.088,0,0,1-.1.052l-3.144-.8Z" transform="translate(-67.216 -172.502)"/>
    <path id="Tracé_708" data-name="Tracé 708" class="cls-3" d="M108.754,201.88l-.517,8.223a6.965,6.965,0,0,0-2.183.367c-.437.307-.794,1.694-.794,1.694h.544s.317-1.033.665-1.157a18.268,18.268,0,0,1,2.324-.172s.954.368,1.107,1a1.6,1.6,0,0,1,.086.613h.6a3.075,3.075,0,0,0-.121-.837,2.5,2.5,0,0,0-.573-.756s1,.021,1.329.021.678.634.678.634h.649s-.678-1.143-1.117-1.224-1.565-.277-1.565-.277l-.306-7.662Z" transform="translate(-28.469 -137.16)"/>
    <path id="Tracé_709" data-name="Tracé 709" class="cls-3" d="M110.22,212.156h-.6a.093.093,0,0,1-.071-.034.09.09,0,0,1-.012-.077,1.823,1.823,0,0,0-.088-.566c-.129-.539-.919-.885-1.033-.933a14.668,14.668,0,0,0-2.28.172c-.224.083-.494.72-.611,1.1a.088.088,0,0,1-.083.062h-.549a.088.088,0,0,1-.083-.108c.014-.057.368-1.422.826-1.742a6.318,6.318,0,0,1,2.152-.379l.506-8.148a.09.09,0,0,1,.045-.071.088.088,0,0,1,.083,0l.816.47a.084.084,0,0,1,.043.071l.3,7.593c.251.043,1.126.195,1.5.265.461.086,1.1,1.143,1.174,1.264a.086.086,0,0,1,0,.086.088.088,0,0,1-.076.045h-.649a.088.088,0,0,1-.076-.045c-.124-.227-.4-.589-.6-.589-.234,0-.8-.01-1.116-.016a1.989,1.989,0,0,1,.441.635,3.067,3.067,0,0,1,.126.861A.086.086,0,0,1,110.22,212.156Zm-.517-.172h.425a2.769,2.769,0,0,0-.114-.723,2.389,2.389,0,0,0-.551-.72.088.088,0,0,1-.022-.095.093.093,0,0,1,.083-.055c.01,0,1,.021,1.328.021s.635.473.728.634h.444c-.231-.363-.689-1-.978-1.054-.432-.081-1.55-.274-1.563-.275a.086.086,0,0,1-.072-.083l-.3-7.614-.654-.377-.5,8.093a.086.086,0,0,1-.083.081,6.7,6.7,0,0,0-2.137.344A3.7,3.7,0,0,0,105,211.7h.368c.079-.243.362-1.033.689-1.152a18.368,18.368,0,0,1,2.354-.172h.033c.041.015,1,.391,1.161,1.059a2.863,2.863,0,0,1,.1.551Zm-1.839-2.261Z" transform="translate(-28.092 -136.779)"/>
    <path id="Tracé_710" data-name="Tracé 710" class="cls-2" d="M169.512,171.42s6.877.367,7.311,1.346-2.755,11.753-2.755,11.753,3.366,1.164,2.815,1.408-6.061-.245-6.061-.245l2.612-9.987-6.8-.458Z" transform="translate(-79.272 -111.944)"/>
    <path id="Tracé_711" data-name="Tracé 711" class="cls-3" d="M175.615,185.666c-1.615,0-4.754-.274-5.2-.313a.085.085,0,0,1-.076-.108l2.583-9.878-6.7-.451a.093.093,0,0,1-.072-.05.084.084,0,0,1,.01-.088l2.884-3.826a.074.074,0,0,1,.072-.034c.017,0,1.743.093,3.5.306,3.6.434,3.816.928,3.888,1.092.425.962-2.411,10.675-2.724,11.734.914.319,2.843,1.033,2.857,1.386a.16.16,0,0,1-.112.155A3.173,3.173,0,0,1,175.615,185.666Zm-5.081-.477a40.547,40.547,0,0,0,5.918.243h0a11.23,11.23,0,0,0-2.813-1.245.086.086,0,0,1-.053-.107c.882-2.987,3.1-10.915,2.755-11.695s-5.258-1.188-7.19-1.293l-2.755,3.662,6.646.449a.088.088,0,0,1,.065.034.1.1,0,0,1,.014.072ZM176.468,185.423Z" transform="translate(-78.87 -111.528)"/>
    <path id="Tracé_712" data-name="Tracé 712" class="cls-2" d="M169.82,112.2s3.533,4.408,5.043,4.286,5.835-5.556,5.835-5.556c.782-.933,1.656-2.118,1.1-3.4-.055-.124-.152-.257-.286-.246a.365.365,0,0,0-.157.064l-.482.3c.016-.133-.153-.227-.282-.191a.582.582,0,0,0-.3.258,3.588,3.588,0,0,0-.8,2.269l-5.055,2.583-2.006-2.219" transform="translate(-81.913 -58.845)"/>
    <path id="Tracé_713" data-name="Tracé 713" class="cls-3" d="M174.411,116.131c-1.569,0-4.907-4.132-5.05-4.32a.086.086,0,0,1,.134-.107c.034.043,3.43,4.256,4.911,4.256h.059c1.457-.117,5.729-5.47,5.77-5.525.808-.961,1.622-2.087,1.086-3.315-.021-.048-.093-.2-.2-.195a.284.284,0,0,0-.119.052l-.486.294a.086.086,0,0,1-.131-.083.069.069,0,0,0-.031-.064.172.172,0,0,0-.141-.034.517.517,0,0,0-.25.226,3.532,3.532,0,0,0-.782,2.218.086.086,0,0,1-.046.079L174.08,112.2a.086.086,0,0,1-.1-.019l-2-2.223a.086.086,0,0,1,0-.122.088.088,0,0,1,.122,0L174.054,112l4.95-2.522a3.7,3.7,0,0,1,.813-2.268.671.671,0,0,1,.344-.293.344.344,0,0,1,.3.071.284.284,0,0,1,.059.071l.386-.236a.439.439,0,0,1,.2-.076c.15-.012.282.1.368.3.623,1.429-.5,2.772-1.109,3.494-.172.22-4.36,5.463-5.89,5.587Z" transform="translate(-81.52 -58.405)"/>
    <path id="Tracé_714" data-name="Tracé 714" class="cls-2" d="M96.423,127.773s-1.82,4.124-1.145,4.565,4.783,0,4.783,0L99.705,127" transform="translate(-20.081 -75.173)"/>
    <path id="Tracé_715" data-name="Tracé 715" class="cls-3" d="M96.424,132.191a3.9,3.9,0,0,1-1.612-.207c-.117-.076-.475-.308.288-2.541.367-1.076.823-2.113.828-2.123a.086.086,0,1,1,.157.069c-.689,1.569-1.622,4.163-1.178,4.451.517.344,3.444.117,4.649,0l-.344-5.253a.086.086,0,0,1,.172-.012l.356,5.338a.086.086,0,0,1-.077.091C99.542,132.01,97.807,132.191,96.424,132.191Z" transform="translate(-19.665 -74.754)"/>
    <path id="Tracé_716" data-name="Tracé 716" class="cls-2" d="M109.439,160.052s-.89,1.977.059,3.223,14.119,1.4,14.119,1.4l.945-4.733-5.51-.751-.32-1.637Z" transform="translate(-31.614 -100.463)"/>
    <path id="Tracé_717" data-name="Tracé 717" class="cls-3" d="M123.165,164.318h0c-.033,0-3.333-.04-6.715-.231-4.554-.258-7.072-.663-7.481-1.205-.968-1.271-.107-3.227-.069-3.309a.084.084,0,0,1,.057-.048l9.3-2.5a.081.081,0,0,1,.069.01.084.084,0,0,1,.038.055l.308,1.579,5.443.74a.083.083,0,0,1,.059.036.081.081,0,0,1,.014.065l-.935,4.738A.086.086,0,0,1,123.165,164.318Zm-14.119-4.633c-.112.274-.771,2,.065,3.1.727.954,9.422,1.309,13.983,1.364l.914-4.575-5.413-.737a.086.086,0,0,1-.072-.069l-.3-1.55Z" transform="translate(-31.16 -100.023)"/>
    <path id="Tracé_718" data-name="Tracé 718" class="cls-2" d="M138.3,43.419a1.185,1.185,0,0,1-.344-.313,1.817,1.817,0,0,1-.275-.611c-.467-1.687-.47-3.848,1.033-5a3.492,3.492,0,0,1,3.158-.56c.73.238,1.35,1.241,1.675,1.894.267.529.448,1.1.764,1.6a1.9,1.9,0,0,0,1.414.966,1.784,1.784,0,0,1-1.55.093,1.011,1.011,0,0,0,1.024.384,1.536,1.536,0,0,1-1.271.172,3.931,3.931,0,0,0-1.307-.172,3.86,3.86,0,0,0-1.675.95C140.26,43.27,139.079,43.872,138.3,43.419Z" transform="translate(-55.076 -0.482)"/>
    <path id="Tracé_719" data-name="Tracé 719" class="cls-3" d="M138.561,43.185a1.348,1.348,0,0,1-.689-.172h0a1.235,1.235,0,0,1-.374-.344,1.918,1.918,0,0,1-.289-.647c-.227-.826-.826-3.64,1.059-5.093a3.569,3.569,0,0,1,3.239-.573c.782.253,1.417,1.317,1.722,1.928.1.207.2.422.284.63a6.81,6.81,0,0,0,.475.968,1.861,1.861,0,0,0,1.345.925.084.084,0,0,1,.079.065.083.083,0,0,1-.041.095,1.873,1.873,0,0,1-1.257.2.913.913,0,0,0,.675.114.086.086,0,0,1,.074.152,1.62,1.62,0,0,1-1.341.2c-.1-.019-.207-.043-.31-.067a2.914,2.914,0,0,0-.969-.11,2.543,2.543,0,0,0-1.233.635c-.131.1-.265.2-.4.3A4.074,4.074,0,0,1,138.561,43.185Zm1.885-6.817a3.414,3.414,0,0,0-2.077.7c-1.8,1.39-1.219,4.11-1,4.912a1.741,1.741,0,0,0,.263.589,1.073,1.073,0,0,0,.322.291h0c.83.482,2.164-.344,2.553-.608.134-.091.267-.195.394-.294a2.651,2.651,0,0,1,1.321-.67,3.035,3.035,0,0,1,1.033.114c.1.022.2.046.3.065a1.92,1.92,0,0,0,.871,0,1.105,1.105,0,0,1-.711-.43.086.086,0,0,1,0-.1.083.083,0,0,1,.1-.026,1.71,1.71,0,0,0,1.216.026,2.1,2.1,0,0,1-1.19-.959,6.794,6.794,0,0,1-.489-.992c-.088-.2-.172-.418-.281-.62-.238-.474-.873-1.6-1.624-1.842A3.272,3.272,0,0,0,140.446,36.369Z" transform="translate(-54.691 0)"/>
    <path id="Tracé_720" data-name="Tracé 720" class="cls-2" d="M167.134,68.25s.47,1.47.224,1.679-.758-.119-.758-.119" transform="translate(-79.247 -26.538)"/>
    <path id="Tracé_721" data-name="Tracé 721" class="cls-3" d="M166.742,69.676a1.283,1.283,0,0,1-.591-.2.086.086,0,1,1,.093-.145c.121.076.5.263.654.126a3.294,3.294,0,0,0-.255-1.586.088.088,0,0,1,.057-.108.086.086,0,0,1,.108.055c.114.358.467,1.55.2,1.77A.393.393,0,0,1,166.742,69.676Z" transform="translate(-78.839 -26.129)"/>
    <path id="Tracé_722" data-name="Tracé 722" class="cls-2" d="M143.065,53.882c.4.572,0,1.429-.172,2.013q-.356,1.233-.77,2.447c-.172.517-1.529.143-1.722-.079l-.368,2.12L137.18,59.4l.918-2.571a1.79,1.79,0,0,0,1.744-.649,9.952,9.952,0,0,0,1.4-3.246A4.319,4.319,0,0,1,143.065,53.882Z" transform="translate(-54.893 -13.856)"/>
    <path id="Tracé_723" data-name="Tracé 723" class="cls-3" d="M139.614,60.081h-.028l-2.855-.983a.083.083,0,0,1-.05-.043.1.1,0,0,1,0-.067l.911-2.579a.084.084,0,0,1,.1-.053,1.7,1.7,0,0,0,1.658-.625,10.07,10.07,0,0,0,1.377-3.208.083.083,0,0,1,.04-.053.086.086,0,0,1,.065,0,4.342,4.342,0,0,1,1.872.985h0a2.031,2.031,0,0,1-.06,1.773c-.036.11-.071.215-.1.313-.238.818-.5,1.643-.771,2.45a.475.475,0,0,1-.4.288,2.35,2.35,0,0,1-1.345-.251l-.344,1.984a.081.081,0,0,1-.041.059A.077.077,0,0,1,139.614,60.081Zm-2.743-1.126,2.676.926.344-2.021a.086.086,0,0,1,.15-.041,2.064,2.064,0,0,0,1.307.291c.148-.029.238-.091.269-.184.274-.8.534-1.625.77-2.442.029-.1.065-.207.1-.32.172-.525.393-1.179.083-1.62a3.982,3.982,0,0,0-1.691-.892,9.454,9.454,0,0,1-1.4,3.194,1.89,1.89,0,0,1-1.753.689Z" transform="translate(-54.476 -13.469)"/>
    <path id="Tracé_724" data-name="Tracé 724" class="cls-2" d="M162.442,78.152a.7.7,0,0,1-.9-.542" transform="translate(-75.058 -34.287)"/>
    <path id="Tracé_725" data-name="Tracé 725" class="cls-3" d="M161.758,77.844a.806.806,0,0,1-.422-.107.771.771,0,0,1-.344-.532.088.088,0,1,1,.172-.034.606.606,0,0,0,.258.418.77.77,0,0,0,.535.059.089.089,0,1,1,.046.172A1.015,1.015,0,0,1,161.758,77.844Z" transform="translate(-74.603 -33.865)"/>
    <path id="Tracé_726" data-name="Tracé 726" class="cls-2" d="M153.075,62.258a1.169,1.169,0,0,0-.071-.63,1.736,1.736,0,0,0-.193-.458.572.572,0,0,0-.406-.26.517.517,0,0,0-.394.172.958.958,0,0,0-.217.379,1.834,1.834,0,0,0,.374,1.789l-.033-.062" transform="translate(-66.915 -20.462)"/>
    <path id="Tracé_727" data-name="Tracé 727" class="cls-3" d="M151.75,62.921a.09.09,0,0,1-.064-.028,1.934,1.934,0,0,1-.393-1.882,1.033,1.033,0,0,1,.238-.412.611.611,0,0,1,.463-.191.637.637,0,0,1,.47.3,1.787,1.787,0,0,1,.2.48,1.248,1.248,0,0,1,.072.677.088.088,0,0,1-.107.062.086.086,0,0,1-.06-.105,1.114,1.114,0,0,0-.071-.582,1.565,1.565,0,0,0-.183-.434.473.473,0,0,0-.344-.224.434.434,0,0,0-.327.139.873.873,0,0,0-.2.344,1.758,1.758,0,0,0,.281,1.622.093.093,0,0,1,.057.045l.031.062a.084.084,0,0,1-.028.11.081.081,0,0,1-.043.017Z" transform="translate(-66.497 -20.047)"/>
    <ellipse id="Ellipse_40" data-name="Ellipse 40" class="cls-3" cx="0.305" cy="0.121" rx="0.305" ry="0.121" transform="translate(87.639 41.273) rotate(-77.39)"/>
    <path id="Tracé_728" data-name="Tracé 728" class="cls-3" d="M150.67,80.067a10.525,10.525,0,0,1-1.073-.8s-.172,1.491.849,1.834Z" transform="translate(-65.163 -35.661)"/>
    <path id="Tracé_729" data-name="Tracé 729" class="cls-3" d="M150.028,80.8a.078.078,0,0,1-.028,0c-1.071-.36-.914-1.861-.907-1.925a.088.088,0,0,1,.053-.071.09.09,0,0,1,.088.014,10.67,10.67,0,0,0,1.064.792.088.088,0,0,1,.038.09l-.224,1.033a.088.088,0,0,1-.041.057A.1.1,0,0,1,150.028,80.8Zm-.771-1.744c0,.368.048,1.248.709,1.541l.189-.88A10.683,10.683,0,0,1,149.257,79.053Z" transform="translate(-64.745 -35.269)"/>
    <path id="Tracé_730" data-name="Tracé 730" class="cls-5" d="M108.16,102.391s.155-10.538,1.736-12.964,5.682-2.974,7.638-1.527,1.014,12.5,1.014,12.5S112.311,102.391,108.16,102.391Z" transform="translate(-30.869 -42.149)"/>
    <path id="Tracé_731" data-name="Tracé 731" class="cls-5" d="M154.413,88.11a11.419,11.419,0,0,1,2.886,1.7c1.353,1.124,4.21,5.959,4.21,5.959l-3.767,2.281-3.382-4.17Z" transform="translate(-69.114 -42.979)"/>
    <path id="Tracé_732" data-name="Tracé 732" class="cls-5" d="M103.536,91.92a4.138,4.138,0,0,0-3.015,2.386c-.565,1.174-2.011,4.966-2.011,4.966l4.349.5Z" transform="translate(-22.881 -46.133)"/>
    <path id="Tracé_733" data-name="Tracé 733" class="cls-3" d="M155.8,121.5a.084.084,0,0,1-.069-.036l-3.359-4.575a.086.086,0,0,1,.017-.121.088.088,0,0,1,.121.019l3.359,4.575a.086.086,0,0,1-.069.138Z" transform="translate(-67.451 -66.694)"/>
    <path id="Tracé_734" data-name="Tracé 734" class="cls-3" d="M230.6,101.759l.84-2.609.262.076-.529,2.572S230.8,102.156,230.6,101.759Z" transform="translate(-132.227 -52.118)"/>
    <path id="Tracé_735" data-name="Tracé 735" class="cls-3" d="M230.455,101.621H230.4a.386.386,0,0,1-.277-.231.086.086,0,0,1,0-.065l.835-2.612a.09.09,0,0,1,.107-.057l.262.076a.086.086,0,0,1,.06.1l-.529,2.583a.082.082,0,0,1-.024.043A.608.608,0,0,1,230.455,101.621Zm-.172-.284a.2.2,0,0,0,.136.11.379.379,0,0,0,.265-.105l.508-2.467-.105-.029Z" transform="translate(-131.824 -51.707)"/>
    <path id="Tracé_736" data-name="Tracé 736" class="cls-5" d="M110.614,79.286a5.52,5.52,0,0,0-4.523.861,3.2,3.2,0,0,0-1.142,1.55,2.028,2.028,0,0,0,.32,1.856c1.188,1.427,3.8,1.421,5.41.954,1.1-.317,4.358-1.863,3.461-3.382C113.495,80.038,111.776,79.535,110.614,79.286Z" transform="translate(-28.13 -35.551)"/>
    <path id="Tracé_737" data-name="Tracé 737" class="cls-3" d="M112.646,94.305a6.1,6.1,0,0,1-2.915-.839.084.084,0,0,1-.028-.119.086.086,0,0,1,.119-.026,4.435,4.435,0,0,0,6.273-1.073,3.351,3.351,0,0,1,2.2-1.431.086.086,0,0,1,.093.079.084.084,0,0,1-.077.093,3.189,3.189,0,0,0-2.083,1.377,5.5,5.5,0,0,1-2.175,1.693A3.96,3.96,0,0,1,112.646,94.305Z" transform="translate(-32.136 -45.221)"/>
    <path id="Tracé_738" data-name="Tracé 738" class="cls-3" d="M108.662,121.066h0a.086.086,0,0,1-.083-.09c.126-2.726.689-6.648.689-6.688a.088.088,0,0,1,.1-.072.086.086,0,0,1,.072.1c0,.04-.57,3.96-.689,6.67A.086.086,0,0,1,108.662,121.066Z" transform="translate(-31.217 -64.589)"/>
    <path id="Tracé_739" data-name="Tracé 739" class="cls-3" d="M184.508,248.339h3.659a1.825,1.825,0,0,1,1.255-1.009s3.337,1.41,2.846,1.7-8.019.258-8.019.258Z" transform="translate(-93.858 -174.784)"/>
    <path id="Tracé_740" data-name="Tracé 740" class="cls-3" d="M184.6,248.954h-.77a.084.084,0,0,1-.067-.033.086.086,0,0,1-.015-.076L184,247.9a.086.086,0,0,1,.084-.064h3.606a1.866,1.866,0,0,1,1.3-1.009.079.079,0,0,1,.045,0c.689.289,2.927,1.267,2.949,1.694a.172.172,0,0,1-.091.158C191.475,248.929,186.594,248.954,184.6,248.954Zm-.656-.172a65.617,65.617,0,0,0,7.864-.248A9.328,9.328,0,0,0,188.99,247a1.761,1.761,0,0,0-1.164.957.086.086,0,0,1-.079.05h-3.593Z" transform="translate(-93.438 -174.363)"/>
    <path id="Tracé_741" data-name="Tracé 741" class="cls-3" d="M90.651,137.452c2.33-.491,3.891-1.581,2.975-3.051s-7.5-.517-8.781-1.606-.826-6.87-2.238-7.86-7.464-1.99-8.141-.74,0,10.346,1.971,12.366S88.378,137.92,90.651,137.452Z" transform="translate(-2.766 -72.367)"/>
    <path id="Tracé_742" data-name="Tracé 742" class="cls-3" d="M83.361,137.572h-.389c-2.617-.022-5.966-.286-7.06-1.4-1.949-2.011-2.71-11.111-1.978-12.469a1.276,1.276,0,0,1,.861-.517,13.874,13.874,0,0,1,7.4,1.205c.759.532,1,2.345,1.224,4.1.208,1.6.424,3.256,1.024,3.767.572.486,2.328.556,4.027.625,2.092.084,4.256.172,4.775,1a1.436,1.436,0,0,1,.172,1.377c-.344.8-1.477,1.434-3.2,1.8h0A40.386,40.386,0,0,1,83.361,137.572ZM76.1,123.241a5.788,5.788,0,0,0-1.274.119,1.085,1.085,0,0,0-.744.424c-.668,1.235.06,10.315,1.958,12.265,1.93,1.982,11.848,1.334,14.133.861h0c1.648-.344,2.77-.964,3.082-1.7a1.281,1.281,0,0,0-.16-1.222c-.47-.754-2.583-.839-4.635-.921-1.808-.072-3.516-.141-4.132-.666-.651-.554-.861-2.168-1.083-3.876s-.455-3.492-1.154-3.979C81.164,123.89,78.168,123.241,76.1,123.241ZM90.2,137Z" transform="translate(-2.31 -71.91)"/>
    <path id="Tracé_743" data-name="Tracé 743" class="cls-1" d="M167.7,170.867h-.014l-5.551-.971a.087.087,0,1,1,.029-.172l5.551.971a.086.086,0,1,1-.015.172Z" transform="translate(-75.487 -110.539)"/>
    <path id="Tracé_744" data-name="Tracé 744" class="cls-3" d="M281.235,206.553l-.172-.019c0-.05.542-5.035-1.183-7.249l.136-.105a8.153,8.153,0,0,1,1.281,4.554A19.4,19.4,0,0,1,281.235,206.553Z" transform="translate(-173.022 -134.925)"/>
    <path id="Tracé_745" data-name="Tracé 745" class="cls-3" d="M279.846,223.149a.591.591,0,0,1,.017-.172c.411-2.609-.286-3.824-.944-4.385l.112-.131c.689.589,1.426,1.856,1,4.544-.01.065-.017.108-.017.126Z" transform="translate(-172.227 -150.885)"/>
    <path id="Tracé_746" data-name="Tracé 746" class="cls-3" d="M267.326,212.093a.985.985,0,0,0-.458-.134,1.056,1.056,0,0,0-.811.222c-.057.055-.107.148-.055.208a.2.2,0,0,0,.11.052.689.689,0,0,1,.474.474c-.119-.088-.22-.2-.344-.288a.58.58,0,0,0-.411-.134.689.689,0,0,0-.4.269,1.6,1.6,0,0,0-.274.4.739.739,0,0,0-.062.477,1.149,1.149,0,0,1,.484-.033.572.572,0,0,1,.313.129.157.157,0,0,1,.055.083.138.138,0,0,1-.108.146.438.438,0,0,1-.2,0,3.509,3.509,0,0,0-.425-.06.419.419,0,0,0-.16.01.344.344,0,0,0-.172.355.21.21,0,0,0,.06.157c.071.055.172.015.255-.019a1.25,1.25,0,0,1,.455-.1.105.105,0,0,1,.052.009.076.076,0,0,1,.014.112.2.2,0,0,1-.11.064,2.393,2.393,0,0,1-.362.084c-.071.01-.153.026-.188.09a.194.194,0,0,0-.019.09,1.1,1.1,0,0,0,.193.656.315.315,0,0,0,.083.09.357.357,0,0,0,.153.041,2.51,2.51,0,0,0,1.205-.172.107.107,0,0,0,.05-.036c.022-.04-.015-.086-.045-.121a.71.71,0,0,1-.062-.58.172.172,0,0,1,.045-.1.115.115,0,0,1,.155.024.291.291,0,0,1,.057.162,1.511,1.511,0,0,1-.048.608,3.077,3.077,0,0,0,.577-.2,1.783,1.783,0,0,0,.42-.232.689.689,0,0,0,.257-.4.127.127,0,0,0-.009-.088.143.143,0,0,0-.052-.045,1.088,1.088,0,0,1-.406-.479c-.017-.041-.026-.1.012-.119a.082.082,0,0,1,.05,0c.217.036.327.279.506.408a.091.091,0,0,0,.05.021.079.079,0,0,0,.059-.026.463.463,0,0,0,.139-.251.907.907,0,0,0-.031-.573.649.649,0,0,0-.42-.377.742.742,0,0,0-.269-.012c-.031,0-.2.059-.219.038s.065-.145.086-.186A.63.63,0,0,0,267.326,212.093Z" transform="translate(-160.601 -145.494)"/>
    <path id="Tracé_747" data-name="Tracé 747" class="cls-3" d="M290.293,199.736a.83.83,0,0,0-.689.356.95.95,0,0,0-.121.6,2.758,2.758,0,0,0,.148.6.842.842,0,0,1,.658-.429c.281-.024-.047.246-.095.3-.158.186-.31.377-.46.57a.27.27,0,0,0-.026.367,1.76,1.76,0,0,0,.517.659.214.214,0,0,0,.224.036.25.25,0,0,0,.076-.11,1.964,1.964,0,0,1,.319-.475c.031-.036.081-.072.121-.046s.033.065.029.1l-.036.384a.91.91,0,0,0,.024.415.78.78,0,0,0,.623.415.408.408,0,0,0,.214,0c.138-.048.195-.212.219-.356a1.058,1.058,0,0,1,.226-.517,1.927,1.927,0,0,0,.236.711.963.963,0,0,0,.253.3.909.909,0,0,0,.374.155,2.807,2.807,0,0,0,.689.038,1.722,1.722,0,0,0,.472-.06.639.639,0,0,0,.372-.281.726.726,0,0,0-.145-.777c-.176-.217-.413-.379-.6-.591a1.667,1.667,0,0,1,.622.324.231.231,0,0,0,.172.079.153.153,0,0,0,.079-.045c.272-.272-.041-.732-.186-.976a.794.794,0,0,0-.386-.4.63.63,0,0,0-.31,0c-.155.026-.923.375-.6-.084a.9.9,0,0,1,.713-.312c.133.012.334.119.331-.129a.465.465,0,0,0-.1-.243,5.325,5.325,0,0,0-.344-.46.226.226,0,0,0-.129-.091.221.221,0,0,0-.129.036,2.937,2.937,0,0,1-1.023.382c-.083,0-.2-.026-.184-.107a.12.12,0,0,1,.053-.071c.219-.172.546-.1.77-.257a.269.269,0,0,0,.122-.193.385.385,0,0,0-.188-.277,1.632,1.632,0,0,0-.821-.381,1.5,1.5,0,0,0-1.166.6c-.1.115-.172.415-.329.4a2.615,2.615,0,0,1-.289-.122A.986.986,0,0,0,290.293,199.736Z" transform="translate(-180.966 -134.695)"/>
    <path id="Tracé_748" data-name="Tracé 748" class="cls-3" d="M261.617,186.756a.751.751,0,0,0-.226-.458,1.06,1.06,0,0,0-.885-.172,4.528,4.528,0,0,0-.678.2c-.222.064-.288.114-.09.294.139.126.517.575.344.79s-.461-.334-.573-.425a.82.82,0,0,0-.544-.232.849.849,0,0,0-.468.248,4.933,4.933,0,0,0-.382.377.191.191,0,0,0-.045.067c-.028.1.108.158.21.172.291.053.616.2.675.494-.3.074-.582-.229-.888-.2a.7.7,0,0,0-.491.436,1.106,1.106,0,0,0-.074.615,1.642,1.642,0,0,1,.806-.069.14.14,0,0,1,.09.04.1.1,0,0,1-.04.134.265.265,0,0,1-.152.026h-.5a.217.217,0,0,0-.139.033.2.2,0,0,0-.055.129,2.7,2.7,0,0,0-.009.689.585.585,0,0,0,.157.382.6.6,0,0,0,.265.114,3.5,3.5,0,0,0,.77.1.606.606,0,0,1-.077-.556c.1-.241.279-.1.288.117,0,.1-.019.2-.022.308a.108.108,0,0,0,.01.057.1.1,0,0,0,.04.031.632.632,0,0,0,.448.059.287.287,0,0,0,.119-.053.374.374,0,0,0,.072-.344l-.071-.622a.1.1,0,0,1,.017-.084c.031-.031.086,0,.119.024a.558.558,0,0,1,.186.453c0,.1-.041.193-.048.289a.281.281,0,0,0,.1.26.344.344,0,0,0,.265.014.517.517,0,0,0,.3-.157.465.465,0,0,0,.057-.365,2.306,2.306,0,0,1-.072-.374c0-.255.262-.62.3-.172a3.123,3.123,0,0,1-.026.437.127.127,0,0,0,0,.057.117.117,0,0,0,.1.047,1.089,1.089,0,0,0,.587-.114.916.916,0,0,0,.32-.258,1.513,1.513,0,0,0,.16-.288c.208-.443.541-.789.153-1.262-.133-.162-.379-.2-.5-.37-.146-.2.079-.508.088-.754A1.057,1.057,0,0,0,261.617,186.756Z" transform="translate(-154.484 -124.098)"/>
    <path id="Tracé_749" data-name="Tracé 749" class="cls-2" d="M274.27,239h4.391l-.344,3.3a.981.981,0,0,1-.978.882h-1.755a.981.981,0,0,1-.976-.881Z" transform="translate(-168.378 -167.888)"/>
    <path id="Tracé_750" data-name="Tracé 750" class="cls-3" d="M276.881,242.854h-1.761a1.069,1.069,0,0,1-1.066-.963l-.344-3.3a.093.093,0,0,1,.022-.067.09.09,0,0,1,.067-.029h4.391a.084.084,0,0,1,.065.029.081.081,0,0,1,.022.067l-.344,3.3A1.067,1.067,0,0,1,276.881,242.854Zm-2.977-4.177.327,3.2a.892.892,0,0,0,.889.8h1.761a.892.892,0,0,0,.889-.8l.329-3.2Z" transform="translate(-167.913 -167.474)"/>
    <path id="Tracé_751" data-name="Tracé 751" class="cls-3" d="M290.4,211.817a10.219,10.219,0,0,1,1.205-5.727l.148.09a9.982,9.982,0,0,0-1.176,5.617Z" transform="translate(-181.706 -140.645)"/>
    <path id="Tracé_752" data-name="Tracé 752" class="cls-2" d="M267,196.417a.088.088,0,0,1-.059-.024.086.086,0,0,1,0-.122,7.76,7.76,0,0,1,2.374-1.55.086.086,0,0,1,.064.16,7.528,7.528,0,0,0-2.314,1.507A.086.086,0,0,1,267,196.417Z" transform="translate(-162.287 -131.228)"/>
    <path id="Tracé_753" data-name="Tracé 753" class="cls-2" d="M270.509,221.324a.086.086,0,0,1-.076-.126,7.162,7.162,0,0,1,1.229-1.67.084.084,0,0,1,.121,0,.086.086,0,0,1,0,.121,7.033,7.033,0,0,0-1.195,1.627A.088.088,0,0,1,270.509,221.324Z" transform="translate(-165.194 -151.748)"/>
    <path id="Tracé_754" data-name="Tracé 754" class="cls-2" d="M302.306,210.4a.09.09,0,0,1-.072-.038,11.2,11.2,0,0,0-2.209-2.428.086.086,0,0,1-.017-.121.088.088,0,0,1,.121-.017,11.513,11.513,0,0,1,2.249,2.469.086.086,0,0,1-.024.119A.079.079,0,0,1,302.306,210.4Z" transform="translate(-189.669 -142.047)"/>
    <rect id="Rectangle_104" data-name="Rectangle 104" class="cls-2" width="10.453" height="7.338" transform="translate(101.727 38.449)"/>
    <path id="Tracé_755" data-name="Tracé 755" class="cls-1" d="M260.118,56.311H249.666a.086.086,0,0,1-.086-.086V48.886a.086.086,0,0,1,.086-.086h10.452a.086.086,0,0,1,.086.086v7.338A.086.086,0,0,1,260.118,56.311Zm-10.365-.172h10.279V48.972H249.752Z" transform="translate(-147.939 -10.437)"/>
    <path id="Tracé_756" data-name="Tracé 756" class="cls-3" d="M282.669,117.842a.088.088,0,0,1-.086-.072l-.424-2.748-.74.327a.086.086,0,0,1-.114-.045.084.084,0,0,1,.045-.112l.845-.365a.084.084,0,0,1,.076,0,.088.088,0,0,1,.045.062l.441,2.85a.084.084,0,0,1-.072.1Z" transform="translate(-174.196 -65.088)"/>
    <path id="Tracé_757" data-name="Tracé 757" class="cls-2" d="M286.813,127.2h-2.156l-.117-4.64h2.39Z" transform="translate(-176.88 -71.497)"/>
    <path id="Tracé_758" data-name="Tracé 758" class="cls-3" d="M286.366,126.871H284.21a.086.086,0,0,1-.086-.083L284,122.15a.088.088,0,0,1,.024-.062.089.089,0,0,1,.062-.028h2.39a.091.091,0,0,1,.086.09l-.117,4.649A.086.086,0,0,1,286.366,126.871ZM284.3,126.7h1.987l.112-4.468h-2.218Z" transform="translate(-176.433 -71.083)"/>
    <rect id="Rectangle_105" data-name="Rectangle 105" class="cls-2" width="2.827" height="0.47" transform="translate(107.442 50.593)"/>
    <path id="Tracé_759" data-name="Tracé 759" class="cls-3" d="M285.683,119.972h-2.827a.086.086,0,0,1-.086-.086v-.47a.086.086,0,0,1,.086-.086h2.827a.086.086,0,0,1,.086.086v.47A.086.086,0,0,1,285.683,119.972Zm-2.741-.172H285.6v-.3h-2.655Z" transform="translate(-175.414 -68.823)"/>
    <path id="Tracé_760" data-name="Tracé 760" class="cls-1" d="M286.361,130.494a1.033,1.033,0,1,1,.945-1.033A.992.992,0,0,1,286.361,130.494Zm0-1.885a.861.861,0,1,0,.773.861A.82.82,0,0,0,286.361,128.609Z" transform="translate(-177.459 -76.358)"/>
    <path id="Tracé_761" data-name="Tracé 761" class="cls-1" d="M257.775,59.959a1.923,1.923,0,0,1-.62-.107,4.184,4.184,0,0,1-.752-.32h0c-.059-.033-.115-.071-.172-.108a1.253,1.253,0,0,1-.553-.828.551.551,0,0,1,.059-.362.828.828,0,0,1,.379-.288.984.984,0,0,0,.275-.172c.172-.184.105-.453.036-.737-.019-.072-.036-.143-.05-.212a1.489,1.489,0,0,1,.327-1.253,1.517,1.517,0,0,1,1.279-.5,1.792,1.792,0,0,1,1.446.882,1.5,1.5,0,0,1-.071,1.436.825.825,0,0,0-.152.448.771.771,0,0,0,.215.372.975.975,0,0,1,.251.449c.041.282-.145.553-.568.826A2.44,2.44,0,0,1,257.775,59.959Zm-1.286-.579a3.973,3.973,0,0,0,.721.308,1.982,1.982,0,0,0,1.8-.344c.362-.236.517-.449.491-.658a.83.83,0,0,0-.214-.365.7.7,0,0,1-.09-1,1.334,1.334,0,0,0,.076-1.286,1.626,1.626,0,0,0-1.312-.79,1.338,1.338,0,0,0-1.131.441,1.319,1.319,0,0,0-.288,1.107c.014.065.031.134.048.2a.918.918,0,0,1-.077.9,1.11,1.11,0,0,1-.325.214.689.689,0,0,0-.307.222.386.386,0,0,0-.036.251,1.1,1.1,0,0,0,.484.709,1.846,1.846,0,0,0,.155.1Z" transform="translate(-152.98 -15.626)"/>
    <path id="Tracé_762" data-name="Tracé 762" class="cls-1" d="M271.782,68.778a3.457,3.457,0,0,1-1.286-.267l-.086-.034a1.105,1.105,0,0,0-1.169.045,2.086,2.086,0,0,1-.6.2,1.408,1.408,0,0,1-1.231-.534h0a1.944,1.944,0,0,1-.472-.993,1.055,1.055,0,0,1,.577-1.111,1.831,1.831,0,0,1,1.238.064,2.45,2.45,0,0,0,.925.141,2.2,2.2,0,0,0,.689-.238,3.9,3.9,0,0,1,.434-.184,2.915,2.915,0,0,1,2.543.575,1.181,1.181,0,0,1,.284,1.131,1.656,1.656,0,0,1-1.086,1.1A2.443,2.443,0,0,1,271.782,68.778Zm-1.906-.62h.041a1.672,1.672,0,0,1,.56.157l.083.034a2.832,2.832,0,0,0,1.916.15,1.484,1.484,0,0,0,.975-.976,1.019,1.019,0,0,0-.246-.973,2.756,2.756,0,0,0-2.361-.527,3.655,3.655,0,0,0-.415.172,2.364,2.364,0,0,1-.735.26,2.617,2.617,0,0,1-.992-.148,1.656,1.656,0,0,0-1.121-.071.89.89,0,0,0-.47.932,1.782,1.782,0,0,0,.437.907,1.273,1.273,0,0,0,1.081.477,1.959,1.959,0,0,0,.548-.188A1.71,1.71,0,0,1,269.876,68.158Z" transform="translate(-162.298 -24.494)"/>
    <path id="Tracé_763" data-name="Tracé 763" class="cls-1" d="M283.327,62.045a.746.746,0,0,1-.611-.257,1.146,1.146,0,0,0-.286-.208,1.178,1.178,0,0,0-.4-.108.887.887,0,0,1-.649-.31,1.021,1.021,0,0,1-.191-.83,1.377,1.377,0,0,1,.637-.916,2.817,2.817,0,0,1,3.141.811.944.944,0,0,1-.276,1.391,2.19,2.19,0,0,1-1.255.43h0Zm-.62-2.676a1.569,1.569,0,0,0-.794.186,1.205,1.205,0,0,0-.554.8.835.835,0,0,0,.157.689.723.723,0,0,0,.537.248,1.16,1.16,0,0,1,.782.372.615.615,0,0,0,.591.2h0a2.087,2.087,0,0,0,1.157-.391.792.792,0,0,0,.243-1.159A2.83,2.83,0,0,0,282.707,59.369Z" transform="translate(-174.088 -19.051)"/>
    <path id="Tracé_764" data-name="Tracé 764" class="cls-3" d="M136.787,67.093a.667.667,0,0,0,0-1.033h-.9s.193.752,0,1.033Z" transform="translate(-53.825 -24.726)"/>
    <path id="Tracé_765" data-name="Tracé 765" class="cls-3" d="M136.339,66.774h-.9a.09.09,0,0,1-.077-.046.088.088,0,0,1,0-.09c.139-.2.038-.761-.014-.959a.1.1,0,0,1,.016-.076.088.088,0,0,1,.069-.033h.9a.1.1,0,0,1,.062.026.833.833,0,0,1,.272.625.818.818,0,0,1-.279.534A.088.088,0,0,1,136.339,66.774Zm-.763-.172h.728a.63.63,0,0,0,.189-.393.642.642,0,0,0-.2-.467h-.751A2,2,0,0,1,135.576,66.6Z" transform="translate(-53.376 -24.32)"/>
    <path id="Tracé_766" data-name="Tracé 766" class="cls-2" d="M118.727,63.1a.644.644,0,0,0-.195-.549,1.362,1.362,0,0,0-.226-.231,1.436,1.436,0,0,0-.532-.21,5.424,5.424,0,0,0-1.334.036,3.4,3.4,0,0,1-1.34-.248.9.9,0,0,1-.381-.25,2.506,2.506,0,0,0,.267,1.839,2.392,2.392,0,0,0,1.205.832,1.94,1.94,0,0,0,1.934-.281,1.668,1.668,0,0,0,.548-.721A1.125,1.125,0,0,0,118.727,63.1Z" transform="translate(-36.252 -21.075)"/>
    <path id="Tracé_767" data-name="Tracé 767" class="cls-3" d="M116.5,64.185a2.336,2.336,0,0,1-.782-.143,2.469,2.469,0,0,1-1.245-.861,2.521,2.521,0,0,1-.279-1.894.088.088,0,0,1,.064-.069.084.084,0,0,1,.088.031.842.842,0,0,0,.344.224,3.383,3.383,0,0,0,1.314.222,4.1,4.1,0,0,0,.443-.036,2.67,2.67,0,0,1,.914,0,1.517,1.517,0,0,1,.565.224,1.686,1.686,0,0,1,.239.244.725.725,0,0,1,.212.618h0a1.147,1.147,0,0,1-.064.234,1.772,1.772,0,0,1-.575.759A1.98,1.98,0,0,1,116.5,64.185Zm-2.161-2.719a2.259,2.259,0,0,0,.277,1.613,2.29,2.29,0,0,0,1.161.8,1.866,1.866,0,0,0,1.853-.267,1.6,1.6,0,0,0,.517-.689,1.061,1.061,0,0,0,.057-.2.568.568,0,0,0-.172-.482,1.4,1.4,0,0,0-.214-.2,1.377,1.377,0,0,0-.5-.195,2.539,2.539,0,0,0-.861,0c-.152.015-.31.033-.458.036a3.564,3.564,0,0,1-1.377-.253A1.359,1.359,0,0,1,114.343,61.466Zm3.95,1.276Z" transform="translate(-35.818 -20.715)"/>
    <rect id="Rectangle_106" data-name="Rectangle 106" class="cls-2" width="7.311" height="4.828" transform="translate(93.104 37.538)"/>
    <path id="Tracé_768" data-name="Tracé 768" class="cls-1" d="M206.9,48.5h-7.311a.086.086,0,0,1-.086-.086V43.586a.086.086,0,0,1,.086-.086H206.9a.088.088,0,0,1,.086.086v4.831A.088.088,0,0,1,206.9,48.5Zm-7.232-.172h7.152V43.674h-7.146Z" transform="translate(-106.482 -6.05)"/>
    <rect id="Rectangle_107" data-name="Rectangle 107" class="cls-2" width="7.311" height="0.956" transform="translate(93.104 42.368)"/>
    <path id="Tracé_769" data-name="Tracé 769" class="cls-1" d="M206.9,72.688h-7.311a.086.086,0,0,1-.086-.086v-.956a.086.086,0,0,1,.086-.086H206.9a.086.086,0,0,1,.086.086V72.6A.086.086,0,0,1,206.9,72.688Zm-7.232-.172h7.152v-.783h-7.146Z" transform="translate(-106.482 -29.279)"/>
    <path id="Tracé_770" data-name="Tracé 770" class="cls-1" d="M204.438,53.339a.084.084,0,0,1-.067-.139c.083-.1,2.066-2.536,3.915-2.39a1.339,1.339,0,0,1,1.346,1.033,1.164,1.164,0,0,1-.639,1.267,1.29,1.29,0,0,1-1.329-.01,1,1,0,0,1-.355-.988.752.752,0,0,1,.539-.689.9.9,0,0,1,.882.25.375.375,0,0,1,.057.422c-.131.253-.286.386-.461.393-.281,0-.487-.319-.5-.332a.086.086,0,0,1,.029-.119.084.084,0,0,1,.117.029c.045.071.188.258.344.25s.245-.172.313-.3a.2.2,0,0,0-.038-.234.725.725,0,0,0-.7-.193.589.589,0,0,0-.415.546.835.835,0,0,0,.286.825,1.138,1.138,0,0,0,1.155,0,.988.988,0,0,0,.534-1.088,1.175,1.175,0,0,0-1.19-.888c-1.751-.145-3.742,2.3-3.76,2.326A.088.088,0,0,1,204.438,53.339Z" transform="translate(-110.498 -12.096)"/>
    <path id="Tracé_771" data-name="Tracé 771" class="cls-1" d="M207.483,86.541h-2.817a.086.086,0,0,1-.086-.086V84.216a.086.086,0,0,1,.086-.086h2.817a.086.086,0,0,1,.086.086v2.238A.086.086,0,0,1,207.483,86.541Zm-2.731-.172H207.4V84.3h-2.645Z" transform="translate(-110.687 -39.684)"/>
    <path id="Tracé_772" data-name="Tracé 772" class="cls-1" d="M212.846,83.6a.086.086,0,0,1-.086-.086v-.535a.086.086,0,0,1,.172,0v.532a.086.086,0,0,1-.086.09Z" transform="translate(-117.459 -38.658)"/>
  </g>
</svg>
