<svg xmlns="http://www.w3.org/2000/svg" width="254.991" height="213.08" viewBox="0 0 254.991 213.08">
  <defs>
    <style>
      .cls-1 {
        fill: #03b898;
      }

      .cls-2 {
        fill: #231f20;
      }

      .cls-3 {
        fill: #fff;
      }

      .cls-4 {
        fill: #d1d3d4;
      }
    </style>
  </defs>
  <g id="_268_party_flatline" data-name="#268_party_flatline" transform="translate(-64.74 -32.22)">
    <path id="Tracé_774" data-name="Tracé 774" class="cls-1" d="M293.955,242.292l-5.524-53.258,29.464-17.259s0-28.516-17.837-33.986c-13.2-4.053-39.863-4.613-39.863-4.613-14.84-2.3-70.68,2.166-73.506,10.264-2.636,7.592,9.18,88.626,10.688,98.835Z" transform="translate(-11.83 -9.766)"/>
    <path id="Tracé_775" data-name="Tracé 775" class="cls-2" d="M205.448,243.749h0a.451.451,0,0,1-.424-.469c0-.6,2.437-59.451-2.708-70.409a.454.454,0,1,1,.821-.388c5.272,11.13,2.925,68.369,2.825,70.8a.46.46,0,0,1-.515.469Z" transform="translate(-13.384 -13.624)"/>
    <path id="Tracé_776" data-name="Tracé 776" class="cls-3" d="M160.546,74.2c-5.741-5.57-22.955-14.353-29.148-4.667a3.439,3.439,0,0,1-.9,1.092,3.611,3.611,0,0,1-2.23.235c-9.478-.65-16.321,14.19-18.054,21.592-2.112,9.1-4.179,17.35-9.189,25.365-3.006,4.82-7.474,9.09-9.568,14.443a41.46,41.46,0,0,0-2.708,16.366,36.694,36.694,0,0,0,2.9,13.54c3.981,8.873,12.538,15.165,21.836,18.054s19.3,2.636,28.886,1.192c9.117-1.372,18.279-3.927,25.754-9.325s13.062-14.091,12.926-23.3c-.117-9.072-5.245-16.989-8.287-25.275s-3.214-16.582-2.437-25.113C171.2,88.9,167.38,80.78,160.546,74.2Z" transform="translate(-2.333 -3.209)"/>
    <path id="Tracé_777" data-name="Tracé 777" class="cls-2" d="M129.438,182.8a54.342,54.342,0,0,1-16.14-2.293c-10.264-3.159-18.315-9.83-22.107-18.279a36.884,36.884,0,0,1-2.934-13.721,41.848,41.848,0,0,1,2.771-16.546,38.065,38.065,0,0,1,5.886-9.343c1.282-1.67,2.618-3.4,3.719-5.163,4.829-7.736,6.906-15.671,9.126-25.23,1.661-7.158,8.666-22.567,18.514-21.944h.307a2.654,2.654,0,0,0,1.634-.181,2.618,2.618,0,0,0,.623-.776l.117-.181a9.659,9.659,0,0,1,7.375-4.423c7.637-.9,17.963,4.676,22.486,9.027h0c7.42,7.149,10.769,15.418,9.93,24.589-.9,10.182-.172,17.864,2.419,24.914.9,2.374,1.941,4.766,2.97,7.086,2.582,5.786,5.254,11.78,5.344,18.315.108,8.657-4.911,17.711-13.107,23.632-6.553,4.73-14.795,7.718-25.952,9.4a87.254,87.254,0,0,1-12.981,1.119ZM127.632,71.192c-9.027,0-15.427,14.443-17,21.276-2.239,9.641-4.342,17.638-9.243,25.5a64.48,64.48,0,0,1-3.764,5.236c-2.194,2.852-4.468,5.813-5.759,9.126a40.838,40.838,0,0,0-2.708,16.176,36.026,36.026,0,0,0,2.862,13.387c3.611,8.124,11.681,14.75,21.556,17.792,8.07,2.491,17.467,2.88,28.723,1.183,11-1.661,19.119-4.595,25.555-9.243,7.962-5.75,12.836-14.524,12.728-22.892-.081-6.319-2.708-12.249-5.263-17.954-1.038-2.338-2.112-4.748-3-7.149-2.636-7.221-3.4-14.985-2.464-25.275.8-8.882-2.437-16.916-9.659-23.867-4.4-4.234-14.4-9.641-21.755-8.783a8.8,8.8,0,0,0-6.725,4.008l-.108.181a3.294,3.294,0,0,1-.9,1.038,3.34,3.34,0,0,1-2.212.334h-.3Z" transform="translate(-2.286 -3.153)"/>
    <path id="Tracé_778" data-name="Tracé 778" class="cls-3" d="M165.3,136.37s42.047-19.173,77.956-20.2c13.91-.4,44.3,6.21,49.584,9.28l.713,11.1s-58.1-1.805-83.047,5.57c-16.086,4.721-32.767,25.131-32.767,25.131Z" transform="translate(-9.786 -8.168)"/>
    <path id="Tracé_779" data-name="Tracé 779" class="cls-2" d="M177.675,167.655h-.054a.424.424,0,0,1-.343-.271L164.856,136.5a.451.451,0,0,1,.226-.578c.424-.2,42.544-19.227,78.127-20.247,13.793-.37,44.286,6.12,49.828,9.343a.433.433,0,0,1,.226.361l.713,11.1a.515.515,0,0,1-.126.343.388.388,0,0,1-.343.135c-.578,0-58.3-1.679-82.921,5.552-15.77,4.631-32.379,24.779-32.551,24.986A.442.442,0,0,1,177.675,167.655Zm-11.843-31.1,11.979,29.789c2.88-3.367,18-20.446,32.5-24.706,23.533-6.915,76.99-5.75,82.713-5.6l-.668-10.372c-5.876-3.132-35.927-9.487-49.142-9.1C209.648,117.529,170.182,134.626,165.831,136.557Z" transform="translate(-9.74 -8.12)"/>
    <path id="Tracé_780" data-name="Tracé 780" class="cls-1" d="M111.539,201.763,121.6,242.293h72.215l-7.05-71.114S170.9,146.23,168.9,132.59L103.09,149.56S116.305,177.607,111.539,201.763Z" transform="translate(-3.732 -9.767)"/>
    <path id="Tracé_781" data-name="Tracé 781" class="cls-3" d="M153.772,126.245l3.674,15.237s-.289,7.438-11.067,7.528-14.01-6.526-14.01-6.526l-5.849-28.669s13.8-12.448,7.492-28.245c0,0,9.379,11.32,24,5.615,0,0,3.863,14.542,4.613,22.721S153.772,126.245,153.772,126.245Z" transform="translate(-6.012 -5.192)"/>
    <path id="Tracé_782" data-name="Tracé 782" class="cls-2" d="M146.1,149.417c-10.751,0-14.064-6.5-14.2-6.779a.225.225,0,0,1,0-.108L126,113.9a.469.469,0,0,1,.144-.424c.135-.117,13.5-12.43,7.366-27.749a.451.451,0,0,1,.19-.551.442.442,0,0,1,.578.1c.1.108,9.361,11,23.47,5.479a.479.479,0,0,1,.37,0,.469.469,0,0,1,.235.289c0,.144,3.873,14.678,4.613,22.793.7,7.5-7.023,11.735-8.765,12.638l3.611,14.885a.55.55,0,0,1,0,.126c0,.072-.433,7.871-11.509,7.962Zm-13.369-7.131c.316.578,3.683,6.229,13.378,6.229h.217c9.8-.081,10.561-6.319,10.616-7.041L153.278,126.3a.442.442,0,0,1,.262-.515c.09,0,9.28-4.134,8.576-11.888-.659-7.221-3.8-19.561-4.468-22.152a21.773,21.773,0,0,1-22.612-4.513c4.3,14-6.5,25.14-8.079,26.683Z" transform="translate(-5.961 -5.147)"/>
    <path id="Tracé_783" data-name="Tracé 783" class="cls-3" d="M130.276,114.2c-1.652-3.114-6.319-4.847-9.568-3.466-4.252,1.805-2.961,6.761-.785,9.641a8.287,8.287,0,0,0,11.735,1.526" transform="translate(-5.173 -7.594)"/>
    <path id="Tracé_784" data-name="Tracé 784" class="cls-2" d="M126.462,124.059a9.172,9.172,0,0,1-1.11-.072,8.774,8.774,0,0,1-5.831-3.385c-1.318-1.733-2.618-4.649-1.941-7.167a4.73,4.73,0,0,1,2.9-3.159,8.591,8.591,0,0,1,10.146,3.674.442.442,0,0,1-.181.6.451.451,0,0,1-.614-.181,7.637,7.637,0,0,0-9.027-3.268,3.791,3.791,0,0,0-2.374,2.564c-.56,2.058.5,4.694,1.805,6.391A7.835,7.835,0,0,0,131.3,121.5a.453.453,0,0,1,.56.713A8.8,8.8,0,0,1,126.462,124.059Z" transform="translate(-5.124 -7.546)"/>
    <path id="Tracé_785" data-name="Tracé 785" class="cls-3" d="M149.67,104.77s7.537,6.319,6.68,8.07-4.622,1.805-4.622,1.805" transform="translate(-8.265 -7.06)"/>
    <path id="Tracé_786" data-name="Tracé 786" class="cls-2" d="M151.73,115.084a.451.451,0,0,1,0-.9c.966,0,3.611-.37,4.234-1.589.415-.839-3.06-4.577-6.572-7.528a.452.452,0,0,1,.578-.7c1.805,1.544,7.745,6.725,6.8,8.63s-4.6,2.067-5.019,2.085Z" transform="translate(-8.222 -7.011)"/>
    <ellipse id="Ellipse_45" data-name="Ellipse 45" class="cls-2" cx="1.282" cy="2.961" rx="1.282" ry="2.961" transform="matrix(0.992, -0.125, 0.125, 0.992, 146.371, 92.286)"/>
    <ellipse id="Ellipse_46" data-name="Ellipse 46" class="cls-2" cx="1.282" cy="2.961" rx="1.282" ry="2.961" transform="matrix(0.992, -0.125, 0.125, 0.992, 133.195, 93.951)"/>
    <path id="Tracé_787" data-name="Tracé 787" class="cls-2" d="M155.25,130.593s-5.533,2.473-13.54-.343c0,0,5.19,10.083,15.517,8.585Z" transform="translate(-7.49 -9.54)"/>
    <path id="Tracé_788" data-name="Tracé 788" class="cls-2" d="M155.14,139.386c-9.135,0-13.82-8.891-13.865-9.027a.451.451,0,0,1,.551-.632c7.727,2.708,13.134.379,13.188.352a.451.451,0,0,1,.388,0,.433.433,0,0,1,.235.3l1.995,8.242a.451.451,0,0,1-.379.56A15.731,15.731,0,0,1,155.14,139.386ZM142.692,131c1.6,2.419,6.319,8.232,13.937,7.4l-1.751-7.221A20.039,20.039,0,0,1,142.692,131Z" transform="translate(-7.443 -9.486)"/>
    <path id="Tracé_789" data-name="Tracé 789" class="cls-2" d="M151.3,127.274a4.956,4.956,0,0,1-2.365-.7c-4.387-2.41-4.64-9.451-4.649-9.749a.442.442,0,0,1,.153-.352.469.469,0,0,1,.37-.108l11.157,1.9a.46.46,0,0,1,.379.478c-.325,4.161-1.58,7.113-3.448,8.124A3.286,3.286,0,0,1,151.3,127.274Zm-6.075-9.93c.153,1.661.9,6.635,4.152,8.431a3.141,3.141,0,0,0,3.1.28c1.507-.812,2.591-3.412,2.934-6.987Z" transform="translate(-7.741 -8.189)"/>
    <path id="Tracé_790" data-name="Tracé 790" class="cls-3" d="M281.169,77.986a2.708,2.708,0,0,0-2.4.153c.117-2.907-2.32-5.416-5.064-6.391s-5.732-.8-8.639-.722-5.958,0-8.521-1.381c-4.071-2.221-6.1-7.384-10.444-9.027-3.466-1.309-7.6.208-9.93,3.078a13.9,13.9,0,0,0-2.609,10.5c.749,6.057,4.351,11.943,8.467,16.348a53.042,53.042,0,0,0,7.221,6.066l5.416,3.972c5.488,4.071,13.26,8.124,20.4,6.012,4.766-1.4,7.574-6.319,8.837-10.832a21.664,21.664,0,0,0,.831-7.682c-.217-2.41-.271-6.165-1.381-8.278A4.152,4.152,0,0,0,281.169,77.986Z" transform="translate(-16.412 -2.717)"/>
    <path id="Tracé_791" data-name="Tracé 791" class="cls-2" d="M270.9,107.576c-6.129,0-12.213-3.43-16.582-6.671L248.9,96.933a52.8,52.8,0,0,1-7.3-6.12c-2.816-3.006-7.664-9.144-8.594-16.6a14.353,14.353,0,0,1,2.708-10.832c2.582-3.159,6.978-4.513,10.453-3.214,2.446.9,4.179,2.907,5.867,4.829a18.117,18.117,0,0,0,4.631,4.216c2.509,1.363,5.6,1.4,8.287,1.327h.686c2.708-.09,5.524-.172,8.124.767s5.091,3.15,5.344,6.129a3.349,3.349,0,0,1,2.13.108,4.6,4.6,0,0,1,2.383,2.085c.957,1.805,1.164,4.739,1.327,7.077,0,.487.072.9.108,1.372a22.116,22.116,0,0,1-.849,7.844c-.776,2.708-3.223,9.361-9.144,11.094A14.994,14.994,0,0,1,270.9,107.576Zm-27.5-47.012a9.171,9.171,0,0,0-6.942,3.385A13.45,13.45,0,0,0,233.931,74.1c.659,5.254,3.7,11.121,8.359,16.086a51.174,51.174,0,0,0,7.176,6.012l5.371,3.981c5.208,3.854,12.908,8.016,20.013,5.94,5.488-1.607,7.79-7.862,8.53-10.471a21.15,21.15,0,0,0,.812-7.528c0-.424-.072-.9-.1-1.381-.162-2.257-.361-5.064-1.237-6.716a3.611,3.611,0,0,0-1.9-1.661h0a2.257,2.257,0,0,0-2.013.117.46.46,0,0,1-.469,0,.442.442,0,0,1-.217-.406c.117-2.708-2.311-5.073-4.757-5.949s-5.172-.794-7.8-.722h-.686c-2.816.072-6.039,0-8.747-1.435a18.766,18.766,0,0,1-4.874-4.414c-1.688-1.923-3.277-3.737-5.515-4.577A7.032,7.032,0,0,0,243.391,60.564Z" transform="translate(-16.358 -2.672)"/>
    <path id="Tracé_792" data-name="Tracé 792" class="cls-3" d="M243.234,118.72l-2.112,16.618s1.607,8.819,11.915,8.034a20.572,20.572,0,0,0,15.255-8.909l4.432-27.983s-6.707-5.118-1.95-20.762a124.111,124.111,0,0,1-28.931-4.568s-4.73,20.545-4.784,28.417S243.234,118.72,243.234,118.72Z" transform="translate(-16.769 -4.762)"/>
    <path id="Tracé_793" data-name="Tracé 793" class="cls-2" d="M251.725,143.833a10.832,10.832,0,0,1-11.094-8.458.343.343,0,0,1,0-.135l2.058-16.248c-1.444-.46-6.183-2.509-6.129-9.46.054-7.835,4.6-27.676,4.793-28.516a.46.46,0,0,1,.217-.289.478.478,0,0,1,.352,0,124.923,124.923,0,0,0,28.814,4.513.46.46,0,0,1,.352.19.479.479,0,0,1,.072.4c-2.41,7.9-1.805,12.99-.839,15.869a9.515,9.515,0,0,0,2.636,4.369.469.469,0,0,1,.172.433l-4.441,27.983a.406.406,0,0,1-.063.162,21.2,21.2,0,0,1-15.607,9.126A12.728,12.728,0,0,1,251.725,143.833Zm-10.191-8.548c.172.839,2.013,8.341,11.419,7.592a20.22,20.22,0,0,0,14.858-8.648l4.351-27.622c-1.146-1.038-6.138-6.553-2.076-20.482A126.718,126.718,0,0,1,242.1,81.692c-.7,3.105-4.622,20.762-4.667,27.857-.054,7.411,5.75,8.675,5.813,8.684a.442.442,0,0,1,.352.5Z" transform="translate(-16.721 -4.717)"/>
    <path id="Tracé_794" data-name="Tracé 794" class="cls-3" d="M270.148,107.135a6.6,6.6,0,0,1,2.762-3.105,11.6,11.6,0,0,1,3.764-1.183,4.8,4.8,0,0,1,2.148,0,4.008,4.008,0,0,1,1.327.74,5.091,5.091,0,0,1,1.986,2.9,6.048,6.048,0,0,1-.334,2.852,12.348,12.348,0,0,1-1.255,2.9,7.962,7.962,0,0,1-11.067,2.4" transform="translate(-19.924 -6.861)"/>
    <path id="Tracé_795" data-name="Tracé 795" class="cls-2" d="M273.8,116.293a8.431,8.431,0,0,1-4.613-1.363.451.451,0,1,1,.487-.758,7.5,7.5,0,0,0,10.435-2.221,11.22,11.22,0,0,0,1.21-2.78,5.543,5.543,0,0,0,.316-2.636,4.676,4.676,0,0,0-1.805-2.627,3.313,3.313,0,0,0-1.174-.668,4.432,4.432,0,0,0-1.941,0,11.365,11.365,0,0,0-3.611,1.128,6.138,6.138,0,0,0-2.573,2.9.453.453,0,1,1-.83-.361,7.023,7.023,0,0,1,2.952-3.313,11.9,11.9,0,0,1,3.909-1.237,5.19,5.19,0,0,1,2.356,0,4.432,4.432,0,0,1,1.48.821,5.489,5.489,0,0,1,2.148,3.168,6.409,6.409,0,0,1-.343,3.069,12.493,12.493,0,0,1-1.309,3,8.467,8.467,0,0,1-5.317,3.719A8.278,8.278,0,0,1,273.8,116.293Z" transform="translate(-19.873 -6.812)"/>
    <path id="Tracé_796" data-name="Tracé 796" class="cls-2" d="M242.36,132.234A20.834,20.834,0,0,0,253,128.723c5.055-3.5,5.073-6,5.073-6s-7.673,2.708-13.965.352Z" transform="translate(-17.285 -8.807)"/>
    <path id="Tracé_797" data-name="Tracé 797" class="cls-2" d="M242.312,132.639a.451.451,0,0,1-.442-.533l1.751-9.18a.478.478,0,0,1,.226-.307.46.46,0,0,1,.379,0c6.048,2.275,13.54-.325,13.649-.352a.46.46,0,0,1,.415.054.433.433,0,0,1,.181.37c0,.108-.081,2.78-5.263,6.373a21.014,21.014,0,0,1-10.9,3.611Zm2.094-9.027-1.544,8.124a20.762,20.762,0,0,0,9.839-3.412c3.223-2.239,4.315-4.035,4.685-4.965-2.076.6-7.844,1.968-12.981.262Z" transform="translate(-17.237 -8.76)"/>
    <path id="Tracé_798" data-name="Tracé 798" class="cls-3" d="M253.662,96.5s-6.7,6.68-5.732,8.26,4.568,1.381,4.568,1.381" transform="translate(-17.818 -6.255)"/>
    <path id="Tracé_799" data-name="Tracé 799" class="cls-2" d="M251.988,106.552c-1.1,0-3.611-.162-4.513-1.607-1.065-1.751,4.17-7.221,5.8-8.819a.453.453,0,1,1,.641.641c-3.493,3.484-6.093,7.014-5.678,7.709.677,1.11,3.241,1.219,4.161,1.164a.442.442,0,0,1,.478.424.46.46,0,0,1-.424.478Z" transform="translate(-17.769 -6.206)"/>
    <path id="Tracé_800" data-name="Tracé 800" class="cls-3" d="M199.1,177.6l5.6-29.265-19.29-3.7L179.8,173.9a9.812,9.812,0,0,0,6.319,11.085l-3.34,17.458-9.632,6.021,19.29,3.7-6.725-9.162,3.385-17.422a9.83,9.83,0,0,0,10-7.989Z" transform="translate(-10.55 -10.939)"/>
    <path id="Tracé_801" data-name="Tracé 801" class="cls-2" d="M192.431,212.62h-.081l-19.29-3.7a.442.442,0,0,1-.153-.821l9.46-5.922,3.241-16.943a10.2,10.2,0,0,1-6.319-11.428l5.606-29.274a.46.46,0,0,1,.19-.289.505.505,0,0,1,.343-.072l19.29,3.7a.451.451,0,0,1,.361.524l-5.606,29.274a10.209,10.209,0,0,1-10.065,8.323h0l-3.232,16.889,6.608,9.027a.451.451,0,0,1,0,.506A.469.469,0,0,1,192.431,212.62Zm-18.054-4.378,17.034,3.259-6.048-8.232a.469.469,0,0,1-.081-.343l3.349-17.458a.415.415,0,0,1,.46-.361,9.325,9.325,0,0,0,9.532-7.592h0l5.524-28.832-18.406-3.52-5.551,28.778a9.3,9.3,0,0,0,6.057,10.579.46.46,0,0,1,.3.515L183.2,202.483a.406.406,0,0,1-.2.3Z" transform="translate(-10.504 -10.894)"/>
    <path id="Tracé_802" data-name="Tracé 802" class="cls-4" d="M184.4,167.343l-1.607,8.359a7.817,7.817,0,1,0,15.346,2.943l1.372-7.158c.235-1.237,1.029-3.1,0-4.08-.578-.542-1.471-.506-2.076-1.065s-.569-1.246-1.237-1.562a1.661,1.661,0,0,0-1.562.226,15.742,15.742,0,0,0-1.246,1.083,7.925,7.925,0,0,1-5.091,1.426C187.952,167.514,184.441,167.144,184.4,167.343Z" transform="translate(-11.469 -12.89)"/>
    <path id="Tracé_803" data-name="Tracé 803" class="cls-4" d="M202.307,160.656c-.433-3.223-4.026.172-2.708,2.013a1.1,1.1,0,0,0,1.715.271,2.473,2.473,0,0,0,.993-2.284Z" transform="translate(-13.096 -12.369)"/>
    <path id="Tracé_804" data-name="Tracé 804" class="cls-3" d="M232.028,173.846l-5.687-29.256-19.281,3.746,5.687,29.256a9.812,9.812,0,0,0,10.02,7.935l3.385,17.44-6.7,9.18,19.281-3.746-9.65-6L225.7,184.949a9.812,9.812,0,0,0,6.328-11.1Z" transform="translate(-13.85 -10.935)"/>
    <path id="Tracé_805" data-name="Tracé 805" class="cls-2" d="M219.408,212.619a.442.442,0,0,1-.379-.217.451.451,0,0,1,0-.505l6.59-9.027-3.277-16.88h0a10.191,10.191,0,0,1-10.056-8.3L206.6,148.438a.46.46,0,0,1,.361-.533l19.281-3.746a.442.442,0,0,1,.334.072.469.469,0,0,1,.2.289l5.678,29.256a10.191,10.191,0,0,1-6.256,11.473l3.277,16.88,9.478,5.895a.451.451,0,0,1-.153.83l-19.308,3.764Zm3.313-27.523a.442.442,0,0,1,.442.361l3.385,17.44a.406.406,0,0,1-.081.352l-6.021,8.251,17.025-3.3-8.666-5.416a.442.442,0,0,1-.208-.3l-3.385-17.44a.46.46,0,0,1,.289-.515,9.3,9.3,0,0,0,6.039-10.589h0l-5.624-28.832-18.4,3.611,5.6,28.8a9.415,9.415,0,0,0,9.559,7.574Z" transform="translate(-13.804 -10.893)"/>
    <path id="Tracé_806" data-name="Tracé 806" class="cls-4" d="M228.927,167.32l-.054-.063c-.37-.352-2.175,0-2.771-.063a12.159,12.159,0,0,1-3.43-.9,6.725,6.725,0,0,0-2.961-.9c-.9.063-1.805.587-2.708.424a6.219,6.219,0,0,1-1.724-.9,1.607,1.607,0,0,0-1.805,0,2.049,2.049,0,0,0-.406.677c-.542,1.255.081,2.627.325,3.909l.749,3.827,1.029,5.308a7.817,7.817,0,1,0,15.347-2.979c-.389-1.986-.777-3.981-1.157-5.967a8.593,8.593,0,0,0-.433-2.365Z" transform="translate(-14.413 -12.886)"/>
    <path id="Tracé_807" data-name="Tracé 807" class="cls-3" d="M101.46,151.39s-10.291,4.739-13.008,15.887c-5.416,22.1-.478,81.657,3.394,86.586s8.3,2.148,22.2-2.816c15.03-5.416,64.506-37.615,64.506-37.615s9.695-6.517,10.047-9.027-1.056-2.816-1.056-2.816,4.577-3.873,2.464-5.994c0,0,2.112-4.053-.181-6.517-1-1.083,2.428-6.057-.9-6.319a3.611,3.611,0,0,0-2.049.668c-2.871,1.634-8.955,2.058-10.327,2.807-.126-.686,1.1-4.874,0-5.154-4.035-1.011-11.961,18.009-11.961,18.009s-49.792,17.151-49.792,16.438S112.184,162.773,101.46,151.39Z" transform="translate(-2.075 -11.597)"/>
    <path id="Tracé_808" data-name="Tracé 808" class="cls-2" d="M96.723,256.852a6.238,6.238,0,0,1-5.281-2.708c-3.909-4.974-9.027-64.181-3.484-86.965,2.708-11.238,13.152-16.149,13.26-16.194a.442.442,0,0,1,.515.1c10.4,11.022,13.179,58.566,13.45,63.973,3.728-.9,30.782-10.029,49.016-16.3.4-.9,2.221-5.154,4.405-9.234,3.466-6.436,6.084-9.334,8.007-8.846,1.164.289.812,2.374.506,4.216a4.47,4.47,0,0,1-.117.7c.7-.208,1.679-.388,2.834-.614,2.284-.433,5.118-.975,6.77-1.914a4.107,4.107,0,0,1,2.311-.722,2,2,0,0,1,1.553.776c.65.9.253,2.374-.09,3.665-.19.722-.487,1.805-.271,2.04,2.139,2.311.839,5.741.379,6.752a2.266,2.266,0,0,1,.478,1.526c-.072,1.733-1.86,3.611-2.708,4.468.478.406.993,1.255.749,2.952-.37,2.591-9.225,8.621-10.236,9.3-.5.325-49.7,32.334-64.605,37.66-2.094.749-3.981,1.453-5.678,2.085C103.1,255.516,99.494,256.852,96.723,256.852ZM101.3,151.9c-1.679.9-10.083,5.678-12.457,15.436-5.317,21.836-.451,81.413,3.313,86.2,3.087,3.936,6.6,2.618,16-.9,1.7-.632,3.611-1.336,5.678-2.085,14.8-5.3,63.919-37.245,64.416-37.561,3.674-2.482,9.6-7.023,9.839-8.675.289-1.995-.686-2.311-.722-2.32a.452.452,0,0,1-.181-.776c.776-.659,2.807-2.708,2.871-4.234a1.4,1.4,0,0,0-.424-1.092.451.451,0,0,1-.081-.533s1.932-3.8-.108-6c-.56-.6-.271-1.661.054-2.889s.632-2.338.226-2.916a1.155,1.155,0,0,0-.9-.4,3.4,3.4,0,0,0-1.805.614c-1.805,1.02-4.694,1.571-7.041,2.022a16.915,16.915,0,0,0-3.286.794.451.451,0,0,1-.415,0,.433.433,0,0,1-.244-.325,5.732,5.732,0,0,1,.162-1.6c.135-.8.5-2.925.162-3.2-2.708-.65-8.422,10.534-11.428,17.747a.442.442,0,0,1-.271.253c-49.35,16.989-49.946,16.573-50.189,16.393a.469.469,0,0,1-.2-.379C114.3,215,111.8,163.722,101.3,151.9Z" transform="translate(-2.022 -11.553)"/>
    <path id="Tracé_809" data-name="Tracé 809" class="cls-2" d="M100.811,227.407a.451.451,0,0,1-.433-.334.442.442,0,0,1,.307-.551c1.255-.352,15.237-4.513,15.346-4.577a.451.451,0,1,1,.253.858c-.578.181-14.127,4.234-15.391,4.586Z" transform="translate(-3.466 -18.459)"/>
    <path id="Tracé_810" data-name="Tracé 810" class="cls-3" d="M320.872,175.684s-2.807,42.986-17.548,55.669c-10.191,8.774-17.864,1.878-28.245-3.223a126.189,126.189,0,0,1-20.1-12.493,66.717,66.717,0,0,0-7.673-5.163c-4.387-2.428-9.126-3.954-14.569-3.286-3.087.379-9.433,2.862-11.735-.352a2.347,2.347,0,0,1,.235-3.141,5.326,5.326,0,0,1-1.995-1.878,1.805,1.805,0,0,1,.551-2.437,3.168,3.168,0,0,1-1.2-4.179c-2.708-.74-1.805-3.557.307-4.206a104.541,104.541,0,0,1,16.095-3.548s14.19,2.708,20.608,5.416,31.17,11.013,31.17,11.013l5.281-31.125" transform="translate(-14.808 -13.676)"/>
    <path id="Tracé_811" data-name="Tracé 811" class="cls-2" d="M293.362,235.978c-4.586,0-8.964-2.374-13.73-4.956-1.544-.83-3.141-1.7-4.8-2.518a127.024,127.024,0,0,1-20.175-12.538,67.614,67.614,0,0,0-7.619-5.127c-5.028-2.78-9.568-3.809-14.3-3.232-.668.081-1.526.271-2.437.469-3.277.731-7.763,1.733-9.722-1.011a2.952,2.952,0,0,1-.1-3.331,4.839,4.839,0,0,1-1.688-1.751,2.455,2.455,0,0,1,.2-2.6,3.728,3.728,0,0,1-1.119-1.805,3.674,3.674,0,0,1,.045-2.185,2.239,2.239,0,0,1-1.526-2.04,3.141,3.141,0,0,1,2.356-2.825,104.28,104.28,0,0,1,16.176-3.557h.072c.144,0,14.308,2.771,20.69,5.416,5.822,2.437,27.081,9.641,30.637,10.832l5.2-30.6a.458.458,0,1,1,.9.153l-5.29,31.125a.433.433,0,0,1-.208.307.469.469,0,0,1-.379.045c-.244-.081-24.851-8.368-31.206-11.031-6.057-2.528-19.326-5.145-20.437-5.362a103.5,103.5,0,0,0-15.95,3.52,2.248,2.248,0,0,0-1.688,1.977c0,.641.5,1.119,1.363,1.354a.451.451,0,0,1,.3.262.442.442,0,0,1,0,.4,2.708,2.708,0,0,0,1.029,3.611.46.46,0,0,1,.235.4.433.433,0,0,1-.244.4,1.417,1.417,0,0,0-.352,1.805,5.073,5.073,0,0,0,1.805,1.715.442.442,0,0,1,0,.731,1.923,1.923,0,0,0-.135,2.518c1.607,2.257,5.588,1.363,8.792.659.9-.208,1.805-.406,2.518-.5,4.929-.6,9.65.46,14.84,3.349a67.063,67.063,0,0,1,7.727,5.19,126.265,126.265,0,0,0,20.031,12.448c1.679.83,3.286,1.7,4.838,2.537,8.124,4.423,14.6,7.917,22.919.749,14.443-12.421,17.359-54.919,17.386-55.353a.451.451,0,0,1,.487-.415.442.442,0,0,1,.415.478,188.809,188.809,0,0,1-3.177,23.136c-3.394,16.465-8.251,27.514-14.443,32.84C299.934,234.8,296.594,235.978,293.362,235.978Z" transform="translate(-14.758 -13.626)"/>
    <path id="Tracé_812" data-name="Tracé 812" class="cls-3" d="M302.42,135.123l6.21,13.739a4.251,4.251,0,0,0,1.255,1.805,1.453,1.453,0,0,0,1.995-.208,2.085,2.085,0,0,0,0-1.706,29.567,29.567,0,0,0-1.715-4.225l5.876,7.393c.9,1.11,1.679,2.582,3.259,2.708a1.1,1.1,0,0,0,.659-.108,1.219,1.219,0,0,0,.433-1.228,3.376,3.376,0,0,0-.533-1.453,4.206,4.206,0,0,0,1.526.8c.677.144,1.715-.162,1.453-1.02a8.125,8.125,0,0,0-1.363-2.383,3.249,3.249,0,0,0,1.48,1.2,1.056,1.056,0,0,0,1.155-1.4,3.539,3.539,0,0,0-.632-1.119c.352.361.794.758,1.291.65a1.029,1.029,0,0,0,.713-1.056,2.817,2.817,0,0,0-.478-1.282c-.767-1.336-3.854-5.967-4.513-7.032a35.671,35.671,0,0,0-4.423-5.714,36.677,36.677,0,0,0-9.857-7.059" transform="translate(-23.13 -9.168)"/>
    <path id="Tracé_813" data-name="Tracé 813" class="cls-2" d="M319.39,155.062h-.181c-1.517-.117-2.383-1.282-3.141-2.311l-.433-.569-3.791-4.766c.144.388.28.785.406,1.183a2.446,2.446,0,0,1,0,2.085,1.553,1.553,0,0,1-1.02.668,2.148,2.148,0,0,1-1.607-.334,4.622,4.622,0,0,1-1.408-2.013L302,135.257a.442.442,0,0,1,.217-.6.451.451,0,0,1,.6.226l6.21,13.739a3.881,3.881,0,0,0,1.11,1.643,1.264,1.264,0,0,0,.9.2.677.677,0,0,0,.442-.28,1.715,1.715,0,0,0-.063-1.327,28.689,28.689,0,0,0-1.688-4.161.442.442,0,0,1,.162-.578.451.451,0,0,1,.6.1l5.876,7.393c.153.19.307.388.451.6.713.957,1.381,1.86,2.482,1.95a.812.812,0,0,0,.406-.054c.2-.108.244-.469.208-.785a3,3,0,0,0-.451-1.264.451.451,0,0,1,.641-.614,3.61,3.61,0,0,0,1.345.731,1.047,1.047,0,0,0,.9-.181s.09-.09,0-.271a7.392,7.392,0,0,0-1.291-2.239h0a.442.442,0,0,1,.09-.623.46.46,0,0,1,.632.09,2.807,2.807,0,0,0,1.21,1.029.46.46,0,0,0,.469-.126.767.767,0,0,0,.153-.713,2.9,2.9,0,0,0-.551-.966.46.46,0,0,1,.072-.614.451.451,0,0,1,.614,0c.244.253.6.569.9.524s.361-.361.361-.614a2.32,2.32,0,0,0-.415-1.065c-.524-.9-2.121-3.349-3.295-5.136l-1.246-1.851a35.33,35.33,0,0,0-4.369-5.651,35.918,35.918,0,0,0-9.731-6.969.446.446,0,0,1,.406-.794,36.784,36.784,0,0,1,9.93,7.14,35.63,35.63,0,0,1,4.513,5.786c.217.343.677,1.038,1.219,1.878,1.183,1.805,2.789,4.252,3.322,5.172a3.06,3.06,0,0,1,.533,1.5,1.462,1.462,0,0,1-1.065,1.507h-.289a1.661,1.661,0,0,1-.406,1.444,1.336,1.336,0,0,1-1.119.424c.081.19.153.379.217.578a1.11,1.11,0,0,1-.226,1.137,1.95,1.95,0,0,1-1.751.46,4.717,4.717,0,0,1-.506-.162,2.029,2.029,0,0,1,.054.325,1.6,1.6,0,0,1-.65,1.661,1.426,1.426,0,0,1-.74.208Z" transform="translate(-23.084 -9.122)"/>
    <path id="Tracé_814" data-name="Tracé 814" class="cls-2" d="M249.538,115.336a6.463,6.463,0,0,1-4.874-1.805c-2.708-2.807-2.031-7.754-2-7.962a.456.456,0,1,1,.9.126s-.65,4.721,1.805,7.221a6.073,6.073,0,0,0,5.416,1.489c7.411-.821,10.769-11.735,10.832-11.843a.47.47,0,1,1,.9.262c-.144.478-3.566,11.59-11.572,12.484a12.773,12.773,0,0,1-1.408.027Z" transform="translate(-17.305 -6.812)"/>
    <path id="Tracé_815" data-name="Tracé 815" class="cls-3" d="M245.22,92.334s1.183-2.248,2.907-2.374,2.365,2.374,2.365,2.374" transform="translate(-17.563 -5.618)"/>
    <path id="Tracé_816" data-name="Tracé 816" class="cls-2" d="M245.173,92.733a.479.479,0,0,1-.2-.081.442.442,0,0,1-.181-.6c.045-.1,1.327-2.473,3.268-2.618s2.807,2.591,2.843,2.708a.453.453,0,0,1-.876.235s-.587-2.112-1.9-2.049c-1.453.117-2.537,2.121-2.546,2.148a.46.46,0,0,1-.415.262Z" transform="translate(-17.517 -5.567)"/>
    <path id="Tracé_817" data-name="Tracé 817" class="cls-3" d="M256.84,94.974s1.192-2.248,2.907-2.374,2.374,2.374,2.374,2.374" transform="translate(-18.694 -5.875)"/>
    <path id="Tracé_818" data-name="Tracé 818" class="cls-2" d="M256.792,95.376a.415.415,0,0,1-.208-.054.451.451,0,0,1-.19-.6c.054-.108,1.327-2.473,3.277-2.618s2.807,2.591,2.834,2.708a.466.466,0,1,1-.9.235s-.56-2.148-1.9-2.049-2.527,2.121-2.537,2.139a.46.46,0,0,1-.37.244Z" transform="translate(-18.646 -5.827)"/>
    <path id="Tracé_819" data-name="Tracé 819" class="cls-4" d="M72.484,184.436a1.724,1.724,0,0,1-.487-.812,4.136,4.136,0,0,1-.135-.578v-.569a10.508,10.508,0,0,0-.271-2.663c-.542-1.643-2.446-3.611-4.252-2.329a.925.925,0,1,0,.9,1.616.9.9,0,0,1,.153-.09h.181l.117.045.162.1h0l.19.19a1.39,1.39,0,0,1,.153.171l.1.135a3.377,3.377,0,0,1,.253.469l.054.153a.973.973,0,0,0,.081.262.332.332,0,0,1,0,.172v.226c.126,1.67,0,3.539,1.291,4.793A.938.938,0,0,0,72.3,184.4Z" transform="translate(-0.207 -14.096)"/>
    <path id="Tracé_820" data-name="Tracé 820" class="cls-4" d="M338.5,114.584a.9.9,0,0,0-1.155-.659c-2.139.83-4.459,1.742-5.958,3.611a13.252,13.252,0,0,0-1.571,2.789c-.37.767-.794,1.58-1.526,1.805-1.137.379-.65,2.194.5,1.805,2.2-.722,2.573-3.015,3.674-4.739s3.439-2.708,5.416-3.457A.957.957,0,0,0,338.5,114.584Z" transform="translate(-25.584 -7.947)"/>
    <path id="Tracé_821" data-name="Tracé 821" class="cls-4" d="M131.494,52.308a13.793,13.793,0,0,0-7.221-1.363.966.966,0,0,0-.9.9.9.9,0,0,0,.9.9,11.879,11.879,0,0,1,6.319,1.11.966.966,0,0,0,1.282-.343A.9.9,0,0,0,131.494,52.308Z" transform="translate(-5.706 -1.818)"/>
    <path id="Tracé_822" data-name="Tracé 822" class="cls-4" d="M311.93,69.526c-2.049.542-2.862,2.654-2.988,4.586-.126,2.067.9,4.513-.289,6.319-.659,1.02.966,1.959,1.616.9,1.255-1.959.677-4.2.551-6.319-.081-1.282.117-3.322,1.607-3.719a.919.919,0,0,0-.5-1.769Z" transform="translate(-23.721 -3.627)"/>
    <path id="Tracé_823" data-name="Tracé 823" class="cls-4" d="M189.161,58.1a5.227,5.227,0,0,0-.821-1.336,1.93,1.93,0,0,1-.181-.289h0a.931.931,0,0,0-.623-1.751,1.589,1.589,0,0,0-1.21,1.309,2.383,2.383,0,0,0,.524,1.887c.343.451.7.794.433,1.381a4.135,4.135,0,0,1-1.119,1.318c-.9.839-1.941,1.869-1.805,3.241A2.248,2.248,0,0,0,186.9,66.02a.9.9,0,0,0,.65-1.155.957.957,0,0,0-1.155-.659h.063a.9.9,0,0,1-.172-.235.821.821,0,0,1,.063-.785c.451-.83,1.372-1.327,1.959-2.049a3.259,3.259,0,0,0,.858-3.033Z" transform="translate(-11.639 -2.188)"/>
    <path id="Tracé_824" data-name="Tracé 824" class="cls-4" d="M84.156,73.522a13.54,13.54,0,0,1-1.381-2.32,3.71,3.71,0,0,1,1.1-4.017.966.966,0,0,0,.316-1.237.9.9,0,0,0-1.282-.334,5.606,5.606,0,0,0-2.175,5.19,6.237,6.237,0,0,0,1.146,2.708c.451.668,1.21,1.5.9,2.356a.9.9,0,0,0,.659,1.146.957.957,0,0,0,1.137-.7A3.3,3.3,0,0,0,84.156,73.522Z" transform="translate(-1.552 -3.236)"/>
    <path id="Tracé_825" data-name="Tracé 825" class="cls-4" d="M82.387,106.723a7.114,7.114,0,0,1-1.2-.108,3.521,3.521,0,0,1-.6-.162,1.454,1.454,0,0,1-.4-.2h0a.47.47,0,0,1-.1-.09s-.208-.244-.135-.135a1.552,1.552,0,0,1-.2-.533,3.7,3.7,0,0,0-.542-1.435c-1.228-1.661-3.611-.975-5.1-.172a.925.925,0,1,0,.9,1.616,5.028,5.028,0,0,1,.993-.415,2.889,2.889,0,0,1,.975-.172h.46l.1.054c.054.054.126.126.054,0a1.066,1.066,0,0,1,.117.162,4.144,4.144,0,0,1,.19.749c.487,2.076,2.555,2.546,4.414,2.609C83.6,108.646,83.587,106.768,82.387,106.723Z" transform="translate(-0.866 -6.892)"/>
    <path id="Tracé_826" data-name="Tracé 826" class="cls-4" d="M218.631,96.923l-5.145-1.137a5.344,5.344,0,0,0-7.077-2.943.9.9,0,0,0-.334,1.291.966.966,0,0,0,1.282.334,3.4,3.4,0,0,1,4.513,2.365.966.966,0,0,0,.659.659l5.651,1.246C219.308,98.991,219.813,97.185,218.631,96.923Z" transform="translate(-13.74 -5.857)"/>
    <path id="Tracé_827" data-name="Tracé 827" class="cls-4" d="M325.581,220.415l-1.372.3a6.951,6.951,0,0,0-7.574-3.322.936.936,0,0,0,.5,1.805,5.028,5.028,0,0,1,5.669,2.825.975.975,0,0,0,1.155.659l2.121-.469C327.26,221.959,326.755,220.153,325.581,220.415Z" transform="translate(-24.446 -18.003)"/>
    <path id="Tracé_828" data-name="Tracé 828" class="cls-4" d="M77.429,222.172a1.887,1.887,0,0,0-2.636,0,2.482,2.482,0,0,0-.749,1.805,10.282,10.282,0,0,1-3.412-.524.937.937,0,1,0-.506,1.805,12.141,12.141,0,0,0,4.893.533c.46-.045.993-.4.9-.9a6.4,6.4,0,0,1,0-.83,1.094,1.094,0,0,1,0-.172.262.262,0,0,1,0-.081,1.5,1.5,0,0,1,.054-.19h.063a.9.9,0,0,0,1.309,0,.957.957,0,0,0,.081-1.444Z" transform="translate(-0.458 -18.433)"/>
    <path id="Tracé_829" data-name="Tracé 829" class="cls-4" d="M272.075,45.842c-.966.587-2.1.181-3.069-.217a15.59,15.59,0,0,0-2.952-1.137c-1.85-.343-4.179,0-4.748,2.121a.936.936,0,1,0,1.805.5,1.237,1.237,0,0,1,1.183-.849,4.7,4.7,0,0,1,2.356.361c2.013.821,4.243,2.157,6.373.839C274.043,46.789,273.1,45.165,272.075,45.842Z" transform="translate(-19.125 -1.183)"/>
    <path id="Tracé_830" data-name="Tracé 830" class="cls-4" d="M215.752,57.393a.65.65,0,0,0-.19-.3l-.172-.108a.975.975,0,0,0-.478-.126h-.244a.9.9,0,0,0-.415.244l-.533.524a.731.731,0,0,0-.19.307.614.614,0,0,0-.081.361.641.641,0,0,0,.081.361.65.65,0,0,0,.19.3l.19.153a.993.993,0,0,0,.478.126h.253a.9.9,0,0,0,.406-.244l.533-.524a.731.731,0,0,0,.19-.307.614.614,0,0,0,.081-.361.641.641,0,0,0-.1-.406Z" transform="translate(-14.471 -2.398)"/>
    <path id="Tracé_831" data-name="Tracé 831" class="cls-4" d="M169.576,32.8a.65.65,0,0,0-.19-.3.749.749,0,0,0-.307-.2.785.785,0,0,0-.361-.081h-.244a.9.9,0,0,0-.415.244l-.144.19a.9.9,0,0,0-.135.469v.533a.812.812,0,0,0,.081.361.668.668,0,0,0,.2.3.6.6,0,0,0,.3.2.839.839,0,0,0,.361.081h.253a.9.9,0,0,0,.415-.244l.144-.19a.9.9,0,0,0,.126-.469v-.533a.641.641,0,0,0-.081-.361Z" transform="translate(-10.027)"/>
    <path id="Tracé_832" data-name="Tracé 832" class="cls-4" d="M346.964,148.836a.9.9,0,0,0-.244-.415l-.19-.144a.9.9,0,0,0-.469-.126h-.533a.722.722,0,0,0-.361.072.749.749,0,0,0-.3.2.722.722,0,0,0-.2.3.839.839,0,0,0-.081.361v.253a.9.9,0,0,0,.244.415l.19.144a.9.9,0,0,0,.469.126h.533a.7.7,0,0,0,.361-.072.75.75,0,0,0,.3-.2.641.641,0,0,0,.2-.3.9.9,0,0,0,.081-.37Z" transform="translate(-27.233 -11.282)"/>
    <path id="Tracé_833" data-name="Tracé 833" class="cls-4" d="M198.579,106a.939.939,0,1,0,.939.939A.939.939,0,0,0,198.579,106Z" transform="translate(-12.933 -7.18)"/>
    <path id="Tracé_834" data-name="Tracé 834" class="cls-4" d="M96.129,90.18a.939.939,0,1,0,.939.939.939.939,0,0,0-.939-.939Z" transform="translate(-2.963 -5.64)"/>
    <path id="Tracé_835" data-name="Tracé 835" class="cls-4" d="M66.536,128.818a.785.785,0,0,0-.5-.5.632.632,0,0,0-.361-.081.9.9,0,0,0-.659.271.993.993,0,0,0-.28.668v1.056a.813.813,0,0,0,.081.361.668.668,0,0,0,.2.307.65.65,0,0,0,.3.19.632.632,0,0,0,.361.081.966.966,0,0,0,.668-.271,1.029,1.029,0,0,0,.271-.668v-1.056A.632.632,0,0,0,66.536,128.818Z" transform="translate(0 -9.344)"/>
  </g>
</svg>
