<svg xmlns="http://www.w3.org/2000/svg" width="51.546" height="39.59" viewBox="0 0 51.546 39.59">
  <defs>
    <style>
      .cls-1 {
        fill: #d1d3d4;
      }

      .cls-2 {
        fill: #fff;
      }

      .cls-3 {
        fill: #231f20;
      }

      .cls-4 {
        fill: #03b898;
      }
    </style>
  </defs>
  <g id="_009" data-name="009" transform="translate(-67.745 -50.07)">
    <ellipse id="Ellipse_33" data-name="Ellipse 33" class="cls-1" cx="2.889" cy="0.751" rx="2.889" ry="0.751" transform="translate(109.739 87.271)"/>
    <ellipse id="Ellipse_34" data-name="Ellipse 34" class="cls-1" cx="7.192" cy="1.041" rx="7.192" ry="1.041" transform="translate(67.932 87.579)"/>
    <ellipse id="Ellipse_35" data-name="Ellipse 35" class="cls-1" cx="11.343" cy="0.984" rx="11.343" ry="0.984" transform="translate(82.871 84.46)"/>
    <rect id="Rectangle_91" data-name="Rectangle 91" class="cls-2" width="11.791" height="4.92" transform="translate(88.318 79.042)"/>
    <path id="Tracé_571" data-name="Tracé 571" class="cls-3" d="M184.92,203.639H173.129a.091.091,0,0,1-.09-.089v-4.92a.091.091,0,0,1,.089-.09H184.92a.091.091,0,0,1,.089.09v4.92A.091.091,0,0,1,184.92,203.639Zm-11.694-.179h11.612v-4.741H173.227Z" transform="translate(-84.811 -119.587)"/>
    <rect id="Rectangle_92" data-name="Rectangle 92" class="cls-2" width="19.998" height="1.619" rx="0.809" transform="translate(84.215 83.881)"/>
    <path id="Tracé_572" data-name="Tracé 572" class="cls-3" d="M171.046,225.212h-18.37a.9.9,0,1,1,0-1.8h18.37a.9.9,0,1,1,0,1.8Zm-18.378-1.619a.72.72,0,1,0,0,1.44h18.378a.72.72,0,1,0,0-1.44Z" transform="translate(-67.651 -139.623)"/>
    <path id="Tracé_573" data-name="Tracé 573" class="cls-3" d="M185.291,199v.535A93.964,93.964,0,0,0,173.5,202v-3Z" transform="translate(-85.182 -119.958)"/>
    <path id="Tracé_574" data-name="Tracé 574" class="cls-3" d="M173.146,201.733a.086.086,0,0,1-.053-.018.089.089,0,0,1-.033-.068v-3a.086.086,0,0,1,.086-.086h11.791a.086.086,0,0,1,.086.086v.535a.086.086,0,0,1-.076.086,94.506,94.506,0,0,0-11.779,2.463Zm.086-3v2.8a94.8,94.8,0,0,1,11.62-2.43v-.374Z" transform="translate(-84.828 -119.603)"/>
    <rect id="Rectangle_93" data-name="Rectangle 93" class="cls-2" width="49.975" height="28.895" rx="9.97" transform="translate(69.226 50.158)"/>
    <path id="Tracé_575" data-name="Tracé 575" class="cls-3" d="M123.025,79.142h-46.1A2.031,2.031,0,0,1,74.9,77.113V52.1a2.031,2.031,0,0,1,2.029-2.029h46.105a2.031,2.031,0,0,1,2.019,2.029V77.113a2.031,2.031,0,0,1-2.029,2.029Zm-46.1-28.891a1.852,1.852,0,0,0-1.85,1.852v25.01a1.852,1.852,0,0,0,1.85,1.852h46.105a1.852,1.852,0,0,0,1.85-1.852V52.1a1.852,1.852,0,0,0-1.86-1.848Z" transform="translate(-5.763)"/>
    <path id="Tracé_576" data-name="Tracé 576" class="cls-3" d="M124.869,69.527H75.629a.091.091,0,0,1-.089-.089.089.089,0,0,1,.089-.088h49.239a.088.088,0,0,1,.088.088.09.09,0,0,1-.088.089Z" transform="translate(-6.279 -15.529)"/>
    <path id="Tracé_577" data-name="Tracé 577" class="cls-4" d="M163.265,101.854h-.216c-.074-.039-.146-.082-.222-.115a16.04,16.04,0,0,1-7.587-6.7,14.712,14.712,0,0,1-1.685-4.657,12.944,12.944,0,0,1-.206-2.78c0-.146.06-.214.226-.241.233-.039.465-.1.693-.156a4.384,4.384,0,0,0,2.65-1.811,3.756,3.756,0,0,0,.605-2.315c-.01-.14.033-.195.195-.228,1.058-.171,2.111-.368,3.171-.531a12.822,12.822,0,0,1,3.7-.1c1.348.183,2.687.428,4.029.638.144.023.165.082.169.195a5.787,5.787,0,0,0,.051.9,3.891,3.891,0,0,0,1.6,2.529,5.385,5.385,0,0,0,2.216.875c.255.047.309.15.315.358a13.229,13.229,0,0,1-.6,4.311,15.141,15.141,0,0,1-7.336,8.923C164.459,101.277,163.854,101.561,163.265,101.854Z" transform="translate(-68.945 -25.825)"/>
    <rect id="Rectangle_94" data-name="Rectangle 94" class="cls-2" width="11.094" height="7.075" rx="3.538" transform="translate(88.666 63.67)"/>
    <path id="Tracé_578" data-name="Tracé 578" class="cls-2" d="M193.485,102.987h-5.546a.389.389,0,0,1-.389-.389v-2.2a3.163,3.163,0,0,1,6.324,0v2.2A.389.389,0,0,1,193.485,102.987Zm-5.157-.778H193.1V100.4a2.385,2.385,0,0,0-4.768,0Z" transform="translate(-96.499 -38.053)"/>
    <circle id="Ellipse_36" data-name="Ellipse 36" class="cls-4" cx="1.062" cy="1.062" r="1.062" transform="translate(93.152 65.046)"/>
    <rect id="Rectangle_95" data-name="Rectangle 95" class="cls-4" width="0.593" height="2.475" transform="translate(93.917 66.312)"/>
    <circle id="Ellipse_37" data-name="Ellipse 37" class="cls-4" cx="0.652" cy="0.652" r="0.652" transform="translate(71.162 51.562)"/>
    <circle id="Ellipse_38" data-name="Ellipse 38" class="cls-1" cx="0.652" cy="0.652" r="0.652" transform="translate(73.44 51.562)"/>
    <circle id="Ellipse_39" data-name="Ellipse 39" class="cls-1" cx="0.652" cy="0.652" r="0.652" transform="translate(75.718 51.562)"/>
    <line id="Ligne_6" data-name="Ligne 6" class="cls-2" y1="13.178" x2="12.483" transform="translate(102.638 62.231)"/>
    <path id="Tracé_579" data-name="Tracé 579" class="cls-1" d="M246.728,125.489a.088.088,0,0,1-.066-.15l12.5-13.178a.089.089,0,0,1,.126,0,.091.091,0,0,1,0,.126L246.8,125.466A.092.092,0,0,1,246.728,125.489Z" transform="translate(-144.09 -49.991)"/>
    <line id="Ligne_7" data-name="Ligne 7" class="cls-2" y1="5.216" x2="5.319" transform="translate(80.443 55.412)"/>
    <path id="Tracé_580" data-name="Tracé 580" class="cls-1" d="M132.63,82.457a.09.09,0,0,1-.062-.154l5.315-5.216a.088.088,0,0,1,.126,0,.089.089,0,0,1,0,.126L132.69,82.43A.082.082,0,0,1,132.63,82.457Z" transform="translate(-52.191 -21.74)"/>
    <line id="Ligne_8" data-name="Ligne 8" class="cls-2" x1="6.241" y2="6.511" transform="translate(107.031 57.353)"/>
    <path id="Tracé_581" data-name="Tracé 581" class="cls-1" d="M269.324,93.743a.086.086,0,0,1-.062-.025.09.09,0,0,1,0-.126L275.5,87.08a.089.089,0,0,1,.13.123l-6.249,6.513A.091.091,0,0,1,269.324,93.743Z" transform="translate(-162.293 -29.789)"/>
    <path id="Tracé_582" data-name="Tracé 582" class="cls-2" d="M71.7,177.722l.146.973s.584.261.615.424a3.136,3.136,0,0,1,.156.743c-.084.216-.364.138-.364.138a1.07,1.07,0,0,1,.025.389c-.041.088-1.362.195-1.556-.078a24.293,24.293,0,0,1-.632-3.091" transform="translate(-1.889 -102.415)"/>
    <path id="Tracé_583" data-name="Tracé 583" class="cls-3" d="M71.1,180.214c-.329,0-.735-.037-.86-.208a21.506,21.506,0,0,1-.648-3.13.089.089,0,1,1,.175-.027,21.158,21.158,0,0,0,.617,3.052c.134.183,1.218.14,1.414.074a1.271,1.271,0,0,0-.033-.305.089.089,0,0,1,.025-.084.091.091,0,0,1,.086-.021s.195.053.255-.086a1.825,1.825,0,0,0-.109-.517c-.021-.068-.039-.128-.049-.171a1.531,1.531,0,0,0-.566-.364.091.091,0,0,1-.053-.068l-.144-.973a.088.088,0,0,1,.175-.025l.138.934c.195.1.584.292.623.465a.958.958,0,0,0,.045.161,1.283,1.283,0,0,1,.105.632.335.335,0,0,1-.335.21.677.677,0,0,1,0,.315c-.016.037-.041.088-.4.125C71.538,180.195,71.342,180.214,71.1,180.214ZM71.813,179.965Z" transform="translate(-1.489 -102.055)"/>
    <path id="Tracé_584" data-name="Tracé 584" class="cls-2" d="M80.324,189.313a2.094,2.094,0,0,1-.214-.543" transform="translate(-9.96 -111.718)"/>
    <path id="Tracé_585" data-name="Tracé 585" class="cls-3" d="M79.951,189.008a.088.088,0,0,1-.074-.041,2.208,2.208,0,0,1-.228-.57.091.091,0,0,1,.064-.109.089.089,0,0,1,.109.064,2.111,2.111,0,0,0,.195.519.088.088,0,0,1-.076.136Z" transform="translate(-9.587 -111.327)"/>
    <path id="Tracé_586" data-name="Tracé 586" class="cls-2" d="M130.961,177.722l-.144.973s-.584.261-.617.424a3.043,3.043,0,0,0-.156.743c.084.216.364.138.364.138a1.07,1.07,0,0,0-.025.389c.041.088,1.362.195,1.556-.078a24.3,24.3,0,0,0,.632-3.091" transform="translate(-50.176 -102.415)"/>
    <path id="Tracé_587" data-name="Tracé 587" class="cls-3" d="M130.808,180.174c-.239,0-.436-.019-.455-.021-.36-.037-.389-.088-.4-.125a.677.677,0,0,1,0-.315.335.335,0,0,1-.335-.21,1.283,1.283,0,0,1,.105-.632c.019-.066.035-.123.045-.161.041-.173.42-.37.623-.465l.138-.934a.088.088,0,0,1,.175.025l-.144.973a.088.088,0,0,1-.053.068,1.531,1.531,0,0,0-.566.364c-.01.043-.027.1-.049.171a1.825,1.825,0,0,0-.109.517c.053.138.247.088.257.086a.088.088,0,0,1,.109.105,1.271,1.271,0,0,0-.033.305c.195.066,1.272.123,1.414-.074a20.5,20.5,0,0,0,.617-3.052.089.089,0,1,1,.175.027,21.5,21.5,0,0,1-.648,3.13C131.543,180.137,131.137,180.174,130.808,180.174ZM130.09,179.925Z" transform="translate(-49.824 -102.015)"/>
    <path id="Tracé_588" data-name="Tracé 588" class="cls-2" d="M133,189.313a2.14,2.14,0,0,0,.216-.543" transform="translate(-52.561 -111.718)"/>
    <path id="Tracé_589" data-name="Tracé 589" class="cls-3" d="M132.632,189.01a.086.086,0,0,1-.047-.014.089.089,0,0,1-.029-.123,1.981,1.981,0,0,0,.206-.519.089.089,0,0,1,.107-.064.088.088,0,0,1,.064.109,2.175,2.175,0,0,1-.226.568A.091.091,0,0,1,132.632,189.01Z" transform="translate(-52.192 -111.329)"/>
    <path id="Tracé_590" data-name="Tracé 590" class="cls-3" d="M82,114.553h0a12.011,12.011,0,0,0-1.566-3.529c-.846-.936-3.157-1.928-6.988-1.432a8.547,8.547,0,0,0-3.187,1.667,7.053,7.053,0,0,0-1.628,3.169s-1.445,5.253-.636,9.075l2.369.144a23.392,23.392,0,0,1,.854-8.052c.222,4.474.568,11.633.809,18.639l2.8-.058.8-9,.294,8.9H78.78s.8-11.2.412-18.979c1.445,3.62,1.045,8.56,1.045,8.56l2.369-.144C83.346,120.025,82.2,115.335,82,114.553Z" transform="translate(0 -47.836)"/>
    <path id="Tracé_591" data-name="Tracé 591" class="cls-2" d="M95.215,91.754c-.113-.7-1.282-.875-1.224-.047a1.218,1.218,0,0,0,.311.778.724.724,0,0,0,.778.183" transform="translate(-21.139 -33.091)"/>
    <path id="Tracé_592" data-name="Tracé 592" class="cls-3" d="M94.395,92.372a.872.872,0,0,1-.613-.265,1.335,1.335,0,0,1-.34-.848.558.558,0,0,1,.5-.658.85.85,0,0,1,.92.681.1.1,0,1,1-.195.033.658.658,0,0,0-.7-.516c-.132.016-.348.093-.325.444a1.132,1.132,0,0,0,.288.724.623.623,0,0,0,.671.161.1.1,0,0,1,.132.051.1.1,0,0,1-.051.134A.714.714,0,0,1,94.395,92.372Z" transform="translate(-20.691 -32.643)"/>
    <path id="Tracé_593" data-name="Tracé 593" class="cls-2" d="M115.25,91.754c.111-.7,1.28-.875,1.222-.047a1.218,1.218,0,0,1-.311.778.724.724,0,0,1-.778.183" transform="translate(-38.264 -33.091)"/>
    <path id="Tracé_594" data-name="Tracé 594" class="cls-3" d="M115.185,92.436a.714.714,0,0,1-.284-.058.106.106,0,1,1,.084-.195.621.621,0,0,0,.669-.161,1.132,1.132,0,0,0,.28-.7c.023-.35-.195-.428-.325-.444a.658.658,0,0,0-.7.516.1.1,0,1,1-.195-.033.848.848,0,0,1,.92-.681.558.558,0,0,1,.5.642,1.325,1.325,0,0,1-.34.84A.872.872,0,0,1,115.185,92.436Z" transform="translate(-37.83 -32.707)"/>
    <path id="Tracé_595" data-name="Tracé 595" class="cls-4" d="M104.233,112.32l-.819,4.9-.3,1.786-.381-1.805L101.7,112.32Z" transform="translate(-27.35 -50.14)"/>
    <path id="Tracé_596" data-name="Tracé 596" class="cls-2" d="M106.765,116.755l.249,3.212-.294,1.788-.389-1.805.144-3.144-.305-.525.356-.551.494.51Z" transform="translate(-30.95 -52.887)"/>
    <path id="Tracé_597" data-name="Tracé 597" class="cls-2" d="M104.233,101.124a1.338,1.338,0,0,1-1.237.689,1.484,1.484,0,0,1-1.3-.689l.039-.492.089-1.144.086-1.068h2.1l.07.873.021.284Z" transform="translate(-27.35 -38.944)"/>
    <path id="Tracé_598" data-name="Tracé 598" class="cls-3" d="M102.574,101.493a1.58,1.58,0,0,1-1.385-.741.088.088,0,0,1-.012-.054l.216-2.7a.1.1,0,0,1,.1-.093h2.1a.1.1,0,0,1,.1.093l.216,2.7a.109.109,0,0,1,0,.049A1.428,1.428,0,0,1,102.574,101.493Zm-1.194-.813a1.389,1.389,0,0,0,1.194.613,1.247,1.247,0,0,0,1.136-.609L103.5,98.1h-1.918Z" transform="translate(-26.929 -38.525)"/>
    <path id="Tracé_599" data-name="Tracé 599" class="cls-3" d="M104.413,102.49a1.009,1.009,0,0,1-.142.366,1.881,1.881,0,0,1-.693.605,2.959,2.959,0,0,1-1.679.449l.089-1.144a5.159,5.159,0,0,0,1.214,0,3.517,3.517,0,0,0,1.047-.195C104.3,102.546,104.361,102.521,104.413,102.49Z" transform="translate(-27.511 -42.222)"/>
    <path id="Tracé_600" data-name="Tracé 600" class="cls-3" d="M101.734,103.59a1.426,1.426,0,0,1-.224-.016.1.1,0,0,1-.082-.1l.089-1.144a.109.109,0,0,1,.037-.068.1.1,0,0,1,.074-.019,5.1,5.1,0,0,0,1.191,0,3.416,3.416,0,0,0,1.017-.195c.053-.023.105-.049.154-.076a.1.1,0,0,1,.105,0,.1.1,0,0,1,.039.1,1.1,1.1,0,0,1-.156.389,1.945,1.945,0,0,1-.726.64A3.281,3.281,0,0,1,101.734,103.59Zm-.105-.195a3.144,3.144,0,0,0,1.529-.447,1.751,1.751,0,0,0,.658-.584,1.037,1.037,0,0,0,.068-.13,3.667,3.667,0,0,1-1.047.195,5.368,5.368,0,0,1-1.132,0Z" transform="translate(-27.131 -41.791)"/>
    <path id="Tracé_601" data-name="Tracé 601" class="cls-2" d="M101.069,88.045h-.195a1.613,1.613,0,0,1-1.6-1.613V83.88l1.856.461,1.556-.461v2.552A1.613,1.613,0,0,1,101.069,88.045Z" transform="translate(-25.392 -27.233)"/>
    <path id="Tracé_602" data-name="Tracé 602" class="cls-3" d="M100.651,87.732h-.195a1.716,1.716,0,0,1-1.706-1.714V83.466a.1.1,0,0,1,.124-.1l1.831.453,1.531-.451a.1.1,0,0,1,.088.016.1.1,0,0,1,.041.08v2.552A1.716,1.716,0,0,1,100.651,87.732Zm-1.7-4.138v2.424a1.515,1.515,0,0,0,1.513,1.512h.195a1.515,1.515,0,0,0,1.506-1.512V83.6l-1.42.422a.1.1,0,0,1-.053,0Z" transform="translate(-24.974 -26.819)"/>
    <path id="Tracé_603" data-name="Tracé 603" d="M99.25,89.926V89.78h.029l.274-.056a1.945,1.945,0,0,1,.449-.056,3.186,3.186,0,0,1,.648.089,1.632,1.632,0,0,0,.679.023c.167-.031.333-.064.5-.091a1.515,1.515,0,0,1,.375-.018,5.111,5.111,0,0,1,.566.113.051.051,0,0,1,.043.056v.126a.062.062,0,0,1-.031.056.194.194,0,0,0-.074.089.52.52,0,0,0-.025.078c-.027.1-.051.195-.08.29a.547.547,0,0,1-.368.377.79.79,0,0,1-.414.029.652.652,0,0,1-.492-.344,1.638,1.638,0,0,1-.115-.284.763.763,0,0,0-.068-.138.074.074,0,0,0-.047-.033.6.6,0,0,0-.1,0,.076.076,0,0,0-.074.049.8.8,0,0,0-.047.13.973.973,0,0,1-.16.34.6.6,0,0,1-.338.261,1.119,1.119,0,0,1-.161.027.936.936,0,0,1-.455-.064.389.389,0,0,1-.214-.195,2.35,2.35,0,0,1-.152-.44.313.313,0,0,0-.076-.144A.237.237,0,0,1,99.25,89.926Z" transform="translate(-25.376 -31.893)"/>
    <path id="Tracé_604" data-name="Tracé 604" class="cls-3" d="M101.009,76.824h-.037a.1.1,0,0,1-.056-.13,2.529,2.529,0,0,0,0-1.984,1.879,1.879,0,0,0-1.556-1.1,2.821,2.821,0,0,0-.8.111,2.4,2.4,0,0,0-.856.348,1.809,1.809,0,0,0-.65,1.119,5.641,5.641,0,0,0-.047,1.362.1.1,0,0,1-.1.105.1.1,0,0,1-.105-.1,5.77,5.77,0,0,1,.051-1.416,2.008,2.008,0,0,1,.718-1.235,2.589,2.589,0,0,1,.926-.389,3.019,3.019,0,0,1,.854-.117,2.08,2.08,0,0,1,1.735,1.218,2.733,2.733,0,0,1,0,2.14A.1.1,0,0,1,101.009,76.824Z" transform="translate(-23.392 -18.791)"/>
    <path id="Tracé_605" data-name="Tracé 605" class="cls-3" d="M107.886,93.555a1.969,1.969,0,0,1-.253-.014.1.1,0,0,1-.088-.111.1.1,0,0,1,.111-.088,2.093,2.093,0,0,0,.42,0,3.246,3.246,0,0,0-.276-1.072A.1.1,0,1,1,108,92.2c.119.309.389,1.052.255,1.263a.156.156,0,0,1-.119.078A1.726,1.726,0,0,1,107.886,93.555Z" transform="translate(-32.057 -33.879)"/>
    <path id="Tracé_606" data-name="Tracé 606" class="cls-3" d="M105.425,100.669a.1.1,0,0,1-.018-.195,3.85,3.85,0,0,1,1.27-.029.1.1,0,0,1,.074.123.1.1,0,0,1-.123.074,3.555,3.555,0,0,0-1.185.029Z" transform="translate(-30.277 -40.538)"/>
    <path id="Tracé_607" data-name="Tracé 607" class="cls-2" d="M110.069,235.791l-.019,1.85,1.3.232.058-.389a2.364,2.364,0,0,0,.724.605c.407.195,2.784,1.019,2.582.222s-1.189-1.13-1.624-1.6a1.212,1.212,0,0,1-.348-.973" transform="translate(-34.075 -149.55)"/>
    <path id="Tracé_608" data-name="Tracé 608" class="cls-3" d="M113.927,238.4a7.492,7.492,0,0,1-2.183-.568,2.216,2.216,0,0,1-.628-.482l-.029.195a.09.09,0,0,1-.037.058.082.082,0,0,1-.066.016l-1.29-.231a.089.089,0,0,1-.074-.088l.019-1.85a.089.089,0,0,1,.089-.088h0a.088.088,0,0,1,.088.089l-.018,1.774,1.132.195.043-.3a.089.089,0,0,1,.16-.041,2.264,2.264,0,0,0,.693.584c.409.195,2.1.753,2.424.484.029-.023.058-.062.033-.161a2.136,2.136,0,0,0-1.008-1.093,3.479,3.479,0,0,1-.6-.465,1.286,1.286,0,0,1-.372-1.039.089.089,0,0,1,.175.029,1.117,1.117,0,0,0,.323.893,3.448,3.448,0,0,0,.564.438,2.256,2.256,0,0,1,1.08,1.2.311.311,0,0,1-.091.344A.689.689,0,0,1,113.927,238.4Z" transform="translate(-33.729 -149.223)"/>
    <path id="Tracé_609" data-name="Tracé 609" class="cls-2" d="M84.32,235.766l.019,1.85-1.3.222-.058-.389a2.364,2.364,0,0,1-.72.609c-.407.195-2.786,1.019-2.582.222s1.189-1.13,1.624-1.6a1.212,1.212,0,0,0,.348-.973" transform="translate(-9.602 -149.526)"/>
    <path id="Tracé_610" data-name="Tracé 610" class="cls-3" d="M79.763,238.379a.685.685,0,0,1-.43-.107.311.311,0,0,1-.091-.344,2.255,2.255,0,0,1,1.08-1.2,3.446,3.446,0,0,0,.564-.438,1.111,1.111,0,0,0,.325-.889.089.089,0,0,1,.074-.1.088.088,0,0,1,.1.072,1.3,1.3,0,0,1-.375,1.035,3.478,3.478,0,0,1-.6.465,2.1,2.1,0,0,0-1.008,1.093c-.025.1,0,.138.033.161.327.268,2.015-.29,2.424-.484a2.264,2.264,0,0,0,.693-.584.09.09,0,0,1,.093-.031.088.088,0,0,1,.064.072l.045.3,1.132-.195-.019-1.774a.089.089,0,0,1,.089-.089h0a.089.089,0,0,1,.089.088l.019,1.85a.089.089,0,0,1-.074.088l-1.3.231a.086.086,0,0,1-.068-.016.088.088,0,0,1-.035-.058l-.029-.195a2.216,2.216,0,0,1-.628.482A7.513,7.513,0,0,1,79.763,238.379Z" transform="translate(-9.245 -149.197)"/>
    <path id="Tracé_611" data-name="Tracé 611" class="cls-2" d="M96.36,159.938H94.108a.1.1,0,0,1-.093-.07l-.6-2.173-.525,2.035a.1.1,0,0,1-.1.074h0l-3.083-.078a.1.1,0,0,1-.093-.1.1.1,0,0,1,.1-.1h0l3.006.076.6-2.315a.1.1,0,0,1,.093-.072h0a.1.1,0,0,1,.093.072l.675,2.451H96.36a.1.1,0,1,1,0,.195Z" transform="translate(-17.619 -86.305)"/>
    <path id="Tracé_612" data-name="Tracé 612" class="cls-3" d="M282.217,164.919a1.624,1.624,0,0,0-.195-.889,6.54,6.54,0,0,1-.4-.562,3.571,3.571,0,0,1-.089-1.185,1.474,1.474,0,0,0-.416-.881c-.206-.21-.475-.354-.673-.572a4.268,4.268,0,0,1-.6-1.311,3.284,3.284,0,0,0-1.3-1.529c.354.714-.453,1.619-.088,2.334.115.224.337.389.422.624.2.584-.479,1.194-.261,1.763.109.284.414.449.556.718.195.364.041.8.056,1.214a2.221,2.221,0,0,0,.778,1.463c.255.245.537.455.813.675.329.265.467.541.757.119A3.634,3.634,0,0,0,282.217,164.919Z" transform="translate(-169.642 -86.925)"/>
    <path id="Tracé_613" data-name="Tracé 613" class="cls-3" d="M299.628,168.643a2.1,2.1,0,0,1,0-1.325c.195-.467.7-.8.763-1.3.039-.331-.13-.665-.064-.992a1.812,1.812,0,0,1,.554-.792,3.307,3.307,0,0,0,.854-2.021,5.058,5.058,0,0,1,.813,1.344,1.728,1.728,0,0,1-.119,1.519,1.339,1.339,0,0,0-.206.337c-.1.321.177.623.319.928a1.066,1.066,0,0,1-.1,1.1c-.288.36-.846.5-.988.94a2.229,2.229,0,0,0-.049.5,1.467,1.467,0,0,1-1.054,1.257c-.34.082-.335-.053-.389-.34C299.87,169.4,299.722,169.029,299.628,168.643Z" transform="translate(-186.686 -90.325)"/>
    <path id="Tracé_614" data-name="Tracé 614" class="cls-3" d="M288.723,160.631c-.243-.84-.34-1.718-.6-2.556a14.268,14.268,0,0,0-.8-1.9l1.043.44a1.524,1.524,0,0,1,.854.634c.274.568-.218,1.3.07,1.86a4.738,4.738,0,0,0,.412.519,1.71,1.71,0,0,1,.091,1.525c-.072.214-.389,1.331-.671,1.021-.113-.125-.123-.584-.169-.757C288.886,161.15,288.8,160.893,288.723,160.631Z" transform="translate(-176.868 -85.46)"/>
    <path id="Tracé_615" data-name="Tracé 615" class="cls-3" d="M293.8,210.461c-.208-1.373-.86-6.215-.866-6.264l.195-.027c0,.049.658,4.891.866,6.262Z" transform="translate(-181.378 -124.122)"/>
    <path id="Tracé_616" data-name="Tracé 616" class="cls-3" d="M297.9,208.819h-.195c.012-1.632.693-7.871,1.086-8.3l.144.13C298.64,200.975,297.918,207.006,297.9,208.819Z" transform="translate(-185.228 -121.182)"/>
    <path id="Tracé_617" data-name="Tracé 617" class="cls-3" d="M297.244,196.015l-.195-.01a106.43,106.43,0,0,0-.6-10.976l.195-.019A109.062,109.062,0,0,1,297.244,196.015Z" transform="translate(-184.214 -108.689)"/>
    <path id="Tracé_618" data-name="Tracé 618" class="cls-2" d="M288.23,219.48h3.881l-.27,3.93a1.3,1.3,0,0,1-1.294,1.208H289.8a1.3,1.3,0,0,1-1.294-1.208Z" transform="translate(-177.593 -136.453)"/>
    <path id="Tracé_619" data-name="Tracé 619" class="cls-3" d="M290.135,224.308h-.751a1.4,1.4,0,0,1-1.395-1.3l-.27-3.93a.1.1,0,0,1,.027-.076.1.1,0,0,1,.072-.031H291.7a.1.1,0,0,1,.1.107l-.272,3.93A1.4,1.4,0,0,1,290.135,224.308Zm-2.208-5.138.263,3.823a1.2,1.2,0,0,0,1.194,1.113h.751a1.2,1.2,0,0,0,1.193-1.113l.265-3.823Z" transform="translate(-177.181 -136.042)"/>
  </g>
</svg>
