<svg xmlns="http://www.w3.org/2000/svg" width="38.1" height="39.405" viewBox="0 0 38.1 39.405">
  <defs>
    <style>
      .cls-1 {
        fill: #231f20;
      }

      .cls-2 {
        fill: #fff;
      }

      .cls-3 {
        fill: #d1d3d4;
      }

      .cls-4 {
        fill: #03b898;
      }
    </style>
  </defs>
  <g id="_177_coding_flatline" data-name="#177_coding_flatline" transform="translate(-87.82 -33.96)">
    <path id="Tracé_456" data-name="Tracé 456" class="cls-1" d="M181.362,190.916l.221-4.1-5.825-.285-3.648.212s.679,4.04,1.063,4.349S181.362,190.916,181.362,190.916Z" transform="translate(-69.976 -126.661)"/>
    <path id="Tracé_457" data-name="Tracé 457" class="cls-1" d="M174.175,190.838a4.848,4.848,0,0,1-1.528-.121c-.394-.321-1.019-3.986-1.094-4.4a.083.083,0,0,1,.017-.068.08.08,0,0,1,.061-.031l3.658-.217,5.835.285a.078.078,0,0,1,.058.027.085.085,0,0,1,.022.063l-.221,4.1a.087.087,0,0,1-.08.08C179.96,190.621,176.3,190.838,174.175,190.838Zm-2.434-4.458a19.34,19.34,0,0,0,1.019,4.2c.292.207,5.061,0,8.053-.188l.214-3.941-5.738-.285Zm9.153,4.1Z" transform="translate(-69.512 -126.221)"/>
    <path id="Tracé_458" data-name="Tracé 458" class="cls-1" d="M148.335,210.634a.34.34,0,0,1-.185-.625,9.485,9.485,0,0,0,1.792-1.408,17.864,17.864,0,0,0-1.88-2.968.34.34,0,1,1,.549-.4c2.148,2.936,2.038,3.374,2,3.519-.121.484-1.359,1.359-2.092,1.829a.34.34,0,0,1-.185.056ZM149.949,208.637Z" transform="translate(-49.956 -142.07)"/>
    <rect id="Rectangle_55" data-name="Rectangle 55" class="cls-1" width="1.761" height="6.75" rx="0.881" transform="translate(98.948 68.769) rotate(180)"/>
    <path id="Tracé_459" data-name="Tracé 459" class="cls-1" d="M143.44,205.412a.966.966,0,0,1-.965-.966v-4.988a.966.966,0,1,1,1.931,0v4.988A.966.966,0,0,1,143.44,205.412Zm0-6.75a.8.8,0,0,0-.795.8v4.988a.8.8,0,1,0,1.591,0v-4.988A.8.8,0,0,0,143.44,198.662Z" transform="translate(-45.374 -136.558)"/>
    <path id="Tracé_460" data-name="Tracé 460" class="cls-1" d="M238.8,210.634a.34.34,0,0,1-.185-.056c-.73-.475-1.972-1.345-2.092-1.829-.037-.144-.146-.582,2-3.519a.34.34,0,0,1,.549.4,18.112,18.112,0,0,0-1.882,2.972,9.413,9.413,0,0,0,1.793,1.4.34.34,0,0,1-.185.625ZM237.191,208.642Z" transform="translate(-123.438 -142.07)"/>
    <rect id="Rectangle_56" data-name="Rectangle 56" class="cls-1" width="1.761" height="6.75" rx="0.881" transform="translate(114.792 62.019)"/>
    <path id="Tracé_461" data-name="Tracé 461" class="cls-1" d="M247.112,205.412a.966.966,0,0,1-.966-.966v-4.988a.966.966,0,1,1,1.931,0v4.988A.966.966,0,0,1,247.112,205.412Zm0-6.75a.8.8,0,0,0-.8.8v4.988a.8.8,0,1,0,1.591,0v-4.988A.8.8,0,0,0,247.112,198.662Z" transform="translate(-131.439 -136.558)"/>
    <path id="Tracé_462" data-name="Tracé 462" class="cls-1" d="M173.4,224.654l-.355-3.6h-12.93l-.355,3.6a3.6,3.6,0,0,0,3.583,3.952h6.473a3.6,3.6,0,0,0,3.583-3.952Z" transform="translate(-59.706 -155.319)"/>
    <path id="Tracé_463" data-name="Tracé 463" class="cls-1" d="M169.4,228.268h-6.473a3.683,3.683,0,0,1-3.666-4.045l.353-3.6a.087.087,0,0,1,.085-.076h12.93a.087.087,0,0,1,.085.076l.353,3.6h0a3.683,3.683,0,0,1-3.666,4.038Zm-9.625-7.555-.34,3.527a3.515,3.515,0,0,0,3.491,3.858H169.4a3.515,3.515,0,0,0,3.5-3.858l-.34-3.527Z" transform="translate(-59.296 -154.904)"/>
    <rect id="Rectangle_57" data-name="Rectangle 57" class="cls-2" width="37.931" height="12.626" transform="translate(87.905 48.96)"/>
    <path id="Tracé_464" data-name="Tracé 464" class="cls-1" d="M125.835,134.587H87.9a.085.085,0,0,1-.085-.085V121.875a.085.085,0,0,1,.085-.085h37.931a.085.085,0,0,1,.085.085V134.5A.085.085,0,0,1,125.835,134.587Zm-37.846-.17h37.761V121.96H87.99Z" transform="translate(0 -72.915)"/>
    <rect id="Rectangle_58" data-name="Rectangle 58" class="cls-2" width="18.49" height="5.945" rx="2.973" transform="translate(97.625 52.411)"/>
    <path id="Tracé_465" data-name="Tracé 465" class="cls-3" d="M162.952,148.19H145.828a.769.769,0,0,1-.768-.768v-4.585a.768.768,0,0,1,.768-.768h17.124a.768.768,0,0,1,.768.768v4.585A.769.769,0,0,1,162.952,148.19Zm-17.124-5.944a.6.6,0,0,0-.6.6v4.585a.6.6,0,0,0,.6.6h17.124a.6.6,0,0,0,.6-.6v-4.585a.6.6,0,0,0-.6-.6Z" transform="translate(-47.52 -89.751)"/>
    <rect id="Rectangle_59" data-name="Rectangle 59" class="cls-3" width="1.323" height="0.666" transform="translate(98.8 53.166)"/>
    <path id="Tracé_466" data-name="Tracé 466" class="cls-3" d="M153.388,147.4h-1.323a.087.087,0,0,1-.085-.085v-.666a.085.085,0,0,1,.085-.085h1.323a.085.085,0,0,1,.085.085v.669A.085.085,0,0,1,153.388,147.4Zm-1.238-.17H153.3v-.5h-1.15Z" transform="translate(-53.264 -93.478)"/>
    <rect id="Rectangle_60" data-name="Rectangle 60" class="cls-2" width="1.323" height="0.666" transform="translate(98.8 54.421)"/>
    <path id="Tracé_467" data-name="Tracé 467" class="cls-3" d="M153.388,154.786h-1.323a.085.085,0,0,1-.085-.085v-.666a.087.087,0,0,1,.085-.085h1.323a.085.085,0,0,1,.085.085v.666A.085.085,0,0,1,153.388,154.786Zm-1.238-.17H153.3v-.487h-1.15Z" transform="translate(-53.264 -99.614)"/>
    <rect id="Rectangle_61" data-name="Rectangle 61" class="cls-2" width="1.323" height="0.666" transform="translate(98.8 55.678)"/>
    <path id="Tracé_468" data-name="Tracé 468" class="cls-3" d="M153.388,162.184h-1.323a.085.085,0,0,1-.085-.085v-.664a.085.085,0,0,1,.085-.085h1.323a.085.085,0,0,1,.085.085v.664A.085.085,0,0,1,153.388,162.184Zm-1.238-.17H153.3v-.494h-1.15Z" transform="translate(-53.264 -105.757)"/>
    <rect id="Rectangle_62" data-name="Rectangle 62" class="cls-2" width="1.323" height="0.666" transform="translate(98.8 56.933)"/>
    <path id="Tracé_469" data-name="Tracé 469" class="cls-3" d="M153.388,169.576h-1.323a.085.085,0,0,1-.085-.085v-.666a.085.085,0,0,1,.085-.085h1.323a.085.085,0,0,1,.085.085v.666A.085.085,0,0,1,153.388,169.576Zm-1.238-.17H153.3v-.5h-1.15Z" transform="translate(-53.264 -111.892)"/>
    <rect id="Rectangle_63" data-name="Rectangle 63" class="cls-2" width="1.323" height="0.666" transform="translate(100.918 53.166)"/>
    <path id="Tracé_470" data-name="Tracé 470" class="cls-3" d="M165.9,147.4h-1.314a.085.085,0,0,1-.085-.085v-.666a.085.085,0,0,1,.085-.085h1.323a.085.085,0,0,1,.085.085v.669a.087.087,0,0,1-.093.082Zm-1.238-.17h1.153v-.5h-1.153Z" transform="translate(-63.658 -93.478)"/>
    <rect id="Rectangle_64" data-name="Rectangle 64" class="cls-2" width="1.323" height="0.666" transform="translate(100.918 54.421)"/>
    <path id="Tracé_471" data-name="Tracé 471" class="cls-3" d="M165.9,154.786h-1.314a.085.085,0,0,1-.085-.085v-.666a.085.085,0,0,1,.085-.085h1.323a.087.087,0,0,1,.085.085v.666a.085.085,0,0,1-.093.085Zm-1.238-.17h1.153v-.487h-1.153Z" transform="translate(-63.658 -99.614)"/>
    <rect id="Rectangle_65" data-name="Rectangle 65" class="cls-2" width="1.323" height="0.666" transform="translate(100.918 55.678)"/>
    <path id="Tracé_472" data-name="Tracé 472" class="cls-3" d="M165.9,162.184h-1.314a.085.085,0,0,1-.085-.085v-.664a.085.085,0,0,1,.085-.085h1.323a.085.085,0,0,1,.085.085v.664a.085.085,0,0,1-.093.085Zm-1.238-.17h1.153v-.494h-1.153Z" transform="translate(-63.658 -105.757)"/>
    <rect id="Rectangle_66" data-name="Rectangle 66" class="cls-2" width="1.323" height="0.666" transform="translate(100.918 56.933)"/>
    <path id="Tracé_473" data-name="Tracé 473" class="cls-3" d="M165.9,169.576h-1.314a.085.085,0,0,1-.085-.085v-.666a.085.085,0,0,1,.085-.085h1.323a.085.085,0,0,1,.085.085v.666a.085.085,0,0,1-.093.085Zm-1.238-.17h1.153v-.5h-1.153Z" transform="translate(-63.658 -111.892)"/>
    <rect id="Rectangle_67" data-name="Rectangle 67" class="cls-2" width="1.323" height="0.666" transform="translate(103.034 53.166)"/>
    <path id="Tracé_474" data-name="Tracé 474" class="cls-3" d="M178.318,147.4h-1.323a.085.085,0,0,1-.085-.085v-.666a.085.085,0,0,1,.085-.085h1.323a.085.085,0,0,1,.085.085v.669A.085.085,0,0,1,178.318,147.4Zm-1.238-.17h1.153v-.5H177.08Z" transform="translate(-73.961 -93.478)"/>
    <rect id="Rectangle_68" data-name="Rectangle 68" class="cls-2" width="1.323" height="0.666" transform="translate(103.034 54.421)"/>
    <path id="Tracé_475" data-name="Tracé 475" class="cls-3" d="M178.318,154.786h-1.323a.085.085,0,0,1-.085-.085v-.666a.085.085,0,0,1,.085-.085h1.323a.085.085,0,0,1,.085.085v.666A.085.085,0,0,1,178.318,154.786Zm-1.238-.17h1.153v-.487H177.08Z" transform="translate(-73.961 -99.614)"/>
    <rect id="Rectangle_69" data-name="Rectangle 69" class="cls-2" width="1.323" height="0.666" transform="translate(103.034 55.678)"/>
    <path id="Tracé_476" data-name="Tracé 476" class="cls-3" d="M178.318,162.184h-1.323a.085.085,0,0,1-.085-.085v-.664a.085.085,0,0,1,.085-.085h1.323a.085.085,0,0,1,.085.085v.664A.085.085,0,0,1,178.318,162.184Zm-1.238-.17h1.153v-.494H177.08Z" transform="translate(-73.961 -105.757)"/>
    <rect id="Rectangle_70" data-name="Rectangle 70" class="cls-3" width="7.672" height="0.666" transform="translate(103.034 56.933)"/>
    <path id="Tracé_477" data-name="Tracé 477" class="cls-3" d="M184.667,169.576h-7.672a.085.085,0,0,1-.085-.085v-.666a.085.085,0,0,1,.085-.085h7.672a.085.085,0,0,1,.085.085v.666A.085.085,0,0,1,184.667,169.576Zm-7.587-.17h7.5v-.5h-7.5Z" transform="translate(-73.961 -111.892)"/>
    <rect id="Rectangle_71" data-name="Rectangle 71" class="cls-2" width="1.323" height="0.666" transform="translate(105.15 53.166)"/>
    <path id="Tracé_478" data-name="Tracé 478" class="cls-3" d="M190.778,147.4h-1.323a.087.087,0,0,1-.085-.085v-.666a.085.085,0,0,1,.085-.085h1.323a.085.085,0,0,1,.085.085v.669A.085.085,0,0,1,190.778,147.4Zm-1.238-.17h1.153v-.5H189.54Z" transform="translate(-84.305 -93.478)"/>
    <rect id="Rectangle_72" data-name="Rectangle 72" class="cls-2" width="1.323" height="0.666" transform="translate(105.15 54.421)"/>
    <path id="Tracé_479" data-name="Tracé 479" class="cls-3" d="M190.778,154.786h-1.323a.085.085,0,0,1-.085-.085v-.666a.087.087,0,0,1,.085-.085h1.323a.085.085,0,0,1,.085.085v.666A.085.085,0,0,1,190.778,154.786Zm-1.238-.17h1.153v-.487H189.54Z" transform="translate(-84.305 -99.614)"/>
    <rect id="Rectangle_73" data-name="Rectangle 73" class="cls-2" width="1.323" height="0.666" transform="translate(105.15 55.678)"/>
    <path id="Tracé_480" data-name="Tracé 480" class="cls-3" d="M190.778,162.184h-1.323a.085.085,0,0,1-.085-.085v-.664a.085.085,0,0,1,.085-.085h1.323a.085.085,0,0,1,.085.085v.664A.085.085,0,0,1,190.778,162.184Zm-1.238-.17h1.153v-.494H189.54Z" transform="translate(-84.305 -105.757)"/>
    <rect id="Rectangle_74" data-name="Rectangle 74" class="cls-2" width="1.323" height="0.666" transform="translate(107.268 53.166)"/>
    <path id="Tracé_481" data-name="Tracé 481" class="cls-3" d="M203.248,147.4h-1.323a.085.085,0,0,1-.085-.085v-.666a.085.085,0,0,1,.085-.085h1.323a.085.085,0,0,1,.085.085v.669A.087.087,0,0,1,203.248,147.4Zm-1.238-.17h1.153v-.5H202.01Z" transform="translate(-94.657 -93.478)"/>
    <rect id="Rectangle_75" data-name="Rectangle 75" class="cls-2" width="1.323" height="0.666" transform="translate(107.268 54.421)"/>
    <path id="Tracé_482" data-name="Tracé 482" class="cls-3" d="M203.248,154.786h-1.323a.085.085,0,0,1-.085-.085v-.666a.085.085,0,0,1,.085-.085h1.323a.087.087,0,0,1,.085.085v.666A.085.085,0,0,1,203.248,154.786Zm-1.238-.17h1.153v-.487H202.01Z" transform="translate(-94.657 -99.614)"/>
    <rect id="Rectangle_76" data-name="Rectangle 76" class="cls-2" width="1.323" height="0.666" transform="translate(107.268 55.678)"/>
    <path id="Tracé_483" data-name="Tracé 483" class="cls-3" d="M203.248,162.184h-1.323a.085.085,0,0,1-.085-.085v-.664a.085.085,0,0,1,.085-.085h1.323a.085.085,0,0,1,.085.085v.664A.085.085,0,0,1,203.248,162.184Zm-1.238-.17h1.153v-.494H202.01Z" transform="translate(-94.657 -105.757)"/>
    <rect id="Rectangle_77" data-name="Rectangle 77" class="cls-2" width="1.323" height="0.666" transform="translate(109.384 53.166)"/>
    <path id="Tracé_484" data-name="Tracé 484" class="cls-3" d="M215.708,147.4h-1.323a.085.085,0,0,1-.085-.085v-.666a.085.085,0,0,1,.085-.085h1.323a.085.085,0,0,1,.085.085v.669A.085.085,0,0,1,215.708,147.4Zm-1.238-.17h1.153v-.5H214.47Z" transform="translate(-105.001 -93.478)"/>
    <rect id="Rectangle_78" data-name="Rectangle 78" class="cls-2" width="1.323" height="0.666" transform="translate(109.384 54.421)"/>
    <path id="Tracé_485" data-name="Tracé 485" class="cls-3" d="M215.708,154.786h-1.323a.085.085,0,0,1-.085-.085v-.666a.085.085,0,0,1,.085-.085h1.323a.085.085,0,0,1,.085.085v.666A.085.085,0,0,1,215.708,154.786Zm-1.238-.17h1.153v-.487H214.47Z" transform="translate(-105.001 -99.614)"/>
    <rect id="Rectangle_79" data-name="Rectangle 79" class="cls-2" width="1.323" height="0.666" transform="translate(109.384 55.678)"/>
    <path id="Tracé_486" data-name="Tracé 486" class="cls-3" d="M215.708,162.184h-1.323a.085.085,0,0,1-.085-.085v-.664a.085.085,0,0,1,.085-.085h1.323a.085.085,0,0,1,.085.085v.664A.085.085,0,0,1,215.708,162.184Zm-1.238-.17h1.153v-.494H214.47Z" transform="translate(-105.001 -105.757)"/>
    <rect id="Rectangle_80" data-name="Rectangle 80" class="cls-2" width="1.323" height="0.666" transform="translate(111.499 53.166)"/>
    <path id="Tracé_487" data-name="Tracé 487" class="cls-3" d="M228.168,147.4h-1.323a.087.087,0,0,1-.085-.085v-.666a.085.085,0,0,1,.085-.085h1.323a.085.085,0,0,1,.085.085v.669A.085.085,0,0,1,228.168,147.4Zm-1.238-.17h1.153v-.5H226.93Z" transform="translate(-115.345 -93.478)"/>
    <rect id="Rectangle_81" data-name="Rectangle 81" class="cls-2" width="1.323" height="0.666" transform="translate(111.499 54.421)"/>
    <path id="Tracé_488" data-name="Tracé 488" class="cls-3" d="M228.168,154.786h-1.323a.085.085,0,0,1-.085-.085v-.666a.087.087,0,0,1,.085-.085h1.323a.085.085,0,0,1,.085.085v.666A.085.085,0,0,1,228.168,154.786Zm-1.238-.17h1.153v-.487H226.93Z" transform="translate(-115.345 -99.614)"/>
    <rect id="Rectangle_82" data-name="Rectangle 82" class="cls-2" width="1.323" height="0.666" transform="translate(111.499 55.678)"/>
    <path id="Tracé_489" data-name="Tracé 489" class="cls-3" d="M228.168,162.184h-1.323a.085.085,0,0,1-.085-.085v-.664a.085.085,0,0,1,.085-.085h1.323a.085.085,0,0,1,.085.085v.664A.085.085,0,0,1,228.168,162.184Zm-1.238-.17h1.153v-.494H226.93Z" transform="translate(-115.345 -105.757)"/>
    <rect id="Rectangle_83" data-name="Rectangle 83" class="cls-2" width="1.323" height="0.666" transform="translate(111.499 56.933)"/>
    <path id="Tracé_490" data-name="Tracé 490" class="cls-3" d="M228.168,169.576h-1.323a.085.085,0,0,1-.085-.085v-.666a.085.085,0,0,1,.085-.085h1.323a.085.085,0,0,1,.085.085v.666A.085.085,0,0,1,228.168,169.576Zm-1.238-.17h1.153v-.5H226.93Z" transform="translate(-115.345 -111.892)"/>
    <rect id="Rectangle_84" data-name="Rectangle 84" class="cls-2" width="1.323" height="0.666" transform="translate(113.617 53.166)"/>
    <path id="Tracé_491" data-name="Tracé 491" class="cls-3" d="M240.638,147.4h-1.323a.085.085,0,0,1-.085-.085v-.666a.085.085,0,0,1,.085-.085h1.323a.085.085,0,0,1,.085.085v.669A.087.087,0,0,1,240.638,147.4Zm-1.238-.17h1.15v-.5H239.4Z" transform="translate(-125.698 -93.478)"/>
    <rect id="Rectangle_85" data-name="Rectangle 85" class="cls-2" width="1.323" height="0.666" transform="translate(113.617 54.421)"/>
    <path id="Tracé_492" data-name="Tracé 492" class="cls-3" d="M240.638,154.786h-1.323a.085.085,0,0,1-.085-.085v-.666a.085.085,0,0,1,.085-.085h1.323a.087.087,0,0,1,.085.085v.666A.085.085,0,0,1,240.638,154.786Zm-1.238-.17h1.15v-.487H239.4Z" transform="translate(-125.698 -99.614)"/>
    <rect id="Rectangle_86" data-name="Rectangle 86" class="cls-2" width="1.323" height="0.666" transform="translate(113.617 55.678)"/>
    <path id="Tracé_493" data-name="Tracé 493" class="cls-3" d="M240.638,162.184h-1.323a.085.085,0,0,1-.085-.085v-.664a.085.085,0,0,1,.085-.085h1.323a.085.085,0,0,1,.085.085v.664A.085.085,0,0,1,240.638,162.184Zm-1.238-.17h1.15v-.494H239.4Z" transform="translate(-125.698 -105.757)"/>
    <rect id="Rectangle_87" data-name="Rectangle 87" class="cls-2" width="1.323" height="0.666" transform="translate(113.617 56.933)"/>
    <path id="Tracé_494" data-name="Tracé 494" class="cls-3" d="M240.638,169.576h-1.323a.085.085,0,0,1-.085-.085v-.666a.085.085,0,0,1,.085-.085h1.323a.085.085,0,0,1,.085.085v.666A.085.085,0,0,1,240.638,169.576Zm-1.238-.17h1.15v-.5H239.4Z" transform="translate(-125.698 -111.892)"/>
    <path id="Tracé_495" data-name="Tracé 495" class="cls-2" d="M215.851,152.2s-1.528-1.041-1.4-1.263,1.175.262,1.175.262a7.264,7.264,0,0,0-.377-1.206c-.138-.2-.452-.52-.452-.632s.105-.272.205-.221a3.127,3.127,0,0,1,.667.6c.032.105.11.319.11.319s.053-.611-.122-.773-.411-.374-.408-.457.17-.294.268-.245a2.408,2.408,0,0,1,.577.55,8.06,8.06,0,0,1,.207.849,2.618,2.618,0,0,0,.024-.8c-.076-.156-.367-.423-.151-.623s.579.895.618,1.172c0-.229.008-.46.02-.691.012-.2.076-.323.253-.127a.679.679,0,0,1,.134.4,10.3,10.3,0,0,1-.119,1.6,5.631,5.631,0,0,0,.35,1.912q.3,1.116.577,2.236c.17.706.35,1.415.5,2.128a3.5,3.5,0,0,1,.17,1.189c-.107.649-2.491,2.208-2.491,2.208Z" transform="translate(-105.121 -95.111)"/>
    <path id="Tracé_496" data-name="Tracé 496" class="cls-1" d="M215.79,160.234a.1.1,0,0,1-.039-.008.088.088,0,0,1-.046-.073l-.34-8.338c-.722-.492-1.528-1.117-1.391-1.359s.745,0,1.124.156a5.4,5.4,0,0,0-.323-1.007c-.046-.066-.115-.149-.182-.231-.17-.214-.285-.352-.285-.45a.357.357,0,0,1,.151-.285.182.182,0,0,1,.178-.012,3.98,3.98,0,0,1,.649.554.494.494,0,0,0-.09-.272l-.046-.044c-.268-.248-.394-.375-.389-.481a.465.465,0,0,1,.212-.3.183.183,0,0,1,.18-.015,1.17,1.17,0,0,1,.713.929.631.631,0,0,0-.02-.221.915.915,0,0,0-.071-.112c-.105-.153-.282-.406-.061-.61a.158.158,0,0,1,.17-.037c.17.058.324.4.436.715v-.139c0-.11.025-.26.138-.3s.226.08.262.119a.747.747,0,0,1,.155.453,5.5,5.5,0,0,1-.063,1.112c-.02.17-.041.34-.054.509A4.222,4.222,0,0,0,217,152c.036.122.071.245.1.367.217.813.406,1.545.579,2.238.2.79.357,1.454.5,2.13.017.08.037.17.059.255a2.562,2.562,0,0,1,.114.965c-.109.666-2.281,2.109-2.529,2.272A.085.085,0,0,1,215.79,160.234Zm-1.595-9.707c-.041,0-.066,0-.075.02a5.667,5.667,0,0,0,1.377,1.15.082.082,0,0,1,.036.066l.34,8.231c.725-.487,2.252-1.6,2.328-2.073a2.427,2.427,0,0,0-.11-.9c-.022-.09-.044-.17-.061-.26-.141-.679-.3-1.336-.5-2.124-.17-.691-.362-1.421-.577-2.235-.034-.122-.068-.243-.1-.365a4.419,4.419,0,0,1-.25-1.576c.014-.17.036-.34.056-.509a5.46,5.46,0,0,0,.063-1.078.6.6,0,0,0-.112-.353.274.274,0,0,0-.083-.07,1.072,1.072,0,0,0-.022.146c0,.153-.012.307-.015.46v.229a.085.085,0,0,1-.168.01c-.046-.319-.34-1.1-.481-1.124-.093.09-.048.194.088.391a1.149,1.149,0,0,1,.085.134,2.346,2.346,0,0,1-.017.849.085.085,0,0,1-.082.071.082.082,0,0,1-.085-.068,7.439,7.439,0,0,0-.2-.824,2.415,2.415,0,0,0-.538-.509c-.037,0-.141.127-.146.17a2.282,2.282,0,0,0,.34.34l.046.042c.2.182.16.734.149.849a.087.087,0,0,1-.073.078.088.088,0,0,1-.092-.056s-.08-.216-.112-.323a3.511,3.511,0,0,0-.623-.545.038.038,0,0,0-.025.015.2.2,0,0,0-.058.129,1.782,1.782,0,0,0,.246.34c.073.087.141.17.19.241a6.711,6.711,0,0,1,.389,1.233.085.085,0,0,1-.029.087.083.083,0,0,1-.088.01A3.164,3.164,0,0,0,214.2,150.527Z" transform="translate(-104.718 -94.681)"/>
    <path id="Tracé_497" data-name="Tracé 497" class="cls-2" d="M161.548,158.848,163,153.084s.939-.355,1.041-.786-.735,0-.735,0l.3-1.019s.27.532.44.253-.34-1.319-.542-1.294a3.924,3.924,0,0,0-1.445.635c-.076.2-.28,1.674-.28,1.674s-3.018,5.434-3.018,5.808S161.548,158.848,161.548,158.848Z" transform="translate(-58.893 -96.531)"/>
    <path id="Tracé_498" data-name="Tracé 498" class="cls-1" d="M161.15,158.546h0c-1.072-.041-2.87-.17-2.87-.572s2.67-5.215,3.018-5.837c.029-.211.207-1.476.282-1.676.1-.265,1.333-.666,1.515-.688.1-.014.2.075.328.265.18.277.452.9.3,1.156a.224.224,0,0,1-.2.122.443.443,0,0,1-.29-.214l-.2.652c.2-.085.486-.17.62-.071a.222.222,0,0,1,.061.248c-.1.421-.849.747-1.049.829l-1.438,5.721A.087.087,0,0,1,161.15,158.546Zm1.96-8.6a4.345,4.345,0,0,0-1.37.581c-.066.149-.219,1.248-.275,1.654a.093.093,0,0,1-.01.031c-1.158,2.082-3,5.49-3.007,5.774a6.925,6.925,0,0,0,2.637.4l1.432-5.7a.085.085,0,0,1,.053-.059c.25-.093.912-.409.987-.725v-.075c-.066-.053-.375.048-.611.17a.085.085,0,0,1-.093-.01.083.083,0,0,1-.027-.09l.3-1.019a.085.085,0,0,1,.156-.014c.07.134.188.285.25.289.014,0,.034-.025.042-.041a.958.958,0,0,0-.121-.647A1.13,1.13,0,0,0,163.11,149.941Z" transform="translate(-58.495 -96.145)"/>
    <path id="Tracé_499" data-name="Tracé 499" class="cls-4" d="M168.852,194.769l-.465,1.1s-4.5-.62-7.058.358l-.114-1.62L157.9,194c-.134.368-.1,5.373.662,7.3s3.283,3.566,8.447,2.6c0,0,3.843-1.528,4.684-3.524.538-1.279.509-4.415.4-6.136Z" transform="translate(-58.132 -132.862)"/>
    <path id="Tracé_500" data-name="Tracé 500" class="cls-2" d="M176.782,220.155a1.435,1.435,0,0,0,.112.509.34.34,0,0,0,.26.221c.17.012.279-.17.34-.324.17-.474.436-1.445-.161-1.739C176.64,218.487,176.755,219.778,176.782,220.155Z" transform="translate(-73.835 -153.424)"/>
    <path id="Tracé_501" data-name="Tracé 501" class="cls-1" d="M176.762,220.563h-.02a.418.418,0,0,1-.329-.268,1.528,1.528,0,0,1-.121-.545h0v-.036c-.044-.576-.048-1.189.238-1.384a.413.413,0,0,1,.433,0c.679.34.367,1.4.2,1.844C177.073,220.431,176.929,220.563,176.762,220.563Zm-.3-.827a1.359,1.359,0,0,0,.105.484c.017.039.085.17.187.17.136.008.228-.205.251-.27.148-.4.431-1.359-.119-1.634-.17-.083-.239-.036-.263-.02-.243.17-.183.966-.17,1.231Z" transform="translate(-73.43 -153.01)"/>
    <path id="Tracé_502" data-name="Tracé 502" class="cls-2" d="M214.312,218.435a1.47,1.47,0,0,0,.112.509.34.34,0,0,0,.26.221c.17.012.279-.17.34-.324.17-.475.436-1.445-.161-1.739C214.17,216.767,214.285,218.058,214.312,218.435Z" transform="translate(-104.992 -151.996)"/>
    <path id="Tracé_503" data-name="Tracé 503" class="cls-1" d="M214.255,218.843h-.019a.416.416,0,0,1-.34-.27,1.507,1.507,0,0,1-.121-.543v-.036c-.042-.576-.048-1.189.238-1.384a.413.413,0,0,1,.433,0c.679.34.367,1.4.2,1.844C214.567,218.706,214.421,218.843,214.255,218.843Zm-.046-2.123a.144.144,0,0,0-.093.029c-.243.17-.183.966-.17,1.231v.034h0a1.358,1.358,0,0,0,.105.486c.017.037.085.17.187.17.138,0,.228-.2.251-.27.148-.4.431-1.359-.119-1.634A.4.4,0,0,0,214.209,216.72Z" transform="translate(-104.548 -151.582)"/>
    <path id="Tracé_504" data-name="Tracé 504" class="cls-2" d="M186.335,207.975a5.342,5.342,0,0,0-1.528-2.563,3.019,3.019,0,0,0-3.255-.294,4.328,4.328,0,0,0-1.576,4C180.214,211.308,186.335,207.975,186.335,207.975Z" transform="translate(-76.479 -141.806)"/>
    <path id="Tracé_505" data-name="Tracé 505" class="cls-1" d="M180.68,209.553a1.558,1.558,0,0,1-.713-.143.812.812,0,0,1-.442-.679,4.42,4.42,0,0,1,1.61-4.076,3.1,3.1,0,0,1,3.357.3,5.409,5.409,0,0,1,1.55,2.608.083.083,0,0,1-.041.1C185.839,207.741,182.5,209.553,180.68,209.553Zm1.839-5.095a2.311,2.311,0,0,0-1.286.34,4.265,4.265,0,0,0-1.54,3.924.644.644,0,0,0,.352.543c1.258.657,5.28-1.438,5.816-1.724a5.193,5.193,0,0,0-1.474-2.454,3.04,3.04,0,0,0-1.868-.632Z" transform="translate(-76.105 -141.408)"/>
    <path id="Tracé_506" data-name="Tracé 506" class="cls-2" d="M180.968,217.231c-.414.127-.8.307-1.209.457a3.039,3.039,0,0,1,.8-1.044,3.7,3.7,0,0,0-2.887.693l.34-.708a3.619,3.619,0,0,0-2.143,2.145,3.736,3.736,0,0,0,1.9,4.68,4.5,4.5,0,0,0,4.565-.633,3.649,3.649,0,0,0,1.153-2.248,4.575,4.575,0,0,0-.368-2.717,1.391,1.391,0,0,0-1.019-.807,2.32,2.32,0,0,0-.849.112Z" transform="translate(-72.909 -151.6)"/>
    <path id="Tracé_507" data-name="Tracé 507" class="cls-1" d="M179.11,223.478a4.585,4.585,0,0,1-1.792-.36,3.828,3.828,0,0,1-1.949-4.787,3.7,3.7,0,0,1,2.218-2.2.085.085,0,0,1,.1.119l-.205.419a3.668,3.668,0,0,1,2.687-.523.083.083,0,0,1,.061.059.085.085,0,0,1-.02.082l-.132.134a3.359,3.359,0,0,0-.586.7l.267-.105c.25-.1.509-.2.769-.285h0l.275-.08a2.377,2.377,0,0,1,.886-.115,1.456,1.456,0,0,1,1.083.849,4.667,4.667,0,0,1,.379,2.778,3.726,3.726,0,0,1-1.189,2.3A4.371,4.371,0,0,1,179.11,223.478Zm-1.673-7.109a3.541,3.541,0,0,0-1.916,2.021,3.654,3.654,0,0,0,1.856,4.572,4.4,4.4,0,0,0,4.475-.618,3.548,3.548,0,0,0,1.126-2.2,4.544,4.544,0,0,0-.36-2.671,1.314,1.314,0,0,0-.953-.762,2.207,2.207,0,0,0-.822.109l-.27.08h0c-.258.08-.509.18-.756.278-.149.061-.3.121-.45.17a.087.087,0,0,1-.085-.017.085.085,0,0,1-.027-.083,2.5,2.5,0,0,1,.7-.951l.022-.02a3.69,3.69,0,0,0-2.663.708.087.087,0,0,1-.105,0,.085.085,0,0,1-.022-.1Z" transform="translate(-72.486 -151.187)"/>
    <path id="Tracé_508" data-name="Tracé 508" class="cls-2" d="M194.75,204.592s.194-1.212.413-1.359.428.562.428.562" transform="translate(-88.771 -140.511)"/>
    <path id="Tracé_509" data-name="Tracé 509" class="cls-1" d="M194.337,204.31h-.014a.083.083,0,0,1-.07-.1c.046-.294.216-1.262.45-1.411a.194.194,0,0,1,.17-.019c.209.078.353.538.38.628a.083.083,0,0,1-.058.105.085.085,0,0,1-.105-.056c-.066-.224-.192-.486-.277-.509a.02.02,0,0,0-.024,0,3.526,3.526,0,0,0-.375,1.294A.085.085,0,0,1,194.337,204.31Z" transform="translate(-88.358 -140.145)"/>
    <circle id="Ellipse_25" data-name="Ellipse 25" class="cls-1" cx="0.175" cy="0.175" r="0.175" transform="translate(107.451 63.575)"/>
    <circle id="Ellipse_26" data-name="Ellipse 26" class="cls-1" cx="0.175" cy="0.175" r="0.175" transform="translate(104.909 63.795)"/>
    <path id="Tracé_510" data-name="Tracé 510" class="cls-1" d="M220.494,206.01a.087.087,0,0,1-.073-.039c-.3-.482-1.241-.679-1.252-.679a.087.087,0,1,1,.034-.17,2.417,2.417,0,0,1,1.359.757.083.083,0,0,1-.027.117A.082.082,0,0,1,220.494,206.01Z" transform="translate(-108.986 -142.094)"/>
    <path id="Tracé_511" data-name="Tracé 511" class="cls-1" d="M170.062,206.839a.087.087,0,0,1-.053-.153,1.823,1.823,0,0,1,1.413-.273.083.083,0,0,1,.063.1.085.085,0,0,1-.1.063,1.67,1.67,0,0,0-1.269.243A.087.087,0,0,1,170.062,206.839Z" transform="translate(-68.206 -143.133)"/>
    <path id="Tracé_512" data-name="Tracé 512" class="cls-1" d="M169.124,201.434a.088.088,0,0,1-.065-.029,2.281,2.281,0,0,0-1.591-.791.085.085,0,0,1-.09-.08.083.083,0,0,1,.078-.09,2.439,2.439,0,0,1,1.732.849.087.087,0,0,1,0,.121.088.088,0,0,1-.065.02Z" transform="translate(-66.048 -138.209)"/>
    <path id="Tracé_513" data-name="Tracé 513" class="cls-1" d="M222.619,204.777H222.6a10.8,10.8,0,0,0-2.523-.25.088.088,0,1,1-.042-.17,10.381,10.381,0,0,1,2.6.248.085.085,0,0,1-.017.17Z" transform="translate(-109.708 -141.432)"/>
    <circle id="Ellipse_27" data-name="Ellipse 27" class="cls-2" cx="2.209" cy="2.209" r="2.209" transform="translate(90.844 53.268)"/>
    <path id="Tracé_514" data-name="Tracé 514" class="cls-3" d="M107.424,151.749a2.294,2.294,0,1,1,2.294-2.294A2.294,2.294,0,0,1,107.424,151.749Zm0-4.415a2.124,2.124,0,1,0,2.124,2.124,2.124,2.124,0,0,0-2.124-2.124Z" transform="translate(-14.37 -93.977)"/>
    <rect id="Rectangle_88" data-name="Rectangle 88" class="cls-2" width="0.435" height="0.965" rx="0.217" transform="translate(94.214 56.981) rotate(149.88)"/>
    <path id="Tracé_515" data-name="Tracé 515" class="cls-3" d="M120.957,165.692a.309.309,0,0,1-.078-.01.3.3,0,0,1-.183-.139l-.267-.46a.3.3,0,0,1,.523-.3l.267.459a.3.3,0,0,1-.11.413A.3.3,0,0,1,120.957,165.692Zm-.267-.893a.129.129,0,0,0-.127.1.122.122,0,0,0,.014.1l.265.459a.143.143,0,0,0,.082.063.138.138,0,0,0,.1-.014h0a.134.134,0,0,0,.061-.082.122.122,0,0,0-.014-.1l-.265-.459A.134.134,0,0,0,120.691,164.8Z" transform="translate(-27.042 -108.487)"/>
    <circle id="Ellipse_28" data-name="Ellipse 28" class="cls-2" cx="1.387" cy="1.387" r="1.387" transform="translate(91.666 54.031)"/>
    <path id="Tracé_516" data-name="Tracé 516" class="cls-3" d="M111.434,154.6a1.476,1.476,0,0,1-1.275-.732h0a1.472,1.472,0,1,1,2.014.53,1.454,1.454,0,0,1-.739.2Zm-1.129-.822a1.3,1.3,0,1,0-.134-.988A1.3,1.3,0,0,0,110.3,153.775Z" transform="translate(-18.379 -97.705)"/>
    <circle id="Ellipse_29" data-name="Ellipse 29" class="cls-3" cx="1.138" cy="1.138" r="1.138" transform="translate(91.977 54.386)"/>
    <rect id="Rectangle_89" data-name="Rectangle 89" class="cls-2" width="2.507" height="3.531" rx="1.253" transform="translate(118.966 54.77)"/>
    <path id="Tracé_517" data-name="Tracé 517" class="cls-3" d="M272.068,159.725a1.342,1.342,0,0,1-1.338-1.338v-1.019a1.338,1.338,0,0,1,2.676,0v1.019a1.34,1.34,0,0,1-1.338,1.338Zm0-3.531a1.17,1.17,0,0,0-1.168,1.168v1.019a1.168,1.168,0,1,0,2.337,0v-1.019A1.17,1.17,0,0,0,272.068,156.195Z" transform="translate(-151.849 -101.34)"/>
    <path id="Tracé_518" data-name="Tracé 518" class="cls-3" d="M273.323,163.55h-2.508a.085.085,0,1,1,0-.17h2.508a.085.085,0,0,1,0,.17Z" transform="translate(-151.849 -107.442)"/>
    <path id="Tracé_519" data-name="Tracé 519" class="cls-3" d="M278.195,157.06a.085.085,0,0,1-.085-.085v-.89a.085.085,0,0,1,.17,0v.89A.085.085,0,0,1,278.195,157.06Z" transform="translate(-157.975 -101.315)"/>
    <path id="Tracé_520" data-name="Tracé 520" class="cls-3" d="M199.609,244.449h0a.085.085,0,0,1-.08-.09,2.221,2.221,0,0,1,1.1-1.547.088.088,0,0,1,.119.022.087.087,0,0,1-.024.119,2.1,2.1,0,0,0-1.019,1.418.085.085,0,0,1-.092.078Z" transform="translate(-92.739 -173.373)"/>
    <path id="Tracé_521" data-name="Tracé 521" class="cls-3" d="M190.378,245.628h-.017c-.012,0-1.246-.248-1.384-1.316a.085.085,0,0,1,.168-.022c.122.946,1.236,1.168,1.248,1.17a.085.085,0,0,1-.015.17Z" transform="translate(-83.978 -174.551)"/>
    <rect id="Rectangle_90" data-name="Rectangle 90" class="cls-2" width="31.148" height="17.362" transform="translate(91.296 34.045)"/>
    <path id="Tracé_522" data-name="Tracé 522" class="cls-1" d="M139.023,51.492H107.875a.085.085,0,0,1-.085-.085V34.045a.085.085,0,0,1,.085-.085h31.148a.085.085,0,0,1,.085.085V51.407A.085.085,0,0,1,139.023,51.492Zm-31.063-.17h30.978V34.137H107.96Z" transform="translate(-16.579)"/>
    <path id="Tracé_523" data-name="Tracé 523" class="cls-3" d="M139.941,44.4H109.265a.085.085,0,0,1,0-.17h30.676a.085.085,0,1,1,0,.17Z" transform="translate(-17.733 -8.526)"/>
    <circle id="Ellipse_30" data-name="Ellipse 30" class="cls-3" cx="0.272" cy="0.272" r="0.272" transform="translate(92.072 34.592)"/>
    <circle id="Ellipse_31" data-name="Ellipse 31" class="cls-3" cx="0.272" cy="0.272" r="0.272" transform="translate(93.188 34.592)"/>
    <circle id="Ellipse_32" data-name="Ellipse 32" class="cls-3" cx="0.272" cy="0.272" r="0.272" transform="translate(94.304 34.592)"/>
    <path id="Tracé_524" data-name="Tracé 524" class="cls-1" d="M133.105,53.47h-1.9a.085.085,0,1,1,0-.17h1.9a.085.085,0,0,1,0,.17Z" transform="translate(-35.947 -16.056)"/>
    <path id="Tracé_525" data-name="Tracé 525" class="cls-4" d="M152.064,53.47h-3.789a.085.085,0,1,1,0-.17h3.789a.085.085,0,0,1,0,.17Z" transform="translate(-50.118 -16.056)"/>
    <path id="Tracé_526" data-name="Tracé 526" class="cls-4" d="M158.784,60.9h-3.789a.085.085,0,1,1,0-.17h3.789a.085.085,0,1,1,0,.17Z" transform="translate(-55.697 -22.224)"/>
    <path id="Tracé_527" data-name="Tracé 527" class="cls-1" d="M135.733,60.9h-1.9a.085.085,0,1,1,0-.17h1.9a.085.085,0,0,1,0,.17Z" transform="translate(-38.13 -22.224)"/>
    <path id="Tracé_528" data-name="Tracé 528" class="cls-1" d="M137.973,68.33h-1.528a.085.085,0,1,1,0-.17h1.528a.085.085,0,1,1,0,.17Z" transform="translate(-40.297 -28.392)"/>
    <path id="Tracé_529" data-name="Tracé 529" class="cls-4" d="M158.108,68.33h-4.743a.085.085,0,1,1,0-.17h4.743a.085.085,0,0,1,0,.17Z" transform="translate(-54.344 -28.392)"/>
    <path id="Tracé_530" data-name="Tracé 530" class="cls-1" d="M140.983,75.76h-1.9a.085.085,0,1,1,0-.17h1.9a.085.085,0,1,1,0,.17Z" transform="translate(-42.489 -34.56)"/>
    <path id="Tracé_531" data-name="Tracé 531" class="cls-4" d="M159.5,75.76h-5.638a.085.085,0,1,1,0-.17H159.5a.085.085,0,0,1,0,.17Z" transform="translate(-54.759 -34.56)"/>
    <path id="Tracé_532" data-name="Tracé 532" class="cls-1" d="M138.013,83.17h-1.9a.085.085,0,1,1,0-.17h1.9a.085.085,0,0,1,0,.17Z" transform="translate(-40.023 -40.712)"/>
    <path id="Tracé_533" data-name="Tracé 533" class="cls-4" d="M154.642,83.17h-3.057a.085.085,0,1,1,0-.17h3.057a.085.085,0,1,1,0,.17Z" transform="translate(-52.866 -40.712)"/>
    <path id="Tracé_534" data-name="Tracé 534" class="cls-4" d="M179.532,83.17h-3.057a.085.085,0,1,1,0-.17h3.057a.085.085,0,1,1,0,.17Z" transform="translate(-73.529 -40.712)"/>
    <path id="Tracé_535" data-name="Tracé 535" class="cls-1" d="M136.769,90.62h-.654a.085.085,0,1,1,0-.17h.654a.085.085,0,1,1,0,.17Z" transform="translate(-40.023 -46.897)"/>
    <path id="Tracé_536" data-name="Tracé 536" class="cls-4" d="M150.491,90.62h-3.906a.085.085,0,1,1,0-.17h3.906a.085.085,0,0,1,0,.17Z" transform="translate(-48.715 -46.897)"/>
    <path id="Tracé_537" data-name="Tracé 537" class="cls-4" d="M173.327,90.62h-1.092a.085.085,0,1,1,0-.17h1.092a.085.085,0,1,1,0,.17Z" transform="translate(-70.009 -46.897)"/>
    <path id="Tracé_538" data-name="Tracé 538" class="cls-1" d="M137.142,98.05h-1.027a.085.085,0,1,1,0-.17h1.027a.085.085,0,0,1,0,.17Z" transform="translate(-40.023 -53.065)"/>
    <path id="Tracé_539" data-name="Tracé 539" class="cls-4" d="M152.513,98.05h-4.648a.085.085,0,1,1,0-.17h4.648a.085.085,0,1,1,0,.17Z" transform="translate(-49.778 -53.065)"/>
    <path id="Tracé_540" data-name="Tracé 540" class="cls-4" d="M179.833,98.05h-1.9a.085.085,0,1,1,0-.17h1.9a.085.085,0,0,1,0,.17Z" transform="translate(-74.741 -53.065)"/>
    <path id="Tracé_541" data-name="Tracé 541" class="cls-1" d="M134.5,105.48h-1.007a.085.085,0,1,1,0-.17H134.5a.085.085,0,1,1,0,.17Z" transform="translate(-37.848 -59.233)"/>
    <path id="Tracé_542" data-name="Tracé 542" class="cls-4" d="M150.733,105.48h-4.4a.085.085,0,1,1,0-.17h4.4a.085.085,0,1,1,0,.17Z" transform="translate(-48.508 -59.233)"/>
    <path id="Tracé_543" data-name="Tracé 543" class="cls-1" d="M135.393,112.91h-1.9a.085.085,0,1,1,0-.17h1.9a.085.085,0,0,1,0,.17Z" transform="translate(-37.848 -65.402)"/>
    <path id="Tracé_544" data-name="Tracé 544" class="cls-1" d="M138.934,120.34h-3.789a.085.085,0,1,1,0-.17h3.789a.085.085,0,0,1,0,.17Z" transform="translate(-39.218 -71.57)"/>
    <path id="Tracé_545" data-name="Tracé 545" class="cls-4" d="M165.789,120.34h-2.634a.085.085,0,1,1,0-.17h2.634a.085.085,0,1,1,0,.17Z" transform="translate(-62.471 -71.57)"/>
    <path id="Tracé_546" data-name="Tracé 546" class="cls-4" d="M184.145,120.34h-3.261a.085.085,0,1,1,0-.17h3.261a.085.085,0,1,1,0,.17Z" transform="translate(-77.19 -71.57)"/>
    <path id="Tracé_547" data-name="Tracé 547" class="cls-1" d="M141.637,127.77h-5.522a.085.085,0,1,1,0-.17h5.522a.085.085,0,0,1,0,.17Z" transform="translate(-40.023 -77.738)"/>
    <path id="Tracé_548" data-name="Tracé 548" class="cls-4" d="M175.339,127.77h-2.484a.085.085,0,1,1,0-.17h2.484a.085.085,0,1,1,0,.17Z" transform="translate(-70.524 -77.738)"/>
    <path id="Tracé_549" data-name="Tracé 549" class="cls-4" d="M204.975,127.77h-5.83a.085.085,0,0,1,0-.17h5.83a.085.085,0,1,1,0,.17Z" transform="translate(-92.349 -77.738)"/>
    <path id="Tracé_550" data-name="Tracé 550" class="cls-4" d="M194.153,75.76h-2.568a.085.085,0,1,1,0-.17h2.568a.085.085,0,0,1,0,.17Z" transform="translate(-86.073 -34.56)"/>
    <path id="Tracé_551" data-name="Tracé 551" class="cls-4" d="M213.577,75.771a4.764,4.764,0,0,1-.931-.024.085.085,0,0,1-.036-.115.083.083,0,0,1,.1-.041c.134.017,1.8,0,2.9,0h0a.085.085,0,0,1,0,.17C214.657,75.766,214.013,75.771,213.577,75.771Z" transform="translate(-103.591 -34.559)"/>
    <path id="Tracé_552" data-name="Tracé 552" class="cls-4" d="M186.071,60.9h-3.726a.085.085,0,0,1,0-.17h3.726a.085.085,0,0,1,0,.17Z" transform="translate(-78.402 -22.224)"/>
    <path id="Tracé_553" data-name="Tracé 553" class="cls-4" d="M212.412,60.9h-3.717a.085.085,0,1,1,0-.17h3.717a.085.085,0,0,1,0,.17Z" transform="translate(-100.278 -22.224)"/>
    <path id="Tracé_554" data-name="Tracé 554" class="cls-4" d="M177.768,53.473c-.858,0-1.3,0-1.325-.01a.083.083,0,0,1-.059-.1.087.087,0,0,1,.1-.063c.139.012,3.135,0,4.283,0h0a.085.085,0,1,1,0,.17Z" transform="translate(-73.522 -16.052)"/>
    <path id="Tracé_555" data-name="Tracé 555" class="cls-1" d="M207.754,53.375a.084.084,0,0,1-.053-.151,13,13,0,0,1,2.6-.019.083.083,0,0,1,.083.087.081.081,0,0,1-.087.083c-.9-.015-2.377-.031-2.517,0a.066.066,0,0,1-.031,0Z" transform="translate(-99.496 -15.961)"/>
    <path id="Tracé_556" data-name="Tracé 556" class="cls-4" d="M177.162,105.48h-1.927a.085.085,0,1,1,0-.17h1.927a.085.085,0,0,1,0,.17Z" transform="translate(-72.5 -59.233)"/>
    <path id="Tracé_557" data-name="Tracé 557" class="cls-4" d="M153.678,112.91h-1.413a.085.085,0,1,1,0-.17h1.413a.085.085,0,0,1,0,.17Z" transform="translate(-53.43 -65.402)"/>
    <path id="Tracé_558" data-name="Tracé 558" class="cls-1" d="M167.1,112.91h-3.359a.085.085,0,1,1,0-.17H167.1a.085.085,0,1,1,0,.17Z" transform="translate(-62.961 -65.402)"/>
    <path id="Tracé_559" data-name="Tracé 559" class="cls-4" d="M193.994,112.91h-6.509a.085.085,0,0,1,0-.17h6.509a.085.085,0,0,1,0,.17Z" transform="translate(-82.67 -65.402)"/>
    <path id="Tracé_560" data-name="Tracé 560" class="cls-3" d="M251.425,59.25a.085.085,0,0,1-.085-.085V44.315a.085.085,0,0,1,.17,0V59.166A.087.087,0,0,1,251.425,59.25Z" transform="translate(-135.751 -8.526)"/>
    <path id="Tracé_561" data-name="Tracé 561" class="cls-4" d="M262.781,52.17h-4.016a.087.087,0,0,1-.085-.085.085.085,0,0,1,.085-.085h4.016a.085.085,0,0,1,0,.17Z" transform="translate(-141.845 -14.976)"/>
    <path id="Tracé_562" data-name="Tracé 562" class="cls-4" d="M262.781,60.57h-4.016a.087.087,0,0,1-.085-.085.085.085,0,0,1,.085-.085h4.016a.085.085,0,0,1,0,.17Z" transform="translate(-141.845 -21.95)"/>
    <path id="Tracé_563" data-name="Tracé 563" class="cls-1" d="M261.428,68.97h-2.663a.087.087,0,0,1-.085-.085.085.085,0,0,1,.085-.085h2.663a.085.085,0,0,1,.085.085A.087.087,0,0,1,261.428,68.97Z" transform="translate(-141.845 -28.924)"/>
    <path id="Tracé_564" data-name="Tracé 564" class="cls-4" d="M268.783,77.37h-2.788a.085.085,0,0,1,0-.17h2.788a.085.085,0,0,1,0,.17Z" transform="translate(-147.847 -35.897)"/>
    <path id="Tracé_565" data-name="Tracé 565" class="cls-1" d="M261.715,85.77h-2.95a.087.087,0,0,1-.085-.085.085.085,0,0,1,.085-.085h2.95a.085.085,0,0,1,.085.085A.087.087,0,0,1,261.715,85.77Z" transform="translate(-141.845 -42.871)"/>
    <path id="Tracé_566" data-name="Tracé 566" class="cls-4" d="M260.241,94.17h-1.476a.087.087,0,0,1-.085-.085.085.085,0,0,1,.085-.085h1.476a.085.085,0,0,1,.085.085A.087.087,0,0,1,260.241,94.17Z" transform="translate(-141.845 -49.844)"/>
    <path id="Tracé_567" data-name="Tracé 567" class="cls-4" d="M262.041,102.57h-3.276a.087.087,0,0,1-.085-.085.085.085,0,0,1,.085-.085h3.276a.085.085,0,0,1,0,.17Z" transform="translate(-141.845 -56.818)"/>
    <path id="Tracé_568" data-name="Tracé 568" class="cls-1" d="M268.783,110.97h-2.788a.085.085,0,0,1,0-.17h2.788a.085.085,0,0,1,0,.17Z" transform="translate(-147.847 -63.791)"/>
    <path id="Tracé_569" data-name="Tracé 569" class="cls-4" d="M262.041,119.37h-3.276a.087.087,0,0,1-.085-.085.085.085,0,0,1,.085-.085h3.276a.085.085,0,0,1,0,.17Z" transform="translate(-141.845 -70.765)"/>
    <path id="Tracé_570" data-name="Tracé 570" class="cls-1" d="M260.076,127.77h-1.331a.085.085,0,0,1,0-.17h1.331a.085.085,0,0,1,0,.17Z" transform="translate(-141.828 -77.738)"/>
  </g>
</svg>
