<svg xmlns="http://www.w3.org/2000/svg" width="50.408" height="36.15" viewBox="0 0 50.408 36.15">
  <defs>
    <style>
      .cls-1 {
        fill: #fff;
      }

      .cls-2 {
        fill: #d1d3d4;
      }

      .cls-3 {
        fill: #231f20;
      }

      .cls-4 {
        fill: #03b898;
      }
    </style>
  </defs>
  <g id="_179_coding_flatline" data-name="#179_coding_flatline" transform="translate(-48.29 -41.2)">
    <rect id="Rectangle_47" data-name="Rectangle 47" class="cls-1" width="6.433" height="5.635" transform="translate(90.961 54.03)"/>
    <path id="Tracé_348" data-name="Tracé 348" class="cls-2" d="M311.157,123.731h-6.434a.083.083,0,0,1-.083-.083v-5.635a.083.083,0,0,1,.083-.083h6.434a.083.083,0,0,1,.083.083v5.635A.083.083,0,0,1,311.157,123.731Zm-6.351-.166h6.268V118.1h-6.268Z" transform="translate(-213.762 -63.983)"/>
    <path id="Tracé_349" data-name="Tracé 349" class="cls-2" d="M311.157,121.286h-6.434a.083.083,0,0,1-.083-.083.085.085,0,0,1,.083-.083h6.434a.085.085,0,0,1,.083.083A.083.083,0,0,1,311.157,121.286Z" transform="translate(-213.762 -66.643)"/>
    <path id="Tracé_350" data-name="Tracé 350" class="cls-2" d="M313.792,125.3h-1.729a.085.085,0,0,1-.083-.083v-.969a.085.085,0,0,1,.083-.083h1.729a.085.085,0,0,1,.083.083v.969A.085.085,0,0,1,313.792,125.3Zm-1.643-.166h1.563v-.8h-1.563Z" transform="translate(-219.883 -69.186)"/>
    <path id="Tracé_351" data-name="Tracé 351" class="cls-2" d="M328.431,138.875H326.7a.083.083,0,0,1-.083-.083v-.969a.083.083,0,0,1,.083-.083h1.728a.083.083,0,0,1,.083.083v.969A.083.083,0,0,1,328.431,138.875Zm-1.645-.166h1.558v-.8h-1.562Z" transform="translate(-232.091 -80.502)"/>
    <path id="Tracé_352" data-name="Tracé 352" class="cls-2" d="M313.792,141.785h-1.729a.085.085,0,0,1-.083-.083v-.969a.085.085,0,0,1,.083-.083h1.729a.085.085,0,0,1,.083.083v.972A.085.085,0,0,1,313.792,141.785Zm-1.646-.166h1.563v-.8h-1.56Z" transform="translate(-219.883 -82.928)"/>
    <path id="Tracé_353" data-name="Tracé 353" class="cls-2" d="M319.7,131.444a.083.083,0,0,1-.083-.083V130.9h-2.349a.085.085,0,0,1-.083-.083v-.746a.083.083,0,0,1,.166,0v.665H319.7a.083.083,0,0,1,.083.083v.542A.083.083,0,0,1,319.7,131.444Z" transform="translate(-224.219 -74.039)"/>
    <path id="Tracé_354" data-name="Tracé 354" class="cls-2" d="M317.263,135.688a.083.083,0,0,1-.083-.083v-1.022a.083.083,0,0,1,.166,0v1.025A.083.083,0,0,1,317.263,135.688Z" transform="translate(-224.219 -77.8)"/>
    <rect id="Rectangle_48" data-name="Rectangle 48" class="cls-1" width="15.483" height="11.021" transform="translate(50.75 44.772)"/>
    <path id="Tracé_355" data-name="Tracé 355" class="cls-2" d="M78.166,73.4H62.683a.083.083,0,0,1-.083-.083V62.293a.083.083,0,0,1,.083-.083H78.166a.083.083,0,0,1,.083.083V73.306a.083.083,0,0,1-.083.09Zm-15.4-.166H78.083V62.376H62.766Z" transform="translate(-11.933 -17.52)"/>
    <path id="Tracé_356" data-name="Tracé 356" class="cls-2" d="M78.166,68.936H62.683a.083.083,0,0,1,0-.166H78.166a.083.083,0,1,1,0,.166Z" transform="translate(-11.933 -22.99)"/>
    <path id="Tracé_357" data-name="Tracé 357" class="cls-2" d="M72.744,74.236H70.853a.083.083,0,1,1,0-.166h1.891a.083.083,0,1,1,0,.166Z" transform="translate(-18.745 -27.409)"/>
    <path id="Tracé_358" data-name="Tracé 358" class="cls-2" d="M92.006,74.236H88.233a.083.083,0,1,1,0-.166h3.773a.083.083,0,0,1,0,.166Z" transform="translate(-33.238 -27.409)"/>
    <path id="Tracé_359" data-name="Tracé 359" class="cls-2" d="M98.838,80.166H95.063a.085.085,0,0,1-.083-.083A.083.083,0,0,1,95.063,80h3.775a.083.083,0,1,1,0,.166Z" transform="translate(-38.933 -32.354)"/>
    <path id="Tracé_360" data-name="Tracé 360" class="cls-2" d="M75.414,80.166H73.523a.083.083,0,0,1,0-.166h1.891a.083.083,0,0,1,0,.166Z" transform="translate(-20.972 -32.354)"/>
    <path id="Tracé_361" data-name="Tracé 361" class="cls-2" d="M77.713,86.046h-1.52a.083.083,0,1,1,0-.166h1.52a.083.083,0,1,1,0,.166Z" transform="translate(-23.198 -37.257)"/>
    <path id="Tracé_362" data-name="Tracé 362" class="cls-2" d="M98.136,86.046H93.413a.083.083,0,1,1,0-.166h4.723a.083.083,0,0,1,0,.166Z" transform="translate(-37.557 -37.257)"/>
    <path id="Tracé_363" data-name="Tracé 363" class="cls-2" d="M80.755,91.956H78.863a.085.085,0,0,1-.083-.083.083.083,0,0,1,.083-.083h1.892a.083.083,0,1,1,0,.166Z" transform="translate(-25.425 -42.185)"/>
    <path id="Tracé_364" data-name="Tracé 364" class="cls-2" d="M99.53,91.956H93.913a.085.085,0,0,1-.083-.083.083.083,0,0,1,.083-.083H99.53a.083.083,0,1,1,0,.166Z" transform="translate(-37.974 -42.185)"/>
    <path id="Tracé_365" data-name="Tracé 365" class="cls-2" d="M77.735,97.856H75.843a.083.083,0,0,1,0-.166h1.892a.083.083,0,0,1,0,.166Z" transform="translate(-22.906 -47.105)"/>
    <path id="Tracé_366" data-name="Tracé 366" class="cls-2" d="M94.63,97.856H91.583a.083.083,0,0,1,0-.166h3.045a.083.083,0,0,1,0,.166Z" transform="translate(-36.031 -47.105)"/>
    <path id="Tracé_367" data-name="Tracé 367" class="cls-2" d="M119.978,97.856h-3.045a.083.083,0,0,1,0-.166h3.045a.083.083,0,0,1,0,.166Z" transform="translate(-57.17 -47.105)"/>
    <path id="Tracé_368" data-name="Tracé 368" class="cls-2" d="M76.5,103.756h-.653a.083.083,0,0,1-.083-.083.085.085,0,0,1,.083-.083H76.5a.085.085,0,0,1,.083.083.083.083,0,0,1-.083.083Z" transform="translate(-22.906 -52.025)"/>
    <path id="Tracé_369" data-name="Tracé 369" class="cls-2" d="M90.352,103.756h-3.9a.083.083,0,0,1-.083-.083.085.085,0,0,1,.083-.083h3.9a.083.083,0,0,1,0,.166Z" transform="translate(-31.754 -52.025)"/>
    <path id="Tracé_370" data-name="Tracé 370" class="cls-2" d="M113.678,103.756h-1.095a.083.083,0,0,1-.083-.083.085.085,0,0,1,.083-.083h1.088a.083.083,0,0,1,.007.166Z" transform="translate(-53.543 -52.025)"/>
    <path id="Tracé_371" data-name="Tracé 371" class="cls-2" d="M76.866,109.666H75.843a.083.083,0,0,1,0-.166h1.023a.083.083,0,1,1,0,.166Z" transform="translate(-22.906 -56.953)"/>
    <path id="Tracé_372" data-name="Tracé 372" class="cls-2" d="M92.441,109.666H87.813a.083.083,0,1,1,0-.166h4.628a.083.083,0,0,1,0,.166Z" transform="translate(-32.888 -56.953)"/>
    <path id="Tracé_373" data-name="Tracé 373" class="cls-2" d="M120.315,109.666h-1.892a.083.083,0,1,1,0-.166h1.892a.083.083,0,1,1,0,.166Z" transform="translate(-58.413 -56.953)"/>
    <path id="Tracé_374" data-name="Tracé 374" class="cls-2" d="M74.21,115.566h-1a.083.083,0,0,1,0-.166h1a.083.083,0,0,1,0,.166Z" transform="translate(-20.713 -61.873)"/>
    <path id="Tracé_375" data-name="Tracé 375" class="cls-2" d="M90.627,115.566H86.253a.083.083,0,0,1,0-.166h4.374a.083.083,0,0,1,0,.166Z" transform="translate(-31.587 -61.873)"/>
    <path id="Tracé_376" data-name="Tracé 376" class="cls-2" d="M75.069,121.476h-1.9a.083.083,0,0,1,0-.166h1.9a.083.083,0,0,1,.083.083A.085.085,0,0,1,75.069,121.476Z" transform="translate(-20.68 -66.801)"/>
    <path id="Tracé_377" data-name="Tracé 377" class="cls-2" d="M134.88,91.956h-2.557a.083.083,0,1,1,0-.166h2.557a.083.083,0,0,1,0,.166Z" transform="translate(-70.003 -42.185)"/>
    <path id="Tracé_378" data-name="Tracé 378" class="cls-2" d="M118.212,74.28h-1.3a.081.081,0,0,1-.063-.1.083.083,0,0,1,.091-.065h4.27a.083.083,0,1,1,0,.166C120.333,74.278,119.124,74.28,118.212,74.28Z" transform="translate(-57.168 -27.448)"/>
    <path id="Tracé_379" data-name="Tracé 379" class="cls-2" d="M117.587,115.566h-1.914a.083.083,0,0,1,0-.166h1.914a.085.085,0,0,1,.083.083A.083.083,0,0,1,117.587,115.566Z" transform="translate(-56.119 -61.873)"/>
    <path id="Tracé_380" data-name="Tracé 380" class="cls-2" d="M93.7,121.476H92.293a.083.083,0,1,1,0-.166H93.7a.083.083,0,0,1,.083.083A.085.085,0,0,1,93.7,121.476Z" transform="translate(-36.624 -66.801)"/>
    <path id="Tracé_381" data-name="Tracé 381" class="cls-2" d="M107.327,121.476h-3.344a.083.083,0,0,1,0-.166h3.344a.083.083,0,1,1,0,.166Z" transform="translate(-46.371 -66.801)"/>
    <path id="Tracé_382" data-name="Tracé 382" class="cls-3" d="M223.069,128.449s1.289-13.457-.665-15.5-8.112-1.263-11.257-.62c-3.655.746-1.7,16.281-1.7,16.281Z" transform="translate(-133.949 -58.736)"/>
    <path id="Tracé_383" data-name="Tracé 383" class="cls-3" d="M209.042,128.3a.081.081,0,0,1-.081-.071c-.08-.638-1.915-15.626,1.764-16.379,1.5-.306,9.082-1.714,11.333.643,1.952,2.047.734,15.01.681,15.562a.081.081,0,0,1-.081.075l-13.614.166Zm7.974-16.984h-.194a34.536,34.536,0,0,0-6.06.7c-1.447.3-2.191,3.18-2.15,8.34.028,3.632.442,7.227.5,7.782l13.467-.166c.1-1.078,1.183-13.442-.645-15.356-.812-.862-2.469-1.3-4.919-1.3Zm5.648,16.729Z" transform="translate(-133.538 -58.328)"/>
    <path id="Tracé_384" data-name="Tracé 384" class="cls-1" d="M127.6,140.841l-.782,7.534s-5.868.9-6.858.812a7.559,7.559,0,0,0-3.18.593c-.281.243-1.62,1.774-1.347,1.776s1.462-1.1,1.585-1.1,1.15.269,1.15.269-1.675.937-1.176.982a10.366,10.366,0,0,0,2.263-.759c.173-.038,8.307,1.284,10.134.851s1.555-3.353,1.55-4.319-.246-7.3-.246-7.3Z" transform="translate(-55.962 -82.536)"/>
    <path id="Tracé_385" data-name="Tracé 385" class="cls-3" d="M127.851,151.522a72.575,72.575,0,0,1-7.808-.787c-.631-.086-1.13-.158-1.191-.151a3.574,3.574,0,0,0-.385.156,6.021,6.021,0,0,1-1.9.6c-.118-.01-.154-.066-.166-.113-.035-.166.347-.47,1.135-.922-.385-.1-.862-.213-.932-.216-.04.017-.287.216-.487.375a3.27,3.27,0,0,1-1.095.724h0a.113.113,0,0,1-.111-.075c-.1-.271,1.284-1.744,1.4-1.847a7.515,7.515,0,0,1,3.241-.613c.912.083,6.137-.7,6.775-.8l.776-7.476a.081.081,0,0,1,.065-.071l3.077-.665a.09.09,0,0,1,.068.017.078.078,0,0,1,.032.061c0,.065.239,6.343.246,7.3v.322c.032,1.193.1,3.673-1.621,4.082a5.306,5.306,0,0,1-1.125.095Zm-9-1.1c.088,0,.359.037,1.214.153,2.241.309,7.491,1.03,8.881.7,1.59-.377,1.525-2.768,1.5-3.916v-.332c0-.89-.211-6.388-.241-7.2l-2.921.628-.776,7.476a.083.083,0,0,1-.07.073c-.241.038-5.891.9-6.879.814a7.675,7.675,0,0,0-3.117.573A10.163,10.163,0,0,0,115.109,151a6.66,6.66,0,0,0,.924-.665c.417-.332.522-.414.595-.412.125,0,1,.228,1.163.271a.085.085,0,0,1,.02.154,5.648,5.648,0,0,0-1.218.831h0a6.66,6.66,0,0,0,1.816-.591,4.227,4.227,0,0,1,.424-.166Zm7.562-2.492Z" transform="translate(-55.552 -82.088)"/>
    <path id="Tracé_386" data-name="Tracé 386" class="cls-4" d="M186.79,124.033c.831-5.162,1.7-5.728,1.7-5.728,1.5-2.585,6.3-3.055,6.3-3.055s4.778,1.965,5.76,5.482c.65,2.326.46,11.481.46,11.481L189,131.745a42.2,42.2,0,0,1,.093-7.72Z" transform="translate(-115.491 -61.748)"/>
    <path id="Tracé_387" data-name="Tracé 387" class="cls-3" d="M222.362,131.83s-.766,5.936,1.065,6.147,2.9-7.607,2.9-7.607l-4.049.831" transform="translate(-145.021 -74.356)"/>
    <path id="Tracé_388" data-name="Tracé 388" class="cls-3" d="M223.036,137.668a.7.7,0,0,1-.083,0,.967.967,0,0,1-.665-.4c-1.047-1.344-.5-5.667-.48-5.851a.083.083,0,1,1,.164.022c0,.045-.558,4.439.447,5.728a.8.8,0,0,0,.547.332c1.417.166,2.477-5.195,2.794-7.428l-3.934.811a.085.085,0,0,1-.033-.166l4.049-.831a.075.075,0,0,1,.073.022.083.083,0,0,1,.027.071C225.907,130.3,224.875,137.667,223.036,137.668Z" transform="translate(-144.559 -73.953)"/>
    <rect id="Rectangle_49" data-name="Rectangle 49" class="cls-1" width="50.243" height="1.155" transform="translate(48.371 70.202)"/>
    <path id="Tracé_389" data-name="Tracé 389" class="cls-3" d="M98.614,216.589H48.373a.083.083,0,0,1-.083-.083v-1.153a.083.083,0,0,1,.083-.083H98.614a.083.083,0,0,1,.083.083v1.153A.083.083,0,0,1,98.614,216.589Zm-50.158-.166H98.531v-.987H48.456Z" transform="translate(0 -145.152)"/>
    <rect id="Rectangle_50" data-name="Rectangle 50" class="cls-1" width="48.778" height="5.911" transform="translate(49.106 71.354)"/>
    <path id="Tracé_390" data-name="Tracé 390" class="cls-3" d="M101.559,228.289H52.783a.083.083,0,0,1-.083-.083v-5.913a.083.083,0,0,1,.083-.083h48.776a.083.083,0,0,1,.083.083v5.913A.083.083,0,0,1,101.559,228.289Zm-48.693-.166h48.61v-5.746H52.866Z" transform="translate(-3.677 -150.939)"/>
    <rect id="Rectangle_51" data-name="Rectangle 51" class="cls-3" width="15.482" height="0.678" transform="translate(59.778 69.524)"/>
    <path id="Tracé_391" data-name="Tracé 391" class="cls-3" d="M132.5,212.034H117.023a.083.083,0,0,1-.083-.083v-.678a.083.083,0,0,1,.083-.083H132.5a.083.083,0,0,1,.083.083v.678A.085.085,0,0,1,132.5,212.034Zm-15.4-.166h15.316v-.512H117.106Z" transform="translate(-57.245 -141.749)"/>
    <path id="Tracé_392" data-name="Tracé 392" class="cls-1" d="M211.624,159.175l2.2,5.08s-3.678.711-5.815,1.008a15.79,15.79,0,0,0-3.291-.861,4.621,4.621,0,0,0-2.314,1.163c-.924.965-.856,1.5-.842,1.779.027.585,4.25-.143,4.818-.085s10.431.944,11.26.2-1.9-9.194-1.9-9.194" transform="translate(-127.8 -97.621)"/>
    <path id="Tracé_393" data-name="Tracé 393" class="cls-3" d="M214.511,167.422c-3.346,0-8.561-.487-8.639-.5a11.766,11.766,0,0,0-1.339.111c-1.71.186-3.156.319-3.47.045a.206.206,0,0,1-.078-.151V166.9c-.017-.3-.047-.854.867-1.809a4.716,4.716,0,0,1,2.371-1.183,15.154,15.154,0,0,1,3.3.859c1.92-.267,5.09-.869,5.7-.985l-2.16-4.984a.083.083,0,1,1,.151-.065l2.2,5.08a.086.086,0,0,1,0,.073.085.085,0,0,1-.058.042c-.037.008-3.706.714-5.828,1.01a.083.083,0,0,1-.04,0,15.438,15.438,0,0,0-3.261-.856,4.644,4.644,0,0,0-2.256,1.131c-.862.9-.831,1.412-.821,1.685v.033a.048.048,0,0,0,.02.033c.291.249,2.2.04,3.344-.085a10.809,10.809,0,0,1,1.376-.11c1.216.128,10.441.9,11.2.223.58-.518-.831-5.73-1.922-9.107a.083.083,0,0,1,.158-.05c.282.871,2.721,8.526,1.876,9.282A6.373,6.373,0,0,1,214.511,167.422Z" transform="translate(-127.323 -97.209)"/>
    <path id="Tracé_394" data-name="Tracé 394" class="cls-4" d="M256.031,131.23a9.968,9.968,0,0,1,3.5,1.842c1.708,1.455,2.416,5.1,2.416,5.1l-6.25,1.145Z" transform="translate(-172.953 -75.073)"/>
    <path id="Tracé_395" data-name="Tracé 395" class="cls-1" d="M200.874,77.148a3.259,3.259,0,0,1,1.425-.286c.771.061,1.5.367,2.284.4a14.511,14.511,0,0,0,2.553-.233c.243-.035.038.319.224.166.651-.571.525-1.577.454-2.334a19.344,19.344,0,0,0-1.126-5.143c-.332-.857-1.6-3.987-2.9-2.465.292-.342-1.329-.934-1.558-.974-2.072-.377-3.743,1.575-4.019,3.456a16.994,16.994,0,0,1-.636,4.024,4.336,4.336,0,0,0-.513,1.789,2.039,2.039,0,0,0,1.312,1.693,3.326,3.326,0,0,0,2.216,0C200.683,77.213,200.778,77.18,200.874,77.148Z" transform="translate(-124.058 -20.877)"/>
    <path id="Tracé_396" data-name="Tracé 396" class="cls-3" d="M198.951,77.1a2.851,2.851,0,0,1-1.072-.2,2.1,2.1,0,0,1-1.364-1.764,3.417,3.417,0,0,1,.387-1.507c.045-.106.09-.213.133-.319a8.949,8.949,0,0,0,.5-2.676c.035-.434.07-.881.138-1.329a4.585,4.585,0,0,1,1.779-2.967,3.03,3.03,0,0,1,2.339-.562c.13.023,1.412.452,1.628.846a.907.907,0,0,1,.786-.272c.866.148,1.621,1.661,2.1,2.917a19.311,19.311,0,0,1,1.13,5.15l.008.093a2.6,2.6,0,0,1-.49,2.311c-.033.03-.1.085-.166.055a.131.131,0,0,1-.065-.133.166.166,0,0,0-.008-.061h-.032l-.4.056a11.838,11.838,0,0,1-2.173.178,6.744,6.744,0,0,1-1.228-.209,7.126,7.126,0,0,0-1.06-.194,3.187,3.187,0,0,0-1.329.257l-.068.023h0c-.095.033-.189.066-.287.1A4.052,4.052,0,0,1,198.951,77.1Zm2.308-11.2a2.924,2.924,0,0,0-1.716.576,4.411,4.411,0,0,0-1.713,2.854c-.065.442-.1.887-.135,1.317a9.265,9.265,0,0,1-.5,2.725c-.043.108-.09.214-.135.322a3.326,3.326,0,0,0-.375,1.434,1.951,1.951,0,0,0,1.261,1.618,3.308,3.308,0,0,0,2.16,0l.284-.095.068-.025a3.149,3.149,0,0,1,1.391-.266,7.267,7.267,0,0,1,1.085.2,6.522,6.522,0,0,0,1.2.2,11.709,11.709,0,0,0,2.143-.176l.4-.056a.2.2,0,0,1,.166.037.176.176,0,0,1,.058.1,2.556,2.556,0,0,0,.394-2.135l-.008-.091a19.112,19.112,0,0,0-1.118-5.114c-.665-1.709-1.361-2.708-1.977-2.814a.839.839,0,0,0-.779.372h0a.083.083,0,1,1-.126-.106.056.056,0,0,0,.01-.06c-.1-.282-1.276-.734-1.52-.779A2.859,2.859,0,0,0,201.259,65.9Zm-.844,10.828Z" transform="translate(-123.599 -20.454)"/>
    <path id="Tracé_397" data-name="Tracé 397" class="cls-1" d="M207.99,86.941a7.822,7.822,0,0,0,.056,3.655,2.3,2.3,0,0,0,1.967,1.567l.332,2.753s.156,1.409,1.856.983a2.98,2.98,0,0,0,2.112-1.994l-.415-5.087s-2.087-.889-2.143-2.728C211.754,86.09,209.565,87.5,207.99,86.941Z" transform="translate(-133.001 -37.432)"/>
    <path id="Tracé_398" data-name="Tracé 398" class="cls-3" d="M211.162,95.672a1.286,1.286,0,0,1-1.346-1.138l-.324-2.685a2.4,2.4,0,0,1-1.97-1.615,7.778,7.778,0,0,1-.06-3.693.085.085,0,0,1,.04-.055.081.081,0,0,1,.068,0c1.522.535,3.675-.831,3.7-.842a.083.083,0,0,1,.083,0,.086.086,0,0,1,.045.071c.048,1.763,2.07,2.645,2.09,2.658a.08.08,0,0,1,.05.07l.415,5.087a.083.083,0,0,1,0,.028,3.1,3.1,0,0,1-2.173,2.045A2.555,2.555,0,0,1,211.162,95.672Zm-3.557-9a7.559,7.559,0,0,0,.073,3.51,2.2,2.2,0,0,0,1.892,1.512.081.081,0,0,1,.078.073l.332,2.753a1.236,1.236,0,0,0,.473.792,1.548,1.548,0,0,0,1.281.121,2.927,2.927,0,0,0,2.048-1.914l-.41-5.024a3.659,3.659,0,0,1-2.136-2.638C210.76,86.134,209,87.089,207.606,86.667Z" transform="translate(-132.558 -37.051)"/>
    <path id="Tracé_399" data-name="Tracé 399" class="cls-3" d="M215.07,103.214a.741.741,0,0,1-.261-.042.178.178,0,0,1-.108-.113c-.121-.332.5-1.44.63-1.661a.083.083,0,0,1,.113-.032.085.085,0,0,1,.03.115,3.984,3.984,0,0,0-.616,1.517c0,.012,0,.013.01.013a1.511,1.511,0,0,0,.821-.1.083.083,0,1,1,.061.155A2.143,2.143,0,0,1,215.07,103.214Z" transform="translate(-138.752 -50.162)"/>
    <path id="Tracé_400" data-name="Tracé 400" class="cls-3" d="M214.569,111.509a2.441,2.441,0,0,1-1.3-.427.081.081,0,0,1-.027-.115.083.083,0,0,1,.115-.027,1.971,1.971,0,0,0,1.764.3,1.9,1.9,0,0,0,.969-.817.085.085,0,0,1,.1-.055.083.083,0,0,1,.053.1,2,2,0,0,1-1.06.922A1.806,1.806,0,0,1,214.569,111.509Z" transform="translate(-137.538 -57.678)"/>
    <path id="Tracé_401" data-name="Tracé 401" class="cls-3" d="M221.16,121.031a8.461,8.461,0,0,0,2.311-.311s-.665,2.281-2.06,2.437Z" transform="translate(-144.151 -66.309)"/>
    <path id="Tracé_402" data-name="Tracé 402" class="cls-3" d="M220.991,122.823a.085.085,0,0,1-.083-.073l-.251-2.126a.086.086,0,0,1,.02-.066.078.078,0,0,1,.063-.027,8.288,8.288,0,0,0,2.281-.3.081.081,0,0,1,.11.1c-.028.1-.693,2.336-2.131,2.492Zm-.158-2.128.229,1.95c1.068-.191,1.683-1.711,1.857-2.208A8.367,8.367,0,0,1,220.833,120.7Z" transform="translate(-143.731 -65.892)"/>
    <ellipse id="Ellipse_22" data-name="Ellipse 22" class="cls-3" cx="0.218" cy="0.382" rx="0.218" ry="0.382" transform="translate(77.332 50.512) rotate(-3.75)"/>
    <ellipse id="Ellipse_23" data-name="Ellipse 23" class="cls-3" cx="0.218" cy="0.382" rx="0.218" ry="0.382" transform="translate(75.328 50.643) rotate(-3.75)"/>
    <path id="Tracé_403" data-name="Tracé 403" class="cls-1" d="M243.467,112.14c.254,1.611.665,4.584-1.98,4.082a2.176,2.176,0,0,1-1.369-.887c-.583-.831.638-2.238,1.214-2.872" transform="translate(-159.831 -59.155)"/>
    <path id="Tracé_404" data-name="Tracé 404" class="cls-3" d="M241.606,115.974a3.032,3.032,0,0,1-.565-.058,2.258,2.258,0,0,1-1.422-.92c-.576-.831.42-2.095,1.221-2.975a.081.081,0,0,1,.116,0,.083.083,0,0,1,0,.118c-.44.483-1.776,1.954-1.208,2.768a2.082,2.082,0,0,0,1.317.854,1.656,1.656,0,0,0,1.533-.3c.807-.782.5-2.744.347-3.688a.083.083,0,1,1,.164-.025c.166,1.045.473,2.99-.4,3.833A1.538,1.538,0,0,1,241.606,115.974Z" transform="translate(-159.401 -58.767)"/>
    <path id="Tracé_405" data-name="Tracé 405" class="cls-3" d="M220.164,96.254a1.158,1.158,0,0,1-1.244-1.04c0-.512.442-.794,1.244-.794s1.243.282,1.243.794A1.157,1.157,0,0,1,220.164,96.254Zm0-1.661c-.5,0-1.078.11-1.078.628a1.1,1.1,0,0,0,2.155,0c0-.525-.586-.635-1.077-.635Z" transform="translate(-142.283 -44.378)"/>
    <path id="Tracé_406" data-name="Tracé 406" class="cls-3" d="M205.043,96.254a1.157,1.157,0,0,1-1.243-1.04c0-.512.442-.794,1.243-.794s1.244.282,1.244.794A1.158,1.158,0,0,1,205.043,96.254Zm0-1.661c-.49,0-1.077.11-1.077.628a1.1,1.1,0,0,0,2.155,0c0-.525-.586-.635-1.078-.635Z" transform="translate(-129.675 -44.378)"/>
    <path id="Tracé_407" data-name="Tracé 407" class="cls-3" d="M218.044,98.866h-.191a.083.083,0,1,1,0-.166h.191a.083.083,0,1,1,0,.166Z" transform="translate(-141.324 -47.947)"/>
    <path id="Tracé_408" data-name="Tracé 408" class="cls-3" d="M234.859,98.866h-1.886a.083.083,0,1,1,0-.166h1.886a.085.085,0,0,1,.083.083A.083.083,0,0,1,234.859,98.866Z" transform="translate(-153.932 -47.947)"/>
    <path id="Tracé_409" data-name="Tracé 409" class="cls-1" d="M239.06,95.653s.52-1.685,1.442-.773a1.294,1.294,0,0,1-.831,2.146" transform="translate(-159.077 -44.537)"/>
    <path id="Tracé_410" data-name="Tracé 410" class="cls-3" d="M239.264,96.693h0a.083.083,0,1,1,0-.166h.008a1.285,1.285,0,0,0,1.015-.816,1.032,1.032,0,0,0-.248-1.189.619.619,0,0,0-.576-.233c-.459.115-.726.962-.728.972a.087.087,0,0,1-.166-.05c.012-.038.3-.945.847-1.083a.767.767,0,0,1,.733.276,1.186,1.186,0,0,1,.284,1.371A1.448,1.448,0,0,1,239.264,96.693Z" transform="translate(-158.667 -44.12)"/>
    <path id="Tracé_411" data-name="Tracé 411" class="cls-3" d="M199.1,136.475h-.008a.085.085,0,0,1-.075-.091,9.16,9.16,0,0,1,.678-2.766.083.083,0,1,1,.151.07,9.006,9.006,0,0,0-.665,2.713A.083.083,0,0,1,199.1,136.475Z" transform="translate(-125.687 -77.023)"/>
    <rect id="Rectangle_52" data-name="Rectangle 52" class="cls-1" width="17.879" height="11.877" rx="5.938" transform="translate(56.713 53.431)"/>
    <path id="Tracé_412" data-name="Tracé 412" class="cls-3" d="M115.354,126.361H99.668a1.18,1.18,0,0,1-1.178-1.178V115.5a1.18,1.18,0,0,1,1.178-1.178h15.686a1.18,1.18,0,0,1,1.178,1.178v9.685A1.18,1.18,0,0,1,115.354,126.361ZM99.665,114.486a1.012,1.012,0,0,0-1.012,1.012v9.685a1.012,1.012,0,0,0,1.012,1.012h15.689a1.012,1.012,0,0,0,1.012-1.012V115.5a1.012,1.012,0,0,0-1.012-1.012Z" transform="translate(-41.86 -60.972)"/>
    <path id="Tracé_413" data-name="Tracé 413" class="cls-3" d="M148.052,162.05v4.029l-2.612-.116Z" transform="translate(-81.01 -100.773)"/>
    <path id="Tracé_414" data-name="Tracé 414" class="cls-3" d="M147.646,165.742h0l-2.61-.116a.088.088,0,0,1-.071-.047.083.083,0,0,1,0-.083l2.612-3.912a.081.081,0,0,1,.093-.033.083.083,0,0,1,.06.08v4.029a.085.085,0,0,1-.083.083Zm-2.46-.276,2.377.106V161.9Z" transform="translate(-80.604 -100.353)"/>
    <path id="Tracé_415" data-name="Tracé 415" class="cls-1" d="M130.63,162.088s-2.055,8.094-2.15,8.453c-.1.385.213.445.726.445h4.9v-.352h-2.088s.892-4.074,1.879-8.584Z" transform="translate(-66.851 -100.773)"/>
    <path id="Tracé_416" data-name="Tracé 416" class="cls-3" d="M133.713,170.652h-4.888c-.382,0-.643-.032-.764-.191a.4.4,0,0,1-.043-.359c.095-.347,2.13-8.37,2.151-8.451a.08.08,0,0,1,.078-.061l3.263-.04h0a.076.076,0,0,1,.063.03.083.083,0,0,1,.018.07l-1.857,8.484h1.985a.083.083,0,0,1,.083.083v.352a.083.083,0,0,1-.09.083Zm-3.407-8.9c-.191.753-2.045,8.059-2.135,8.391a.244.244,0,0,0,.013.214c.085.111.367.126.633.126h4.818V170.3h-2.01a.083.083,0,0,1-.065-.03.088.088,0,0,1-.017-.07l1.856-8.484Z" transform="translate(-66.463 -100.356)"/>
    <path id="Tracé_417" data-name="Tracé 417" class="cls-3" d="M259.806,157.352a.085.085,0,0,1-.076-.051c-.665-1.611-1.794-4.334-1.789-4.461a.088.088,0,0,1,.086-.08.083.083,0,0,1,.08.078c.037.181,1.082,2.726,1.778,4.4a.085.085,0,0,1-.045.108A.08.08,0,0,1,259.806,157.352Z" transform="translate(-174.821 -93.026)"/>
    <path id="Tracé_418" data-name="Tracé 418" class="cls-3" d="M185.11,190.041a.081.081,0,0,1-.073-.043c-.3-.573-1.321-.852-1.329-.856a.086.086,0,1,1,.043-.166,2.581,2.581,0,0,1,1.435.937.085.085,0,0,1-.037.113A.076.076,0,0,1,185.11,190.041Z" transform="translate(-112.867 -123.224)"/>
    <circle id="Ellipse_24" data-name="Ellipse 24" class="cls-3" cx="0.616" cy="0.616" r="0.616" transform="translate(55.645 68.123)"/>
    <path id="Tracé_419" data-name="Tracé 419" class="cls-3" d="M92.759,204.159a.7.7,0,1,1,.7-.7A.7.7,0,0,1,92.759,204.159Zm0-1.233a.533.533,0,1,0,.379.158A.533.533,0,0,0,92.759,202.926Z" transform="translate(-36.498 -134.72)"/>
    <path id="Tracé_420" data-name="Tracé 420" class="cls-1" d="M88.31,206.711H84.05a.44.44,0,0,1-.44-.439,1.364,1.364,0,0,1,1.364-1.362,6.24,6.24,0,0,1,2.693.455C88.577,205.9,88.767,206.711,88.31,206.711Z" transform="translate(-29.452 -136.509)"/>
    <path id="Tracé_421" data-name="Tracé 421" class="cls-3" d="M87.893,206.381h-4.26a.523.523,0,0,1-.523-.522,1.447,1.447,0,0,1,1.447-1.445,6.311,6.311,0,0,1,2.736.465c.678.4,1,.962.909,1.279a.3.3,0,0,1-.309.223Zm-3.107-1.806H84.56a1.279,1.279,0,0,0-1.284,1.279.357.357,0,0,0,.357.355h4.26c.11,0,.136-.056.148-.1.06-.219-.2-.721-.831-1.091A5.677,5.677,0,0,0,84.786,204.575Z" transform="translate(-29.035 -136.097)"/>
    <path id="Tracé_422" data-name="Tracé 422" class="cls-3" d="M87.287,205.677a.065.065,0,0,1-.025,0,.083.083,0,0,1-.053-.1,2.057,2.057,0,0,1,.947-1.116.083.083,0,0,1,.111.037.081.081,0,0,1-.037.111,1.925,1.925,0,0,0-.864,1.02A.083.083,0,0,1,87.287,205.677Z" transform="translate(-32.45 -136.126)"/>
    <path id="Tracé_423" data-name="Tracé 423" class="cls-3" d="M95.407,206.394a.083.083,0,0,1-.053-.146,1.63,1.63,0,0,0,.543-.975.729.729,0,0,0-.332-.689.081.081,0,0,1-.037-.111.083.083,0,0,1,.111-.037.887.887,0,0,1,.424.844,1.745,1.745,0,0,1-.6,1.095A.082.082,0,0,1,95.407,206.394Z" transform="translate(-39.221 -136.11)"/>
    <rect id="Rectangle_53" data-name="Rectangle 53" class="cls-1" width="5.722" height="5.109" transform="translate(67.874 41.283)"/>
    <path id="Tracé_424" data-name="Tracé 424" class="cls-2" d="M171.475,46.483h-5.722a.085.085,0,0,1-.083-.083V41.283a.085.085,0,0,1,.083-.083h5.722a.083.083,0,0,1,.083.083v5.109a.083.083,0,0,1-.083.091Zm-5.639-.166h5.555V41.366h-5.555Z" transform="translate(-97.88)"/>
    <path id="Tracé_425" data-name="Tracé 425" class="cls-2" d="M171.9,52.9a.083.083,0,0,1-.055-.02L170.857,52a.088.088,0,0,1-.028-.058.078.078,0,0,1,.023-.061l1-1.052a.081.081,0,0,1,.116,0,.083.083,0,0,1,0,.118l-.94,1,.935.831a.083.083,0,0,1-.055.145Z" transform="translate(-102.181 -8.008)"/>
    <path id="Tracé_426" data-name="Tracé 426" class="cls-2" d="M187.844,52.8a.086.086,0,0,1-.063-.028.083.083,0,0,1,0-.116l.935-.831-.94-1a.083.083,0,1,1,.121-.115l1,1.052a.083.083,0,0,1,.022.061.08.08,0,0,1-.027.058l-1,.884A.09.09,0,0,1,187.844,52.8Z" transform="translate(-116.294 -7.907)"/>
    <path id="Tracé_427" data-name="Tracé 427" class="cls-2" d="M178.466,52.281a.081.081,0,0,1-.038-.01.085.085,0,0,1-.035-.113l1.246-2.379a.083.083,0,1,1,.146.078l-1.244,2.386A.085.085,0,0,1,178.466,52.281Z" transform="translate(-108.481 -7.117)"/>
    <path id="Tracé_428" data-name="Tracé 428" class="cls-2" d="M171.475,45.506h-5.722a.085.085,0,0,1-.083-.083.083.083,0,0,1,.083-.083h5.722a.083.083,0,0,1,0,.166Z" transform="translate(-97.88 -3.452)"/>
    <rect id="Rectangle_54" data-name="Rectangle 54" class="cls-1" width="9.292" height="8.617" transform="translate(85.673 42.838)"/>
    <path id="Tracé_429" data-name="Tracé 429" class="cls-2" d="M282.185,59.343h-9.292a.083.083,0,0,1-.083-.083V50.643a.083.083,0,0,1,.083-.083h9.292a.083.083,0,0,1,.083.083V59.26A.083.083,0,0,1,282.185,59.343Zm-9.209-.166H282.1V50.726h-9.126Z" transform="translate(-187.22 -7.805)"/>
    <path id="Tracé_430" data-name="Tracé 430" class="cls-2" d="M282.185,55.856h-9.292a.083.083,0,1,1,0-.166h9.292a.085.085,0,0,1,.083.083A.083.083,0,0,1,282.185,55.856Z" transform="translate(-187.22 -12.083)"/>
    <path id="Tracé_431" data-name="Tracé 431" class="cls-2" d="M278.888,60.006h-1.135a.083.083,0,1,1,0-.166h1.135a.083.083,0,1,1,0,.166Z" transform="translate(-191.273 -15.543)"/>
    <path id="Tracé_432" data-name="Tracé 432" class="cls-2" d="M290.487,60.006h-2.264a.083.083,0,1,1,0-.166h2.264a.083.083,0,0,1,0,.166Z" transform="translate(-200.003 -15.543)"/>
    <path id="Tracé_433" data-name="Tracé 433" class="cls-2" d="M294.587,64.626h-2.264a.083.083,0,1,1,0-.166h2.264a.083.083,0,1,1,0,.166Z" transform="translate(-203.422 -19.396)"/>
    <path id="Tracé_434" data-name="Tracé 434" class="cls-2" d="M280.528,64.626h-1.135a.085.085,0,0,1-.083-.083.083.083,0,0,1,.083-.083h1.135a.083.083,0,1,1,0,.166Z" transform="translate(-192.64 -19.396)"/>
    <path id="Tracé_435" data-name="Tracé 435" class="cls-2" d="M281.913,69.236H281a.083.083,0,1,1,0-.166h.91a.083.083,0,1,1,0,.166Z" transform="translate(-193.983 -23.24)"/>
    <path id="Tracé_436" data-name="Tracé 436" class="cls-2" d="M294.167,69.236h-2.834a.083.083,0,1,1,0-.166h2.834a.083.083,0,0,1,0,.166Z" transform="translate(-202.597 -23.24)"/>
    <path id="Tracé_437" data-name="Tracé 437" class="cls-2" d="M283.721,73.856h-1.138a.083.083,0,1,1,0-.166h1.135a.083.083,0,0,1,0,.166Z" transform="translate(-195.3 -27.092)"/>
    <path id="Tracé_438" data-name="Tracé 438" class="cls-2" d="M295,73.856h-3.371a.085.085,0,0,1-.083-.083.083.083,0,0,1,.083-.083H295a.083.083,0,0,1,0,.166Z" transform="translate(-202.847 -27.092)"/>
    <path id="Tracé_439" data-name="Tracé 439" class="cls-2" d="M281.888,78.476h-1.135a.083.083,0,0,1,0-.166h1.135a.083.083,0,1,1,0,.166Z" transform="translate(-193.774 -30.945)"/>
    <path id="Tracé_440" data-name="Tracé 440" class="cls-2" d="M292.07,78.476h-1.827a.083.083,0,0,1,0-.166h1.827a.083.083,0,0,1,.083.083.085.085,0,0,1-.083.083Z" transform="translate(-201.688 -30.945)"/>
    <path id="Tracé_441" data-name="Tracé 441" class="cls-2" d="M307.271,78.476h-1.827a.083.083,0,0,1,0-.166h1.827a.083.083,0,0,1,0,.166Z" transform="translate(-214.363 -30.945)"/>
    <path id="Tracé_442" data-name="Tracé 442" class="cls-2" d="M281.183,83.086h-.39a.083.083,0,1,1,0-.166h.39a.083.083,0,1,1,0,.166Z" transform="translate(-193.808 -34.789)"/>
    <path id="Tracé_443" data-name="Tracé 443" class="cls-2" d="M289.494,83.086h-2.341A.083.083,0,0,1,287.07,83a.085.085,0,0,1,.083-.083h2.341a.085.085,0,0,1,.083.083A.083.083,0,0,1,289.494,83.086Z" transform="translate(-199.111 -34.789)"/>
    <path id="Tracé_444" data-name="Tracé 444" class="cls-2" d="M303.516,83.086h-.653a.083.083,0,1,1,0-.166h.653A.085.085,0,0,1,303.6,83,.083.083,0,0,1,303.516,83.086Z" transform="translate(-212.211 -34.789)"/>
    <path id="Tracé_445" data-name="Tracé 445" class="cls-2" d="M281.406,87.706h-.613a.083.083,0,1,1,0-.166h.613a.083.083,0,1,1,0,.166Z" transform="translate(-193.808 -38.641)"/>
    <path id="Tracé_446" data-name="Tracé 446" class="cls-2" d="M290.751,87.706h-2.778a.083.083,0,1,1,0-.166h2.778a.083.083,0,1,1,0,.166Z" transform="translate(-199.795 -38.641)"/>
    <path id="Tracé_447" data-name="Tracé 447" class="cls-2" d="M307.478,87.706h-1.135a.083.083,0,1,1,0-.166h1.135a.083.083,0,0,1,0,.166Z" transform="translate(-215.113 -38.641)"/>
    <path id="Tracé_448" data-name="Tracé 448" class="cls-2" d="M279.786,92.326h-.6a.085.085,0,0,1-.083-.083.083.083,0,0,1,.083-.083h.6a.083.083,0,0,1,.083.083A.085.085,0,0,1,279.786,92.326Z" transform="translate(-192.465 -42.494)"/>
    <path id="Tracé_449" data-name="Tracé 449" class="cls-2" d="M289.663,92.326h-2.63a.083.083,0,1,1,0-.166h2.63a.083.083,0,0,1,.083.083A.085.085,0,0,1,289.663,92.326Z" transform="translate(-199.011 -42.494)"/>
    <path id="Tracé_450" data-name="Tracé 450" class="cls-2" d="M280.318,96.936h-1.135a.083.083,0,0,1-.083-.083.085.085,0,0,1,.083-.083h1.135a.083.083,0,1,1,0,.166Z" transform="translate(-192.465 -46.338)"/>
    <path id="Tracé_451" data-name="Tracé 451" class="cls-2" d="M316.218,73.856h-1.535a.083.083,0,0,1,0-.166h1.535a.083.083,0,0,1,.083.083A.085.085,0,0,1,316.218,73.856Z" transform="translate(-222.068 -27.092)"/>
    <path id="Tracé_452" data-name="Tracé 452" class="cls-2" d="M306.218,60.038h-.794a.083.083,0,0,1-.058-.1.081.081,0,0,1,.091-.061h2.557a.088.088,0,0,1,.083.083.083.083,0,0,1-.083.083C307.169,60.038,306.6,60.038,306.218,60.038Z" transform="translate(-214.365 -15.572)"/>
    <path id="Tracé_453" data-name="Tracé 453" class="cls-2" d="M305.821,92.326h-1.148a.083.083,0,0,1,0-.166h1.148a.083.083,0,0,1,0,.166Z" transform="translate(-213.721 -42.494)"/>
    <path id="Tracé_454" data-name="Tracé 454" class="cls-2" d="M291.5,96.936h-.846a.083.083,0,0,1-.083-.083.085.085,0,0,1,.083-.083h.846a.085.085,0,0,1,.083.083A.083.083,0,0,1,291.5,96.936Z" transform="translate(-202.03 -46.338)"/>
    <path id="Tracé_455" data-name="Tracé 455" class="cls-2" d="M299.68,96.936h-2.007a.083.083,0,1,1,0-.166h2.007a.083.083,0,1,1,0,.166Z" transform="translate(-207.883 -46.338)"/>
  </g>
</svg>
