<svg xmlns="http://www.w3.org/2000/svg" width="56.467" height="35.881" viewBox="0 0 56.467 35.881">
  <defs>
    <style>
      .cls-1 {
        fill: #fff;
      }

      .cls-2 {
        fill: #231f20;
      }

      .cls-3 {
        fill: #d1d3d4;
      }

      .cls-4 {
        fill: #03b898;
      }

      .cls-5 {
        fill: none;
        stroke: #231f20;
        stroke-linecap: round;
        stroke-linejoin: round;
      }
    </style>
  </defs>
  <g id="_181_code_javascript_flatline" data-name="#181_code_javascript_flatline" transform="translate(-47.91 -53.36)">
    <path id="Tracé_233" data-name="Tracé 233" class="cls-1" d="M229.08,110.586s.078-1.242-.524-1.535-2.926-.841-2.926.358,1.485,2.326,1.747,2.484a30.231,30.231,0,0,1,1.5,3.832l2.737-3.1Z" transform="translate(-144.724 -45.04)"/>
    <path id="Tracé_234" data-name="Tracé 234" class="cls-2" d="M228.463,115.418h-.019a.091.091,0,0,1-.071-.061,26.138,26.138,0,0,0-1.457-3.784c-.291-.173-1.79-1.322-1.79-2.562a.709.709,0,0,1,.345-.642c.7-.438,2.246-.03,2.714.2.587.286.587,1.333.577,1.576l2.5,2.009a.1.1,0,0,1,.033.065.093.093,0,0,1-.022.069l-2.738,3.095A.089.089,0,0,1,228.463,115.418Zm-2.126-7.055a1.485,1.485,0,0,0-.767.163.527.527,0,0,0-.258.485c0,1.138,1.437,2.246,1.7,2.414a21.883,21.883,0,0,1,1.485,3.73l2.568-2.907-2.456-1.988a.091.091,0,0,1-.035-.078c0-.013.067-1.185-.47-1.446a4.827,4.827,0,0,0-1.769-.373Z" transform="translate(-144.314 -44.638)"/>
    <rect id="Rectangle_35" data-name="Rectangle 35" class="cls-1" width="10.133" height="1.682" transform="translate(60.266 80.505) rotate(180)"/>
    <path id="Tracé_235" data-name="Tracé 235" class="cls-3" d="M69.6,191.927H59.463a.093.093,0,0,1-.093-.093v-1.671a.093.093,0,0,1,.093-.093H69.6a.093.093,0,0,1,.093.093v1.671A.093.093,0,0,1,69.6,191.927Zm-10.041-.186h9.957v-1.485H59.556Z" transform="translate(-9.332 -111.329)"/>
    <rect id="Rectangle_36" data-name="Rectangle 36" class="cls-3" width="5.83" height="1.682" transform="translate(60.264 80.505) rotate(180)"/>
    <path id="Tracé_236" data-name="Tracé 236" class="cls-3" d="M88.473,191.927h-5.83a.093.093,0,0,1-.093-.093v-1.671a.093.093,0,0,1,.093-.093h5.83a.093.093,0,0,1,.093.093v1.671A.093.093,0,0,1,88.473,191.927Zm-5.737-.186h5.653v-1.485H82.736Z" transform="translate(-28.209 -111.329)"/>
    <rect id="Rectangle_37" data-name="Rectangle 37" class="cls-1" width="10.133" height="1.682" transform="translate(58.998 78.76) rotate(180)"/>
    <path id="Tracé_237" data-name="Tracé 237" class="cls-3" d="M62.786,182.478H52.653a.093.093,0,0,1-.093-.093V180.7a.093.093,0,0,1,.093-.093H62.786a.093.093,0,0,1,.093.093v1.682A.1.1,0,0,1,62.786,182.478Zm-10.041-.186h9.948v-1.5H52.746Z" transform="translate(-3.787 -103.625)"/>
    <rect id="Rectangle_38" data-name="Rectangle 38" class="cls-3" width="5.83" height="1.682" transform="translate(59 78.76) rotate(180)"/>
    <path id="Tracé_238" data-name="Tracé 238" class="cls-3" d="M81.654,182.478H75.823a.1.1,0,0,1-.093-.093V180.7a.093.093,0,0,1,.093-.093h5.832a.093.093,0,0,1,.093.093v1.682a.1.1,0,0,1-.093.093Zm-5.739-.186h5.646v-1.5H75.916Z" transform="translate(-22.655 -103.625)"/>
    <rect id="Rectangle_39" data-name="Rectangle 39" class="cls-1" width="10.133" height="1.682" transform="translate(60.266 77.015) rotate(180)"/>
    <path id="Tracé_239" data-name="Tracé 239" class="cls-3" d="M69.6,173.068H59.463a.093.093,0,0,1-.093-.093v-1.682a.1.1,0,0,1,.093-.093H69.6a.093.093,0,0,1,.093.093v1.682A.093.093,0,0,1,69.6,173.068Zm-10.041-.186h9.957v-1.5H59.556Z" transform="translate(-9.332 -95.962)"/>
    <rect id="Rectangle_40" data-name="Rectangle 40" class="cls-3" width="5.83" height="1.682" transform="translate(60.264 77.015) rotate(180)"/>
    <path id="Tracé_240" data-name="Tracé 240" class="cls-3" d="M88.473,173.068h-5.83a.093.093,0,0,1-.093-.093v-1.682a.093.093,0,0,1,.093-.093h5.83a.093.093,0,0,1,.093.093v1.682A.093.093,0,0,1,88.473,173.068Zm-5.737-.186h5.653v-1.5H82.736Z" transform="translate(-28.209 -95.962)"/>
    <rect id="Rectangle_41" data-name="Rectangle 41" class="cls-2" width="13.973" height="6.585" transform="translate(84.684 89.148) rotate(180)"/>
    <path id="Tracé_241" data-name="Tracé 241" class="cls-2" d="M184.289,216.929H170.313a.093.093,0,0,1-.093-.093v-6.584a.093.093,0,0,1,.093-.093h13.977a.093.093,0,0,1,.093.093v6.584A.093.093,0,0,1,184.289,216.929Zm-13.88-.186H184.2v-6.4H170.406Z" transform="translate(-99.602 -127.689)"/>
    <rect id="Rectangle_42" data-name="Rectangle 42" class="cls-1" width="41.165" height="2.037" rx="1.018" transform="translate(89.169 82.564) rotate(180)"/>
    <path id="Tracé_242" data-name="Tracé 242" class="cls-2" d="M88.523,201.388H48.653a.743.743,0,0,1-.743-.743V199.9a.743.743,0,0,1,.743-.743H88.523a.743.743,0,0,1,.743.743v.743A.743.743,0,0,1,88.523,201.388Zm-39.871-2.042a.557.557,0,0,0-.557.557v.743a.557.557,0,0,0,.557.557H88.523a.557.557,0,0,0,.557-.557V199.9a.557.557,0,0,0-.557-.557Z" transform="translate(0 -118.731)"/>
    <rect id="Rectangle_43" data-name="Rectangle 43" class="cls-1" width="24.028" height="2.037" rx="1.018" transform="translate(72.035 82.564) rotate(180)"/>
    <path id="Tracé_243" data-name="Tracé 243" class="cls-2" d="M71.6,201.412H48.476a.546.546,0,0,1-.546-.546v-1.131a.546.546,0,0,1,.546-.546H71.6a.546.546,0,0,1,.546.546v1.131A.546.546,0,0,1,71.6,201.412ZM48.476,199.37a.36.36,0,0,0-.36.36v1.131a.36.36,0,0,0,.36.36H71.6a.36.36,0,0,0,.36-.36V199.73a.36.36,0,0,0-.36-.36Z" transform="translate(-0.016 -118.755)"/>
    <path id="Tracé_244" data-name="Tracé 244" class="cls-1" d="M133.192,153.79s-.557,5.765.683,6.546a5.327,5.327,0,0,0,3.156.512,1.237,1.237,0,0,1,1.222.815l.186.626h-8.912a5.438,5.438,0,0,1-1.651-1.706c-.6-1.053-.227-6.524-.227-6.524Z" transform="translate(-64.843 -81.784)"/>
    <path id="Tracé_245" data-name="Tracé 245" class="cls-2" d="M138.021,161.974h-8.912a.089.089,0,0,1-.043-.013,5.47,5.47,0,0,1-1.682-1.741c-.605-1.064-.256-6.35-.24-6.574a.1.1,0,0,1,.087-.087l5.538-.269a.089.089,0,0,1,.072.03.085.085,0,0,1,.024.072c0,.015-.139,1.456-.124,2.971.02,1.981.284,3.186.767,3.489a4.478,4.478,0,0,0,2.7.511c.149,0,.284-.013.4-.013a1.333,1.333,0,0,1,1.309.88l.186.628a.091.091,0,0,1-.013.082A.1.1,0,0,1,138.021,161.974Zm-8.88-.186h8.754l-.152-.507a1.149,1.149,0,0,0-1.133-.743c-.119,0-.253,0-.4.013a4.672,4.672,0,0,1-2.8-.54c-1.2-.752-.811-5.707-.743-6.526l-5.349.26c-.043.687-.317,5.442.221,6.389A5.336,5.336,0,0,0,129.141,161.789Z" transform="translate(-64.43 -81.376)"/>
    <path id="Tracé_246" data-name="Tracé 246" class="cls-2" d="M126.879,160.488c0,1.422.427,1.857,1,1.857H130.1a.752.752,0,0,1,.705.492l.247.674h-3.437c-.882,0-1.508-1.337-1.537-2.759s0-5.471,0-5.471h.769S126.879,159.064,126.879,160.488Z" transform="translate(-63.648 -82.998)"/>
    <path id="Tracé_247" data-name="Tracé 247" class="cls-2" d="M130.665,163.156h-3.45c-.984,0-1.6-1.448-1.63-2.85s0-5.432,0-5.473a.1.1,0,0,1,.093-.093h.769a.093.093,0,0,1,.093.093c0,.037.028,3.808.028,5.215,0,1.756.681,1.756.9,1.756H129.7a.848.848,0,0,1,.793.557l.247.674a.1.1,0,0,1-.011.085A.091.091,0,0,1,130.665,163.156Zm-4.888-8.23c0,.613-.026,4.085,0,5.384.03,1.47.678,2.668,1.444,2.668h3.31l-.2-.548a.663.663,0,0,0-.618-.433h-2.228c-.743,0-1.09-.635-1.09-1.942s-.022-4.532-.026-5.122Z" transform="translate(-63.244 -82.558)"/>
    <path id="Tracé_248" data-name="Tracé 248" class="cls-2" d="M102.931,63.188l1.348,15.41a1.222,1.222,0,0,1-1.2,1.379H84.7A1.509,1.509,0,0,1,83.253,78.6L81.9,63.188a1.22,1.22,0,0,1,1.2-1.378h18.38a1.506,1.506,0,0,1,1.441,1.378Z" transform="translate(-27.675 -6.881)"/>
    <path id="Tracé_249" data-name="Tracé 249" class="cls-2" d="M102.683,79.664H84.3A1.6,1.6,0,0,1,82.764,78.2l-1.348-15.41a1.374,1.374,0,0,1,.345-1.066,1.272,1.272,0,0,1,.952-.414h18.38a1.6,1.6,0,0,1,1.539,1.463l1.348,15.41a1.381,1.381,0,0,1-.345,1.066A1.281,1.281,0,0,1,102.683,79.664ZM82.712,61.5a1.086,1.086,0,0,0-.822.353,1.2,1.2,0,0,0-.3.928l1.35,15.41a1.413,1.413,0,0,0,1.353,1.3h18.38a1.094,1.094,0,0,0,.815-.355,1.2,1.2,0,0,0,.3-.928l-1.35-15.41h0a1.411,1.411,0,0,0-1.353-1.3Z" transform="translate(-27.279 -6.474)"/>
    <path id="Tracé_250" data-name="Tracé 250" class="cls-1" d="M107.416,63.126,108.7,77.84a1.168,1.168,0,0,1-1.153,1.316H90.007a1.441,1.441,0,0,1-1.381-1.316L87.337,63.126A1.166,1.166,0,0,1,88.49,61.81h17.545A1.439,1.439,0,0,1,107.416,63.126Z" transform="translate(-32.099 -6.881)"/>
    <path id="Tracé_251" data-name="Tracé 251" class="cls-2" d="M107.163,78.842H89.618a1.534,1.534,0,0,1-1.474-1.4L86.857,62.726a1.318,1.318,0,0,1,.33-1.021,1.227,1.227,0,0,1,.913-.4h17.545a1.534,1.534,0,0,1,1.469,1.4l1.3,14.715a1.318,1.318,0,0,1-.33,1.021A1.229,1.229,0,0,1,107.163,78.842ZM88.1,61.5a1.036,1.036,0,0,0-.776.336,1.134,1.134,0,0,0-.284.878L88.33,77.425a1.344,1.344,0,0,0,1.288,1.231h17.545a1.036,1.036,0,0,0,.776-.336,1.144,1.144,0,0,0,.29-.878l-1.3-14.715h0a1.344,1.344,0,0,0-1.288-1.231Z" transform="translate(-31.71 -6.474)"/>
    <path id="Tracé_252" data-name="Tracé 252" class="cls-1" d="M113.229,134.84l.217,2.471a1.168,1.168,0,0,1-1.153,1.316H94.749a1.441,1.441,0,0,1-1.381-1.316l-.217-2.471Z" transform="translate(-36.841 -66.353)"/>
    <path id="Tracé_253" data-name="Tracé 253" class="cls-2" d="M111.891,138.313H94.346a1.534,1.534,0,0,1-1.474-1.4l-.215-2.471a.084.084,0,0,1,.024-.071.085.085,0,0,1,.067-.032h20.079a.093.093,0,0,1,.093.085l.223,2.471a1.318,1.318,0,0,1-.33,1.021A1.229,1.229,0,0,1,111.891,138.313ZM92.85,134.526l.208,2.371a1.344,1.344,0,0,0,1.288,1.231h17.545a1.036,1.036,0,0,0,.776-.336,1.144,1.144,0,0,0,.29-.878l-.21-2.388Z" transform="translate(-36.438 -65.945)"/>
    <ellipse id="Ellipse_20" data-name="Ellipse 20" class="cls-1" cx="0.796" cy="0.878" rx="0.796" ry="0.878" transform="translate(65.364 70.097) rotate(-33.83)"/>
    <path id="Tracé_254" data-name="Tracé 254" class="cls-2" d="M144.173,141.874a1.027,1.027,0,0,1-.986-.928.884.884,0,0,1,.223-.689.821.821,0,0,1,.615-.267,1.029,1.029,0,0,1,.98.93h0a.884.884,0,0,1-.223.689.824.824,0,0,1-.609.266Zm-.149-1.708a.639.639,0,0,0-.477.208.707.707,0,0,0-.186.546.837.837,0,0,0,.8.769.637.637,0,0,0,.477-.206.709.709,0,0,0,.176-.546h0A.839.839,0,0,0,144.024,140.166Z" transform="translate(-77.583 -70.546)"/>
    <rect id="Rectangle_44" data-name="Rectangle 44" class="cls-1" width="13.503" height="0.741" transform="translate(81.117 80.527) rotate(180)"/>
    <path id="Tracé_255" data-name="Tracé 255" class="cls-2" d="M167.1,196.118H153.593a.093.093,0,0,1-.093-.093v-.743a.093.093,0,0,1,.093-.093h13.5a.093.093,0,0,1,.093.093v.743A.093.093,0,0,1,167.1,196.118Zm-13.41-.186h13.317v-.557H153.693Z" transform="translate(-85.986 -115.498)"/>
    <path id="Tracé_256" data-name="Tracé 256" class="cls-1" d="M209.646,212.231s-6.236,1.574-6.236,5.787h16.485a7.653,7.653,0,0,0,1.974-6.418C215.227,211.819,209.646,212.231,209.646,212.231Z" transform="translate(-126.63 -128.861)"/>
    <path id="Tracé_257" data-name="Tracé 257" class="cls-2" d="M219.5,217.661H203.013a.093.093,0,0,1-.093-.093c0-4.237,6.244-5.859,6.312-5.876h.015c.056,0,5.657-.407,12.226-.633a.089.089,0,0,1,.095.078,7.791,7.791,0,0,1-2,6.5A.1.1,0,0,1,219.5,217.661Zm-16.392-.186h16.353a7.628,7.628,0,0,0,1.935-6.231c-6.411.225-11.882.611-12.129.629C209.019,211.939,203.195,213.517,203.106,217.475Z" transform="translate(-126.231 -128.421)"/>
    <path id="Tracé_258" data-name="Tracé 258" class="cls-1" d="M253.546,62.476a10.107,10.107,0,0,0,1.892-1.743c.418-.668,1.352-5.34-.828-4.983-2.143-3.058-6.545-1.762-7.209.126-.585,1.658,1.548,2.042,2.287,2.271s1.534,3.748,2.544,4.33S253.546,62.476,253.546,62.476Z" transform="translate(-162.371 -0.457)"/>
    <path id="Tracé_259" data-name="Tracé 259" class="cls-2" d="M252.609,62.364a1.736,1.736,0,0,1-.835-.271,5.821,5.821,0,0,1-1.467-2.469c-.371-.863-.743-1.756-1.058-1.857-.078-.024-.171-.05-.275-.078-.626-.175-1.671-.468-2.042-1.179a1.385,1.385,0,0,1-.03-1.133,3.73,3.73,0,0,1,3.054-1.97,4.374,4.374,0,0,1,4.285,1.775,1.036,1.036,0,0,1,1.073.468c.785,1.179.115,4.146-.21,4.666a9.824,9.824,0,0,1-1.9,1.758.65.65,0,0,1-.36.254A.813.813,0,0,1,252.609,62.364Zm-1.951-8.817a4.941,4.941,0,0,0-.676.046,3.534,3.534,0,0,0-2.906,1.847,1.21,1.21,0,0,0,.02.986c.332.639,1.331.928,1.927,1.084l.28.082c.4.124.756.975,1.173,1.959a5.928,5.928,0,0,0,1.389,2.38,1.282,1.282,0,0,0,.928.223.427.427,0,0,0,.265-.186.093.093,0,0,1,.028-.032,10.113,10.113,0,0,0,1.868-1.717c.3-.485.943-3.364.212-4.456a.869.869,0,0,0-.947-.371.093.093,0,0,1-.091-.039A4.125,4.125,0,0,0,250.658,53.547Z" transform="translate(-161.96)"/>
    <path id="Tracé_260" data-name="Tracé 260" class="cls-1" d="M252.113,83.14s-1.064,1.42-.878,1.738.867.154.867.154" transform="translate(-165.558 -24.251)"/>
    <path id="Tracé_261" data-name="Tracé 261" class="cls-2" d="M251.342,84.762a.635.635,0,0,1-.576-.243c-.2-.345.628-1.5.886-1.842a.093.093,0,0,1,.13-.019.1.1,0,0,1,.019.13c-.494.659-.967,1.472-.873,1.636.123.212.594.152.765.111a.1.1,0,0,1,.113.069.093.093,0,0,1-.069.111A1.792,1.792,0,0,1,251.342,84.762Z" transform="translate(-165.169 -23.844)"/>
    <path id="Tracé_262" data-name="Tracé 262" class="cls-1" d="M254.95,71.1c-.652.472-.535,1.556-.57,2.254q-.072,1.474-.08,2.948c0,.624,1.606.732,1.9.557l-.4,2.443,3.461-1.088-.02-2.042a2.06,2.06,0,0,1-1.652-1.361,11.43,11.43,0,0,1-.3-4.06A5,5,0,0,0,254.95,71.1Z" transform="translate(-168.072 -14.152)"/>
    <path id="Tracé_263" data-name="Tracé 263" class="cls-2" d="M255.39,79.015a.091.091,0,0,1-.059-.022.093.093,0,0,1-.032-.085l.371-2.293a2.7,2.7,0,0,1-1.56-.23.54.54,0,0,1-.321-.466c0-.98.033-1.974.082-2.954,0-.117,0-.243.009-.371.009-.68.019-1.524.6-1.944h0a5.04,5.04,0,0,1,2.4-.371.1.1,0,0,1,.065.033.089.089,0,0,1,.02.069,11.47,11.47,0,0,0,.3,4.008,1.942,1.942,0,0,0,1.573,1.3.1.1,0,0,1,.087.093l.02,2.042a.093.093,0,0,1-.065.089l-3.459,1.1Zm.4-2.629a.1.1,0,0,1,.054.017.093.093,0,0,1,.039.091l-.371,2.295,3.251-1.034-.019-1.89a2.183,2.183,0,0,1-1.647-1.407,10.856,10.856,0,0,1-.319-4,4.544,4.544,0,0,0-2.185.336c-.514.375-.514,1.159-.522,1.8,0,.136,0,.265-.009.384-.048.977-.076,1.968-.082,2.945q0,.173.228.306a2.383,2.383,0,0,0,1.535.175.11.11,0,0,1,.046-.013Z" transform="translate(-167.656 -13.769)"/>
    <path id="Tracé_264" data-name="Tracé 264" class="cls-1" d="M254.65,95.661a5.054,5.054,0,0,0,1.179-.251" transform="translate(-168.357 -34.243)"/>
    <path id="Tracé_265" data-name="Tracé 265" class="cls-2" d="M254.241,95.349a.093.093,0,0,1-.093-.085.091.091,0,0,1,.087-.1,5.185,5.185,0,0,0,1.16-.247.1.1,0,0,1,.061.186,5.178,5.178,0,0,1-1.209.254Z" transform="translate(-167.948 -33.839)"/>
    <path id="Tracé_266" data-name="Tracé 266" class="cls-1" d="M266,81.736a1.337,1.337,0,0,1,.314-.657,1.856,1.856,0,0,1,.382-.425.646.646,0,0,1,.538-.132.6.6,0,0,1,.371.329,1.114,1.114,0,0,1,.095.494,2.105,2.105,0,0,1-1.081,1.81l.058-.056" transform="translate(-177.599 -22.108)"/>
    <path id="Tracé_267" data-name="Tracé 267" class="cls-2" d="M266.165,82.84a.093.093,0,0,1-.063-.16l.054-.052.013.011a2.022,2.022,0,0,0,.984-1.7,1.047,1.047,0,0,0-.085-.455.505.505,0,0,0-.306-.277.557.557,0,0,0-.46.115,1.846,1.846,0,0,0-.371.4,1.283,1.283,0,0,0-.3.609.1.1,0,0,1-.1.087.093.093,0,0,1-.085-.1,1.413,1.413,0,0,1,.332-.706,1.952,1.952,0,0,1,.4-.444.732.732,0,0,1,.618-.147.683.683,0,0,1,.425.371,1.216,1.216,0,0,1,.1.535,2.213,2.213,0,0,1-1.129,1.892A.093.093,0,0,1,266.165,82.84Z" transform="translate(-177.15 -21.701)"/>
    <ellipse id="Ellipse_21" data-name="Ellipse 21" class="cls-2" cx="0.351" cy="0.137" rx="0.351" ry="0.137" transform="translate(86.71 58.474) rotate(-83.56)"/>
    <path id="Tracé_268" data-name="Tracé 268" class="cls-1" d="M262.064,109.6l-.225-1.1H257.5l-.557,1.582a8.553,8.553,0,0,0,5.124-.481Z" transform="translate(-170.221 -44.903)"/>
    <path id="Tracé_269" data-name="Tracé 269" class="cls-2" d="M258.245,109.969a7.339,7.339,0,0,1-1.771-.186.1.1,0,0,1-.058-.046.1.1,0,0,1,0-.074l.557-1.58a.093.093,0,0,1,.087-.063H261.4a.093.093,0,0,1,.091.074l.225,1.1a.093.093,0,0,1-.056.1A8.983,8.983,0,0,1,258.245,109.969Zm-1.625-.347a8.656,8.656,0,0,0,4.911-.47l-.2-.951h-4.2Z" transform="translate(-169.789 -44.512)"/>
    <path id="Tracé_270" data-name="Tracé 270" class="cls-4" d="M247.6,129.574s1.645-13.459-.308-16.21-6.747-3.2-8.966-1.42S235,131.054,235,131.054A31.792,31.792,0,0,0,247.6,129.574Z" transform="translate(-152.355 -46.845)"/>
    <path id="Tracé_271" data-name="Tracé 271" class="cls-1" d="M161.956,152.228c.186-.525,2-1.038,2.577-1.038a8.154,8.154,0,0,1,2.042.754h0l6.3.659,3.4-5.913,3.067,3.5s-2.3,5.6-3.342,5.975-10.067-2.146-10.067-2.146l-2.087-.583a1.478,1.478,0,0,1-1.508-.629c0-.082-.329.848-.576.822S161.765,152.754,161.956,152.228Z" transform="translate(-92.632 -76.003)"/>
    <path id="Tracé_272" data-name="Tracé 272" class="cls-2" d="M175.279,155.876c-1.927,0-9.437-2.087-9.779-2.182l-2.059-.57a1.418,1.418,0,0,1-1.207-.282,1.939,1.939,0,0,1-.292-.264c-.186.388-.371.756-.6.733a.186.186,0,0,1-.139-.089c-.149-.24.1-1,.254-1.437h0c.221-.6,2.109-1.1,2.664-1.1a7.831,7.831,0,0,1,2.068.754l6.221.65,3.372-5.861a.091.091,0,0,1,.072-.045.087.087,0,0,1,.078.03l3.067,3.5a.091.091,0,0,1,.017.1c-.095.23-2.328,5.646-3.4,6.027A1.131,1.131,0,0,1,175.279,155.876Zm-11.838-2.941h.024l2.083.576c3.112.867,9.207,2.43,10.011,2.146s2.614-4.281,3.269-5.869l-2.945-3.353-3.342,5.8a.1.1,0,0,1-.091.046l-6.3-.661a.077.077,0,0,1-.03,0,7.343,7.343,0,0,0-2-.743c-.6,0-2.328.531-2.49.975-.286.782-.329,1.227-.267,1.281.033,0,.139-.052.412-.648.071-.152.091-.2.171-.186a.1.1,0,0,1,.072.078,1.4,1.4,0,0,0,1.389.557ZM162.027,152.4ZM162.027,152.376Z" transform="translate(-92.226 -75.592)"/>
    <path id="Tracé_273" data-name="Tracé 273" class="cls-4" d="M233.834,116.59l-4.344,7.176,5.089,3.05,3.385-6.838S235.043,116.716,233.834,116.59Z" transform="translate(-147.868 -51.491)"/>
    <path id="Tracé_274" data-name="Tracé 274" class="cls-2" d="M225.548,144.909h2.6l3.086-13.925a4.688,4.688,0,0,1,4.575-3.674h5.6A4.686,4.686,0,0,1,246,132.936l-3.353,16.433-15.467-.106H222.05v-.856A3.5,3.5,0,0,1,225.548,144.909Z" transform="translate(-141.809 -60.221)"/>
    <path id="Tracé_275" data-name="Tracé 275" class="cls-2" d="M242.242,149.062h0l-15.466-.106h-5.133a.093.093,0,0,1-.093-.093v-.856a3.594,3.594,0,0,1,3.591-3.591h2.523l3.067-13.85a4.751,4.751,0,0,1,4.666-3.747H241a4.781,4.781,0,0,1,4.682,5.737l-3.353,16.435A.093.093,0,0,1,242.242,149.062Zm-20.5-.292h5.037l15.391.106,3.342-16.36a4.593,4.593,0,0,0-4.5-5.514H235.4a4.567,4.567,0,0,0-4.482,3.6l-3.084,13.925a.1.1,0,0,1-.091.072h-2.6a3.409,3.409,0,0,0-3.4,3.405Z" transform="translate(-141.402 -59.821)"/>
    <rect id="Rectangle_45" data-name="Rectangle 45" class="cls-1" width="21.499" height="6.585" transform="translate(70.689 89.148) rotate(180)"/>
    <path id="Tracé_276" data-name="Tracé 276" class="cls-2" d="M75.9,216.929H54.4a.093.093,0,0,1-.093-.093v-6.584a.093.093,0,0,1,.093-.093H75.9a.093.093,0,0,1,.093.093v6.584A.093.093,0,0,1,75.9,216.929Zm-21.4-.186H75.808v-6.4H54.5Z" transform="translate(-5.212 -127.689)"/>
    <rect id="Rectangle_46" data-name="Rectangle 46" class="cls-1" width="1.662" height="6.585" transform="translate(72.352 89.148) rotate(180)"/>
    <path id="Tracé_277" data-name="Tracé 277" class="cls-2" d="M171.814,216.929h-1.671a.093.093,0,0,1-.093-.093v-6.584a.093.093,0,0,1,.093-.093h1.671a.093.093,0,0,1,.093.093v6.584A.093.093,0,0,1,171.814,216.929Zm-1.569-.186h1.485v-6.4h-1.485Z" transform="translate(-99.463 -127.689)"/>
    <line id="Ligne_4" data-name="Ligne 4" class="cls-2" x1="4.565" transform="translate(54.434 77.078)"/>
    <path id="Tracé_278" data-name="Tracé 278" class="cls-2" d="M87.208,180.8H82.643a.093.093,0,1,1,0-.186h4.565a.093.093,0,1,1,0,.186Z" transform="translate(-28.209 -103.625)"/>
    <line id="Ligne_5" data-name="Ligne 5" class="cls-2" x1="5.832" transform="translate(53.168 78.76)"/>
    <path id="Tracé_279" data-name="Tracé 279" class="cls-2" d="M81.654,189.856H75.823a.1.1,0,0,1-.093-.093.093.093,0,0,1,.093-.093h5.832a.093.093,0,0,1,.093.093.1.1,0,0,1-.093.093Z" transform="translate(-22.655 -111.003)"/>
    <path id="Tracé_280" data-name="Tracé 280" class="cls-2" d="M256.492,140.191a.08.08,0,0,1-.041-.011.093.093,0,0,1-.043-.124,58.345,58.345,0,0,0,2.558-5.635.091.091,0,0,1,.067-.111.1.1,0,0,1,.113.071c.085.327-1.948,4.489-2.571,5.755A.1.1,0,0,1,256.492,140.191Z" transform="translate(-169.781 -65.919)"/>
    <path id="Tracé_281" data-name="Tracé 281" class="cls-1" d="M270.161,158.271h-.019a.091.091,0,0,1-.072-.11c.024-.119,2.466-12.018,3.713-18.195a.091.091,0,0,1,.108-.074.1.1,0,0,1,.074.11c-1.24,6.188-3.682,18.087-3.713,18.206A.093.093,0,0,1,270.161,158.271Z" transform="translate(-180.912 -70.465)"/>
    <path id="Tracé_282" data-name="Tracé 282" class="cls-3" d="M101.733,81.186a.093.093,0,0,1-.093-.093.1.1,0,0,1,.093-.093h1.894a.093.093,0,0,1,.093.093.091.091,0,0,1-.091.093Z" transform="translate(-43.754 -22.509)"/>
    <path id="Tracé_283" data-name="Tracé 283" class="cls-4" d="M113.4,81.186a.093.093,0,1,1,0-.186h5.624a.093.093,0,0,1,0,.186Z" transform="translate(-53.258 -22.509)"/>
    <path id="Tracé_284" data-name="Tracé 284" class="cls-3" d="M99.353,85.126a.093.093,0,0,1,0-.186h1.9a.1.1,0,0,1,.093.093.093.093,0,0,1-.093.093H99.355Z" transform="translate(-41.816 -25.717)"/>
    <path id="Tracé_285" data-name="Tracé 285" class="cls-4" d="M111.643,85.106a.093.093,0,1,1,0-.186h3.05a.093.093,0,0,1,.093.091.1.1,0,0,1-.093.095Z" transform="translate(-51.825 -25.701)"/>
    <path id="Tracé_286" data-name="Tracé 286" class="cls-4" d="M134.343,85.056a.093.093,0,1,1,0-.186h3.05a.093.093,0,1,1,0,.186Z" transform="translate(-70.31 -25.66)"/>
    <path id="Tracé_287" data-name="Tracé 287" class="cls-3" d="M99.683,89.036a.093.093,0,1,1,0-.186h1.894a.093.093,0,0,1,0,.186Z" transform="translate(-42.085 -28.901)"/>
    <path id="Tracé_288" data-name="Tracé 288" class="cls-4" d="M114.053,89.006a.093.093,0,1,1,0-.186h2.662a.1.1,0,0,1,.093.093.093.093,0,0,1-.093.093h-2.664Z" transform="translate(-53.787 -28.877)"/>
    <path id="Tracé_289" data-name="Tracé 289" class="cls-3" d="M130.813,88.976a.1.1,0,0,1-.093-.093.093.093,0,0,1,.093-.093h1.09a.093.093,0,1,1,0,.186h-1.088Z" transform="translate(-67.435 -28.852)"/>
    <path id="Tracé_290" data-name="Tracé 290" class="cls-3" d="M100.013,92.936a.091.091,0,0,1-.093-.091.1.1,0,0,1,.093-.095h1.894a.093.093,0,1,1,0,.186Z" transform="translate(-42.354 -32.077)"/>
    <path id="Tracé_291" data-name="Tracé 291" class="cls-4" d="M112.923,92.916a.093.093,0,1,1,0-.186h3.9a.093.093,0,1,1,0,.186Z" transform="translate(-52.867 -32.061)"/>
    <path id="Tracé_292" data-name="Tracé 292" class="cls-4" d="M136.343,92.866a.093.093,0,0,1,0-.186h1.894a.093.093,0,0,1,0,.186Z" transform="translate(-71.939 -32.02)"/>
    <path id="Tracé_293" data-name="Tracé 293" class="cls-3" d="M97.943,96.856a.1.1,0,0,1-.093-.093.093.093,0,0,1,.093-.093h1a.1.1,0,0,1,.093.093.093.093,0,0,1-.093.093H97.941Z" transform="translate(-40.668 -35.269)"/>
    <path id="Tracé_294" data-name="Tracé 294" class="cls-4" d="M107.833,96.795a.1.1,0,0,1-.093-.093.093.093,0,0,1,.093-.093l4.389-.009h0a.093.093,0,0,1,0,.186Z" transform="translate(-48.722 -35.212)"/>
    <path id="Tracé_295" data-name="Tracé 295" class="cls-3" d="M98.273,100.756a.093.093,0,1,1,0-.186h1.894a.093.093,0,0,1,0,.186Z" transform="translate(-40.937 -38.445)"/>
    <path id="Tracé_296" data-name="Tracé 296" class="cls-3" d="M100.113,104.656a.093.093,0,0,1,0-.186h3.778a.093.093,0,0,1,0,.186Z" transform="translate(-42.435 -41.621)"/>
    <path id="Tracé_297" data-name="Tracé 297" class="cls-4" d="M123.843,104.616a.093.093,0,1,1,0-.186h2.627a.1.1,0,0,1,.093.093.093.093,0,0,1-.093.093Z" transform="translate(-61.76 -41.589)"/>
    <path id="Tracé_298" data-name="Tracé 298" class="cls-4" d="M140.023,104.576a.093.093,0,1,1,0-.186h3.253a.093.093,0,1,1,0,.186h-3.251Z" transform="translate(-74.936 -41.556)"/>
    <path id="Tracé_299" data-name="Tracé 299" class="cls-3" d="M101.323,108.517a.093.093,0,0,1,0-.186l5.509-.011h0a.093.093,0,0,1,0,.186Z" transform="translate(-43.421 -44.756)"/>
    <path id="Tracé_300" data-name="Tracé 300" class="cls-4" d="M133.013,108.5a.093.093,0,1,1,0-.186h2.479a.093.093,0,1,1,0,.186Z" transform="translate(-69.227 -44.748)"/>
    <path id="Tracé_301" data-name="Tracé 301" class="cls-4" d="M148.593,108.4a.093.093,0,1,1,0-.186l7.369-.015h0a.093.093,0,1,1,0,.186Z" transform="translate(-81.914 -44.659)"/>
    <path id="Tracé_302" data-name="Tracé 302" class="cls-3" d="M101.533,112.466a.093.093,0,0,1,0-.186h2.6a.093.093,0,1,1,0,.186Z" transform="translate(-43.592 -47.981)"/>
    <path id="Tracé_303" data-name="Tracé 303" class="cls-4" d="M118.353,112.436a.093.093,0,0,1,0-.186h1.918a.093.093,0,1,1,0,.186h-1.92Z" transform="translate(-57.289 -47.957)"/>
    <path id="Tracé_304" data-name="Tracé 304" class="cls-4" d="M131.473,112.406a.093.093,0,1,1,0-.186h1.918a.093.093,0,0,1,0,.186Z" transform="translate(-67.973 -47.932)"/>
    <path id="Tracé_305" data-name="Tracé 305" class="cls-3" d="M101.863,116.376a.093.093,0,0,1,0-.186h4.6a.093.093,0,0,1,.093.093.1.1,0,0,1-.093.093h-4.606Z" transform="translate(-43.86 -51.165)"/>
    <path id="Tracé_306" data-name="Tracé 306" class="cls-4" d="M129.723,116.316a.093.093,0,1,1,0-.186h2.3a.093.093,0,1,1,0,.186h-2.3Z" transform="translate(-66.548 -51.116)"/>
    <path id="Tracé_307" data-name="Tracé 307" class="cls-3" d="M145.183,116.286a.093.093,0,1,1,0-.186h3.507a.093.093,0,0,1,0,.186Z" transform="translate(-79.138 -51.092)"/>
    <path id="Tracé_308" data-name="Tracé 308" class="cls-4" d="M166.063,116.245a.093.093,0,1,1,0-.186h3.507a.089.089,0,0,1,.093.093.093.093,0,0,1-.093.093Z" transform="translate(-96.141 -51.059)"/>
    <path id="Tracé_309" data-name="Tracé 309" class="cls-3" d="M108.463,120.266a.093.093,0,0,1,0-.186h2.748a.093.093,0,1,1,0,.186Z" transform="translate(-49.235 -54.333)"/>
    <path id="Tracé_310" data-name="Tracé 310" class="cls-4" d="M126.043,120.236a.093.093,0,0,1-.093-.093.091.091,0,0,1,.091-.093h2.748a.093.093,0,0,1,0,.186h-2.748Z" transform="translate(-63.551 -54.309)"/>
    <path id="Tracé_311" data-name="Tracé 311" class="cls-4" d="M143.733,120.186a.093.093,0,1,1,0-.186h2.748a.093.093,0,1,1,0,.186Z" transform="translate(-77.957 -54.268)"/>
    <path id="Tracé_312" data-name="Tracé 312" class="cls-4" d="M162.093,120.6a.093.093,0,0,1,0-.186h2.748a.093.093,0,1,1,0,.186Z" transform="translate(-92.908 -54.602)"/>
    <path id="Tracé_313" data-name="Tracé 313" class="cls-3" d="M110.993,124.186a.093.093,0,0,1,0-.186h1.894a.093.093,0,0,1,0,.186Z" transform="translate(-51.295 -57.525)"/>
    <path id="Tracé_314" data-name="Tracé 314" class="cls-4" d="M123.593,124.186a.093.093,0,0,1-.093-.093.091.091,0,0,1,.091-.093h1.9a.093.093,0,0,1,.093.093.1.1,0,0,1-.093.093Z" transform="translate(-61.556 -57.525)"/>
    <path id="Tracé_315" data-name="Tracé 315" class="cls-3" d="M140.2,124.181h0l-3.917-.065a.093.093,0,1,1,0-.186h0l3.917.065a.093.093,0,0,1,.091.095A.091.091,0,0,1,140.2,124.181Z" transform="translate(-71.89 -57.468)"/>
    <path id="Tracé_316" data-name="Tracé 316" class="cls-3" d="M147.813,81.126a.093.093,0,1,1,0-.186h2.56a.093.093,0,1,1,0,.186Z" transform="translate(-81.279 -22.46)"/>
    <path id="Tracé_317" data-name="Tracé 317" class="cls-4" d="M167.744,81.091a6.224,6.224,0,0,1-.676-.009.1.1,0,0,1-.063-.115.091.091,0,0,1,.106-.065h2.9a.093.093,0,1,1,0,.186Z" transform="translate(-96.981 -22.427)"/>
    <path id="Tracé_318" data-name="Tracé 318" class="cls-4" d="M134.2,96.776a.093.093,0,1,1,0-.186h1.916a.093.093,0,1,1,0,.186H134.2Z" transform="translate(-70.196 -35.204)"/>
    <path id="Tracé_319" data-name="Tracé 319" class="cls-4" d="M113.593,100.726a.093.093,0,0,1-.093-.093.1.1,0,0,1,.093-.093H115a.1.1,0,0,1,.093.093.091.091,0,0,1-.091.093Z" transform="translate(-53.413 -38.421)"/>
    <path id="Tracé_320" data-name="Tracé 320" class="cls-3" d="M124.053,100.706a.093.093,0,1,1,0-.186h3.342a.093.093,0,0,1,.093.093.091.091,0,0,1-.091.093h-3.342Z" transform="translate(-61.931 -38.405)"/>
    <path id="Tracé_321" data-name="Tracé 321" class="cls-4" d="M145.713,100.6a.093.093,0,1,1,0-.186l6.5-.015h0a.093.093,0,1,1,0,.186Z" transform="translate(-79.569 -38.307)"/>
    <path id="Tracé_322" data-name="Tracé 322" class="cls-3" d="M106.689,128.969a.1.1,0,0,1-.054-.019l-.388-.286a.094.094,0,0,1,0-.152l.325-.219a.093.093,0,0,1,.128.026.091.091,0,0,1-.024.128l-.217.147.282.206a.1.1,0,0,1,.02.13A.091.091,0,0,1,106.689,128.969Z" transform="translate(-47.476 -61.009)"/>
    <path id="Tracé_323" data-name="Tracé 323" class="cls-3" d="M110.357,128.977a.1.1,0,0,1-.067-.03.093.093,0,0,1,0-.13l.186-.175-.269-.186a.093.093,0,0,1-.022-.13.091.091,0,0,1,.128-.022l.371.253a.091.091,0,0,1,.039.069.1.1,0,0,1-.028.074l-.262.253A.1.1,0,0,1,110.357,128.977Z" transform="translate(-50.698 -61.017)"/>
    <path id="Tracé_324" data-name="Tracé 324" class="cls-3" d="M213.083,86.186a.1.1,0,0,1-.071-.032.1.1,0,0,1,.009-.132c.236-.2.616-.613.5-1.045a1.3,1.3,0,0,0-.44-.585c-.082-.074-.167-.154-.243-.238a1.838,1.838,0,0,1-.163-2.187.093.093,0,0,1,.154.1,1.649,1.649,0,0,0,.149,1.961c.071.078.152.154.23.227a1.474,1.474,0,0,1,.494.674,1.34,1.34,0,0,1-.557,1.233A.091.091,0,0,1,213.083,86.186Z" transform="translate(-133.945 -23.269)"/>
    <path id="Tracé_325" data-name="Tracé 325" class="cls-3" d="M227.616,91.47a.093.093,0,0,1-.076-.041.091.091,0,0,1,.022-.128.54.54,0,0,0,.175-.687,1.038,1.038,0,0,0-.121-.141l-.052-.052a1.582,1.582,0,0,1-.425-1.114.889.889,0,0,1,.228-.616.091.091,0,0,1,.13,0,.093.093,0,0,1,0,.132.711.711,0,0,0-.173.486,1.4,1.4,0,0,0,.371.986l.048.048a1.174,1.174,0,0,1,.145.169.722.722,0,0,1-.223.939A.085.085,0,0,1,227.616,91.47Z" transform="translate(-145.952 -28.749)"/>
    <path id="Tracé_326" data-name="Tracé 326" class="cls-3" d="M220.939,87.424a.093.093,0,0,1-.078-.041.1.1,0,0,1,.026-.13.62.62,0,0,0,.275-.527,1.342,1.342,0,0,0-.284-.652c-.043-.065-.085-.13-.126-.2A2.464,2.464,0,0,1,220.7,83.5a.093.093,0,0,1,.126-.039.1.1,0,0,1,.037.126,2.276,2.276,0,0,0,.045,2.193c.039.063.08.126.123.186a1.485,1.485,0,0,1,.312.743.8.8,0,0,1-.356.691A.084.084,0,0,1,220.939,87.424Z" transform="translate(-140.483 -24.504)"/>
    <path id="Tracé_327" data-name="Tracé 327" class="cls-2" d="M226.283,115.563a1.671,1.671,0,0,1-.7-.163.091.091,0,0,1-.045-.123.093.093,0,0,1,.123-.046,1.185,1.185,0,0,0,1.515-.3.648.648,0,0,0,0-.832.093.093,0,1,1,.132-.132.826.826,0,0,1,.011,1.069A1.276,1.276,0,0,1,226.283,115.563Z" transform="translate(-144.644 -49.335)"/>
    <path id="Tracé_328" data-name="Tracé 328" class="cls-1" d="M206.512,111.763c-2.718,0-2.423-3.713-2.423-3.713h4.846S209.23,111.763,206.512,111.763Z" transform="translate(-127.175 -44.536)"/>
    <path id="Tracé_329" data-name="Tracé 329" class="cls-1" d="M206.073,111.433a2.168,2.168,0,0,1-1.671-.685,4.7,4.7,0,0,1-.85-3.132.093.093,0,0,1,.093-.085h4.846a.093.093,0,0,1,.093.085,4.749,4.749,0,0,1-.85,3.132A2.168,2.168,0,0,1,206.073,111.433Zm-2.336-3.713a4.462,4.462,0,0,0,.808,2.907,2.181,2.181,0,0,0,3.056,0,4.449,4.449,0,0,0,.808-2.906Z" transform="translate(-126.736 -44.113)"/>
    <path id="Tracé_330" data-name="Tracé 330" class="cls-1" d="M206.512,111.763c-2.718,0-2.423-3.713-2.423-3.713h4.846S209.23,111.763,206.512,111.763Z" transform="translate(-127.175 -44.536)"/>
    <path id="Tracé_331" data-name="Tracé 331" class="cls-3" d="M206.073,111.433a2.168,2.168,0,0,1-1.671-.685,4.7,4.7,0,0,1-.85-3.132.093.093,0,0,1,.093-.085h4.846a.093.093,0,0,1,.093.085,4.749,4.749,0,0,1-.85,3.132A2.168,2.168,0,0,1,206.073,111.433Zm-2.336-3.713a4.462,4.462,0,0,0,.808,2.907,2.181,2.181,0,0,0,3.056,0,4.449,4.449,0,0,0,.808-2.906Z" transform="translate(-126.736 -44.113)"/>
    <path id="Tracé_332" data-name="Tracé 332" class="cls-5" d="M206.512,111.763c-2.718,0-2.423-3.713-2.423-3.713h4.846S209.23,111.763,206.512,111.763Z" transform="translate(-127.175 -44.536)"/>
    <path id="Tracé_333" data-name="Tracé 333" class="cls-5" d="M206.073,111.433a2.168,2.168,0,0,1-1.671-.685,4.7,4.7,0,0,1-.85-3.132.093.093,0,0,1,.093-.085h4.846a.093.093,0,0,1,.093.085,4.749,4.749,0,0,1-.85,3.132A2.168,2.168,0,0,1,206.073,111.433Zm-2.336-3.713a4.462,4.462,0,0,0,.808,2.907,2.181,2.181,0,0,0,3.056,0,4.449,4.449,0,0,0,.808-2.906Z" transform="translate(-126.736 -44.113)"/>
    <path id="Tracé_334" data-name="Tracé 334" class="cls-1" d="M231.007,110.28c-.149.247-.546,1.069-.071,1.185.293.072.418-.2.533-.41a1.711,1.711,0,0,0,.156-.557c.2.232.1,1.3.572,1.385" transform="translate(-148.861 -46.352)"/>
    <path id="Tracé_335" data-name="Tracé 335" class="cls-2" d="M231.793,111.507h-.019c-.358-.071-.438-.557-.5-.954a.881.881,0,0,0-.026-.156,1.01,1.01,0,0,1-.1.243l-.026.048c-.108.186-.269.49-.607.408a.371.371,0,0,1-.262-.217c-.16-.384.256-1.077.275-1.114a.093.093,0,1,1,.158.1,1.464,1.464,0,0,0-.262.939.186.186,0,0,0,.134.108c.186.045.28-.1.4-.317l.028-.048a.982.982,0,0,0,.113-.356c.009-.056.019-.115.035-.186a.089.089,0,0,1,.069-.071.093.093,0,0,1,.093.032,1.3,1.3,0,0,1,.162.557c.054.338.123.756.355.8a.091.091,0,0,1,.074.108A.1.1,0,0,1,231.793,111.507Z" transform="translate(-148.457 -45.892)"/>
    <path id="Tracé_336" data-name="Tracé 336" class="cls-2" d="M96.3,68.207l-.03-.219.8-.518.206.284-.572.355.667.353-.132.275Z" transform="translate(-39.381 -11.491)"/>
    <path id="Tracé_337" data-name="Tracé 337" class="cls-2" d="M102.07,67.667h.2c.082,0,.113-.035.1-.111l-.163-1.209h.386l.163,1.212c.045.33-.076.464-.407.464h-.23Zm.063-1.857h.384l.048.36h-.384Z" transform="translate(-44.105 -10.139)"/>
    <path id="Tracé_338" data-name="Tracé 338" class="cls-2" d="M106.058,69.361c-.03-.217.111-.33.481-.371.215-.032.277-.063.269-.121s-.091-.108-.2-.108a.221.221,0,0,0-.251.2L106,68.891c.009-.249.241-.421.557-.421a.588.588,0,0,1,.657.488l.1.743h-.349l-.015-.117h0a.46.46,0,0,1-.382.15.453.453,0,0,1-.509-.373Zm.822-.117-.017-.117h0c-.02.035-.072.058-.212.087-.173.035-.228.067-.221.126s.065.089.186.089C106.769,69.43,106.893,69.344,106.88,69.244Z" transform="translate(-47.305 -12.305)"/>
    <path id="Tracé_339" data-name="Tracé 339" class="cls-2" d="M112.08,68.7h.431l.429.743h0l.23-.743h.431l-.421,1.179h-.371Z" transform="translate(-52.256 -12.492)"/>
    <path id="Tracé_340" data-name="Tracé 340" class="cls-2" d="M120.535,69.4c-.03-.217.111-.33.481-.371.215-.032.277-.063.269-.121s-.091-.108-.2-.108a.221.221,0,0,0-.251.2l-.36-.061c0-.249.241-.421.557-.421a.59.59,0,0,1,.659.488l.1.743h-.349l-.017-.117h0a.464.464,0,0,1-.382.15A.453.453,0,0,1,120.535,69.4Zm.821-.117-.015-.117h0c-.019.035-.072.058-.21.087-.175.035-.23.067-.221.126s.065.089.186.089C121.246,69.471,121.37,69.385,121.356,69.285Z" transform="translate(-59.088 -12.346)"/>
    <path id="Tracé_341" data-name="Tracé 341" class="cls-2" d="M127.894,69.369l.347-.1a.371.371,0,0,0,.371.206c.156,0,.238-.03.232-.082s-.082-.085-.319-.121c-.423-.063-.607-.173-.637-.386s.186-.371.529-.371a.759.759,0,0,1,.694.356l-.332.1a.381.381,0,0,0-.34-.167c-.124,0-.186.032-.186.082s.067.074.329.115c.414.067.6.171.631.392s-.186.384-.579.384A.776.776,0,0,1,127.894,69.369Z" transform="translate(-65.127 -12.338)"/>
    <path id="Tracé_342" data-name="Tracé 342" class="cls-2" d="M135.3,69.093a.544.544,0,0,1,.587-.633.743.743,0,0,1,.691.423l-.343.11a.317.317,0,0,0-.3-.2.24.24,0,0,0-.247.3.327.327,0,0,0,.327.3.227.227,0,0,0,.247-.186l.371.108a.531.531,0,0,1-.576.423A.743.743,0,0,1,135.3,69.093Z" transform="translate(-71.156 -12.295)"/>
    <path id="Tracé_343" data-name="Tracé 343" class="cls-2" d="M142.71,68.589h.371l.015.113h0a.382.382,0,0,1,.325-.137.84.84,0,0,1,.215.028l-.02.343a.693.693,0,0,0-.186-.022c-.186,0-.278.111-.249.34l.071.514h-.386Z" transform="translate(-77.199 -12.381)"/>
    <path id="Tracé_344" data-name="Tracé 344" class="cls-2" d="M147.86,65.77h.386l.048.36h-.384Zm.076.544h.384l.16,1.179H148.1Z" transform="translate(-81.393 -10.106)"/>
    <path id="Tracé_345" data-name="Tracé 345" class="cls-2" d="M151.43,68.575h.371l.015.106h0a.451.451,0,0,1,.345-.134.719.719,0,0,1,.7.62.512.512,0,0,1-.525.62.635.635,0,0,1-.371-.115h0l.078.583h-.384Zm1.043.587a.325.325,0,0,0-.334-.278c-.158,0-.269.1-.252.221l.017.128a.291.291,0,0,0,.316.221.241.241,0,0,0,.254-.291Z" transform="translate(-84.3 -12.367)"/>
    <path id="Tracé_346" data-name="Tracé 346" class="cls-2" d="M159.482,67.665l.058.425c0,.072.041.1.124.1h.219l.048.347h-.278a.429.429,0,0,1-.494-.408l-.063-.462h-.275l-.041-.308h.278l-.052-.306h.384l.041.306h.371l.041.308Z" transform="translate(-90.286 -11.149)"/>
    <path id="Tracé_347" data-name="Tracé 347" class="cls-2" d="M165.215,68.493l.572-.353-.667-.345.132-.275.928.518.03.219-.8.52Z" transform="translate(-95.449 -11.531)"/>
  </g>
</svg>
