<svg xmlns="http://www.w3.org/2000/svg" width="45.227" height="39.303" viewBox="0 0 45.227 39.303">
  <defs>
    <style>
      .cls-1 {
        fill: #fff;
      }

      .cls-2 {
        fill: #231f20;
      }

      .cls-3 {
        fill: #d1d3d4;
      }

      .cls-4 {
        fill: #03b898;
      }
    </style>
  </defs>
  <g id="_287_startup_flatline" data-name="#287_startup_flatline" transform="translate(-57.652 -31.682)">
    <path id="Tracé_620" data-name="Tracé 620" class="cls-1" d="M192.565,220,191,221.3s3.316,5.9,3.8,5.022c.233-.423-.307-3.358-.307-3.358" transform="translate(-110.959 -156.7)"/>
    <path id="Tracé_621" data-name="Tracé 621" class="cls-2" d="M194.249,226.037c-.811,0-3.437-4.626-3.732-5.153a.086.086,0,0,1,.018-.106l1.565-1.3a.084.084,0,0,1,.107.129l-1.511,1.259c1.108,1.963,3.022,5.007,3.553,5.007a.072.072,0,0,0,.064-.045,11.844,11.844,0,0,0-.316-3.3.084.084,0,0,1,.067-.1.087.087,0,0,1,.1.067c.055.3.537,2.973.3,3.41A.233.233,0,0,1,194.249,226.037Z" transform="translate(-110.549 -156.246)"/>
    <path id="Tracé_622" data-name="Tracé 622" class="cls-1" d="M291.073,112.694l-2.653-1.1,3.556-8.546c.336-.823,1.835-2.114,2.351-1.9s.648,2.183.306,3.005Z" transform="translate(-192.023 -57.78)"/>
    <path id="Tracé_623" data-name="Tracé 623" class="cls-2" d="M290.659,112.4a.072.072,0,0,1-.032,0l-2.653-1.1a.086.086,0,0,1-.045-.045.089.089,0,0,1,0-.065l3.556-8.544c.336-.794,1.847-2.2,2.456-1.946s.682,2.32.351,3.115l-3.554,8.544A.084.084,0,0,1,290.659,112.4Zm-2.544-1.232,2.507,1.039,3.526-8.467c.336-.821.168-2.715-.26-2.895s-1.9,1.033-2.238,1.847Z" transform="translate(-191.609 -57.399)"/>
    <rect id="Rectangle_96" data-name="Rectangle 96" class="cls-1" width="2.112" height="0.46" transform="matrix(0.923, 0.384, -0.384, 0.923, 96.784, 53.967)"/>
    <path id="Tracé_624" data-name="Tracé 624" class="cls-2" d="M291.194,165.369a.08.08,0,0,1-.034,0l-1.949-.811a.084.084,0,0,1-.045-.111l.176-.423a.08.08,0,0,1,.045-.045.084.084,0,0,1,.064,0l1.951.811a.084.084,0,0,1,.045.111l-.176.42a.086.086,0,0,1-.045.045A.072.072,0,0,1,291.194,165.369Zm-1.847-.94,1.8.747.111-.27-1.786-.747Z" transform="translate(-192.638 -110.079)"/>
    <rect id="Rectangle_97" data-name="Rectangle 97" class="cls-3" width="2.874" height="6.088" transform="matrix(0.923, 0.384, -0.384, 0.923, 99.488, 46.386)"/>
    <path id="Tracé_625" data-name="Tracé 625" class="cls-2" d="M295.121,125.7a.081.081,0,0,1-.034,0l-2.653-1.1a.08.08,0,0,1-.045-.045.084.084,0,0,1,0-.064l2.339-5.621a.086.086,0,0,1,.045-.045.089.089,0,0,1,.065,0l2.653,1.1a.084.084,0,0,1,.045.109l-2.339,5.621A.086.086,0,0,1,295.121,125.7Zm-2.544-1.234,2.5,1.041,2.28-5.467-2.5-1.039Z" transform="translate(-195.32 -72.502)"/>
    <path id="Tracé_626" data-name="Tracé 626" class="cls-1" d="M281.91,155.286l1.226-.007.529-1.269-1.456.557Z" transform="translate(-186.606 -101.789)"/>
    <path id="Tracé_627" data-name="Tracé 627" class="cls-2" d="M281.511,154.952a.086.086,0,0,1-.071-.037.082.082,0,0,1,0-.079l.3-.719a.081.081,0,0,1,.047-.047l1.456-.557a.086.086,0,0,1,.091.02.082.082,0,0,1,.017.091l-.529,1.269a.081.081,0,0,1-.076.052h-1.227Zm.363-.737-.237.569h1.044l.431-1.038Z" transform="translate(-186.206 -101.372)"/>
    <path id="Tracé_628" data-name="Tracé 628" class="cls-1" d="M305.878,162.734l-.858-.875.527-1.269.631,1.425Z" transform="translate(-205.836 -107.265)"/>
    <path id="Tracé_629" data-name="Tracé 629" class="cls-2" d="M305.46,162.4a.086.086,0,0,1-.06-.025l-.86-.875a.086.086,0,0,1-.018-.091l.529-1.271a.086.086,0,0,1,.077-.05h0a.084.084,0,0,1,.077.049l.63,1.427a.081.081,0,0,1,0,.065l-.3.719a.086.086,0,0,1-.062.05Zm-.762-.984.732.744.237-.569-.536-1.214Z" transform="translate(-205.416 -106.849)"/>
    <path id="Tracé_630" data-name="Tracé 630" class="cls-1" d="M138.044,56.76l16.048.479L165.74,68.286l-2.124,5.1-27.7-11.526Z" transform="translate(-65.127 -20.868)"/>
    <path id="Tracé_631" data-name="Tracé 631" class="cls-2" d="M163.169,73.09a.072.072,0,0,1-.032,0l-27.7-11.526a.081.081,0,0,1-.045-.045.084.084,0,0,1,0-.064l2.124-5.1a.089.089,0,0,1,.079-.052l16.048.479a.082.082,0,0,1,.055.022l11.657,11.034a.086.086,0,0,1,.018.094l-2.122,5.111a.086.086,0,0,1-.045.045A.08.08,0,0,1,163.169,73.09ZM135.582,61.434,163.126,72.9l2.069-4.973L153.609,56.938l-15.95-.475Z" transform="translate(-64.68 -20.485)"/>
    <rect id="Rectangle_98" data-name="Rectangle 98" class="cls-3" width="11.212" height="12.519" rx="5.606" transform="matrix(0.923, 0.384, -0.384, 0.923, 83.996, 33.72)"/>
    <path id="Tracé_632" data-name="Tracé 632" class="cls-2" d="M198.8,63.03a3.115,3.115,0,0,1-1.2-.24l-4.767-1.983a3.111,3.111,0,0,1-1.679-4.065l2.485-5.974a3.111,3.111,0,0,1,4.065-1.679l4.767,1.985a3.111,3.111,0,0,1,1.679,4.065l-2.485,5.972a3.12,3.12,0,0,1-2.869,1.916ZM196.518,49.02a2.964,2.964,0,0,0-1.122.223,2.926,2.926,0,0,0-1.6,1.59l-2.485,5.972a2.942,2.942,0,0,0,1.585,3.845l4.768,1.993h0a2.942,2.942,0,0,0,3.842-1.6L204,55.076a2.945,2.945,0,0,0-1.582-3.85l-4.765-1.978A2.916,2.916,0,0,0,196.518,49.02Z" transform="translate(-110.893 -14.286)"/>
    <path id="Tracé_633" data-name="Tracé 633" class="cls-1" d="M125.494,43.794l-2.654-1.1,3.553-8.544c.336-.823,1.835-2.114,2.351-1.9s.65,2.183.307,3.005Z" transform="translate(-54.243 -0.448)"/>
    <path id="Tracé_634" data-name="Tracé 634" class="cls-2" d="M125.08,43.429a.069.069,0,0,1-.032,0l-2.654-1.117a.086.086,0,0,1-.045-.111l3.556-8.544a4.228,4.228,0,0,1,1.133-1.372c.272-.225.944-.732,1.323-.574s.494.992.526,1.343a4.17,4.17,0,0,1-.168,1.771l-3.556,8.544A.086.086,0,0,1,125.08,43.429ZM122.537,42.2l2.5,1.041,3.526-8.467a4.1,4.1,0,0,0,.168-1.692c-.052-.653-.225-1.12-.423-1.2s-.65.133-1.152.549a4.006,4.006,0,0,0-1.086,1.308Z" transform="translate(-53.829 0)"/>
    <rect id="Rectangle_99" data-name="Rectangle 99" class="cls-1" width="2.112" height="0.46" transform="matrix(0.923, 0.384, -0.384, 0.923, 68.982, 42.4)"/>
    <path id="Tracé_635" data-name="Tracé 635" class="cls-2" d="M125.617,96.461a.069.069,0,0,1-.032,0l-1.951-.811a.086.086,0,0,1-.045-.111l.168-.425a.086.086,0,0,1,.045-.045.089.089,0,0,1,.065,0l1.949.813a.081.081,0,0,1,.045.045.084.084,0,0,1,0,.064l-.176.425a.086.086,0,0,1-.045.045A.069.069,0,0,1,125.617,96.461Zm-1.847-.942,1.795.749.112-.27-1.8-.747Z" transform="translate(-54.861 -52.739)"/>
    <rect id="Rectangle_100" data-name="Rectangle 100" class="cls-3" width="2.874" height="6.088" transform="matrix(0.923, 0.384, -0.384, 0.923, 71.688, 34.819)"/>
    <path id="Tracé_636" data-name="Tracé 636" class="cls-2" d="M129.541,56.8a.072.072,0,0,1-.032,0l-2.654-1.1a.081.081,0,0,1-.045-.045.084.084,0,0,1,0-.064l2.34-5.621a.081.081,0,0,1,.045-.045.084.084,0,0,1,.064,0l2.653,1.1a.082.082,0,0,1,.045.109l-2.339,5.615A.084.084,0,0,1,129.541,56.8ZM127,55.565l2.5,1.039,2.275-5.465L129.272,50.1Z" transform="translate(-57.541 -15.17)"/>
    <path id="Tracé_637" data-name="Tracé 637" class="cls-1" d="M116.33,86.386l1.227-.007.527-1.269-1.456.557Z" transform="translate(-48.826 -44.458)"/>
    <path id="Tracé_638" data-name="Tracé 638" class="cls-2" d="M115.916,86.052a.084.084,0,0,1-.077-.116l.3-.719a.084.084,0,0,1,.049-.047l1.454-.557a.086.086,0,0,1,.091.02.082.082,0,0,1,.017.091l-.527,1.269a.084.084,0,0,1-.077.052h-1.226Zm.363-.737-.237.569h1.044l.431-1.043Z" transform="translate(-48.412 -44.04)"/>
    <path id="Tracé_639" data-name="Tracé 639" class="cls-1" d="M140.3,93.834l-.86-.875.529-1.269.63,1.425Z" transform="translate(-68.056 -49.933)"/>
    <path id="Tracé_640" data-name="Tracé 640" class="cls-2" d="M139.883,93.542a.092.092,0,0,1-.06-.025l-.86-.875a.082.082,0,0,1-.017-.091l.529-1.271a.081.081,0,0,1,.076-.05h0a.082.082,0,0,1,.076.049l.633,1.424a.092.092,0,0,1,0,.067l-.3.714a.084.084,0,0,1-.062.05Zm-.766-.986.732.745.237-.569-.532-1.206Z" transform="translate(-67.639 -49.55)"/>
    <path id="Tracé_641" data-name="Tracé 641" class="cls-3" d="M165.772,62.13h0l-7.082-.322a.084.084,0,0,1-.081-.087.087.087,0,0,1,.089-.081l7.08.322a.084.084,0,1,1,0,.168Z" transform="translate(-84.007 -24.928)"/>
    <path id="Tracé_642" data-name="Tracé 642" class="cls-3" d="M277.66,98.156a.086.086,0,0,1-.057-.024l-6.024-5.594a.084.084,0,0,1,.116-.123l6.023,5.594a.084.084,0,0,1,0,.119A.087.087,0,0,1,277.66,98.156Z" transform="translate(-177.987 -50.518)"/>
    <path id="Tracé_643" data-name="Tracé 643" class="cls-4" d="M259.533,85.85s9.288,7.626,5.427,8.19a10.592,10.592,0,0,1-6.155-1.251l.922-2.023s2.97,1.378,2.868.774-4.134-3.022-4.134-3.022Z" transform="translate(-167.093 -45.073)"/>
    <path id="Tracé_644" data-name="Tracé 644" class="cls-4" d="M168,65.729s-9.347-1.029-9.59.4,3.784,4.579,3.883,4.387a22.118,22.118,0,0,1,2.235-1.449l-1.865-1.5,4.469,1.007Z" transform="translate(-83.83 -28.032)"/>
    <path id="Tracé_645" data-name="Tracé 645" class="cls-1" d="M231.583,38.626a1.667,1.667,0,0,0-.223-1.619A3.843,3.843,0,0,0,227.7,35.28a2.212,2.212,0,0,0-1.654.939,3.344,3.344,0,0,1,1.075-.039,3.056,3.056,0,0,0-1.679,1.847.368.368,0,0,0-.013.26c.067.144.272.149.425.106a.623.623,0,0,1,.463-.034,1.891,1.891,0,0,0-1.019.992.982.982,0,0,0-.079.638.871.871,0,0,0,.252.391,2.555,2.555,0,0,0,1.007.5,4.708,4.708,0,0,0,2.015.314,3.987,3.987,0,0,0,2.1-1.133c.277-.248.546-.255.839-.44a.7.7,0,0,0,.311-.5A2.477,2.477,0,0,0,231.583,38.626Z" transform="translate(-139.418 -2.974)"/>
    <path id="Tracé_646" data-name="Tracé 646" class="cls-2" d="M227.687,40.862a5.59,5.59,0,0,1-1.7-.336A2.646,2.646,0,0,1,224.944,40a.964.964,0,0,1-.274-.43,1.043,1.043,0,0,1,.082-.7,1.978,1.978,0,0,1,.742-.87h-.029l-.057.017c-.186.052-.435.045-.524-.151a.432.432,0,0,1,.01-.321,3.138,3.138,0,0,1,1.454-1.758,3.267,3.267,0,0,0-.745.064.084.084,0,0,1-.089-.126,2.271,2.271,0,0,1,1.716-.979,3.9,3.9,0,0,1,3.737,1.765,1.819,1.819,0,0,1,.242,1.671,2.246,2.246,0,0,1,.158.492.769.769,0,0,1-.348.574,2.015,2.015,0,0,1-.366.176,1.344,1.344,0,0,0-.457.255,4.114,4.114,0,0,1-2.149,1.155A2.894,2.894,0,0,1,227.687,40.862Zm-1.976-3.073a.373.373,0,0,1,.186.045.084.084,0,0,1,.044.079.082.082,0,0,1-.052.072,1.8,1.8,0,0,0-.974.949.885.885,0,0,0-.076.583.786.786,0,0,0,.228.353,2.5,2.5,0,0,0,.979.494,4.664,4.664,0,0,0,1.985.311,3.913,3.913,0,0,0,2.057-1.113,1.493,1.493,0,0,1,.5-.287,1.872,1.872,0,0,0,.336-.168.615.615,0,0,0,.272-.447,2.9,2.9,0,0,0-.154-.443.081.081,0,0,1,0-.081,1.639,1.639,0,0,0-.22-1.536,3.779,3.779,0,0,0-3.573-1.681,2.211,2.211,0,0,0-1.483.739,3.46,3.46,0,0,1,.9,0,.084.084,0,0,1,.022.161,2.96,2.96,0,0,0-1.64,1.791.289.289,0,0,0-.017.2c.042.092.2.1.326.06l.054-.017A1.024,1.024,0,0,1,225.711,37.79Z" transform="translate(-138.955 -2.529)"/>
    <path id="Tracé_647" data-name="Tracé 647" class="cls-2" d="M141.491,131.106s3.036,6.716,2.518,8.029-5.615,7.908-5.615,7.908l-2.7-2.292s4.767-6.281,4.57-6.716-2.555-4.985-2.555-4.985l-12.822,13.983-1.293-3.358,10.393-14.914Z" transform="translate(-54.867 -80.779)"/>
    <path id="Tracé_648" data-name="Tracé 648" class="cls-2" d="M137.98,146.691a.091.091,0,0,1-.054-.018l-2.708-2.3a.084.084,0,0,1-.012-.114c1.795-2.367,4.619-6.263,4.557-6.639-.168-.388-2.139-4.179-2.495-4.869l-12.742,13.894a.084.084,0,0,1-.141-.025l-1.293-3.358a.081.081,0,0,1,.01-.077L133.5,128.273a.084.084,0,0,1,.094-.032l7.508,2.351a.082.082,0,0,1,.052.045c.124.275,3.044,6.761,2.518,8.094s-5.413,7.658-5.621,7.935a.079.079,0,0,1-.057.032Zm-2.592-2.391,2.581,2.183c.547-.709,5.072-6.6,5.541-7.817s-2.272-7.411-2.5-7.93l-7.414-2.319-10.332,14.827,1.229,3.19,12.737-13.872a.079.079,0,0,1,.074-.027.081.081,0,0,1,.062.044c.1.186,2.362,4.555,2.557,4.988S136.564,142.747,135.388,144.3Z" transform="translate(-54.449 -80.344)"/>
    <path id="Tracé_649" data-name="Tracé 649" class="cls-1" d="M193,85.54l-7.508-2.351L192.533,74s3.507,1.679,3.934,2.364S193,85.54,193,85.54Z" transform="translate(-106.375 -35.213)"/>
    <path id="Tracé_650" data-name="Tracé 650" class="cls-2" d="M192.58,85.176a.067.067,0,0,1-.025,0l-7.508-2.351a.084.084,0,0,1-.055-.055.082.082,0,0,1,.013-.076l7.037-9.2a.086.086,0,0,1,.1-.025c.144.069,3.526,1.711,3.967,2.4s-3.062,8.382-3.462,9.255a.086.086,0,0,1-.071.05ZM185.211,82.7l7.324,2.29c1.5-3.276,3.734-8.563,3.442-9.03-.378-.6-3.368-2.08-3.836-2.309Z" transform="translate(-105.956 -34.765)"/>
    <path id="Tracé_651" data-name="Tracé 651" class="cls-4" d="M172.673,68.469a9.99,9.99,0,0,0-.892,1.679c-.672,1.247-1.294,2.55-2,3.766-1.394,2.408-4.426,3.862-6.78,5.113A1.6,1.6,0,0,1,162,79.3a1.427,1.427,0,0,1-.65-.381,7.643,7.643,0,0,1-1.894-2.574.742.742,0,0,1-.092-.415.6.6,0,0,1,.453-.487c1.246-.217,3.083-.361,4.088-1.007,1.679-1.07,3.613-4.211,4.893-6.964C170.355,67.853,171.711,68.251,172.673,68.469Z" transform="translate(-84.631 -29.779)"/>
    <path id="Tracé_652" data-name="Tracé 652" class="cls-4" d="M238.081,77.254c.039.03-1.511,3.724-1.583,3.9a14.063,14.063,0,0,1-3.818,4.619,12.554,12.554,0,0,0,1.063-5.158,10.918,10.918,0,0,1,.942-2.806c.029-.069.274-2.273.242-2.293A19.158,19.158,0,0,1,238.081,77.254Z" transform="translate(-145.641 -36.478)"/>
    <path id="Tracé_653" data-name="Tracé 653" class="cls-1" d="M235.984,55.372l-.435,1.481s-.391.62-1.315.1a1.451,1.451,0,0,1-.876-1.246l.91-2.733s.744-.245.981-1.9a8.56,8.56,0,0,0,2.926,1.137,24.518,24.518,0,0,1-.831,2.547C237.006,55.489,235.984,55.372,235.984,55.372Z" transform="translate(-146.205 -16.133)"/>
    <path id="Tracé_654" data-name="Tracé 654" class="cls-2" d="M234.5,56.823a1.479,1.479,0,0,1-.722-.218,1.526,1.526,0,0,1-.918-1.325v-.02l.91-2.733a.082.082,0,0,1,.054-.052s.7-.262.923-1.837a.084.084,0,0,1,.129-.057,8.537,8.537,0,0,0,2.891,1.125.079.079,0,0,1,.057.037.081.081,0,0,1,.012.067,24.363,24.363,0,0,1-.84,2.56,1.409,1.409,0,0,1-1.377.672l-.415,1.415a.045.045,0,0,1-.01.02A.855.855,0,0,1,234.5,56.823ZM233.025,55.3a1.385,1.385,0,0,0,.839,1.157c.789.447,1.145.01,1.2-.062l.432-1.467a.086.086,0,0,1,.089-.06c.01,0,.967.1,1.276-.569a22.553,22.553,0,0,0,.8-2.443,8.684,8.684,0,0,1-2.762-1.068c-.228,1.382-.814,1.751-.975,1.827Zm2.107,1.132Z" transform="translate(-145.788 -15.714)"/>
    <path id="Tracé_655" data-name="Tracé 655" class="cls-1" d="M235.821,58.847a.683.683,0,0,0-.121-.41,1.223,1.223,0,0,0-.3-.274.5.5,0,0,0-.2-.1.4.4,0,0,0-.154.012.517.517,0,0,0-.311.183.606.606,0,0,0-.094.28,1.152,1.152,0,0,0,0,.322.816.816,0,0,0,.923.705" transform="translate(-147.266 -21.952)"/>
    <path id="Tracé_656" data-name="Tracé 656" class="cls-2" d="M235.009,59.246a.9.9,0,0,1-.895-.787,1.214,1.214,0,0,1,.01-.336.688.688,0,0,1,.107-.317.606.606,0,0,1,.361-.225.48.48,0,0,1,.188-.012.567.567,0,0,1,.233.111,1.272,1.272,0,0,1,.317.294.752.752,0,0,1,.136.46.087.087,0,0,1-.087.082.086.086,0,0,1-.081-.087.589.589,0,0,0-.106-.358,1.108,1.108,0,0,0-.277-.254.421.421,0,0,0-.168-.082.272.272,0,0,0-.123.01.438.438,0,0,0-.262.149.554.554,0,0,0-.074.247,1.1,1.1,0,0,0-.01.3.735.735,0,0,0,.829.633.084.084,0,0,1,.094.071.086.086,0,0,1-.071.1A1.054,1.054,0,0,1,235.009,59.246Z" transform="translate(-146.829 -21.537)"/>
    <path id="Tracé_657" data-name="Tracé 657" class="cls-1" d="M251.157,62s.336.912.168,1.017-.485-.071-.485-.071" transform="translate(-160.752 -25.228)"/>
    <path id="Tracé_658" data-name="Tracé 658" class="cls-2" d="M250.827,62.669a.96.96,0,0,1-.395-.114.082.082,0,0,1-.034-.112.084.084,0,0,1,.114-.035c.092.05.311.133.4.076a2.383,2.383,0,0,0-.2-.92.082.082,0,0,1,.049-.107.084.084,0,0,1,.107.05c.168.445.317,1.007.143,1.117a.326.326,0,0,1-.178.047Z" transform="translate(-160.377 -24.77)"/>
    <path id="Tracé_659" data-name="Tracé 659" class="cls-2" d="M243.783,73.894a3.071,3.071,0,0,1-1.053-.564,1.889,1.889,0,0,0,.776,1.451Z" transform="translate(-154.004 -34.656)"/>
    <path id="Tracé_660" data-name="Tracé 660" class="cls-2" d="M243.089,74.491a.094.094,0,0,1-.045-.013,1.952,1.952,0,0,1-.814-1.511.081.081,0,0,1,.052-.079.082.082,0,0,1,.094.022,2.967,2.967,0,0,0,1.016.539.082.082,0,0,1,.054.106l-.275.887a.089.089,0,0,1-.05.054A.1.1,0,0,1,243.089,74.491Zm-.672-1.328a1.754,1.754,0,0,0,.623,1.11l.22-.7a3.627,3.627,0,0,1-.84-.41Z" transform="translate(-153.588 -34.282)"/>
    <path id="Tracé_661" data-name="Tracé 661" class="cls-1" d="M247.11,57.908a.365.365,0,0,1,.586.228" transform="translate(-157.649 -21.757)"/>
    <path id="Tracé_662" data-name="Tracé 662" class="cls-2" d="M247.32,57.82a.086.086,0,0,1-.079-.055.349.349,0,0,0-.19-.242.344.344,0,0,0-.26.054.084.084,0,0,1-.118-.02.082.082,0,0,1,.02-.116.442.442,0,0,1,.714.267.084.084,0,0,1-.079.112Z" transform="translate(-157.272 -21.357)"/>
    <path id="Tracé_663" data-name="Tracé 663" class="cls-1" d="M255,61.255s.354-.437.581.079" transform="translate(-164.214 -24.464)"/>
    <path id="Tracé_664" data-name="Tracé 664" class="cls-2" d="M255.134,61.016a.084.084,0,0,1-.077-.05c-.037-.086-.1-.188-.185-.2s-.218.1-.255.139a.084.084,0,1,1-.129-.106.5.5,0,0,1,.4-.2c.131.017.237.118.317.3a.086.086,0,0,1-.044.111A.119.119,0,0,1,255.134,61.016Z" transform="translate(-163.767 -24.063)"/>
    <path id="Tracé_665" data-name="Tracé 665" class="cls-1" d="M247.369,66.346s-1.679.984-1.679-.766" transform="translate(-156.467 -28.207)"/>
    <path id="Tracé_666" data-name="Tracé 666" class="cls-2" d="M246.025,66.291a.839.839,0,0,1-.421-.1,1.089,1.089,0,0,1-.433-1.023.084.084,0,0,1,.084-.086h0a.086.086,0,0,1,.084.084c0,.453.119.749.348.878.448.255,1.2-.18,1.209-.185a.084.084,0,1,1,.084.146A2.182,2.182,0,0,1,246.025,66.291Z" transform="translate(-156.034 -27.791)"/>
    <path id="Tracé_667" data-name="Tracé 667" class="cls-2" d="M203.631,88.27l-.787.23.267.5s-2.015,2.579-3.274,2.686a3.565,3.565,0,0,1-2.084-.5l-1.343.63s1.222,1.046,1.3,1.128a3.315,3.315,0,0,0,3.477-.84,20.607,20.607,0,0,0,2.183-2.878l.468-.2Z" transform="translate(-115.461 -47.087)"/>
    <path id="Tracé_668" data-name="Tracé 668" class="cls-2" d="M217.1,81.9a.084.084,0,0,1-.082-.072l-.369-2.488a.084.084,0,0,1,.057-.091l1.258-.41-.878-.8a.084.084,0,0,1-.025-.079.086.086,0,0,1,.055-.062L219,77.247a.084.084,0,0,1,.055.16l-1.756.606.878.806a.084.084,0,0,1,.025.081.082.082,0,0,1-.055.062l-1.325.432.358,2.418a.084.084,0,0,1-.071.094Z" transform="translate(-132.299 -37.911)"/>
    <path id="Tracé_669" data-name="Tracé 669" class="cls-2" d="M178.42,117.485H178.4c-.017,0-1.743-.349-2.678-.562a.082.082,0,0,1-.064-.1.084.084,0,0,1,.1-.064c.934.212,2.656.557,2.675.561a.084.084,0,0,1,.065.1A.086.086,0,0,1,178.42,117.485Z" transform="translate(-98.193 -70.792)"/>
    <path id="Tracé_670" data-name="Tracé 670" class="cls-2" d="M243.371,85.327a.084.084,0,0,1-.057-.146l1.891-1.729-.839-.744a.081.081,0,0,1-.027-.071.082.082,0,0,1,.04-.065l1.184-.682-.772-.621a.084.084,0,0,1-.013-.118.087.087,0,0,1,.119-.012l.861.7a.087.087,0,0,1,.03.072.084.084,0,0,1-.042.065l-1.187.685.826.729a.087.087,0,0,1,.037.057.081.081,0,0,1-.029.062L243.426,85.3A.086.086,0,0,1,243.371,85.327Z" transform="translate(-154.467 -41.139)"/>
    <path id="Tracé_671" data-name="Tracé 671" class="cls-3" d="M216.585,107.711a.084.084,0,0,1-.04-.01.086.086,0,0,1-.034-.114c.018-.034,1.855-3.358,2.76-5.153a.084.084,0,1,1,.149.076c-.9,1.8-2.743,5.124-2.762,5.158A.082.082,0,0,1,216.585,107.711Z" transform="translate(-132.179 -58.83)"/>
    <path id="Tracé_672" data-name="Tracé 672" class="cls-1" d="M116.2,217.57l-1.491,1.847s1.041,4.869,1.7,4.33,1.085-2.814,1.085-2.814Z" transform="translate(-47.478 -154.678)"/>
    <path id="Tracé_673" data-name="Tracé 673" class="cls-2" d="M115.885,223.423a.245.245,0,0,1-.082-.015c-.672-.235-1.5-4-1.592-4.426a.084.084,0,0,1,.017-.071l1.491-1.847a.081.081,0,0,1,.077-.03.084.084,0,0,1,.065.052l1.295,3.358a.082.082,0,0,1,0,.045c-.017.094-.44,2.305-1.113,2.864A.247.247,0,0,1,115.885,223.423Zm-1.511-4.436c.336,1.585,1.036,4.11,1.476,4.263a.076.076,0,0,0,.081-.018c.593-.492,1.007-2.5,1.051-2.743l-1.232-3.2Z" transform="translate(-47.061 -154.231)"/>
    <path id="Tracé_674" data-name="Tracé 674" class="cls-2" d="M192.142,62.158s-1.273,4.312-2.44,5.455-3.694,2.537-3.388,1.877,1.776-1.2,2.811-3.094a23.327,23.327,0,0,0,1.709-4.533s-.092-.467.594-.311S192.142,62.158,192.142,62.158Z" transform="translate(-107.039 -24.828)"/>
    <path id="Tracé_675" data-name="Tracé 675" class="cls-2" d="M245.66,88.967a12.8,12.8,0,0,0,2.105-2.727,19.644,19.644,0,0,0,1.5-3.756.354.354,0,0,0-.186-.418l-.23-.116a.356.356,0,0,0-.5.223A30.843,30.843,0,0,1,245.66,88.967Z" transform="translate(-156.442 -41.797)"/>
    <path id="Tracé_676" data-name="Tracé 676" class="cls-1" d="M183.182,88.42c.116.131,1.227.84,1.227.84s.487-.682.972-.786l-.3.547,1.541.022a1.815,1.815,0,0,1-1.355,1.756c-1.355.3-3.674-1.106-3.674-1.106" transform="translate(-103.129 -47.212)"/>
    <path id="Tracé_677" data-name="Tracé 677" class="cls-2" d="M184.435,90.506a8.089,8.089,0,0,1-3.3-1.165.082.082,0,0,1-.029-.116.084.084,0,0,1,.116-.027c.022.013,2.3,1.387,3.611,1.1a1.67,1.67,0,0,0,1.286-1.592l-1.456-.02a.082.082,0,0,1-.071-.042.087.087,0,0,1,0-.084l.193-.336a2.661,2.661,0,0,0-.72.672.081.081,0,0,1-.112.022c-.116-.074-1.125-.72-1.246-.856a.082.082,0,0,1,.008-.118.081.081,0,0,1,.118,0c.076.084.715.5,1.143.784a2.061,2.061,0,0,1,.977-.756.082.082,0,0,1,.084.034.084.084,0,0,1,0,.091l-.235.42,1.4.02a.082.082,0,0,1,.082.082,1.9,1.9,0,0,1-1.42,1.847A2.032,2.032,0,0,1,184.435,90.506Z" transform="translate(-102.715 -46.795)"/>
    <path id="Tracé_678" data-name="Tracé 678" class="cls-1" d="M249.958,109.2l-1.007-.613-.238-.9-.467.531s-.672-.554-1.095-.353a1.157,1.157,0,0,0-.168,1.461,13.04,13.04,0,0,0,2.272,1.459" transform="translate(-157.391 -63.247)"/>
    <path id="Tracé_679" data-name="Tracé 679" class="cls-2" d="M248.848,110.454a.077.077,0,0,1-.039-.01,12.259,12.259,0,0,1-2.3-1.483,1.3,1.3,0,0,1-.153-1.048.774.774,0,0,1,.353-.539c.4-.185.935.168,1.122.312l.415-.47a.084.084,0,0,1,.144.034l.228.868.977.594a.084.084,0,0,1,.027.116.082.082,0,0,1-.114.029l-1.007-.613a.081.081,0,0,1-.037-.05l-.19-.749-.363.413a.086.086,0,0,1-.118,0c-.168-.144-.693-.487-1.007-.336a.633.633,0,0,0-.262.428,1.15,1.15,0,0,0,.123.907,12.774,12.774,0,0,0,2.245,1.436.087.087,0,0,1-.045.161Z" transform="translate(-156.986 -62.829)"/>
    <path id="Tracé_680" data-name="Tracé 680" class="cls-3" d="M57.739,120.46a.092.092,0,0,1-.047-.012.089.089,0,0,1-.027-.121L68.12,103.8a.089.089,0,0,1,.121-.027.087.087,0,0,1,.027.119l-10.457,16.53A.082.082,0,0,1,57.739,120.46Z" transform="translate(0 -59.978)"/>
    <path id="Tracé_681" data-name="Tracé 681" class="cls-3" d="M97.983,123.551a.065.065,0,0,1-.03,0,.086.086,0,0,1-.05-.111l5.645-14.718a.086.086,0,0,1,.111-.05.087.087,0,0,1,.05.112L98.065,123.5A.089.089,0,0,1,97.983,123.551Z" transform="translate(-33.488 -64.059)"/>
    <path id="Tracé_682" data-name="Tracé 682" class="cls-3" d="M231.634,189.324a.084.084,0,0,1-.044-.013.087.087,0,0,1-.03-.119l9.182-15.144a.086.086,0,0,1,.119-.03.087.087,0,0,1,.029.119l-9.181,15.146A.089.089,0,0,1,231.634,189.324Z" transform="translate(-144.699 -118.427)"/>
    <path id="Tracé_683" data-name="Tracé 683" class="cls-3" d="M272.575,191.062h-.025a.089.089,0,0,1-.057-.109c.438-1.432,4.278-14,4.345-14.134a.086.086,0,0,1,.114-.04.087.087,0,0,1,.042.114c-.084.213-2.871,9.32-4.337,14.1A.084.084,0,0,1,272.575,191.062Z" transform="translate(-178.766 -120.728)"/>
    <path id="Tracé_684" data-name="Tracé 684" class="cls-3" d="M259.874,216.463a.073.073,0,0,1-.032,0,.089.089,0,0,1-.049-.112l3.244-8.059a.089.089,0,0,1,.113-.049.087.087,0,0,1,.049.114l-3.244,8.059A.084.084,0,0,1,259.874,216.463Z" transform="translate(-168.198 -146.912)"/>
    <path id="Tracé_685" data-name="Tracé 685" class="cls-3" d="M86.16,144.361a.079.079,0,0,1-.042-.012.086.086,0,0,1-.034-.118l4.016-7.194A.087.087,0,0,1,90.22,137a.089.089,0,0,1,.034.119l-4.025,7.194A.087.087,0,0,1,86.16,144.361Z" transform="translate(-23.65 -87.63)"/>
    <path id="Tracé_686" data-name="Tracé 686" class="cls-3" d="M81.673,199.869a.073.073,0,0,1-.032,0,.086.086,0,0,1-.047-.114l1.049-2.518a.087.087,0,1,1,.16.067l-1.049,2.518A.086.086,0,0,1,81.673,199.869Z" transform="translate(-19.917 -137.714)"/>
    <path id="Tracé_687" data-name="Tracé 687" class="cls-3" d="M242.57,249.382a.075.075,0,0,1-.042-.012.086.086,0,0,1-.034-.118l1.728-3.133a.086.086,0,0,1,.151.084l-1.729,3.133a.086.086,0,0,1-.074.045Z" transform="translate(-153.799 -178.397)"/>
  </g>
</svg>
