<svg xmlns="http://www.w3.org/2000/svg" width="127.367" height="127.915" viewBox="0 0 127.367 127.915">
  <defs>
    <style>
      .cls-1 {
        fill: #d1d3d4;
      }

      .cls-2 {
        fill: #fff;
      }

      .cls-3 {
        fill: #231f20;
      }

      .cls-4 {
        fill: #03b898;
      }
    </style>
  </defs>
  <g id="_337_thinking_flatline" data-name="#337_thinking_flatline" transform="translate(-95.17 -35.12)">
    <ellipse id="Ellipse_4" data-name="Ellipse 4" class="cls-1" cx="59.989" cy="3.844" rx="59.989" ry="3.844" transform="translate(95.17 154.462)"/>
    <path id="Tracé_4" data-name="Tracé 4" class="cls-2" d="M175.679,107.674a34.924,34.924,0,0,0,3.434-2.341c2.353-1.821,3.052-3.387,3.734-6.214.457-1.908-.983-3.705-2.4-5.064s-3.029-2.861-3.052-4.821c0-1.509.942-2.827,1.514-4.225,3.023-7.364-5.382-10.613-7.064-16.763S168.182,57.038,160.65,59a26.1,26.1,0,0,1-5.514,1.156c-1.734.087-3.434-.277-5.156-.3a13.4,13.4,0,0,0-11.763,6.994c-.919,1.734-.376,4.046-1.237,5.416-2.26,3.6-7.653,2.717-6.509,8.6.41,2.093,1.306,4.295.509,6.278-1.017,2.526-4.156,3.283-6.358,4.9-3.59,2.647-4.526,7.977-2.809,12.1s5.59,7.052,9.8,8.549,8.746,1.734,13.214,1.734C155.483,114.46,166.656,113.091,175.679,107.674Z" transform="translate(-10.89 -9.895)"/>
    <path id="Tracé_5" data-name="Tracé 5" class="cls-3" d="M144.8,114.537h-.156c-4.382,0-9.017-.22-13.295-1.734-4.728-1.682-8.358-4.85-9.954-8.671-1.867-4.486-.624-9.827,2.89-12.416a19.933,19.933,0,0,1,2.312-1.393c1.682-.908,3.278-1.734,3.931-3.393.578-1.468.191-3.127-.2-4.728-.11-.468-.225-.936-.312-1.4-.757-3.873,1.208-4.971,3.289-6.139a8.25,8.25,0,0,0,3.254-2.653,5.676,5.676,0,0,0,.549-2.428,7.728,7.728,0,0,1,.671-2.965,13.682,13.682,0,0,1,11.844-7.139h.156a22.132,22.132,0,0,1,2.249.156,20.169,20.169,0,0,0,2.89.139,19.654,19.654,0,0,0,4.237-.844l1.231-.335c7.694-1.977,9.763,3.116,11.515,9.463.624,2.272,2.231,4.179,3.786,6.023,2.555,3.035,5.2,6.173,3.266,10.89a11.273,11.273,0,0,1-.578,1.191,6.578,6.578,0,0,0-.936,2.925c0,1.815,1.549,3.277,2.89,4.572l.075.064c2.052,1.965,2.856,3.7,2.468,5.318-.694,2.89-1.41,4.486-3.827,6.358a35.313,35.313,0,0,1-3.468,2.358h0C167.989,112.312,157.908,114.537,144.8,114.537Zm4.832-54.561a13.139,13.139,0,0,0-11.376,6.85,7.306,7.306,0,0,0-.613,2.775,6.012,6.012,0,0,1-.63,2.659,8.609,8.609,0,0,1-3.468,2.832c-1.994,1.116-3.717,2.081-3.035,5.572.092.457.2.913.312,1.376.41,1.682.832,3.428.179,5.052-.728,1.809-2.48,2.751-4.173,3.665a19.435,19.435,0,0,0-2.26,1.347c-3.33,2.457-4.5,7.515-2.723,11.792,1.543,3.705,5.058,6.769,9.642,8.4,4.208,1.5,8.8,1.734,13.127,1.734h.156c13.006,0,23-2.2,30.555-6.734h0a35.264,35.264,0,0,0,3.4-2.312c2.312-1.775,2.977-3.306,3.636-6.069.341-1.416-.416-2.988-2.312-4.809l-.075-.064c-1.422-1.364-3.04-2.89-3.058-4.948a7.092,7.092,0,0,1,.988-3.168c.191-.382.382-.769.543-1.156,1.809-4.416-.619-7.295-3.185-10.347-1.59-1.884-3.237-3.838-3.89-6.226-1.734-6.289-3.636-10.948-10.873-9.087-.41.1-.815.214-1.22.329a20.457,20.457,0,0,1-4.353.867,21.1,21.1,0,0,1-2.971-.145c-.723-.075-1.468-.145-2.2-.156Z" transform="translate(-10.702 -9.723)"/>
    <path id="Tracé_6" data-name="Tracé 6" class="cls-4" d="M125.54,148.615s4.717-25.434,9.434-29.74,17.231-4.306,23.792-4.515,16.185,2.052,20.515,6.358S188.1,152.3,188.1,152.3l-9.023-1.029,5.746,15.179s-19.9,10.705-29.127,10.064S131.9,163.384,131.9,163.384l.821-16.821Z" transform="translate(-12.815 -33.431)"/>
    <path id="Tracé_7" data-name="Tracé 7" class="cls-3" d="M211.912,153.439h0a.26.26,0,0,1-.249-.277c.4-7.873-2.428-23.168-2.457-23.318a.262.262,0,1,1,.514-.1c0,.156,2.89,15.509,2.468,23.445a.26.26,0,0,1-.277.249Z" transform="translate(-48.117 -39.838)"/>
    <path id="Tracé_8" data-name="Tracé 8" class="cls-3" d="M153.023,147.66a.266.266,0,0,1-.266-.26c0-.116-.179-11.4,1.855-18.74a.272.272,0,0,1,.324-.185.26.26,0,0,1,.185.324c-2.017,7.266-1.838,18.5-1.838,18.59a.266.266,0,0,1-.254.272Z" transform="translate(-24.298 -39.389)"/>
    <path id="Tracé_9" data-name="Tracé 9" class="cls-2" d="M178.618,102.392l.965,9.607s-.468,5.468-6.474,4.382a12.139,12.139,0,0,1-8.416-6.162,8.188,8.188,0,0,1-.133-2.474l-.306-5.636c-.15-2.827-.549-5.78-.462-8.6s0-5.815.11-8.752a.694.694,0,0,1,.139-.48.619.619,0,0,1,.376-.162,6.041,6.041,0,0,1,2.451.064,21.485,21.485,0,0,0-.705-5.913,11.5,11.5,0,0,1,3.8,4.936,30.272,30.272,0,0,1,5.965.295,6.549,6.549,0,0,0-.543-4.046,29.871,29.871,0,0,1,2.312,3.272,7.844,7.844,0,0,0,2.861.376c.462-.41.312-3.179.37-3.838a13.5,13.5,0,0,1,2.705,5.9c.462,1.971.41,10.127.422,12.185C184.046,100.386,181.9,102.819,178.618,102.392Z" transform="translate(-28.95 -18.208)"/>
    <path id="Tracé_10" data-name="Tracé 10" class="cls-3" d="M174.437,116.535a8.711,8.711,0,0,1-1.549-.15,12.306,12.306,0,0,1-8.578-6.312,4.468,4.468,0,0,1-.173-1.873v-.7l-.3-5.63c-.052-.936-.133-1.9-.208-2.838a52.211,52.211,0,0,1-.26-5.78c.04-1.376.046-2.792.052-4.156,0-1.5,0-3.058.058-4.624a.971.971,0,0,1,.208-.659.948.948,0,0,1,.526-.237,6.324,6.324,0,0,1,2.237,0,21.245,21.245,0,0,0-.7-5.526.266.266,0,0,1,.416-.277,11.734,11.734,0,0,1,3.809,4.879,31.029,31.029,0,0,1,5.578.266,6.358,6.358,0,0,0-.578-3.63A.266.266,0,0,1,175.42,79a29.642,29.642,0,0,1,2.278,3.26,11.416,11.416,0,0,0,2.514.329,9.9,9.9,0,0,0,.237-2.74v-.9a.26.26,0,0,1,.179-.225.283.283,0,0,1,.283.075,13.555,13.555,0,0,1,2.757,6.023c.416,1.734.422,8.162.428,11.243v1a5.486,5.486,0,0,1-1.734,4.214,4.728,4.728,0,0,1-3.624,1.121l.931,9.289a5.711,5.711,0,0,1-2.023,3.821,5.162,5.162,0,0,1-3.208,1.023Zm-9.127-32.5a5.48,5.48,0,0,0-1.023.092.486.486,0,0,0-.231.081.52.52,0,0,0-.064.312c-.058,1.526-.058,3.081-.064,4.578,0,1.37,0,2.786-.052,4.168a52.837,52.837,0,0,0,.26,5.728c.075.936.156,1.908.208,2.85l.3,5.63v.746a4.324,4.324,0,0,0,.116,1.63,11.775,11.775,0,0,0,8.22,6.017,5.339,5.339,0,0,0,4.341-.746,5.255,5.255,0,0,0,1.821-3.393l-.96-9.567a.249.249,0,0,1,.081-.214.277.277,0,0,1,.22-.075,4.306,4.306,0,0,0,3.532-.954,4.994,4.994,0,0,0,1.572-3.821v-1c0-2.821,0-9.422-.416-11.122a14.029,14.029,0,0,0-2.2-5.243v.15c0,1.578-.046,2.809-.439,3.162s-2.711-.133-3.046-.266a.381.381,0,0,1-.237-.2c-.4-.659-.827-1.306-1.277-1.931a6.775,6.775,0,0,1,.035,2.642.26.26,0,0,1-.295.214,30.249,30.249,0,0,0-5.919-.289.243.243,0,0,1-.254-.168,11.231,11.231,0,0,0-3.11-4.347,22.115,22.115,0,0,1,.526,5.2.272.272,0,0,1-.1.2.26.26,0,0,1-.225.052A5.589,5.589,0,0,0,165.31,84.032Z" transform="translate(-28.775 -17.975)"/>
    <path id="Tracé_11" data-name="Tracé 11" class="cls-3" d="M183.361,123.14a9.276,9.276,0,0,1-6.642-1.827,6.774,6.774,0,0,1-2.63-5.023s4.486,2.434,8.879,2.121Z" transform="translate(-33.3 -34.25)"/>
    <path id="Tracé_12" data-name="Tracé 12" class="cls-3" d="M182.166,123.276a8.965,8.965,0,0,1-5.78-1.942,6.951,6.951,0,0,1-2.717-5.2.254.254,0,0,1,.376-.214c.046,0,4.474,2.4,8.74,2.093a.254.254,0,0,1,.272.231l.393,4.728a.26.26,0,0,1-.22.272A8.668,8.668,0,0,1,182.166,123.276Zm-7.977-6.746a6.9,6.9,0,0,0,2.514,4.4,8.942,8.942,0,0,0,6.2,1.792l-.347-4.231A18.3,18.3,0,0,1,174.189,116.53Z" transform="translate(-33.123 -34.08)"/>
    <path id="Tracé_13" data-name="Tracé 13" class="cls-3" d="M183.1,102.39a7.124,7.124,0,0,1-.96-.069.26.26,0,0,1-.214-.295.254.254,0,0,1,.295-.214c.543.087,2.058.179,2.526-.434.318-.428-1.22-2.89-2.89-4.89a.255.255,0,1,1,.4-.318c.856,1.052,3.6,4.561,2.89,5.515A2.57,2.57,0,0,1,183.1,102.39Z" transform="translate(-36.556 -25.72)"/>
    <path id="Tracé_14" data-name="Tracé 14" class="cls-2" d="M163.507,92.657a9.11,9.11,0,0,0-2.1-3.093,3.088,3.088,0,0,0-3.468-.5c-1.156.723-1.445,2.312-1.312,3.711A15.14,15.14,0,0,0,157.9,97.3a5.439,5.439,0,0,0,1.543,2.277,2.133,2.133,0,0,0,2.572.121" transform="translate(-25.92 -22.618)"/>
    <path id="Tracé_15" data-name="Tracé 15" class="cls-3" d="M160.657,100.116a2.8,2.8,0,0,1-1.63-.578,5.7,5.7,0,0,1-1.624-2.387,15.254,15.254,0,0,1-1.295-4.624c-.081-.879-.11-3.017,1.439-3.965a3.383,3.383,0,0,1,3.8.526,9.329,9.329,0,0,1,2.168,3.179.266.266,0,1,1-.474.231A8.931,8.931,0,0,0,161,89.492a2.84,2.84,0,0,0-3.179-.48c-1.335.815-1.249,2.856-1.191,3.468a14.571,14.571,0,0,0,1.254,4.451,5.2,5.2,0,0,0,1.462,2.173,1.879,1.879,0,0,0,2.243.127.26.26,0,0,1,.37.035.266.266,0,0,1-.029.37A1.971,1.971,0,0,1,160.657,100.116Z" transform="translate(-25.701 -22.389)"/>
    <ellipse id="Ellipse_5" data-name="Ellipse 5" class="cls-3" cx="0.566" cy="1.434" rx="0.566" ry="1.434" transform="translate(141.338 68.883)"/>
    <ellipse id="Ellipse_6" data-name="Ellipse 6" class="cls-3" cx="0.566" cy="1.434" rx="0.566" ry="1.434" transform="translate(149.899 68.577)"/>
    <path id="Tracé_16" data-name="Tracé 16" class="cls-2" d="M155.519,119.548s2.48-6.983,1.289-8.913-4.5-3.763-5.145-5.509.457-5.971-.919-6.434-2.387,3.468-1.376,6.613a7.236,7.236,0,0,1-1.566-3.763c0-1.838,1.2-4.133-.092-4.688s-3.306,3.676-2.844,7.075,4.775,8.173,4.5,9.093-23.885,23.821-26.012,27.573c-1.977,3.468-.746,11.289,6.052,10.463S150.929,131.4,155.519,119.548Z" transform="translate(-11.533 -26.028)"/>
    <path id="Tracé_17" data-name="Tracé 17" class="cls-3" d="M128.2,151.192a5.607,5.607,0,0,1-4.908-2.555,8.728,8.728,0,0,1-.387-8.358c1.329-2.312,10.468-11.561,17.809-19.012,4.1-4.162,7.983-8.093,8.2-8.526a10,10,0,0,0-1.4-2.52c-1.266-1.954-2.844-4.393-3.116-6.445-.376-2.769.861-6.168,2.133-7.133a1.035,1.035,0,0,1,1.075-.22c1.046.451.78,1.734.52,3.029a9.768,9.768,0,0,0-.266,1.9,5.312,5.312,0,0,0,.717,2.387c-.3-2.179.179-4.393.977-5.2a1.006,1.006,0,0,1,1.064-.3c.994.329.948,1.965.9,3.688a9.064,9.064,0,0,0,.185,2.89,8.993,8.993,0,0,0,2.514,2.775,13.34,13.34,0,0,1,2.607,2.688c1.243,2.012-1.156,8.85-1.266,9.139h0c-2.214,5.705-6.936,13.353-12.283,19.96-5.728,7.058-10.856,11.33-14.064,11.717a7.937,7.937,0,0,1-1.017.1Zm19.075-54.307a.734.734,0,0,0-.416.173c-1.035.786-2.312,3.925-1.931,6.647.26,1.931,1.867,4.416,3.041,6.231,1.081,1.671,1.6,2.5,1.451,2.971s-2.376,2.7-8.324,8.728c-6.936,7.017-16.434,16.636-17.729,18.9a8.179,8.179,0,0,0,.376,7.809,5.283,5.283,0,0,0,5.422,2.26c6.7-.815,21.388-19.653,25.914-31.341.682-1.913,2.237-7.191,1.312-8.671a12.972,12.972,0,0,0-2.5-2.566c-1.156-1.023-2.312-1.994-2.665-2.994a9.474,9.474,0,0,1-.22-3.093c.04-1.393.087-2.971-.538-3.173a.5.5,0,0,0-.52.173c-.855.844-1.277,3.757-.52,6.1a.266.266,0,0,1-.457.249,7.464,7.464,0,0,1-1.619-3.931,10.086,10.086,0,0,1,.277-2.006c.272-1.341.393-2.179-.208-2.439a.387.387,0,0,0-.15-.035Zm8.046,22.474Z" transform="translate(-11.331 -25.839)"/>
    <path id="Tracé_18" data-name="Tracé 18" class="cls-2" d="M188.014,120.409s-2.48-6.983-1.26-8.925c1.093-1.734,3.041-2.775,4.37-4.33,1.4-1.647,1.208-4.515,2.006-6.549.162-.416.514-.913.936-.757a.827.827,0,0,1,.393.41,13.035,13.035,0,0,1,1.225,3.994,18.323,18.323,0,0,1,.439,3.63,9.006,9.006,0,0,1-.647,3.214c-.254.647-1.5,2.058-1.283,2.775a30.073,30.073,0,0,0,4.41,8.821c2.572,3.214,15.717,15.833,17.561,23.833.977,4.214.341,9.283-6.457,8.457S192.609,132.259,188.014,120.409Z" transform="translate(-38.502 -27.3)"/>
    <path id="Tracé_19" data-name="Tracé 19" class="cls-3" d="M210.885,155.157a12.5,12.5,0,0,1-1.428-.087c-6.983-.85-17.341-23.122-21.879-34.758h0c-.1-.289-2.509-7.121-1.26-9.139a11.52,11.52,0,0,1,2.532-2.63,15.134,15.134,0,0,0,1.861-1.734A8.006,8.006,0,0,0,192.029,103a14.237,14.237,0,0,1,.642-2.653c.22-.578.682-1.156,1.277-.913a1.081,1.081,0,0,1,.532.532,12.971,12.971,0,0,1,1.249,4.046,17.773,17.773,0,0,1,.445,3.688,9.208,9.208,0,0,1-.659,3.306,6.41,6.41,0,0,1-.509.873c-.353.543-.879,1.364-.769,1.734a29.8,29.8,0,0,0,4.358,8.728c.543.676,1.555,1.769,2.838,3.156,4.977,5.393,13.295,14.411,14.781,20.781.422,1.827.85,5.2-.994,7.254A5.54,5.54,0,0,1,210.885,155.157ZM188.07,120.128c5.2,13.422,15.208,33.659,21.451,34.417,2.439.295,4.22-.162,5.3-1.364,1.688-1.873,1.272-5.046.873-6.775-1.439-6.208-10.058-15.544-14.682-20.538-1.289-1.4-2.312-2.5-2.856-3.191a30.2,30.2,0,0,1-4.457-8.908c-.179-.578.358-1.434.832-2.168a5.671,5.671,0,0,0,.462-.775,8.839,8.839,0,0,0,.624-3.127,18.232,18.232,0,0,0-.434-3.578,12.717,12.717,0,0,0-1.191-3.908c-.075-.127-.162-.26-.26-.295-.231-.087-.491.324-.578.607a13.677,13.677,0,0,0-.613,2.555,8.237,8.237,0,0,1-1.439,4.046,15.642,15.642,0,0,1-1.919,1.8,10.647,10.647,0,0,0-2.422,2.5C185.838,112.937,187.393,118.232,188.07,120.128Z" transform="translate(-38.31 -27.112)"/>
    <path id="Tracé_20" data-name="Tracé 20" class="cls-3" d="M140.588,194.384s-25.231-23.792-35.9-19.075-10.457,18.255-4.717,26.047,27.075,14.15,44.717,12.515,42.041-8.208,46.764-14.359,1.225-16.411-7.179-19.075S154.328,195,140.588,194.384Z" transform="translate(-0.377 -58.893)"/>
    <path id="Tracé_21" data-name="Tracé 21" class="cls-3" d="M138.854,214.186c-15.989,0-33.954-5.653-39.266-12.867a20.568,20.568,0,0,1-3.382-16.827,14.162,14.162,0,0,1,8.2-9.607c10.52-4.624,34.336,17.411,36.1,19.075,6.936.272,16.029-4.087,24.07-7.931,7.9-3.775,15.359-7.353,19.59-6.006a13.682,13.682,0,0,1,8.867,8.954,11.43,11.43,0,0,1-1.561,10.52c-4.694,6.116-29.087,12.792-46.943,14.451C142.664,214.105,140.785,214.186,138.854,214.186Zm-31.133-39.428a7.653,7.653,0,0,0-3.11.578,13.671,13.671,0,0,0-7.913,9.249,20.073,20.073,0,0,0,3.3,16.4c5.861,7.96,27.48,13.989,44.48,12.411,17.757-1.653,41.972-8.243,46.59-14.26a10.908,10.908,0,0,0,1.48-10.052,13.162,13.162,0,0,0-8.538-8.624c-4.046-1.277-11.4,2.249-19.214,5.983-8.133,3.884-17.341,8.289-24.4,7.977a.26.26,0,0,1-.162-.069C140,194.163,119.27,174.758,107.721,174.758Z" transform="translate(-0.193 -58.707)"/>
    <path id="Tracé_22" data-name="Tracé 22" class="cls-3" d="M140.7,220.827,157.02,228.7l7.306-18.457s-23.382-16.416-29.127-11.688S138.852,219.394,140.7,220.827Z" transform="translate(-16.115 -68.602)"/>
    <path id="Tracé_23" data-name="Tracé 23" class="cls-3" d="M156.837,228.794a.237.237,0,0,1-.11,0l-16.318-7.873-.046-.029c-1.474-1.156-7.347-10.879-7.434-17.6-.035-2.312.619-3.994,1.925-5.069,5.827-4.786,28.474,10.983,29.434,11.676a.26.26,0,0,1,.092.3l-7.306,18.44a.26.26,0,0,1-.237.156Zm-16.185-8.341,16.046,7.74,7.133-18.012c-2.1-1.451-23.37-15.931-28.654-11.561a5.683,5.683,0,0,0-1.734,4.671C133.548,209.672,139.23,219.3,140.652,220.452Z" transform="translate(-15.932 -68.441)"/>
    <path id="Tracé_24" data-name="Tracé 24" class="cls-4" d="M185.51,239.859s11.15,3.7,21.532,2.15c11.694-1.734,15.179-6.971,9.249-11.688s-30.151-.717-30.151-.717Z" transform="translate(-38.12 -81.396)"/>
    <path id="Tracé_25" data-name="Tracé 25" class="cls-3" d="M201.5,242.449a58.752,58.752,0,0,1-16.272-2.543.266.266,0,0,1-.179-.266l.619-10.254a.26.26,0,0,1,.22-.243c.988-.168,24.388-3.965,30.359.769,2.353,1.867,3.33,3.867,2.821,5.78-.809,3.017-5.249,5.347-12.179,6.358a36.809,36.809,0,0,1-5.387.4Zm-15.9-2.983c1.526.474,11.757,3.468,21.226,2.081,6.711-1,10.983-3.185,11.74-5.994.457-1.694-.457-3.5-2.636-5.2-5.5-4.364-27.359-1.075-29.734-.7Z" transform="translate(-37.925 -81.195)"/>
    <path id="Tracé_26" data-name="Tracé 26" class="cls-2" d="M175.94,240.082s9.63,3.035,11.48-2.5-2.156-6.052-7.179-7.179Z" transform="translate(-34.082 -82.4)"/>
    <path id="Tracé_27" data-name="Tracé 27" class="cls-3" d="M181.158,240.961h-.37a21.018,21.018,0,0,1-5.116-.838.254.254,0,0,1-.162-.145.231.231,0,0,1,0-.214l4.318-9.659a.26.26,0,0,1,.3-.15l.867.191c2.96.653,5.52,1.214,6.526,2.983.578,1.064.578,2.486,0,4.341C186.708,239.8,184.528,240.961,181.158,240.961Zm-5.046-1.26c1.59.434,9.295,2.312,10.861-2.416.578-1.734.578-2.994.069-3.919-.89-1.561-3.347-2.1-6.185-2.728l-.659-.145Z" transform="translate(-33.889 -82.209)"/>
    <path id="Tracé_28" data-name="Tracé 28" class="cls-2" d="M127.438,227.561a.318.318,0,0,1-.139-.04c-.121-.081-12.526-7.723-19.653-10.908a.263.263,0,1,1,.214-.48c7.168,3.2,19.6,10.861,19.723,10.937a.26.26,0,0,1,.087.364A.272.272,0,0,1,127.438,227.561Z" transform="translate(-5.198 -76.37)"/>
    <path id="Tracé_29" data-name="Tracé 29" class="cls-4" d="M125.516,228.182s-5.2-1.023-6.567,2.89,0,11.561,3.468,12.919,8.821-4.2,10.873-4.717,7.324-2.607,7.324-2.607Z" transform="translate(-9.814 -81.413)"/>
    <path id="Tracé_30" data-name="Tracé 30" class="cls-3" d="M123.435,244.264a3.568,3.568,0,0,1-1.277-.225c-3.728-1.428-4.994-9.306-3.642-13.255,1.393-4.046,6.809-3.052,6.861-3.046l.081.029,15.116,8.468a.243.243,0,0,1,.133.249.26.26,0,0,1-.162.225c-.22.087-5.312,2.11-7.358,2.624a12.176,12.176,0,0,0-2.832,1.682C128.227,242.49,125.66,244.264,123.435,244.264Zm.428-16.116c-1.578,0-4.046.41-4.85,2.809a14.441,14.441,0,0,0-.052,7.278c.653,2.8,1.89,4.74,3.387,5.312,2.208.844,5.254-1.272,7.705-2.971a11.388,11.388,0,0,1,3.006-1.734c1.636-.41,5.393-1.856,6.769-2.4l-14.59-8.168A8.919,8.919,0,0,0,123.862,228.149Z" transform="translate(-9.629 -81.23)"/>
    <path id="Tracé_31" data-name="Tracé 31" class="cls-2" d="M170.622,214.168h-.087a.26.26,0,0,1-.162-.335l1.665-4.844c-1.2-1.237-11.676-11.994-18.786-17.214a.262.262,0,0,1,.312-.422c7.549,5.538,18.85,17.266,18.966,17.387a.254.254,0,0,1,.058.266l-1.734,5a.26.26,0,0,1-.231.162Z" transform="translate(-24.463 -65.902)"/>
    <path id="Tracé_32" data-name="Tracé 32" class="cls-3" d="M181.334,110.281a7.613,7.613,0,0,1-3.78-1.023.249.249,0,0,1-.075-.353.254.254,0,0,1,.353-.075,6.85,6.85,0,0,0,6.711.092.255.255,0,0,1,.249.445A7.023,7.023,0,0,1,181.334,110.281Z" transform="translate(-34.712 -31.085)"/>
    <path id="Tracé_33" data-name="Tracé 33" class="cls-2" d="M228.433,42.9a7.728,7.728,0,0,0-3.081,2.358c-3.78,4.815-1.341,10.272,1.659,14.8,3.225,4.867,10.8,4.422,15.96,2.5,2.428,3.185,7.358,4.491,11.648,3.468a14.006,14.006,0,0,0,9.139-7.37c.994,1.734,3.734,2.387,5.925,1.815A8.9,8.9,0,0,0,272.7,44.664c-1.584-1.156-4.2-1.474-5.676-.22a7.446,7.446,0,0,0-4.757-5.2c-.688-.225-6.994-.439-6.457.312-1.792-2.509-5.3-3.936-8.763-3.994a17.827,17.827,0,0,0-9.619,2.89,12.671,12.671,0,0,0-4.046,3.74A10.549,10.549,0,0,0,228.433,42.9Z" transform="translate(-54.118 -0.186)"/>
    <path id="Tracé_34" data-name="Tracé 34" class="cls-1" d="M251.469,66.467a11.419,11.419,0,0,1-8.8-3.746c-5.607,2.017-12.977,2.035-16.1-2.688-2.653-4.012-5.717-9.954-1.642-15.156a7.948,7.948,0,0,1,3.191-2.445h0a10.775,10.775,0,0,1,4.931-.734,13.2,13.2,0,0,1,4.046-3.688,18.3,18.3,0,0,1,9.775-2.89,11.507,11.507,0,0,1,8.734,3.775,8.726,8.726,0,0,1,3.168-.306,20,20,0,0,1,3.4.225,7.775,7.775,0,0,1,4.85,4.96,5.4,5.4,0,0,1,5.665.48,9.318,9.318,0,0,1,3.6,9.249,8.936,8.936,0,0,1-6.717,7.087c-2.029.526-4.688.075-5.96-1.532a14.231,14.231,0,0,1-9.1,7.069A12.718,12.718,0,0,1,251.469,66.467Zm-8.7-4.382A.3.3,0,0,1,243,62.2c2.277,2.983,7.046,4.393,11.347,3.347a13.659,13.659,0,0,0,8.948-7.2.289.289,0,0,1,.254-.162.3.3,0,0,1,.26.145c.96,1.688,3.653,2.185,5.6,1.682a8.347,8.347,0,0,0,6.289-6.636A8.723,8.723,0,0,0,272.33,44.7c-1.457-1.058-3.942-1.4-5.318-.231a.3.3,0,0,1-.289.052.289.289,0,0,1-.185-.22,7.107,7.107,0,0,0-4.561-4.954,22.784,22.784,0,0,0-6.081,0,.289.289,0,0,1-.526.185c-1.636-2.312-4.983-3.815-8.532-3.873a17.659,17.659,0,0,0-9.457,2.856,12.422,12.422,0,0,0-3.942,3.653.306.306,0,0,1-.266.133,10.185,10.185,0,0,0-4.832.676,7.324,7.324,0,0,0-2.96,2.272c-3.8,4.844-1.1,10.272,1.67,14.451,2.989,4.514,10.191,4.4,15.607,2.387a.329.329,0,0,1,.11-.006Z" transform="translate(-53.916)"/>
    <path id="Tracé_35" data-name="Tracé 35" class="cls-2" d="M245.8,92.048a4.312,4.312,0,0,1,2.1-.179,2.942,2.942,0,0,1,2.2,1.087c.451.711.069,1.919-.775,1.931a2.326,2.326,0,0,1,3.064,1.561c.688,2.653-2.734,4.306-4.965,4.139-1.116-.081-2.2-.613-3.306-.457-2.029.283-3.468.5-4.994-1.324a4.161,4.161,0,0,1,2.711-6.15c.324-.046,2.8.272,2.624.867a2.272,2.272,0,0,1,1.341-1.474Z" transform="translate(-60.457 -23.922)"/>
    <path id="Tracé_36" data-name="Tracé 36" class="cls-1" d="M247.512,100.691a2.973,2.973,0,0,1-.324,0,8.791,8.791,0,0,1-1.358-.249,5.1,5.1,0,0,0-1.884-.214c-2.052.289-3.647.514-5.254-1.422-1.266-1.52-.7-3.538.168-4.809a3.96,3.96,0,0,1,2.723-1.815,6.359,6.359,0,0,1,2.6.578,2.572,2.572,0,0,1,1.295-1.156h0a4.526,4.526,0,0,1,2.249-.191,3.246,3.246,0,0,1,2.4,1.214,1.734,1.734,0,0,1,.064,1.636,2.556,2.556,0,0,1,.769.214,2.7,2.7,0,0,1,1.491,1.734,2.89,2.89,0,0,1-.624,2.653,5.988,5.988,0,0,1-4.318,1.827Zm-3.173-1.075a6.936,6.936,0,0,1,1.642.254,7.92,7.92,0,0,0,1.266.231A5.312,5.312,0,0,0,251.4,98.46a2.277,2.277,0,0,0,.509-2.139,2.133,2.133,0,0,0-1.156-1.341,1.867,1.867,0,0,0-1.029-.168,1.069,1.069,0,0,1-.578.168.277.277,0,0,1-.283-.22.3.3,0,0,1,.156-.329,1.914,1.914,0,0,1,.474-.162.827.827,0,0,0,.191-.243,1.156,1.156,0,0,0,0-1.11,2.6,2.6,0,0,0-1.988-.954,3.948,3.948,0,0,0-1.965.156h0a2.029,2.029,0,0,0-1.156,1.295.289.289,0,0,1-.549-.168,6.16,6.16,0,0,0-2.312-.5A3.41,3.41,0,0,0,239.4,94.31c-.751,1.1-1.26,2.844-.2,4.116,1.4,1.688,2.717,1.5,4.7,1.225A3.574,3.574,0,0,1,244.338,99.616Zm1.266-7.763Z" transform="translate(-60.248 -23.727)"/>
    <path id="Tracé_37" data-name="Tracé 37" class="cls-2" d="M230.182,107.108a2.549,2.549,0,0,0-1.734-.1,1.457,1.457,0,0,0-1.017,1.295,1.035,1.035,0,0,0,1.156,1.023c-1.353.884,1.549,3.191,2.832.728a2.046,2.046,0,0,0-1.237-2.942Z" transform="translate(-55.808 -30.288)"/>
    <path id="Tracé_38" data-name="Tracé 38" class="cls-1" d="M229.654,111.256a1.8,1.8,0,0,1-.249,0,1.936,1.936,0,0,1-1.624-1.289.971.971,0,0,1,.046-.578,1.237,1.237,0,0,1-.347-.2,1.37,1.37,0,0,1-.52-1.046,1.734,1.734,0,0,1,1.214-1.566,2.856,2.856,0,0,1,1.913.1h0a2.6,2.6,0,0,1,1.52,1.422,2.266,2.266,0,0,1-.15,1.9,2.075,2.075,0,0,1-1.8,1.26Zm-1.26-2.41a.283.283,0,0,1,.266.173.289.289,0,0,1-.11.353.4.4,0,0,0-.208.445,1.376,1.376,0,0,0,1.156.85,1.468,1.468,0,0,0,1.486-.936,1.682,1.682,0,0,0,.121-1.422,2,2,0,0,0-1.2-1.121h0a2.358,2.358,0,0,0-1.526-.1,1.156,1.156,0,0,0-.821,1.023.78.78,0,0,0,.306.578.578.578,0,0,0,.486.145Z" transform="translate(-55.61 -30.101)"/>
    <path id="Tracé_39" data-name="Tracé 39" class="cls-1" d="M276.284,152.867a6.983,6.983,0,0,0-.8-3.786,28.206,28.206,0,0,1-1.7-2.4c-.717-1.538-.214-3.347-.382-5.035a6.358,6.358,0,0,0-1.769-3.757c-.884-.89-2.023-1.5-2.89-2.434-1.382-1.526-1.78-3.676-2.566-5.578a13.925,13.925,0,0,0-5.526-6.509c1.509,3.035-1.925,6.89-.37,9.9.491.954,1.434,1.647,1.8,2.659.873,2.439-2.04,5.087-1.1,7.515.462,1.208,1.734,1.908,2.358,3.058.815,1.543.173,3.416.243,5.162a9.513,9.513,0,0,0,3.295,6.226c1.081,1.04,2.312,1.936,3.468,2.89,1.4,1.156,1.988,2.312,3.225.5A15.5,15.5,0,0,0,276.284,152.867Z" transform="translate(-69.494 -37.238)"/>
    <path id="Tracé_40" data-name="Tracé 40" class="cls-1" d="M290.659,156.792c-.451-1.861-.775-3.884,0-5.642.855-1.988,2.994-3.393,3.249-5.543.162-1.4-.578-2.832-.272-4.225s1.416-2.341,2.353-3.364a14.069,14.069,0,0,0,3.636-8.607,21.8,21.8,0,0,1,3.468,5.728,7.312,7.312,0,0,1-.5,6.457,5.779,5.779,0,0,0-.879,1.434c-.422,1.37.751,2.653,1.358,3.954a4.543,4.543,0,0,1-.428,4.665c-1.231,1.538-3.607,2.133-4.208,4.006a9.248,9.248,0,0,0-.214,2.121,6.225,6.225,0,0,1-4.48,5.341c-1.457.353-1.428-.225-1.688-1.445C291.67,160.023,291.04,158.433,290.659,156.792Z" transform="translate(-82.291 -39.787)"/>
    <path id="Tracé_41" data-name="Tracé 41" class="cls-1" d="M278.675,139.761c-1.035-3.578-1.445-7.318-2.538-10.879a60.215,60.215,0,0,0-3.387-8.093l4.439,1.873c1.422.578,2.965,1.306,3.636,2.7,1.156,2.422-.931,5.52.295,7.913a23.68,23.68,0,0,0,1.734,2.208c1.306,1.838,1.11,4.358.387,6.491-.306.919-1.647,5.665-2.85,4.347-.486-.526-.526-2.5-.728-3.214C279.357,141.969,278.975,140.877,278.675,139.761Z" transform="translate(-74.931 -36.149)"/>
    <path id="Tracé_42" data-name="Tracé 42" class="cls-1" d="M284.462,216.293c-.879-5.844-3.653-26.457-3.682-26.665l.763-.1c0,.208,2.8,20.809,3.682,26.653Z" transform="translate(-78.32 -65.155)"/>
    <path id="Tracé_43" data-name="Tracé 43" class="cls-1" d="M288.439,219.621h-.769c.052-6.936,2.948-33.48,4.624-35.3l.578.514C291.722,186.037,288.485,210.112,288.439,219.621Z" transform="translate(-81.227 -62.956)"/>
    <path id="Tracé_44" data-name="Tracé 44" class="cls-1" d="M289.142,208.909l-.769-.035c.665-14.971-2.509-46.411-2.543-46.723l.763-.081C286.628,162.388,289.807,193.88,289.142,208.909Z" transform="translate(-80.451 -53.568)"/>
    <path id="Tracé_45" data-name="Tracé 45" class="cls-2" d="M274,211.45h16.52l-1.156,16.723a5.515,5.515,0,0,1-5.5,5.139h-3.2a5.52,5.52,0,0,1-5.509-5.139Z" transform="translate(-75.459 -74.404)"/>
    <path id="Tracé_46" data-name="Tracé 46" class="cls-1" d="M283.663,233.411h-3.2a5.832,5.832,0,0,1-5.78-5.4l-1.156-16.723a.306.306,0,0,1,.081-.22A.289.289,0,0,1,273.8,211h16.52a.289.289,0,0,1,.289.312l-1.156,16.723A5.827,5.827,0,0,1,283.663,233.411Zm-9.549-21.833,1.156,16.416a5.249,5.249,0,0,0,5.2,4.867h3.2a5.243,5.243,0,0,0,5.2-4.867l1.156-16.416Z" transform="translate(-75.26 -74.214)"/>
  </g>
</svg>
