<svg xmlns="http://www.w3.org/2000/svg" width="127" height="130.436" viewBox="0 0 127 130.436">
  <defs>
    <style>
      .cls-1 {
        fill: #d1d3d4;
      }

      .cls-2 {
        fill: #fff;
      }

      .cls-3 {
        fill: #231f20;
      }

      .cls-4 {
        fill: #03b898;
      }
    </style>
  </defs>
  <g id="_361_factory_worker_flatline" data-name="#361_factory_worker_flatline" transform="translate(-78.896 -25.613)">
    <circle id="Ellipse_11" data-name="Ellipse 11" class="cls-1" cx="63.5" cy="63.5" r="63.5" transform="translate(78.896 25.613)"/>
    <path id="Tracé_47" data-name="Tracé 47" class="cls-2" d="M310.492,143.286c.115-.367.136-.912-.241-.991a.624.624,0,0,0-.372.068c-1.929.807-2.862,2.957-3.617,4.912a11.356,11.356,0,0,0-1.049,4.571c.042,1,.8,2.427,1.882,1.3.923-.97,1.3-3.476,1.735-4.744Q309.684,145.855,310.492,143.286Z" transform="translate(-107.587 -55.378)"/>
    <path id="Tracé_48" data-name="Tracé 48" class="cls-3" d="M306.049,153.585a.855.855,0,0,1-.325-.063,2.17,2.17,0,0,1-1.048-1.9,12.04,12.04,0,0,1,1.085-4.676c.813-2.1,1.767-4.225,3.764-5.059a.849.849,0,0,1,.524-.084.592.592,0,0,1,.409.294,1.4,1.4,0,0,1,.031,1.048h0c-.524,1.709-1.106,3.434-1.688,5.127-.121.351-.241.813-.367,1.3a8.712,8.712,0,0,1-1.426,3.533,1.332,1.332,0,0,1-.959.482Zm3.869-11.276a.482.482,0,0,0-.189.058c-1.809.755-2.71,2.768-3.476,4.765A11.525,11.525,0,0,0,305.2,151.6c.026.571.315,1.284.708,1.436.21.079.451-.026.723-.309a8.6,8.6,0,0,0,1.295-3.3c.131-.524.252-.975.377-1.347.582-1.688,1.148-3.408,1.683-5.111a.917.917,0,0,0,0-.613.079.079,0,0,0-.063-.042Zm.32.739Z" transform="translate(-107.332 -55.14)"/>
    <path id="Tracé_49" data-name="Tracé 49" class="cls-2" d="M94.577,174.11s-14.595,15.428-15.061,17.767,29.2,22.244,29.2,22.244a7.456,7.456,0,0,0-.577,4.514c.351,3.009.577,4.865.577,4.865s-4.75-.923-4.052.582,6.254,2.663,7.413,2.1a18.385,18.385,0,0,0,2.784-1.971V210.052c0-1.159-15.539-16.776-15.539-16.776L107.9,184.7" transform="translate(-0.21 -70.517)"/>
    <path id="Tracé_50" data-name="Tracé 50" class="cls-3" d="M110.859,226.354a14.368,14.368,0,0,1-4.194-.8,4.545,4.545,0,0,1-2.443-1.573.708.708,0,0,1,.047-.786c.561-.718,2.936-.4,3.942-.225-.084-.671-.278-2.275-.524-4.514a8.388,8.388,0,0,1,.5-4.461c-5.389-3.628-29.578-20.042-29.111-22.38s14.532-17.242,15.13-17.871a.262.262,0,0,1,.383.356c-4.047,4.278-14.626,15.774-15,17.615-.241,1.421,14.8,12.383,29.085,21.976a.267.267,0,0,1,.079.356,7.315,7.315,0,0,0-.524,4.351c.351,3.009.582,4.86.582,4.86a.262.262,0,0,1-.084.225.257.257,0,0,1-.225.068c-1.573-.309-3.491-.414-3.785-.031,0,0-.063.073,0,.241a3.884,3.884,0,0,0,2.139,1.316c2.024.708,4.346.933,4.923.645a17.3,17.3,0,0,0,2.621-1.856V209.835c-.194-.959-9.588-10.695-15.46-16.608a.252.252,0,0,1,0-.367l8.582-8.582a.263.263,0,1,1,.372.372L99.5,193.038c3.858,3.89,15.428,15.638,15.428,16.776v14.155a.257.257,0,0,1-.089.2,18.032,18.032,0,0,1-2.841,2A2.621,2.621,0,0,1,110.859,226.354Z" transform="translate(0 -70.31)"/>
    <path id="Tracé_51" data-name="Tracé 51" class="cls-2" d="M250.35,177.146s5.012,28.692,13.782,25.022,13.788-34.542,13.788-34.542l-8.739,1.048-5.216,11.591-6.2-19.785Z" transform="translate(-81.489 -64.032)"/>
    <path id="Tracé_52" data-name="Tracé 52" class="cls-3" d="M262.355,202.5a4.226,4.226,0,0,1-2.06-.556c-2.8-1.541-5.415-6.223-7.764-13.924a105.771,105.771,0,0,1-2.689-11.082.3.3,0,0,1,0-.152l7.418-16.681a.252.252,0,0,1,.257-.152.273.273,0,0,1,.236.178l5.992,19.13,4.933-10.962a.257.257,0,0,1,.21-.152l8.739-1.048a.278.278,0,0,1,.22.079.262.262,0,0,1,.068.225A156.249,156.249,0,0,1,274.3,183.33c-3.145,10.936-6.616,17.263-10.333,18.81A4.252,4.252,0,0,1,262.355,202.5Zm-11.984-25.573c.257,1.41,3.948,21.143,10.176,24.555a3.56,3.56,0,0,0,3.24.194c8.042-3.35,12.985-30.61,13.567-34l-8.246.97L263.954,180.1a.252.252,0,0,1-.252.157.257.257,0,0,1-.236-.183l-5.992-19.119Z" transform="translate(-81.242 -63.779)"/>
    <path id="Tracé_53" data-name="Tracé 53" class="cls-4" d="M236.75,117.94a48.242,48.242,0,0,1,7.811,4.619c5.043,3.476,16.251,30.521,16.251,30.521l-19.738,10.081-.556-12.687Z" transform="translate(-75.019 -43.794)"/>
    <path id="Tracé_54" data-name="Tracé 54" class="cls-4" d="M202.237,172.775c.451-20.288.755-49.184-6.522-56.225,0,0-34.175-4.33-39.905,1.573-4.43,9.557-4.267,35.292-5.311,54.825Z" transform="translate(-33.985 -42.404)"/>
    <path id="Tracé_55" data-name="Tracé 55" class="cls-2" d="M202.661,62.363c-.2-.409,1.767-5.007,1.111-12.257S189.807,40.313,185,40.921s-9.588,5.536-10.574,10.328,1.111,13.4,1.111,13.4Z" transform="translate(-45.245 -7.11)"/>
    <path id="Tracé_56" data-name="Tracé 56" class="cls-3" d="M175.3,64.687a.257.257,0,0,1-.252-.2c-.084-.351-2.1-8.718-1.111-13.515,1.048-5.09,5.992-9.919,10.8-10.532,3.292-.425,11.47.661,16.037,4.33a7.355,7.355,0,0,1,3.025,5.085,32.7,32.7,0,0,1-.917,11.193,6.227,6.227,0,0,0-.2,1.007.231.231,0,0,1,0,.225.267.267,0,0,1-.215.115l-27.119,2.291Zm11.009-23.811a11.839,11.839,0,0,0-1.531.084c-4.524.582-9.363,5.311-10.349,10.118-.876,4.262.744,11.7,1.048,13.069l26.673-2.254a5.783,5.783,0,0,1,.21-.97,32.088,32.088,0,0,0,.9-11.009,6.842,6.842,0,0,0-2.826-4.718c-3.848-3.114-10.343-4.32-14.107-4.32Z" transform="translate(-45.005 -6.882)"/>
    <path id="Tracé_57" data-name="Tracé 57" class="cls-2" d="M184.45,106.9s3.434,4.944,9.478,4.944,7.811-2.889,7.811-2.889l-.257-3.229-.592-7.5-.561-7.009h-13.8l-.456,5.73-.928.1Z" transform="translate(-50.137 -31.081)"/>
    <path id="Tracé_58" data-name="Tracé 58" class="cls-3" d="M193.689,111.868c-6.113,0-9.662-5.007-9.693-5.059a.241.241,0,0,1-.047-.168l.692-9.84a.252.252,0,0,1,.231-.241l.713-.084.44-5.515a.267.267,0,0,1,.262-.241h13.8a.262.262,0,0,1,.262.241l1.41,17.73a.273.273,0,0,1-.042.157C201.647,108.979,199.807,111.868,193.689,111.868Zm-9.19-5.274c.451.6,3.775,4.76,9.211,4.76,5.295,0,7.229-2.28,7.544-2.7l-1.384-17.4H186.528l-.456,5.478a.257.257,0,0,1-.231.241l-.708.079Z" transform="translate(-49.898 -30.843)"/>
    <path id="Tracé_59" data-name="Tracé 59" class="cls-3" d="M185.49,101.14a6.575,6.575,0,0,0,.928,2.391,12.267,12.267,0,0,0,4.54,3.974c2.972,1.646,7.413,3.5,11.009,2.941l-.592-7.5a34.16,34.16,0,0,1-7.958.052,22.775,22.775,0,0,1-6.862-1.332C186.2,101.507,185.836,101.334,185.49,101.14Z" transform="translate(-50.631 -35.801)"/>
    <path id="Tracé_60" data-name="Tracé 60" class="cls-3" d="M200.367,110.575c-3.628,0-7.586-1.861-9.777-3.072a12.44,12.44,0,0,1-4.629-4.063,6.936,6.936,0,0,1-.965-2.485.262.262,0,0,1,.1-.262.257.257,0,0,1,.278,0c.315.173.661.341,1.048.524a22.728,22.728,0,0,0,6.778,1.305,33.5,33.5,0,0,0,7.9-.047.241.241,0,0,1,.2.052.257.257,0,0,1,.1.183l.592,7.5a.262.262,0,0,1-.22.283A9.727,9.727,0,0,1,200.367,110.575Zm-14.736-9.169a6.291,6.291,0,0,0,.776,1.751,11.762,11.762,0,0,0,4.44,3.885c2.364,1.311,6.852,3.408,10.616,2.946l-.556-6.972a34.386,34.386,0,0,1-7.738,0,23.191,23.191,0,0,1-6.946-1.347Z" transform="translate(-50.394 -35.569)"/>
    <path id="Tracé_61" data-name="Tracé 61" class="cls-2" d="M171.557,63.56s-4.43.11-5.646,1.934.089,11.381.524,11.989,7.518,2.186,7.518,2.186Z" transform="translate(-41.076 -17.922)"/>
    <path id="Tracé_62" data-name="Tracé 62" class="cls-3" d="M173.736,79.7h-.058c-1.683-.377-7.219-1.646-7.675-2.286s-1.8-10.38-.5-12.283,5.672-2.05,5.856-2.055a.257.257,0,0,1,.267.225l2.4,16.11a.278.278,0,0,1-.084.231A.267.267,0,0,1,173.736,79.7Zm-2.621-16.1c-.912.052-4.231.346-5.206,1.809-1.127,1.693.1,11.009.524,11.7.3.33,3.727,1.258,6.988,1.992Z" transform="translate(-40.859 -17.693)"/>
    <path id="Tracé_63" data-name="Tracé 63" class="cls-2" d="M223.951,63.56s4.43.11,5.646,1.934-.084,11.381-.524,11.989-7.523,2.186-7.523,2.186Z" transform="translate(-67.787 -17.922)"/>
    <path id="Tracé_64" data-name="Tracé 64" class="cls-3" d="M221.324,79.694a.278.278,0,0,1-.178-.068.257.257,0,0,1-.079-.231l2.391-16.11a.257.257,0,0,1,.267-.225c.189,0,4.582.136,5.861,2.055s-.063,11.638-.524,12.288-5.987,1.908-7.675,2.286Zm2.621-16.1-2.307,15.5c3.266-.734,6.689-1.662,7-2,.409-.655,1.641-10,.524-11.691C228.176,63.94,224.852,63.647,223.945,63.594Z" transform="translate(-67.556 -17.684)"/>
    <path id="Tracé_65" data-name="Tracé 65" class="cls-2" d="M190.343,89.111h1.232a10.764,10.764,0,0,0,10.579-10.936V71.009c0-.734-.241-3.387-1.305-3.2a1.9,1.9,0,0,0-.792.446,13.546,13.546,0,0,1-1.919,1.274.886.886,0,0,1-.75.142c-.377-.157-.393-.7-.346-1.117l.073-.676c0-.142,0-.336-.142-.351a16.171,16.171,0,0,1-6.815,2.621,1.117,1.117,0,0,1-1.048-.32,1.049,1.049,0,0,1-.152-.566,5.379,5.379,0,0,1,.409-2.453,8.168,8.168,0,0,1-3.088,1.908c-1.573.524-3.014,1.085-4.571,1.615l-2.9.991c.561,3.523.393,7.523,1.688,10.9A10.674,10.674,0,0,0,190.343,89.111Z" transform="translate(-47.453 -19.468)"/>
    <path id="Tracé_66" data-name="Tracé 66" class="cls-3" d="M191.339,89.1h-1.232a10.93,10.93,0,0,1-10.086-7.088,26.978,26.978,0,0,1-1.3-7.282c-.1-1.221-.215-2.49-.4-3.67a.262.262,0,0,1,.173-.288l2.9-.991c.75-.257,1.478-.524,2.207-.781s1.573-.561,2.364-.834a7.89,7.89,0,0,0,2.988-1.851.262.262,0,0,1,.33-.031.257.257,0,0,1,.094.32,5.1,5.1,0,0,0-.388,2.338.918.918,0,0,0,.1.435c.115.173.383.236.823.2,2.4-.178,4.446-1.274,6.689-2.574a.252.252,0,0,1,.163-.037c.262.031.409.294.372.645l-.079.676c0,.22-.058.744.189.844a.7.7,0,0,0,.524-.131,13.967,13.967,0,0,0,1.866-1.227,2.1,2.1,0,0,1,.907-.524.828.828,0,0,1,.7.194c.87.729.912,3.235.912,3.261v7.193A11.013,11.013,0,0,1,191.339,89.1ZM178.868,71.2c.173,1.132.278,2.333.377,3.491a26.687,26.687,0,0,0,1.263,7.135,10.406,10.406,0,0,0,9.6,6.752h1.232a10.511,10.511,0,0,0,10.317-10.674V70.741c0-.786-.215-2.432-.723-2.857a.325.325,0,0,0-.273-.084,1.636,1.636,0,0,0-.645.372,14.337,14.337,0,0,1-1.987,1.3,1.132,1.132,0,0,1-.975.157c-.294-.126-.613-.461-.524-1.394l.068-.624a15.753,15.753,0,0,1-6.658,2.5,1.353,1.353,0,0,1-1.295-.435,1.316,1.316,0,0,1-.194-.692,5.462,5.462,0,0,1,.131-1.651,8.341,8.341,0,0,1-2.464,1.337c-.8.267-1.573.524-2.354.828s-1.463.524-2.218.781Z" transform="translate(-47.217 -19.199)"/>
    <path id="Tracé_67" data-name="Tracé 67" class="cls-3" d="M200.534,87.747a14.065,14.065,0,0,1-1.615-.089.261.261,0,1,1,.063-.519,13.844,13.844,0,0,0,3,0c.031,0,.068,0,.1-.079.5-.828-.807-5.022-1.746-7.47a.257.257,0,0,1,.152-.336.267.267,0,0,1,.341.147c.257.676,2.5,6.605,1.7,7.927a.634.634,0,0,1-.493.33A11.878,11.878,0,0,1,200.534,87.747Z" transform="translate(-56.91 -25.38)"/>
    <path id="Tracé_68" data-name="Tracé 68" class="cls-3" d="M199.35,99.3a9.557,9.557,0,0,1-4.335-1.258.273.273,0,0,1-.11-.356.267.267,0,0,1,.356-.11c2.165,1.138,4.026,1.468,5.536.98a3.8,3.8,0,0,0,2.139-1.693.263.263,0,0,1,.472.231,4.294,4.294,0,0,1-2.453,1.955,5.19,5.19,0,0,1-1.6.252Z" transform="translate(-55.097 -33.697)"/>
    <path id="Tracé_69" data-name="Tracé 69" class="cls-3" d="M184.262,80.261h-4.451a4.231,4.231,0,0,1-4.194-3.858l-.419-5.08a.241.241,0,0,1,.068-.2.252.252,0,0,1,.189-.084H202.69a.258.258,0,0,1,.257.315l-1.012,5.211a4.194,4.194,0,0,1-4.131,3.408h-3.67a4.231,4.231,0,0,1-3.392-1.714l-1.4-1.908-1.751,2.27A4.236,4.236,0,0,1,184.262,80.261Zm-8.508-8.718.4,4.792a3.7,3.7,0,0,0,3.67,3.381h4.44a3.7,3.7,0,0,0,2.92-1.436l1.961-2.543a.257.257,0,0,1,.215-.1.246.246,0,0,1,.2.1l1.615,2.191a3.7,3.7,0,0,0,2.967,1.5h3.67a3.67,3.67,0,0,0,3.617-2.983l.954-4.907Z" transform="translate(-45.734 -21.48)"/>
    <path id="Tracé_70" data-name="Tracé 70" class="cls-2" d="M203.455,59.391c0,1.625-7.035,4.068-15.727,4.068S172,61.016,172,59.391a86.929,86.929,0,0,1,31.418,0Z" transform="translate(-44.213 -15.258)"/>
    <path id="Tracé_71" data-name="Tracé 71" class="cls-3" d="M187.508,63.534c-8.6,0-15.968-2.38-15.968-4.33a.262.262,0,0,1,.21-.257,87.192,87.192,0,0,1,31.523,0,.262.262,0,0,1,.21.257C203.472,61.127,196.1,63.534,187.508,63.534Zm-15.4-4.121c.608,1.316,6.915,3.6,15.4,3.6s14.784-2.254,15.4-3.6a86.662,86.662,0,0,0-30.794,0Z" transform="translate(-43.995 -15.043)"/>
    <path id="Tracé_72" data-name="Tracé 72" class="cls-2" d="M187.727,28.79h0a15.727,15.727,0,0,1,15.727,15.727v1.017H172V44.5A15.727,15.727,0,0,1,187.727,28.79Z" transform="translate(-44.213 -1.38)"/>
    <path id="Tracé_73" data-name="Tracé 73" class="cls-3" d="M203.217,45.533H171.762a.262.262,0,0,1-.262-.262V44.254a15.972,15.972,0,1,1,31.945,0l0,1.017A.262.262,0,0,1,203.217,45.533Zm-31.156-.524h30.894v-.755a15.448,15.448,0,1,0-30.9,0Z" transform="translate(-43.976 -1.137)"/>
    <path id="Tracé_74" data-name="Tracé 74" class="cls-2" d="M197.362,26.34h2.553a2.412,2.412,0,0,1,2.412,2.412v15.6H194.95V28.757a2.412,2.412,0,0,1,2.412-2.417Z" transform="translate(-55.132 -0.214)"/>
    <path id="Tracé_75" data-name="Tracé 75" class="cls-3" d="M202.1,44.4h-7.339a.262.262,0,0,1-.262-.262V28.569a2.674,2.674,0,0,1,2.674-2.679h2.553a2.679,2.679,0,0,1,2.674,2.679V44.134a.262.262,0,0,1-.3.262Zm-7.114-.524h6.852v-15.3a2.155,2.155,0,0,0-2.149-2.155h-2.553a2.155,2.155,0,0,0-2.149,2.155Z" transform="translate(-54.918 0)"/>
    <ellipse id="Ellipse_7" data-name="Ellipse 7" class="cls-3" cx="0.781" cy="1.667" rx="0.781" ry="1.667" transform="translate(137.611 52.029)"/>
    <ellipse id="Ellipse_8" data-name="Ellipse 8" class="cls-3" cx="0.781" cy="1.667" rx="0.781" ry="1.667" transform="translate(148.877 52.029)"/>
    <path id="Tracé_76" data-name="Tracé 76" class="cls-2" d="M180.445,112.44s-4.917.435-4.535,2.286,8.912,12.713,8.912,12.713l4.283-5.5A23.217,23.217,0,0,1,180.445,112.44Z" transform="translate(-46.064 -41.177)"/>
    <path id="Tracé_77" data-name="Tracé 77" class="cls-3" d="M184.641,127.49a.267.267,0,0,1-.2-.1c-.351-.446-8.6-10.93-8.98-12.823a1.206,1.206,0,0,1,.231-1c.949-1.274,4.388-1.573,4.535-1.573a.257.257,0,0,1,.262.152c2.668,5.955,8.514,9.342,8.571,9.373a.246.246,0,0,1,.126.178.251.251,0,0,1-.047.21l-4.283,5.5A.236.236,0,0,1,184.641,127.49Zm-4.577-14.967c-1.048.11-3.345.524-3.979,1.374a.687.687,0,0,0-.142.577c.294,1.431,6.176,9.148,8.676,12.341l3.9-5.007A23.809,23.809,0,0,1,180.064,112.523Z" transform="translate(-45.845 -40.966)"/>
    <path id="Tracé_78" data-name="Tracé 78" class="cls-2" d="M209.22,112.44s4.912.435,4.535,2.286-8.912,12.713-8.912,12.713l-4.283-5.5A23.217,23.217,0,0,0,209.22,112.44Z" transform="translate(-57.801 -41.177)"/>
    <path id="Tracé_79" data-name="Tracé 79" class="cls-3" d="M204.565,127.465a.356.356,0,0,1-.2-.1l-4.283-5.5a.252.252,0,0,1-.052-.21.278.278,0,0,1,.126-.178,23.027,23.027,0,0,0,8.571-9.373.246.246,0,0,1,.262-.152c.147,0,3.586.325,4.535,1.573a1.19,1.19,0,0,1,.236,1c-.388,1.893-8.634,12.377-8.986,12.823a.257.257,0,0,1-.2.126Zm-3.9-5.693,3.9,5.007c2.506-3.193,8.388-10.909,8.676-12.341a.687.687,0,0,0-.142-.577c-.629-.849-2.931-1.263-3.974-1.374A23.646,23.646,0,0,1,200.67,121.772Z" transform="translate(-57.544 -40.942)"/>
    <path id="Tracé_80" data-name="Tracé 80" class="cls-3" d="M195.328,180.041V165.97H154.306v14.071l-7.376,6.548v35.1H202.7v-35.1Z" transform="translate(-32.286 -66.644)"/>
    <path id="Tracé_81" data-name="Tracé 81" class="cls-3" d="M202.461,221.73H146.692a.262.262,0,0,1-.262-.262V186.344a.262.262,0,0,1,.089-.194l7.287-6.474V165.762a.262.262,0,0,1,.262-.262H195.09a.262.262,0,0,1,.262.262v13.95l7.287,6.474a.273.273,0,0,1,.084.194V221.5A.262.262,0,0,1,202.461,221.73Zm-55.507-.524H202.2V186.485l-7.282-6.474a.262.262,0,0,1-.089-.194V166.009h-40.5v13.809a.278.278,0,0,1-.089.194l-7.287,6.474Z" transform="translate(-32.048 -66.421)"/>
    <path id="Tracé_82" data-name="Tracé 82" class="cls-2" d="M167.187,146.968h5.253l-1.557-31.648-5.473,1.374Z" transform="translate(-41.078 -42.547)"/>
    <path id="Tracé_83" data-name="Tracé 83" class="cls-3" d="M172.2,147.008h-5.242a.262.262,0,0,1-.262-.246L164.909,116.5a.262.262,0,0,1,.2-.273l5.473-1.368a.257.257,0,0,1,.325.241l1.573,31.648a.3.3,0,0,1-.073.194A.267.267,0,0,1,172.2,147.008Zm-5.007-.524h4.718l-1.515-31.03-4.954,1.242Z" transform="translate(-40.84 -42.325)"/>
    <path id="Tracé_84" data-name="Tracé 84" class="cls-2" d="M228.588,146.968H223.34l1.552-31.648,5.478,1.374Z" transform="translate(-68.639 -42.547)"/>
    <path id="Tracé_85" data-name="Tracé 85" class="cls-3" d="M228.354,146.994h-5.242a.252.252,0,0,1-.262-.273l1.573-31.648a.267.267,0,0,1,.1-.2.252.252,0,0,1,.22-.042l5.478,1.368a.262.262,0,0,1,.194.273l-1.777,30.275a.262.262,0,0,1-.288.246Zm-4.975-.524H228.1l1.751-29.814L224.9,115.44Z" transform="translate(-68.405 -42.31)"/>
    <rect id="Rectangle_5" data-name="Rectangle 5" class="cls-1" width="7.528" height="5.059" transform="translate(124.95 101.061)"/>
    <path id="Tracé_86" data-name="Tracé 86" class="cls-3" d="M173.906,174.368h-7.554a.267.267,0,0,1-.262-.262v-5.064a.267.267,0,0,1,.262-.262h7.554a.267.267,0,0,1,.262.262v5.064A.267.267,0,0,1,173.906,174.368Zm-7.271-.524h7.009V169.3h-7.03Z" transform="translate(-41.402 -67.981)"/>
    <rect id="Rectangle_6" data-name="Rectangle 6" class="cls-1" width="7.528" height="5.059" transform="translate(153.678 100.907) rotate(2.47)"/>
    <path id="Tracé_87" data-name="Tracé 87" class="cls-3" d="M228.284,174.383h0l-7.512-.325a.241.241,0,0,1-.178-.084.283.283,0,0,1-.073-.189l.22-5.054a.273.273,0,0,1,.084-.183.257.257,0,0,1,.189-.068l7.523.325a.262.262,0,0,1,.252.273l-.22,5.054a.262.262,0,0,1-.283.252Zm-7.25-.834,7,.3.194-4.529-7-.3Z" transform="translate(-67.297 -67.838)"/>
    <path id="Tracé_88" data-name="Tracé 88" class="cls-1" d="M187.531,235.272h-2.155A14,14,0,0,1,171.39,221.3V209.762a.262.262,0,0,1,.262-.262h29.6a.262.262,0,0,1,.262.262V221.3A14,14,0,0,1,187.531,235.272ZM171.914,210v11.3a13.478,13.478,0,0,0,13.463,13.463h2.155A13.478,13.478,0,0,0,200.994,221.3V210Z" transform="translate(-43.923 -87.354)"/>
    <path id="Tracé_89" data-name="Tracé 89" class="cls-4" d="M130.993,119.73a109.3,109.3,0,0,0-9.1,6.862c-7.979,6.705-19.072,17.877-25.137,24.178L114.228,164.9,125.3,154.115S134.7,124.826,130.993,119.73Z" transform="translate(-8.417 -44.645)"/>
    <path id="Tracé_90" data-name="Tracé 90" class="cls-3" d="M289.241,125.28l-10.464-7.67L257.11,147.167l1.09,2.815,10.469,7.67L290.336,128.1Z" transform="translate(-84.705 -43.637)"/>
    <path id="Tracé_91" data-name="Tracé 91" class="cls-3" d="M268.41,157.674a.278.278,0,0,1-.157-.047l-10.485-7.675a.215.215,0,0,1-.089-.115l-1.1-2.815a.267.267,0,0,1,.031-.252l21.672-29.557a.283.283,0,0,1,.173-.1.278.278,0,0,1,.194.047l10.485,7.675a.215.215,0,0,1,.089.115l1.1,2.815a.267.267,0,0,1-.031.252l-21.667,29.557a.262.262,0,0,1-.173.1Zm-10.249-8.12,10.191,7.47L289.779,127.8l-1.017-2.621-10.191-7.47-21.426,29.226Z" transform="translate(-84.446 -43.397)"/>
    <rect id="Rectangle_7" data-name="Rectangle 7" class="cls-2" width="12.975" height="36.65" transform="translate(194.085 73.967) rotate(36.24)"/>
    <path id="Tracé_92" data-name="Tracé 92" class="cls-3" d="M267.316,154.859a.246.246,0,0,1-.157-.052l-10.485-7.67a.267.267,0,0,1-.058-.367l21.672-29.557a.283.283,0,0,1,.173-.1.278.278,0,0,1,.194.047l10.485,7.675a.262.262,0,0,1,.058.367l-21.667,29.552a.262.262,0,0,1-.173.1Zm-10.1-7.989,10.039,7.339,21.358-29.132-10.044-7.339Z" transform="translate(-84.447 -43.397)"/>
    <circle id="Ellipse_9" data-name="Ellipse 9" class="cls-4" cx="4.173" cy="4.173" r="4.173" transform="translate(190.612 79.798)"/>
    <path id="Tracé_93" data-name="Tracé 93" class="cls-3" d="M295.751,137.061a4.446,4.446,0,1,1,.687-.052A4.33,4.33,0,0,1,295.751,137.061Zm0-8.341a3.878,3.878,0,1,0,.016,0Z" transform="translate(-100.977 -48.66)"/>
    <circle id="Ellipse_10" data-name="Ellipse 10" class="cls-1" cx="4.173" cy="4.173" r="4.173" transform="translate(184.038 88.768)"/>
    <path id="Tracé_94" data-name="Tracé 94" class="cls-3" d="M283.238,154.2a4.43,4.43,0,1,1,3.581-1.809,4.43,4.43,0,0,1-3.581,1.809Zm0-8.341a3.886,3.886,0,1,0,.01,0Z" transform="translate(-95.033 -56.829)"/>
    <rect id="Rectangle_8" data-name="Rectangle 8" class="cls-2" width="7.749" height="3.688" transform="translate(180.181 98.3) rotate(36.069)"/>
    <path id="Tracé_95" data-name="Tracé 95" class="cls-3" d="M272.654,171.315a.262.262,0,0,1-.152-.047l-6.238-4.571a.267.267,0,0,1-.058-.367l2.176-2.967a.262.262,0,0,1,.173-.1.257.257,0,0,1,.194.047l6.238,4.571a.267.267,0,0,1,.058.367l-2.155,2.967a.262.262,0,0,1-.173.1Zm-5.866-4.886,5.814,4.262,1.861-2.548-5.814-4.262Z" transform="translate(-89.01 -65.352)"/>
    <rect id="Rectangle_9" data-name="Rectangle 9" class="cls-3" width="2.999" height="3.544" transform="translate(179.596 98.158) rotate(36.24)"/>
    <path id="Tracé_96" data-name="Tracé 96" class="cls-3" d="M268.988,168.41a.247.247,0,0,1-.157-.052l-2.417-1.772a.267.267,0,0,1-.058-.367l2.1-2.857a.262.262,0,0,1,.173-.1.257.257,0,0,1,.194.047l2.417,1.772a.262.262,0,0,1,.1.173.257.257,0,0,1-.047.194l-2.1,2.862a.267.267,0,0,1-.168.1Zm-2.05-2.1,1.992,1.463,1.788-2.438-2-1.463Z" transform="translate(-89.081 -65.352)"/>
    <path id="Tracé_97" data-name="Tracé 97" class="cls-2" d="M288.79,162.4l1.94-2.59s-.792-7.921-.058-9.84c.147-.388.524-.813.891-.64a.771.771,0,0,1,.325.409,7.832,7.832,0,0,1,.739,3.145,27.946,27.946,0,0,1,.262-5.693c.047-.32.136-.687.43-.823.5-.22.928.419,1.075.944a12.7,12.7,0,0,1,.4,2.218,10.086,10.086,0,0,1,.2-4.058c.419-1.609,1.442-1.484,1.63.168l.315,2.737c0-1.379.236-2.742.2-4.115a3.1,3.1,0,0,1,1.185-2.8.959.959,0,0,1,.566-.273.9.9,0,0,1,.734.634,5.2,5.2,0,0,1,.278,1.95c.042,4.1.472,8.293-.923,12.152a9.238,9.238,0,0,1-5.924,6.065" transform="translate(-99.777 -54.855)"/>
    <path id="Tracé_98" data-name="Tracé 98" class="cls-3" d="M288.554,162.382a.257.257,0,0,1-.157-.052.267.267,0,0,1-.052-.367l1.882-2.506c-.094-.975-.744-8.005-.031-9.861a1.363,1.363,0,0,1,.692-.792.666.666,0,0,1,.556,0,1.049,1.049,0,0,1,.451.524c.079.168.147.336.215.524a28.607,28.607,0,0,1,.283-2.993,1.237,1.237,0,0,1,.587-1.048.76.76,0,0,1,.64,0,1.489,1.489,0,0,1,.629.687,10.107,10.107,0,0,1,.262-1.421c.225-.87.661-1.368,1.153-1.332s.828.524.959,1.342c0-.383.031-.765.026-1.148a3.381,3.381,0,0,1,1.274-3,1.227,1.227,0,0,1,.739-.336,1.138,1.138,0,0,1,.975.792,5.425,5.425,0,0,1,.3,2.05c0,.718.026,1.442.047,2.16.089,3.371.184,6.857-.986,10.086a9.51,9.51,0,0,1-6.092,6.228.267.267,0,0,1-.33-.173.257.257,0,0,1,.168-.325,8.995,8.995,0,0,0,5.767-5.908c1.132-3.145,1.048-6.569.954-9.892,0-.723-.042-1.447-.047-2.17a4.964,4.964,0,0,0-.257-1.851c-.094-.215-.273-.472-.488-.472h0a.739.739,0,0,0-.4.21,2.841,2.841,0,0,0-1.09,2.621,22.053,22.053,0,0,1-.1,2.291c-.047.6-.094,1.221-.1,1.83a.267.267,0,0,1-.252.262.262.262,0,0,1-.273-.236l-.315-2.731c-.089-.771-.351-1.048-.524-1.08s-.425.236-.608.944a9.7,9.7,0,0,0-.278,3.271c.037.231.063.467.084.7a.257.257,0,0,1-.225.283.262.262,0,0,1-.294-.22c-.037-.231-.063-.461-.084-.7a12.959,12.959,0,0,0-.3-1.468,1.253,1.253,0,0,0-.524-.765.215.215,0,0,0-.2,0c-.178.079-.241.372-.278.619a27.958,27.958,0,0,0-.278,5.242v.4a.267.267,0,0,1-.252.267.262.262,0,0,1-.273-.252v-.383a7.638,7.638,0,0,0-.692-2.653c-.058-.121-.121-.241-.2-.278a.152.152,0,0,0-.131,0,.928.928,0,0,0-.4.524c-.708,1.84.068,9.641.073,9.719a.252.252,0,0,1-.052.184l-1.94,2.59A.267.267,0,0,1,288.554,162.382Z" transform="translate(-99.541 -54.574)"/>
    <path id="Tracé_99" data-name="Tracé 99" class="cls-3" d="M150.9,172.339h0a.262.262,0,0,1-.252-.273l1.106-26.8a.267.267,0,0,1,.273-.252.257.257,0,0,1,.246.273l-1.1,26.8a.262.262,0,0,1-.273.252Z" transform="translate(-34.056 -56.672)"/>
    <path id="Tracé_100" data-name="Tracé 100" class="cls-3" d="M249.265,179.789a.257.257,0,0,1-.257-.246c0-.346-.891-29.578-.928-30.82a.262.262,0,0,1,.252-.273.278.278,0,0,1,.273.257c0,.3.907,30.448.923,30.81a.257.257,0,0,1-.246.273Z" transform="translate(-80.409 -58.309)"/>
    <path id="Tracé_101" data-name="Tracé 101" class="cls-3" d="M268.341,205.326a.257.257,0,0,1-.121-.031.262.262,0,0,1-.115-.351l4.362-8.655a.257.257,0,0,1,.351-.115.262.262,0,0,1,.121.351l-4.377,8.655A.262.262,0,0,1,268.341,205.326Z" transform="translate(-89.923 -80.999)"/>
    <path id="Tracé_102" data-name="Tracé 102" class="cls-3" d="M249.27,155.569a.267.267,0,0,1-.1-.524,62.992,62.992,0,0,0,3.822-7.822.262.262,0,1,1,.477.21c-2.307,5.242-3.7,7.995-4.126,8.1Z" transform="translate(-80.823 -57.638)"/>
    <path id="Tracé_103" data-name="Tracé 103" class="cls-3" d="M149.639,162.793a.267.267,0,0,1-.262-.231L148,150.064a.264.264,0,1,1,.524-.058l1.394,12.5a.262.262,0,0,1-.236.288Z" transform="translate(-32.794 -58.938)"/>
    <path id="Tracé_104" data-name="Tracé 104" class="cls-3" d="M264.264,183.07l-3.014,3.706,1.861,1.809,2.931-3.816Z" transform="translate(-86.675 -74.78)"/>
    <path id="Tracé_105" data-name="Tracé 105" class="cls-3" d="M262.884,188.614a.267.267,0,0,1-.184-.079l-1.856-1.809a.252.252,0,0,1,0-.351l3.009-3.706a.273.273,0,0,1,.189-.1.278.278,0,0,1,.2.073l1.772,1.7a.257.257,0,0,1,0,.351l-2.925,3.816a.273.273,0,0,1-.189.1Zm-1.5-2.1,1.478,1.436,2.621-3.4-1.4-1.337Z" transform="translate(-86.448 -74.542)"/>
    <path id="Tracé_106" data-name="Tracé 106" class="cls-3" d="M267.334,231.668a.786.786,0,0,1-.425-1.447c.246-.157,6.034-4.047,5.211-12.545-.425-4.33-4.194-7.287-7.837-10.144s-7.245-5.657-7.2-9.746a15.31,15.31,0,0,1,4.042-10.742.786.786,0,1,1,1.08,1.143h0a14,14,0,0,0-3.549,9.6c0,3.318,3.2,5.84,6.6,8.5,3.722,2.92,7.942,6.228,8.43,11.229.923,9.478-5.641,13.84-5.919,14.018A.818.818,0,0,1,267.334,231.668Z" transform="translate(-84.691 -76.568)"/>
    <path id="Tracé_107" data-name="Tracé 107" class="cls-1" d="M169.748,79.191a.262.262,0,0,1-.262-.231l-1.237-11.586a.264.264,0,1,1,.524-.058L170,78.9a.262.262,0,0,1-.231.288Z" transform="translate(-42.428 -19.597)"/>
    <path id="Tracé_108" data-name="Tracé 108" class="cls-1" d="M231.785,78.413h0a.262.262,0,0,1-.236-.288l1.232-11.638a.264.264,0,0,1,.524.058L232.02,78.177a.267.267,0,0,1-.236.236Z" transform="translate(-72.544 -19.203)"/>
  </g>
</svg>
