<svg xmlns="http://www.w3.org/2000/svg" width="31.734" height="21.165" viewBox="0 0 31.734 21.165">
  <defs>
    <style>
      .cls-1 {
        fill: #fff;
      }
    </style>
  </defs>
  <path id="Back" class="cls-1" d="M19.379,11.657a1.44,1.44,0,0,1,.011,2.028L12.7,20.4h25.5a1.433,1.433,0,0,1,0,2.866H12.7l6.7,6.713A1.451,1.451,0,0,1,19.39,32a1.427,1.427,0,0,1-2.017-.011L8.29,22.845h0a1.609,1.609,0,0,1-.3-.452,1.368,1.368,0,0,1-.11-.551,1.437,1.437,0,0,1,.408-1l9.083-9.149A1.4,1.4,0,0,1,19.379,11.657Z" transform="translate(-7.882 -11.252)"/>
</svg>
