<svg xmlns="http://www.w3.org/2000/svg" width="13.584" height="9.056" viewBox="0 0 13.584 9.056">
  <defs>
    <style>
      .cls-1 {
        fill: #03b898;
      }
    </style>
  </defs>
  <path id="Eye" class="cls-1" d="M13.5,8.684A7.564,7.564,0,0,0,6.792,4.5,7.565,7.565,0,0,0,.082,8.684a.763.763,0,0,0,0,.688,7.564,7.564,0,0,0,6.71,4.184A7.565,7.565,0,0,0,13.5,9.372.763.763,0,0,0,13.5,8.684Zm-6.71,3.74a3.4,3.4,0,1,1,3.4-3.4A3.4,3.4,0,0,1,6.792,12.424Zm0-5.66a2.248,2.248,0,0,0-.6.089A1.128,1.128,0,0,1,4.617,8.431,2.259,2.259,0,1,0,6.792,6.764Z" transform="translate(0 -4.5)"/>
</svg>
