<svg xmlns="http://www.w3.org/2000/svg" width="296" height="290.074" viewBox="0 0 296 290.074">
  <defs>
    <style>
      .cls-1 {
        fill: #03b898;
      }

      .cls-2, .cls-3 {
        fill: #fff;
      }

      .cls-3 {
        font-size: 10px;
        font-family: Goldplay-SemiBold, Goldplay;
        font-weight: 600;
      }
    </style>
  </defs>
  <g id="Map" transform="translate(-39 -1795.074)">
    <g id="france" transform="translate(38.715 1794.74)">
      <path id="FR-A" class="cls-1" d="M483.135,169.059l1.719-.849-.477-1.257.676-.581-.358-.293.661-2.469,1.167-.671,1.58-2.712-.358-1.1,2.881-5.1-.4-.909-1.3.2-.844-.591.666-.78-.482-.641.666-2.36-.566-.9.914.179-1.421-.825,2.066-.1,1.1-.77,1.778-3.348-.8-.075-.477-.924,1.49-2.345-1.356-1.267.224-.447-2.2-.72-.556,1.351-.993.546.224-.839-.765-.139-.02-.879.909-.576-.919.109-.04-.487-1.937-.591-.224-1.247.715,0,.243-.879.864.159.725-3.423.636-.378.581,2.24,3.467,1-.07.571.725.383,2.6-.785,1.749,1.128.859-.77,1.2-3.025h0l1.967-.094.06.407,1.212-.7,1.49,1.013,1.391-.765,3.283,2.131,2.876.75-1.719,1.927-1.227,3.189-2.424,1.411-.164,1.1-2.573,2.518-.8,1.773.124,2.156-.775.76-.74,2.971.253,2.081-1.063.785-.551,2.474-1.848,3.12-.149,2.663,1.088,1.912-1.356,2.851-.556,3.06.378,1.391-.75,1.113,1.644,2.836-.169.874-1.739,1.1.651.353-.681.224.278.681-.467.477-1.177-.392-.219.452.715.283-1.426,1.182-1.192-.278-1.759.606-.228-.546-1.282-.139.656-1.525-1.431-.273h0l.219-.661-1.177-2.076-1.664-.283.835-2.121-.194-1.56-1.992-1.47-1.525-.353Z" transform="translate(-242.997 -65.323)"/>
      <path id="FR-B" class="cls-1" d="M174.988,336.114l.482.641,1.4-.214,1.113.83-.482,1.46,1.247,1.257,1.172-1.406.586.636,2.494-.283,1.386,2.34.631-.492,1.043.646-.939,1.465,3.562,1.242-.765.909,1.4.681-1.222,1.634-.586.03-.194,1.446,1.043.532-1.033,1.455,1.262.457-.6.656h0l-.1.01h0l1.093.954,2.136.238-.7.576,1.446,2.489h0l-.78.447h0l.084.343h0l.581,2.23-.6.174.576.924-1.614,1.033.084.944-1.4.437.363,1.614-1.893,1.629-1.555.4.124.894-1.217,1.311.2.581-1.833,1.048-.7-.2.73,1.073.01,1.763.78.517.119,1.754-2.26.114-.219.472-.432-1.118-.5.084-.556,2.037,1.679,1.023-.909,2.394-1.1.189.661.258.179,1.063-.661.323-1.505-.487.184.929-.854.1-.363,1.306-1.575,1.068-1.46-1.6-.765.72-1.957-.025-.387.78-2.638.561-.293.536-1.436-.894-.81.2-.725,1.207-.611-.825-1.47,1.152.422,1.277-.353.586-1.649-.939.571-.71-.889-.864-1.227,1.595-1.724-.308-1.237,1.187,1.1.835-.457.3.313,1.361-.681.05.656,2.017-1.138.854.159,1.49-.82.333.045.7.666.075.179.939,1.267-.387,1.664.407.06,1.093.561-.134.989,2.151-.979.253-.03,1.475,1.371-.974-.06,2.066.686.735-1.565,1.267.6.874-.661,1.465-.492-.119.109,1.3-1.023-.084-.591,1.441-.969.412.268,1.754-1.664.412-.561.894.139,2-.954.467.293,1.9h0l-1.679,1.416-.993.1-1.311-.894-.944,1.386-2.608-3-1.108-.333-.457-2.007-3.9.412-3.527-1.987-.576.452-.442-.765-1.341-.561-.7.328-.959-.7.79-1.406-1.51.671-.2,1.858-1.773-.5-.681-1.182,1.212-1.108.671-1.734-.134-1.937-3.02-1.013-.571.159-.278,1.088-.661-.065-.328-1.555-2.166.3-.169-.964-1.018-.576-.035-.661,2.5-.422,1.386-1.267,3.169-6.08,3.085-16.055.825-9.557,1.3-3.313,3.909.661-.283-1.237-1.063-.5.735-.01-2.752-2.295-1.346,2.389-.293,2.26-.313-.517,2.156-24.534,1.287-2.37.69-.507.437,1.1-.795.139.522.035-.278.546,5.41,4.848,2.355,7.908,1.962,1.912-1.515-3.512-.964-5.767h0l2.469.209.169-.755.462,1.465,2.886.527.477,2.687h0l.025.129h0l.368,1.118.422-.77.522.1.492.83.7-.139.442.81,1.4.6.974.139,1.147-.934.9.671.149-1.207.844-.373-.477-.348.561-1.1.984-.715,1.629.611.835-1.6,1.873-1.063-.387-2.116.591-1.694.844-.283-.3-.661.581.507,1.033-1.282,1.053,0,.358-1.108,1.143-.815.134-2.384,1.123-.015,1.311-2.225Zm-14.55,69.256h0l-.119-1.773h0l-.194-.094h0l.079,1.068-.6.243.5.477.338.079Zm-.79-.065h0l-.144.109h0l-.4.959.387.869.859-.616-.512-1.252h0l-.119-.079Z" transform="translate(-62.826 -168.983)"/>
      <path id="FR-C" class="cls-1" d="M289.44,282.4l.368-1.505.512,0,.775-1.376,2.6-.477,1.023.4,1.609-1.023-.224-1.232-.77-.427.606-.914-.532-.591.72-.373.472.383-.075-.949,1.595-.849.293-.8.934.849.775-.536.984.273,1.535-2.017,2.28-.06h0l.551,1.311,2.921,2.24,1.431-1.217,1.6.988.666-.859.854-.04.745,1.873,2.146-1.123-.273-1.013,1.018-.045-.169-1.123.75.209.278,1.436,2.027,3.144.114,1.9,1.311.6.69-.378.621,1.292,1.669-.144,1.023.929-.487,1.888.179,2.076.407.04-1.2.174-.979,1.361h0l-.134.035h0l-.179.025h0l-2.394,1.033.84,2.265-.323,1.515.586.69-.333,1.043.532,1.6-.894.765-1.778.109-.164,1.167,1.272,1.3-.8.467.144,1.669-.69.661,1.893,1.947-.074.989.964,1.758,2.27,1.57,1.053,2.414-.442,1.754-1.53,1.2.313,1.783.9-1.227.775.119.671,1.287.05-.626,1.043.392.209-.656,1.5-.194-.184-.556.7-.258,1.123.1.8.909,1.287-.3.676.934-.74.541.81.477-.447.785.75.541,1.033-.541,1.128,1.515-.889,1.818.2,1.217-.447.263-.263-.77-1.013-.219.517.869h0v.263h0l-.566-.04-.507.869.681,1.162-1.719.5.358,1.346-1.833.288-1.411,2.618-2.513.02-.129,1.123-.581.4-.363-.378.119.621-.8-.447-.532,1.689-1.282.705h0l-.532-.1.149-.705-.69.219-1-1.048-.368-1.083-1.585.273.139-.81-.894-.715-.75.159-.1,1.441-2.28.482-1.262-2.578-.035-1.262-.909-.969-1.763,1.4-.9-.253-.119,1.391-.909.73-1.247-1.192-.457,1.1h-.119l-.094.929-.546-.114-.541,1.088-.144,2.444-1.182,2.061h0l-.929-1.028-.517-2.355.527-.368-.343-.566-.666.124-.591-2.464-1.788.536.03-1.629-.77-.849-2.727,2.772-.089,1.56L295,331.349l.214.964-1.252.9-.323,1.108-2.712.293-.532-.864-.651.06-1.614.527-.258.934-.7-.6-.243-1.649-.6-.03.864-2.658-1.659-2.459.243-1.361-.854-1.6h0l.82-.214h0l.174.045h0l.686-.571-.914-1.7,1.535-.646.134-1.6,1.088-.83-.651-.462-.139-1.177,3.418-3.368-.228-2.2,2.722,1.227.984-.646-.839-.795.626-3.964-1.162-1.227.512-1.316.735-.04.04-2-2.792-3.393,1.406-1.207h0l.089-.02h0l.656.089,1.321-1.47.159-1.272.974-.452-.2-1.863-1.063-1.515.323-2.052-1.724-3.706-1.048-.477-.209.387-.7-1.441-.472.631-1.292-.979.651-.864-.959-.273Z" transform="translate(-143.247 -136.302)"/>
      <path id="FR-D" class="cls-1" d="M360.737,189.066h0l-.77-1.674-.7.1-.184.656-.6-.383.7-.969-.407-.621-1.257-.055.507-.8-.333-.532-1.917-.551-2.5-.159-.879.7.383,1.182-4.953.209-.447,1.118-.993-.159-.378-1.287-.651.144.154.795-.725-.556h0l-.258.139h0l-.919.894-1.033-.606-.318.631-.83-.532-2.26.407.383-1.55-.388-.671-.3.7-.586-.129-.258-.641.676-.343-1.023-.894-.641-2.27-1.063-.452.179-1.028-.7-.258.174.556-1.147.5-.76-1.54-1.063.164.874-1.267-.427-.214.378-1.118-.859-.472.2-.512-1.724-2.042-.77-.3-.79.546-.288-.979h0l-.795-.3-.228.854-.6.079-4.024-.089-.765.735-1.157-.323-.661,1.679.661,1.709L320.8,178.6l-1.381.725,0,.626h0l1.908.919-.278.532.407-.03.288,1.346,1.545,1.336-.522.318.591,1.436-.686.8h0l-.124.1h0l-1.639,1.143-.278,1.192.76.536-.149,1.927-3.582.9-.079,1.237.631-.1.984,1.177.561,1.123-.348,1.411.825.9-2.389.681h0v-.109h0l-.258.382,1.7,3.04-1.3,3.025,2.35,2.325,1.008,4.252-.263,1.719,1.237,1.222.035,2.052-.621,1.451.407,1.679-.78,1.709h0l.551,1.311,2.921,2.24,1.431-1.217,1.6.989.666-.859.854-.04.745,1.873,2.146-1.123L332,223.744l1.018-.045-.169-1.123.75.209.278,1.436,2.027,3.144.114,1.9,1.311.6.69-.378.621,1.292,1.669-.144,1.023.929-.487,1.888.179,2.076.407.04-1.2.174-.979,1.361h0l-.179,1.828,1.7.348.343.993,2.34-.879,1.555.74.606-.611.373.5.591-.293-.094.864.527.065,2.007-.879.68-3.264,1.093-.04.934.879,1.331-.785,1.028.844.392-1.053.879-.154.631.82-.641.586,1.167.76-.343,1.147.8.666.447-.119,3.323-10.193.2.532.69-.417,1.5.914,2.265-.591.025-.452.785.4.611,1.421,1.619.348h0l.194-.5,1.922-.412.079-.76-1.272-.517-.025-1.272.949-.581-.174-.859.939-.815-.954-1.416-.055-1.3-.661-.04.631-1.217-1.316-1.351,2.856-.755-1.3-.84-.07-.72-1.441.149-.725-1.57-.616.328-.2-1.49,1.316-1.048-.884-.417.174-.676,2.086-1,1.118-1.883h0L371,210.9h0l1.013-4.2.646-.442-.959-.4h-.07l.541-.745-.238-1.585h0l-.079-.05h0l-.854.06h-.129l.134-1.758-1.48-.427.849-.387-.422-.119.238-.541,1.018.04,1-1.758-1.152-2.275-.959,1.078-.462-.318h0l-.353.427-1-.561-1.133,1,.159-1.386-1.768-.914.1-.859-1.257,1.033-1.316-.666.149-.825-.656.089-.015-.556-1.242.745-.2-2.325-.894-.159,1.58-1.252-.795-1.8Z" transform="translate(-159.678 -86.711)"/>
      <path id="FR-E" class="cls-1" d="M32.191,188.94l.616.74,1.252-.03.363,1.058,1.609.457-.278.844-3.368-.5-.512-1.5Zm.477-45.611.1,1.108,2.767-1.123v1.51l1.52-.094.159.73-.815.611,2.369.765-.343,1.083,2.643,2.245-.1,1.664,2.23,1.227-.551.969.581-.243.8,1.391-.179-1.391,1.138.328,1.5-2.419,1.669-.71-.308-.7,1.058-.238.358.73,2.091-1.848.72.631-1.1,1.505.477.313L52.91,150.3l.676,1.783-.283,1.147.581-1.888.348,1.078.591-1.3.536.541-.566-1.018,2.156-.169.219,1.217.825.536-.373.338.869.864-.258,1.51.422-.954.541.184-.993-1.982.81.432-.278-.661-1.068-.224.313-.527-.735-.6.859-1.52,3.055-.9.159,1.023-.676,1.287L62.5,151.56l4.242-.944h0l1.719,4.515,1.386.874,1.391-.248,2.066-2.33,3.79,1.108h0l-.229,2.906.74,2.658-1.152,1.937.462,1.942h0l.084.079h0l1.2,6.09-2.856,1.177L73.455,177.1l-2.4-.69-.512-.889-1.868-.219.119.989-3.075,1.207-.78,1.649-4.128.03-1.957,1.138-.378-.686-2.24,1.341-.338,3.567-1.222.343-.129.969-.442-.7-1.237.551-1.108-.661-.387,1.679-1.739.144-.447-.631-.71.879h0l-.775-.06-.129-1.282,1.252-.189-1.416-.79L41.1,185.949l-1.977-2.037-1.068,0-.546-.8-.313.4-.417-.785.1.76-2.131-.065-.094,1.7.993,1.371-1.063-.134-.646-1.709.566-.472-.3-1.55-2.817-2.742-1.535-.02-.109-.76-1.808.457-1.52-2.076-3.129-.378-1-.884-2.623.437-.974-1.341.422-.74-.6.263-.735-1.6-.884.586.3.884-1.376.358-1.326-.874-.839.452-.924,1.848-3.631,0,.194-2.807-1.3-2.29-1.848-1.316-1.2.164-1.306-.884-2.156-.318.621-.139-.159-.646,6.145-1.306,2.3.546.78-1.252-1-2.285-3.05-1.083-.725.209L5.153,165l-.273-1.982.6-.452L3.862,162.4l-.139-.78,1.207-.079-.035-1.5.81-.318-.482,1.172.422.576.74-.844-.065.944,1.048-.487,1.1.676,1.878-.715.959.546.8-1.038-.536.447-1.848-.487.71-.482-.6-.283.278-.7-1.133,1.118-.9.05.407-.546-1.257.487,1.2-1.754-.487-.387-3.79,1.778-1.52-.527-.546.74-1.346.065-.363-.989.591-.651-.69-.959L.99,155.8l-.328-1.5.969-1.262,2.464-.631.094-.859.869.194.442-1.212.889.492,2.017-.5-.73-.536,1.868-.705,1.033.392,0,.964,2.076-.566-.561-.214.745-.879,1.783-.263.839.6.124-.924.939-.671.129.492.636-.487-.035,1.659.83.353.124-1.123.04.77,1.595.422-.184-.9.487-.78.224.427-.06-.576,2.961,1.033.74-.3-.3,1.157.73-.854.849.5-.035-1.694.72-.646-.74-.378L25.6,145.6l-.412-.343.666.452,1.038-1.49.268.591.224-.536.437.686.641-.164-.263.71.879-.065,1.609-1.192,1.172.124.81-1.043Z" transform="translate(0 -71.955)"/>
      <path id="FR-F" class="cls-1" d="M231.454,138.794l1.277,1.565-.358.631,1.083.964-.348,2.449.934.447-1.028,1.371.725.437-.209.74,1.316,1.585,1.008-.01-.124,1.162,1.609.73-.233,1.252.532,1.446,1.406.815,1.247-.517-.05,1.58,1.023.139.219,1.177-.626,1.639.3.676,3.939-.323-.243-.541.611.144.447-1.013.879.378-.01,1.033,1.1-.427h0l.109-.2h0l.492-.437.646.78.934-.243.4,1.729,1.927,1.043.01,1.808-.71.075-.815,1.257,2.384-.527,3.015.541,1-.676-.368-.661.546.412.745-.472.422,1.2.964-.81,1.46-.214h0l1.908.919-.278.532.407-.03.288,1.346,1.545,1.336-.522.318.591,1.436-.686.8h0l-.124.1h0l-1.639,1.143-.278,1.192.76.536-.149,1.927-3.582.9-.079,1.237.631-.1.984,1.177.561,1.123-.348,1.411.825.9-2.389.681h0V181.7h0l-.258.383,1.7,3.04-1.3,3.025,2.35,2.325,1.008,4.252-.263,1.719,1.237,1.222.035,2.052-.621,1.451.407,1.679-.78,1.709h0l-2.28.06-1.535,2.017-.984-.273-.775.536-.934-.849-.293.8-1.595.849.075.949-.472-.382-.72.373.532.591-.606.914.77.427.224,1.232-1.609,1.023-1.023-.4-2.6.477-.775,1.376-.512,0-.368,1.505h0l-1.729-.258-2.23.551-2.26-.989-2.881.517-1.157-.919-.73.189.258.74-.641,1.048-.894-.839-1.177.9-.392-.993-1.331.859-.392-1.018-2.28,2.4-1.267-1.6-.84.144-.2.7-1.754.169-.194-.725-.641.154h0l.378-.5h0l.318-.954-1.262-.442-.134-1.749-1.058-.879-1.51.015-.109-.919-2.141-1.023-.373-.844.725-1.937-.3-.984-2.012-1.868-.387-1.818-1.893-1.609-.263-2.126-1.525-1.018-1.028.045.631,1.475-1.912-.05-1.381.884-1.51-.6-.859.566-.666-1.808.442-.238-.2-1.595-.715.258-.477-.874-1.376.378.447-.984-.378-.715-.407.427-.561-.189.109-.536-1.237.179-.541-1.356h0l.472-3.557,2.166-3.035-.606-.536,1.416-3.065.094-.825-.661-.363.82-1.749h0l-.025-.258h0l3.125,1.063.4-.253-.795-1.252.387-.73,1.361.745.3-.785,2.722-.825.472-.646-.477.144-.209-.9.844-1.038,1.545-.462-.189-.5,1.57-1.5-.169-2.1.6-.343.442.72.084-1.341.69-.243-.626-1.411.487-1.341-.929-.229-.074-1.028,1.018-.074.045-.681-.656-.144.571-.134.2-.909,1.336-.169-2.434-1.709h0l.671-.6-.869-1.46.373-.869-1.048-.328.3-.705,2.971-1.56,1.277-2.1-.825-1.123.631-1.46-3.04-2.747-.07-1.8h0l.993-.551.263-.864,2.32-.308h.427l1.108-1.028,1.073.368.129-1.336,2.081.979,2.265-.1.825-.621-.214-1.664,2.027-1.172-.253-1.614Z" transform="translate(-101.32 -69.681)"/>
      <path id="FR-G" class="cls-1" d="M369.729,60.856l1.252.561-.591.546.089,1.018-.432-.437-.641,1.172.437.864L368.78,66.8l2.037,1.893-.849,1.366.571,1.5-.477.849,2.966-.224,2.042,1.187,1.485,2.211L378.7,75.5l1.262,1.331-.363,1.356.7-.626.989.457h0l-2.752,2.369-.566-.874-1.47.2-.417-.879-.636-.05-.462,1.58h0l-.035.189h0l-.606,1.133,1.073,1.351.084,1.217-.79.532.5.77-.974.343-.6,1.813.646.507-.119.621-2.052,1.167.844.884-1.088.76,1.341,3.651-.8,1.48.894-.442.571.378-.045.954-.82.293.929.313-.477,1.083-1.609.666h0l-.089.089h0l-.442,1.465.517.8-.964,1.371,2.464,1.768-.224,3.939,1.2-.527.288,1.133.989.015,1.912,2.086,2.394.581,2.9,2.677-1.56.989,1,.368-.313,1.485,1.083-.77.934.258,1.326,2.285.467-.551.869.74-.253.81.949.238.874,1.118-1.013.576-.2,2.191-.879.705,1.416.268.527,1.008,1.128.318.224,2.484,1.227-.71.78,1.525h0l-.01.79-.7-.194-.591,1.083.124.576-1.386-.224-.392,1.207-1.043-.025-.308,1.277.676.989-.373,1.9-1.937.382-.606-1.078-.864,1.053-2.374-.045-.785,2.131h0l-.353.427-1-.561-1.133,1,.159-1.386-1.768-.914.1-.859-1.257,1.033-1.316-.666.149-.825-.656.089-.015-.556-1.242.745-.2-2.325-.894-.159,1.58-1.252-.795-1.8H371.9l-.77-1.674-.7.1-.184.656-.6-.383.7-.969-.407-.621-1.257-.055.507-.8-.333-.532-1.917-.551-2.5-.159-.879.7.383,1.182-4.953.209-.447,1.118-.993-.159-.378-1.287-.651.144.154.795-.725-.556h0l-.258.139h0l-.919.894-1.033-.606-.318.631-.83-.532-2.26.407.383-1.55-.387-.671-.3.7-.586-.129-.258-.641.676-.343-1.023-.894-.641-2.27-1.063-.452.179-1.028-.7-.258.174.556-1.147.5-.76-1.54-1.063.164.874-1.267-.427-.214.378-1.118-.859-.472.2-.512-1.724-2.042-.77-.3-.79.546-.288-.979h0l-.651-2.787,1.123-.333-.646-1.162,1.535-.427-.333-.894,1.013-.6-.253-.462,1.2-.368-.81-.507.288-.417-1.714.348.353-3.2-1.52-.631,1.008-.993-.825-.571,1.729-.164-.04-1.192h0l.884-1.873.874-.079.07-.775.606-.109-.268-.541,1.808-1.689-.556-.909-1.351.194.035-.73,1.058-.532-.77-1.331.442-.969,1.709.258.894-.522.015-.7-.705.134-.328-.944-.343.308-.586-.5.5-.69-.681-2.484,2.737-1.351,1.515.363.089-1.118,1.406-.84.74.929,1.59.541.03-2.469.631-.229-.561-1.942.785-.561-.611-.646.581-.835-1.123-1.614.363-.5,1.525.149.233-1.431,1.212-.666,1.336-1.848-.9-.73L357.727,70l.05-1.138-.785-.313.3-1.441h0l1.6-.333,2.812,1.013,3.125-1.575,1.952-.283-.263-2.26.457-.924,2.518-2.35Z" transform="translate(-170.845 -30.226)"/>
      <path id="FR-H" class="cls-1" d="M558.728,531.731l.6-1.331,1.406-.144.889-1.123-2.141-.73-.631.4-.139-1.137-1.4.541-.05-.487-.944-.035,1.48-.993-.383-.71,1.232-.258.243-.576-.676-.348.775-.149-.2-.894.507-.348-1.133-1.048-.6.7-2.295.392.318-1.138-.631-.835,1.152-.094.243-1.212,1.8-1.028-.979-1.734-.84.328-.974-.949-.646.184.089-.651-.571.164.74-.626-.671-.089.412-.949-.844-.884,3.194-.815-.71-.993-1.152-.089.219-1.227-1.282.442-.169-1.147,1.326-.313-.07-.83,1.023.03-.139-.755.651-.74-.641-.268.368-1.033,1.108-.268-.288-1.232.4-.422.035.651.571-.283.7.5.273-1.361,1.336-.164,1.346-1.068,1.709.149.934-.561-.055-.984,1.381-.984,2-.1,1.585,1.639.949-1.659-.05-1.649-.681-1.068.636-.914-.377-.959.81-.676-.437-1.962,1.714-.487.834.7.606,5.037-.969,3.686,1.788,3.547.536,9.811-.194,2.548-2.831,4.148-.522,8.474-.909.368.258.422-.959-.323-.606.884.184.586.631-.825,1.053.293-.532.969-1.436.785.1,1.818-1.142.6-.288.8,1.162-.407-.124.4-.795,1.3-.849.065-.472-.77-1.311-.05.561-1.192-1.043-.179.194-1.008-.825.671-.844-.914-.313.442-1.3-.417-.909-.964-.69.179.228-.8-1.371-.243.353-.527-.606-.5Z" transform="translate(-278.592 -247.597)"/>
      <path id="FR-I" class="cls-1" d="M430.49,199.16l1-1.58.561.283-.666.924.447.07,1.1-.631.765-1.446,1.967-.487h0l.05.035h0l.229,1.59,1.143.9h0v.159h0l3.815-.879.949.581.884,1.724,2.578-1.853.884,1.292,3.9,2.514h0l.621,1.207,1.525.353,1.992,1.47.194,1.56-.835,2.121,1.664.283,1.177,2.076-.219.661h0l-3.085.273.387,1.232-1.272.631-1.262,2.434,2.831-.611.671.323.139.864-.934.278-.283.909-1.1.229L452.56,220l-2.35,2.146.363.214-.412.477-2.807,2.022.338.939-2.022,1.749-2.568.561-1.341,1.391.666,1.177-.685,2.3.442,1.118-7.049,5.941.954.939-1.734,2.464-.164,1.391h0l-4.024,4.505-2.975.114-.238-1.441-1.386-.442-.075-.611-2.146,2.265-1.346.124.035-1.525-.79.005-.263-.969-.422,1.113-.874-1.778.323-.358-1.6-.919.318-.989h0l.194-.5,1.922-.412.079-.76-1.272-.517-.025-1.272.949-.581-.174-.859.939-.815-.954-1.416-.055-1.3-.661-.04.631-1.217-1.316-1.351,2.856-.755-1.3-.839-.07-.72-1.441.149-.725-1.57-.616.328-.2-1.49,1.316-1.048-.884-.417.174-.676,2.086-1,1.118-1.883h0l-.01-.154h0l1.013-4.2.646-.442-.959-.4h-.07l.541-.745-.238-1.585h0l-.079-.05h0l-.854.06h-.129l.134-1.758-1.48-.427.849-.387-.422-.119.238-.541,1.018.04,1-1.758-1.152-2.275-.959,1.078-.462-.318h0l.785-2.131,2.374.045.864-1.053.606,1.078,1.937-.382.373-1.9-.676-.989.308-1.277,1.043.025.392-1.207,1.386.224-.124-.576.591-1.083.7.194Z" transform="translate(-209.958 -98.618)"/>
      <path id="FR-J" class="cls-1" d="M264.746,120.4l.745.238-.258.924h0l.189,0h0l.373.611,1.008-.308,1.644.71,2.449-.412,1.629-1.083,1.848,1.47.989-.5.3.884,1.083-.268.581-.839.9,1.207.358-.368,1.341.412-.119.407.531-.233.9.725-.278.358.864.2.417-.775.641,1.4,1.018-.9,2.086,1.49,1.53-1.128.9.83,2.414-.666.387.641.442-.641,1.187.2.07-1,1.411.343L295.4,126.1l-.482,1.187,1.729,1.247.273,1.053.83-.308.5,1.272.795-.636.318,1.763,1.292.363.318.71.5-.457h0l.04,1.192-1.729.164.825.571-1.008.993,1.52.631-.353,3.2,1.714-.348-.288.417.81.507-1.2.368.253.462-1.013.6.333.894-1.535.427.646,1.162-1.123.333.651,2.787h0l-.795-.3-.229.854-.6.079-4.024-.089-.765.735-1.157-.323-.661,1.679.661,1.709-.884,1.321-1.381.725,0,.626h0l-1.46.214-.964.81-.422-1.2-.745.472-.546-.412.368.661-1,.676-3.015-.541-2.384.527.815-1.257.71-.075-.01-1.808-1.927-1.043-.4-1.729-.934.243-.646-.78-.492.437h0l-.109.2h0l-1.1.427.01-1.033-.879-.378-.447,1.013-.611-.144.243.541-3.939.323-.3-.676.626-1.639-.219-1.177-1.023-.139.05-1.58-1.247.517-1.406-.815-.531-1.446.233-1.252-1.609-.73.124-1.162-1.008.01-1.316-1.585.209-.74-.725-.437,1.028-1.371-.934-.447.348-2.449-1.083-.964.358-.631-1.277-1.565h0l-.179-.84.546-.358-1,.084.169-1.2-.626-1.237.83.089.437-1.093.224.507h.109l1.987-.507Z" transform="translate(-130.444 -60.426)"/>
      <path id="FR-K" class="cls-1" d="M296.115,388.956,297.3,386.9l.144-2.444.541-1.088.546.114.094-.929h.119l.457-1.1,1.242,1.192.914-.73.119-1.386.9.253,1.758-1.4.909.969.035,1.267,1.262,2.573,2.28-.477.1-1.441.75-.159.894.715-.134.8,1.585-.268.363,1.083,1,1.048.69-.219-.149.705.532.1h0l.859,4.327,1.023.681.735,2.841,1.664,1.922-.586.4.159,2.076,1.689-.507,2.628,2.057,1.426-2.106,1.356-.233.075,1.609.874.209.313-1.585,1.073-.154,2.971,2.1h0l.487,1.58.705.035.293.77-.02,3.03,1.361.452,1.2,2.191-.631.03.005.715-3.557,2.752.532.621-1.128,3.393.313,1.138-1.813-.616-1.128.283-1.227,2.081.944.328-.214.656-2.643,1.53-.412-.551.2.77-1.689.82-.219,1.118h0l-1.967-.73-.328-.661.412-.641-.661-.591-2.782.209-5.107,4.113-1.664.482-2.831,3.278.1-.492-.134.457-3.552-.581.184.6-3.313,2.692-2.027,3.274-.78,2.568.348,1.306-.656,6,.378,4.57,1.932.671-.229.939.909,1.321-1.823.258-.939-1.326-1.52.214-.412-.467-.606.72-1.614-.07-1.262,1.306-.924-.338-1.212.542-.472.512.412,1.277-1.962-.492-.959.71-.993-.2-1.013-1.48-3.631-1.242-1.142.621-.949-.219-1.445,1.7-1.421.392-1.093-.949-.606-1.967-1.1.1-1.192-1.058-1.947-.224.194-1.694.993-.517h0l1.7-.174.651-.979,1.505-.05.5-1.237,3.423-.055.268-.5-1.893-1.967-1.664.5-1.873-.686.258-.492-1.381-1.336.333-.815,2.295-.507-.129-1.659-.949-.358.487-.616,1.008.045-.765-1.287.328-.69-.9-.507.447-.492-.228-1.242-.765-.576-.522.5-.8-1.247,0,.392-1.386-.159-1.56-1.1.328-.954-.73-1.371.959-1.152-.278-.775,1.883.01-.248-1.451,1.043-1.416.874,1.316.477-.705h0l.119.01h0l1.341.333,1-.765.725,1.128,2.017-.586.914.924.139-1.351.755-.8,2.851,1.232.73-.551,3.621.134,1.247-1.108.129-1.3-1.212-1.436.621-2.658,1.535.432.725.869,3.115-1.152.333-.993,1.292-.541,1.565.457.06-4.039,3.09.6.74-.452-.288-.944.606-.9,1.629.015.3-1.575,1.714-1.416.139-.755-1.227-.924-.77.233-.447-.8-.735.288-.651-.715,1.227-.432.268-1.436.78-.323-.209-.894-3.254.293.536-1.162-1.431-.412-.184-.874-.646.368.685-1.311-.715-1.585.517-2.156-1.609-1.858.392-1.624-2.121-2.479ZM274.79,450.94l1.1.293-.5-1.108Z" transform="translate(-135.456 -190.759)"/>
      <path id="FR-L" class="cls-1" d="M236.806,293.7l.641-.154.194.725,1.754-.169.2-.7.84-.144,1.267,1.6,2.28-2.4.392,1.018,1.331-.859.392.994,1.177-.9.894.84.641-1.048-.258-.74.73-.189,1.157.919,2.881-.517,2.26.989,2.23-.551,1.729.258h0l.144,1.142.959.273-.651.864,1.292.979.472-.631.7,1.441.209-.387,1.048.477,1.724,3.706-.323,2.052,1.063,1.515.2,1.863-.974.452-.159,1.272-1.321,1.47-.656-.089h0l-.089.02h0l-1.406,1.207,2.792,3.393-.04,2-.735.04-.512,1.316,1.162,1.227-.626,3.964.839.795-.984.646-2.722-1.227.228,2.2-3.418,3.368.139,1.177.651.462-1.088.83-.134,1.6-1.535.646.914,1.7-.686.571h0l-.174-.045h0l-.82.214h0l-1.555.05-.78.636-.82-.735-2.186,1.595-1.063-.422-2.146-2.653L244.4,333.6l-.159-.507-1.858.785h0l-1.446-2.489.7-.576-2.136-.238-1.1-.949h0l.1-.015h0l.6-.656-1.267-.457,1.033-1.451-1.043-.536.194-1.446.586-.03,1.222-1.634-1.4-.681.76-.909-3.562-1.242.939-1.465-1.043-.646-.626.492-1.391-2.34-2.494.283-.586-.636-1.167,1.406-1.252-1.257.482-1.46-1.113-.83-1.4.214-.477-.641h0l1.744-1.535-.065-1.237,1.46.373.9-2.692-.308-1.441,1.446.263,1.341-1.406-.457-1.2-.835-.661-.536.412-.9-.949.422-1.356-.507-.8.765-.417-1.113-2.225,1.2-.556,1.063-1.7,2.126.248.884-2.454,1.679.447.566-1.252Z" transform="translate(-113.343 -146.563)"/>
      <path id="FR-M" class="cls-1" d="M413.279,96.376l.76,1.048.358,2.211,1.729-1.018,1.133.72.636-1.356,2.136.358.561-.77,1.321.651.651,1.391,2.012.169.318,1.346,1.237.109.646-.616.556.427.556-1.252,2.3-.661,2.593,1.709,1.321-.522,2.638,1.739-.348.6,1.262,1.157-.7.586,2.121,2.116-.189.666.591.288.134,1.063.581-.075-.248.974.556.725,2,.348.546-.869-.492-1,2.066-.318,1.962,1.013.358,2.414.984-1.306,1.192,1.113,1.833-.3.989.472.666-.9.75.01.05-.884,1.644-.382-.184.6,1.2-.134.705,2.24,2.131.76.114.606h0l-1.2,3.025-.859.77-1.749-1.128-2.6.785-.725-.382.07-.571-3.467-1-.581-2.24-.636.378-.725,3.423-.864-.159-.243.879-.715,0,.224,1.247,1.937.591.04.487.919-.109-.909.576.02.879.765.139-.224.84.994-.546.556-1.351,2.2.72-.224.447,1.356,1.267-1.49,2.345.477.924.8.075-1.778,3.348-1.1.77-2.066.1,1.421.825-.914-.179.566.9-.666,2.36.482.641-.666.78.844.591,1.3-.2.4.909-2.881,5.1.358,1.1-1.58,2.712-1.167.671-.661,2.469.358.293-.676.581.477,1.257-1.719.849h0l-3.9-2.514-.884-1.292-2.578,1.853-.884-1.724-.949-.581-3.815.879h0v-.159h0l-1.143-.9-.229-1.59h0l-.05-.035h0l-1.967.487-.765,1.446-1.1.631-.447-.07.666-.924-.561-.283-1,1.58h0l-.78-1.525-1.227.71-.224-2.484-1.128-.318L419.011,144l-1.416-.268.879-.705.2-2.191,1.013-.576-.874-1.118-.949-.238.253-.81-.869-.74-.467.551-1.326-2.285-.934-.258-1.083.77.313-1.485-1-.368,1.56-.989-2.9-2.677-2.394-.581-1.913-2.086-.988-.015-.288-1.133-1.2.527.224-3.939-2.464-1.768.964-1.371-.517-.8.442-1.465h0l.089-.089h0l1.609-.666.477-1.083-.929-.313.82-.293.045-.954-.571-.378-.894.442.8-1.48-1.341-3.651,1.088-.76-.844-.884,2.052-1.167.119-.621-.646-.507.6-1.813.974-.343-.5-.77.79-.532-.084-1.217-1.073-1.351.606-1.133h0l.035-.189h0l.462-1.58.636.05.417.879,1.47-.2.566.874,2.752-2.369h0Z" transform="translate(-202.364 -48.081)"/>
      <path id="FR-N" class="cls-1" d="M190.261,424.953l.119.079h0l.512,1.252-.859.616-.387-.869.4-.959h0l.144-.109h0Zm.606-1.7.119,1.773h0l-.343-.084h0l-.5-.477.6-.243-.079-1.068h0l.2.1Zm31.543-47.3,1.858-.785.159.507,2.076.035,2.146,2.658,1.063.422L231.9,377.2l.82.735.785-.636,1.55-.05h0l.854,1.6-.243,1.361,1.659,2.454-.864,2.663.606.025.243,1.649.69.6.263-.934,1.614-.527.656-.06.527.864,2.712-.293.323-1.1,1.252-.9-.209-.964,1.043-1.123.084-1.555L249,378.244l.77.849-.03,1.629,1.788-.536.591,2.464.666-.129.343.566-.527.368.522,2.355.924,1.023h0l2.141,2.459-.392,1.624,1.609,1.858-.517,2.156.715,1.585-.686,1.311.646-.368.184.874,1.431.412-.536,1.162,3.254-.293.209.894-.78.323-.268,1.436-1.227.432.651.715.735-.288.447.8.77-.233,1.227.924-.139.755-1.714,1.416-.3,1.575-1.629-.015-.606.9.288.944-.74.452-3.09-.6-.06,4.039-1.565-.457-1.292.541-.333.993-3.115,1.152-.725-.869-1.535-.432-.621,2.658,1.212,1.436-.129,1.3-1.247,1.108-3.621-.134-.73.551-2.851-1.232-.755.8-.139,1.351-.914-.924-2.017.586-.725-1.128-1,.765-1.341-.333h0l-.119-.01h0l-.477.705-.874-1.316-1.043,1.416.248,1.451-1.883-.01.278.775-.959,1.152.73,1.371-.328.954,1.56,1.1,1.386.159,0-.392.8,1.247.522-.5.765.576.229,1.242-.447.492.9.507-.328.69.765,1.287-1.008-.045-.487.616.949.358.129,1.659-2.295.507-.333.815,1.381,1.336-.258.492,1.873.686,1.664-.5,1.893,1.967-.268.5-3.423.055-.5,1.237-1.505.05-.651.979-1.7.174h0l.119-.383-1.376-.065.2-.745-2.817-.273-1-.815-1.455.114-.045,1.043-.83.318-1.664-3.249-2.588-.238-1.262.536-1.858-2.23-1.967.05-.487-.536-.705.462-4.5-2.032-1.018.626.229.954-.522.611.447.214-.507.571.74.795-.05.988-1.619-.407-3.606.417-1.287-.929-1.356,1.416-.715-1.182-1.719-.591-3.676,1.455-1.128-.2-.243-.705-.9-.233-.989-2.017-.566.308-2.578-1.749h0l-.293-1.9.954-.467-.139-2,.561-.894,1.664-.412-.268-1.753.969-.412.591-1.441,1.023.084-.109-1.3.492.119.661-1.465-.6-.874,1.565-1.267-.686-.735.06-2.066-1.371.974.03-1.475.979-.253-.989-2.151-.561.134-.06-1.093-1.664-.407-1.267.387-.179-.939-.666-.075-.045-.7.82-.333-.159-1.49,1.138-.854-.656-2.017.681-.05-.313-1.361.457-.3-1.1-.835,1.237-1.187,1.724.308,1.227-1.595.889.864-.571.71,1.649.939.353-.586-.422-1.277,1.47-1.152.611.825.725-1.207.81-.2,1.436.894.293-.536,2.638-.561.387-.78,1.957.025.765-.72,1.46,1.6,1.575-1.068.363-1.306.854-.1-.184-.929,1.505.487.661-.323-.179-1.063-.661-.258,1.1-.189.909-2.394-1.679-1.023.556-2.037.5-.084.432,1.118.219-.472,2.26-.114-.119-1.754-.78-.517-.01-1.763-.73-1.073.7.2,1.833-1.048-.2-.581,1.217-1.311-.124-.894,1.555-.4,1.9-1.634-.363-1.614,1.4-.437-.084-.944,1.614-1.033-.576-.924.6-.174-.581-2.23h0l-.084-.343h0l.75-.447Z" transform="translate(-93.374 -188.64)"/>
      <path id="FR-O" class="cls-1" d="M284.624,1.447l.263,1.719,1.2,1.8-.859.9.194,2.285.735,1.212,1.808.07,1.47,2.8,1.078.05,1.232,1,.949-1.942,4.093-1.237.825,2.106,1.431.765L298.6,14.4l1.078,4.327,1.744,1.073,1.47-.5.566-.864.909.313-.378,1.172,2.225-.283,1.073,1.272-.035,2.8,1.028,2.076.815-1.485,2.116-.03,1.068.81,2.528-1.033,1.068,1.55.839.238.427,1.465.611-.01-.1-.993.954.551.263.621-1.451,1.282.089,1.6-.546.949,1.48.02.621,2.042-1.446.676-.378,2.191h0l-1.152.338-2.2-.775.035-1.624-1.952,1.113-.318-.9L308.4,33.338l-1.048.512-.089.77-.939.144-1.445-.949-1.093,1.172-2.623-.6-.705.666-1.063.05L299,34.525l-1.778.671-1.614-1.321-1.649-.2-.894.561-1.048-.238-1.162.914-.129-1.823-2.28,1.078L289.134,32l-1.053-.467-.462-.035-.075,1.47-2.638-1.028.04-.859L284.425,31l-.4.924-.383-.869-.69.084-1.287,1.634-.879-.71.243-1.411,2.206-1.311-.9-1.152-.929-.134-.984.9-.541-1.043-.109.835-1.177-.507-2.489,1.237-.412-.621-.914.288-.184-1.654-2.687-1.147-.3-.373.69-.71-.373-.308-.8.631L269,24l-2.881.993-.482-.715h0l-1.808-1.56.666-4.451,1,.81-1.212-1.813-.283-5.082.084-.477.189.78.373-.512.407-2.32-.671-2.2,1.654-.487,1.724-1.9,2.6-.844-.606-.114,5.236-1.351.263.338,1.093-1.123-.228.586.636.606.343-1.192.169.382,3.06-1.048.571.412L284.266.334l.358,1.113Z" transform="translate(-132.628)"/>
      <path id="FR-P" class="cls-1" d="M118.793,88.844l.984.661.725-.378.566.869L125.325,91l-.1.735.258-.7,2.5-.353.288-.914,4.292.025.745,2.836-.536-.189-.363,1.321.01-.442-.532.1-.238,1.1,2.946,4.451-.72,2.295.969-.884.8.591.849-1.45,2.255-.238,4.332,1.53,7.451.5,2.369,1.277.74-.263.427.641,4.565-1.391,2.648-2.414,1.992-.84-2.325-.1,3.6-.055h0l.839,2.931-.606.76.576.611-.288.412,1.1-.432.432.368v.671l-1.3.5,1.525,1.187-.194,1.778.989.4-.671,1.083.392.969-1.078.71,1.659,1.162-1.316,3.249,1.426,1.043,2.017.139.616-.581.184.656.536-.184-.109.72.541.01-.556.7,3.04,2.027.328.924-.949.959.859.363.04.8.924-.015h0l.074,1.8,3.04,2.747-.631,1.46.825,1.118-1.272,2.1-2.976,1.56-.3.705,1.048.323-.373.869.869,1.46-.671.6h0l-1.232.184-1.739-2.335-.3.949-2.131-.487-.949-1.9-.209.358-1.8-.72-.2-3.189-1.679-1.739-3.224.72.258.5-1.768,1.018-.273.959-1.217-.611-1.033.705,0-2.374-1.982-.179-.556-1.664.581-.541-1.277-1.108-.864-.02.159.869-.621.9-1.028-.467-.661,1.187-.9-.8-2.335.03-.849,1.113-2.066.9-.248-1.277-.522.527-.854-.159.348.73-.954.432-.387-.909-.72.313-.651-1.366-1.311.084-.964-.641-1,.869-1.351-.586h0l-3.79-1.108-2.066,2.33-1.391.248-1.386-.874-1.719-4.515h0l1.227.447.025-.546.422.462,1.336-.626,1.485.328-1.2-.835.522-.512-1.262.636-2.509-2.861-.089-2.335-.825-.417,1.515-3.025-.452-.293.1-2.668,1.093.189-1.152-.556-.368,1.192-.447-1.2-.308-5.648.964-.094-.969-.407-.253.78-1.659-3.76-2.116-1.391-.79-4.153-.82-.959.974-1.167-.164-1.912-.551-.884-1.485-.507.268-1.629Z" transform="translate(-59.505 -44.543)"/>
      <path id="FR-Q" class="cls-1" d="M229.153,66.958l1.47-.184.074.979,5.355,4.883.457,2.29,1.068,1.674-.755-.03-1.242,2.181.353.447.934-.447-1.118,1.609.492.666-.422,1.3h-.089l1.078,1.406-.641,1.088.566.457.3-.705.636.248-.378,1.073h0l-.2.129h0l-1,1.848.531.055-.378.387.815.864.233,2.355.651.541-.308.9-.641-.83-1,.243-.114,1.038h0L234.2,98l-1.987.507h0l-.109,0h0l-.224-.507-.437,1.1-.83-.089.626,1.237-.169,1.192,1-.079-.551.358.184.84h0l-1.1.522.253,1.619-2.027,1.167.214,1.664-.825.626-2.265.1-2.086-.979-.124,1.336-1.073-.368-1.108,1.028h-.427l-2.32.3-.263.864-.993.556h0l-.924.015-.04-.8-.859-.363.949-.959-.328-.924-3.04-2.027.556-.7-.541-.01.109-.72-.536.184-.184-.656-.616.581-2.017-.139-1.426-1.043,1.316-3.249-1.659-1.162,1.078-.71-.392-.969.671-1.083-.989-.4.194-1.778L207.365,92.9l1.3-.5V91.73l-.432-.368-1.1.432.288-.412-.576-.611.606-.76-.839-2.931h0l.2-.561-.487.378-3.244-1-.984-1.262,1.783-4.3-.6-.8.651.3,1.068-1.664,2.677-1.073,5.151-3.5,3.835-.586,3.86-1.634,1.217.353,1.346-.606.209.566-.134-.626,2.211-1.053,3.775-3.055Z" transform="translate(-101.567 -33.436)"/>
      <path id="FR-R" class="cls-1" d="M99.344,209.4l.815.571-.293,1.018,1.545.78.149,1.644-1.207-1.912-1.1-.045-.8-.959-.139-1.008,1.028-.089Zm24.47-45.273,1.351.586,1-.869.964.641,1.311-.084.651,1.366.72-.313.387.909.954-.432-.348-.73.854.159.522-.527.248,1.277,2.066-.9.849-1.113,2.335-.03.9.8.661-1.187,1.028.467.621-.9-.159-.869.864.02,1.277,1.108-.581.541.556,1.664,1.982.179,0,2.374,1.033-.705,1.217.611.273-.959,1.768-1.018-.258-.5,3.224-.72,1.679,1.739.2,3.189,1.8.72.209-.358.949,1.9,2.131.487.3-.949,1.739,2.335,1.232-.184h0l2.434,1.709-1.336.169-.2.909-.576.134.656.144-.045.686-1.018.075.075,1.028.924.229-.487,1.341.626,1.411-.69.243-.084,1.341-.442-.72-.6.343.164,2.1-1.57,1.5.194.5-1.545.462-.844,1.038.209.9.477-.144-.467.646-2.727.82-.3.785-1.361-.745-.387.73.795,1.252-.4.258-3.12-1.063h0l.025.258h0l-.82,1.749.661.358-.094.83-1.416,3.06.606.541-2.166,3.035L147,205.308h0l-.735-.333-.546.452-.6,2.225-1.033-.427-.889,1.406-1.028-.487.755-1-.854-.149-.422.427-1.262-.348-2.7.437-.229.74-1.52.4.447-.849-.725-.06-1.272.586.263.954-1.138,1.073-1.47-.189-.909.581-1.5-.646-1.341,1.073-.9-.139.671.378-.3.487.626.02-.238.328,1.068.4-.477,1.088,1.147,1.351h.084l.82.551h.144l.541.353-.412.382h0l.02.124h0l-.05,1.118,1.311,1.654-.482.417.879.686-.447.81.884.437L132.909,223l.482,1.287-.9.358.81,1.957-.676,1.714.432.189.3-.666,1.371.864-2.23,2.032-1.038-.253-.5.7-2.176-1.053h0L128.7,230h0l-.387.735-.755-.278-.924.492-.611-.368.651-1.446-2.553.631-.437.969-.844.02h0l-1.768.05-.084,1.341-2.26-1.907.417,1.277-.989-1.52-2.563-.005-.964-1.833-2.772-.482-3.393-2.23-.894-3.477-1.878-2.623-4-3.731-.2-2.027.854-.074-.184-.512,1.778-1.8.1-1.217,1.043-.6-2.494-2.6-3.04-.541,1.669-1.078-.1-2.9-.83-.179-1.808,1.133L96.9,201.84l-1.157.606-2.335-.964.745-.556.06-.9L93.1,198.934l2.076-1.5.01-.74h0l.71-.879.447.631,1.739-.144.387-1.679,1.108.661,1.237-.551.442.7.129-.969,1.222-.343.338-3.567,2.24-1.341.378.686,1.957-1.138,4.128-.03.78-1.649,3.075-1.207-.119-.989,1.868.219.512.889,2.4.69,1.888-5.772,2.856-1.177-1.2-6.09h0l-.084-.079h0l-.462-1.942,1.152-1.937-.74-2.658.229-2.906Z" transform="translate(-46.712 -81.548)"/>
      <path id="FR-S" class="cls-1" d="M261.716,47.988l.293.233h0l.482.715,2.881-.993,2.136,1.585.8-.631.373.308-.69.71.3.373,2.687,1.147.184,1.654.914-.288.412.621,2.489-1.237,1.177.507.109-.835L276.8,52.9l.984-.9.929.134.9,1.152L277.408,54.6l-.243,1.411.879.71,1.287-1.634.69-.084.383.869.4-.924.522.084-.04.859,2.638,1.028.075-1.47.462.035,1.053.467-.686,2.161,2.28-1.078.129,1.823,1.162-.914,1.048.238.894-.561,1.649.2L293.6,59.14l1.778-.671.392.581,1.063-.05.705-.666,2.623.6,1.093-1.172,1.446.949.939-.144.089-.77,1.048-.512,3.249,1.033.318.9,1.952-1.113-.035,1.624,2.2.775,1.152-.338h0l1.838.656h0l-.3,1.436.785.318-.05,1.138-.974,2.817.9.73-1.336,1.843-1.217.666L313.04,71.2l-1.53-.149-.363.5,1.123,1.614-.581.835.606.646-.78.561.561,1.942-.631.229-.03,2.469-1.595-.541-.735-.924-1.406.84-.089,1.118-1.515-.363-2.732,1.351.676,2.484-.5.69.581.5.343-.313.333.949.705-.134-.015.7-.9.522-1.709-.253-.442.969.77,1.331-1.058.532-.035.73,1.351-.194.561.9L302.2,92.437l.268.536-.606.114-.07.775-.874.079-.879,1.868h0l-.5.457-.323-.71-1.292-.363-.318-1.763-.8.631-.5-1.272-.83.308-.273-1.053L293.478,90.8l.482-1.187-1.073-1.758-1.411-.343-.07,1-1.187-.2-.442.646-.387-.646-2.409.671-.9-.83-1.535,1.123-2.081-1.49-1.018.9-.641-1.4-.417.775-.864-.2.278-.358-.9-.725-.536.233.124-.407-1.341-.412-.358.363-.9-1.2-.581.84-1.083.268-.3-.884-.988.5-1.848-1.47-1.629,1.088-2.449.407-1.639-.705-1.008.308-.373-.611h0l-.189,0h0l.258-.924-.745-.238h0l.114-1.038,1-.243.641.83.308-.9-.651-.541-.233-2.355-.815-.864.378-.387-.531-.055,1-1.848h0l.2-.129h0l.378-1.073-.636-.248-.3.705-.566-.457.641-1.088-1.078-1.406h.089l.422-1.3-.492-.666,1.118-1.609-.934.447-.353-.447,1.242-2.181.755.03-1.068-1.674-.457-2.29-5.355-4.883-.075-.979-1.47.184h0l1.53-1.416,1.455-3.159.949-.313.4.954,1.47.392.6-.437-3.08-2.762.338-2.807,1.47.075Z" transform="translate(-128.984 -23.945)"/>
      <path id="FR-T" class="cls-1" d="M137.7,281.838l1.9,1.595,1.6.3.035,1.629,1.028,2.042-.919,1.778-.785-2.4-2.429-2.156-.427-2.792Zm-2.131-6.219.755.7-.964.139.4.75,1.818-.775-.546.492.293.368,1.237-.224,2.36,1.371-1.192.591-3.144-1.758-1.48,0-.581-1.237,1.048-.417Zm8.132-1.758.844-.02.437-.969,2.553-.631-.651,1.446.611.368.924-.492.755.278.387-.735h0l.089.129h0l2.176,1.053.5-.7,1.038.253,2.23-2.032-1.371-.864-.3.666-.432-.189.676-1.714-.81-1.957.9-.358-.482-1.287.268-1.381-.884-.437.447-.81-.879-.686.482-.417-1.311-1.654.05-1.118h0l-.02-.124h0l.412-.382-.541-.353h-.144l-.82-.551h-.084l-1.147-1.351.477-1.088-1.068-.4.238-.328-.626-.02.3-.487-.671-.378.9.139,1.341-1.073,1.5.646.909-.581,1.47.189,1.138-1.073-.263-.954,1.272-.586.725.06-.447.849,1.52-.4.229-.74,2.7-.437,1.262.348.422-.427.854.149-.755,1,1.028.487.889-1.406,1.033.427.6-2.225.546-.452.735.333h0l.541,1.356,1.237-.179-.109.536.561.189.407-.427.378.715-.447.984,1.376-.373.477.874.715-.258.194,1.595-.437.243.666,1.8.859-.566,1.51.6,1.386-.884,1.907.05-.626-1.475,1.028-.04,1.525,1.018.263,2.121,1.893,1.609.387,1.818,2.012,1.868.3.984-.725,1.937.373.844,2.141,1.018.114.919,1.505-.01,1.063.874.134,1.749,1.262.447-.318.949h0l-.378.5h0l-.427-.144-.566,1.252-1.674-.442-.884,2.454-2.126-.248-1.063,1.7-1.2.556,1.113,2.225-.765.417.512.8-.422,1.356.9.949.536-.412.835.661.452,1.2-1.341,1.406-1.446-.268.308,1.441-.9,2.692-1.46-.373.06,1.242-1.744,1.535h0l-1.336,2.25-1.123.015-.134,2.384-1.143.815-.358,1.108-1.053.005-1.033,1.282-.581-.507.3.661-.844.283-.591,1.694.387,2.116-1.873,1.063-.835,1.6-1.629-.611-.984.715-.561,1.1.477.348-.844.373-.149,1.207-.9-.671-1.147.934-.974-.139-1.4-.6-.442-.81-.7.139-.492-.83-.522-.1-.422.77-.368-1.118h0l-.025-.129h0l-.477-2.687-2.886-.527-.462-1.465-.169.755-2.469-.209h0l-.82-2.866-1.331-1.947-3.1-2-1.1-1.828-3.755-2.176-.561.119.238.6-.3-.6-.03-2.752,2.136-.5-.934-1.485,1.311-.169.825-1.441-.522-1.108.452-.124-.109-.879-.745-.705,1.4.01-1.008-2.732-.859-.343.293-.606-.929-.323.487-.571-1.172.353-.641-.546.77-1.426,1.858-1.436-.477-1.262.368-.432Z" transform="translate(-67.557 -124.682)"/>
      <path id="FR-U" class="cls-1" d="M390.642,390.991l.2.228h0l1.445.879h0l.015.169h0l-.984.462-.75,1.947-2.012-.338-.323-1.3.75-1.356h0l.179-.318h0l.159-.085h0l.343-.079h0l.636-.512h0l.084.219h0l.214.025h0l.04.055Zm7.233,34.375.7-1.177-.611-.71.571-.378-1.336-1.868-1.664.924-3.681.109-1.649-2.836-1.028-.194-.541.77.248-.7-.5.293-.427-1.008.343,1.252-1.018-.541.681.795-1.143.447.949-.065-.333.338.884.566.795-.691-1.659,1.5-5.246-.919-.5-.576.671-1.172-1.182-.849-6.249-.229h0l.219-1.118,1.689-.82-.2-.77.412.551,2.643-1.53.214-.656-.944-.328,1.227-2.081,1.128-.283,1.813.616-.313-1.138,1.128-3.393-.532-.621,3.557-2.752,0-.715.631-.03-1.2-2.191-1.361-.452.02-3.03-.293-.77-.705-.035-.487-1.58h0l.025-1.709,2.846.482.626,2.464,4.967-2.3,1,.864.874-.919h0l.328-.154h0l-.3,2.384,1.6.6.4-.576,1.008.7,1.177-.209.611.4-.04,1.292,1.083.1.4.929,1.783-.383,1.242-1.684.78.676-.174.5.974.119.084-.492-.815-.229.889-.705,0-2.032h-.815l-.219-.969-.591-.159.437-.785-1.679.094-.546-.591-.581.378-1.3-1.068-.233-1.446,1.192.169.432-.512-.69-.3-.134-1.48,3.219.8.3-.825.73-.065-1.381-1.2,1.048-1.957-.1-1.152,1.773.368.417-.666.83.248.844-1.068-.651-.462.581-1.535,1.152.378,1.411-.407.6-.611-.636-.676,1.406-.894.8.566,1.6-1.4,2.34.358.909-.636,1.326.551.05-2.454-.73-.422.025-1.306-2.464-.507.849-3.04,1,.363.81-.442.651,1.545,1.778.532.735-.089-.129-1.1.621-.477.646.278.75-.7,1.088.432h0l.874,2.633,1.46.164.139,3.164,2.32,1.6.964.184.522-.526,1.788,1.123-.467.994,1.57,3.06-2.35.174.109,1.664-2.315,2.6.467,1.391,1.451,1.451L429.83,391l-.109,1.7,2.211,2.365.248,1.272,3.721.989,1.893,1.734,1.311-.154.3.884,1.386.089.124-.522,3.875-.551.378-.78.974.06-.363,1.247.993,1.351-.189,1.192-.879.392-.219,1.555-1.758.924-.179,1.306-1.262.666.715,2.573-2.563,1.813-1.386.184-.119,1.033-.368-.864-.224.6-1.282-.109-.686,1.093-1.073-.07-.725,1.878.482.989-.5.288-.472-.825-1.232,1.013-.462-.452-1.1.253-.532.795.407.482-1.346,1.927-2.1.571-.909-.4-.591,2.116-2.921,2.136,2.528.159-.661.671.328,1.222-.81.368.1.536-.536.268-1.227-.879-1.336,1.078-2.31.184-.422,1.634L417.109,428l-1.8.174-.755,1.4.1,1.083-1.237-.06.705-.432-.1-.984-2.126.03-.407-.78-1.52.1-.1-.631-.825.626,1.371.969-1.167-.308-.656.909-.641-.089-.73-.532.313-1.306-.859-.025.114-.641-1.59-.134-.189-1.018-1.331-.189-.368.75-1.411-1.535-.755.5-3.274-.507Z" transform="translate(-188.555 -186.366)"/>
      <path id="FR-V" class="cls-1" d="M356.816,295.056l-.179,1.828,1.7.348.343.994,2.34-.874,1.555.74.606-.611.373.5.586-.293-.094.859.527.07,2.007-.879.681-3.269,1.093-.04.934.879,1.326-.78,1.028.845.392-1.058.879-.154.636.82-.641.586,1.167.76-.343,1.147.8.666.442-.124,3.323-10.188.2.527.69-.417,1.5.919,2.265-.6.025-.452.79.4.606,1.421,1.619.348h0l-.318.988,1.6.919-.328.358.874,1.778.422-1.113.263.969.79,0-.03,1.525,1.346-.124L392.761,293l.075.611,1.386.442.238,1.441,2.975-.114,4.029-4.5h0l2.171,1.465-1.4,2.439.462,1.013-2.975,1.023-.318.6.621.447-.765,1.575,1.947-.7,1.575.358,3.442-2.533.293-.919-1.008.139-.263-1.55-.566-.248.661-1.436,5.5-2.891,3.363.07,2.846.82-1.018,2.136,1.937,2.215-1.252,2.275-.144,1.962,2.091.387-.472,2.26,1.217-.482,2.116,3.269.134.919-.984,1.52-1.719.924-1.912.114-.273,3.283,2.23,2.176,1.744.348-.472,1.525.477,2.434,1.123.3-.109.656,1.043.075.3,1.068,1.5.8-1.59,2.295.512,2.091-1.346,1.292-1.411-.243-1.157,1.475-1.083.04,0,.924-.909.278-1.674-.944-2.817,1.446h0l-1.088-.432-.75.7-.646-.278-.621.477.129,1.1-.735.089-1.778-.531-.651-1.545-.81.442-1-.363-.849,3.04,2.464.507-.025,1.306.73.422-.05,2.454-1.326-.551-.909.636-2.34-.358-1.6,1.4-.8-.566-1.406.894.636.676-.6.611-1.411.407-1.152-.378-.581,1.535.651.462-.844,1.068-.83-.248-.417.666-1.773-.368.1,1.152-1.048,1.957,1.381,1.2-.73.065-.3.825-3.219-.8.134,1.48.69.3-.432.512-1.192-.169.233,1.446,1.3,1.068.581-.378.546.591,1.679-.094-.437.785.591.159.219.969h.815l0,2.032-.889.705.815.228-.084.492-.974-.119.174-.5-.78-.676-1.242,1.684-1.783.382-.4-.929-1.083-.1.04-1.292-.611-.4-1.177.209-1.008-.7-.4.576-1.6-.6.3-2.384h0l-.328.154h0l-.874.919-1-.864-4.967,2.3-.626-2.464L372.3,351.9l-.025,1.709h0l-2.971-2.1-1.073.154-.313,1.585-.874-.209-.075-1.609-1.356.233-1.426,2.106-2.628-2.057-1.689.507-.159-2.076.586-.4-1.664-1.922-.735-2.841-1.023-.681-.859-4.327h0l1.282-.705.531-1.689.8.442-.119-.616.363.378.581-.4.134-1.123,2.514-.025,1.406-2.618,1.833-.288-.358-1.346,1.719-.5-.681-1.162.507-.869.566.04h0v-.263h0l-.517-.869,1.008.219.263.77.447-.263-.2-1.217.889-1.813-1.128-1.52-.993.541-.795-.541.447-.785-.81-.477.74-.541-.676-.934-1.287.3-.8-.909-1.128-.1-.69.253.184.561-1.5.194-.209.656-1.038-.387-.05.621-.676-1.282-.775-.124-.894,1.227-.313-1.783,1.53-1.192.442-1.754-1.053-2.419-2.27-1.57-.969-1.753.074-.989-1.893-1.952.69-.661-.144-1.669.81-.472-1.272-1.3.159-1.162,1.783-.109.894-.765-.531-1.6.333-1.043-.586-.69.323-1.515-.84-2.265,2.394-1.033h0l.179-.025h0l.159-.015ZM378,349.579h0l-.159.084h0l-.179.318h0l-.75,1.356.323,1.3,2.012.338.75-1.947.984-.462h0l-.015-.169h0l-1.446-.879h0l-.248-.288h0l-.214-.025h0l-.084-.219h0l-.636.512Z" transform="translate(-177.237 -144.671)"/>
    </g>
    <circle id="Ellipse_12" data-name="Ellipse 12" class="cls-2" cx="4.5" cy="4.5" r="4.5" transform="translate(97 1909)"/>
    <text id="Nantes" class="cls-3" transform="translate(125 1917)"><tspan x="-16.665" y="0">Nantes</tspan></text>
  </g>
</svg>
