<svg xmlns="http://www.w3.org/2000/svg" width="31.734" height="24.383" viewBox="0 0 31.734 24.383">
  <defs>
    <style>
      .cls-1 {
        fill: #fff;
      }
    </style>
  </defs>
  <g id="Menu" transform="translate(-4.5 -10.125)">
    <path id="Tracé_1" data-name="Tracé 1" class="cls-1" d="M34.912,13.242H5.822A1.459,1.459,0,0,1,4.5,11.684h0a1.459,1.459,0,0,1,1.322-1.559h29.09a1.459,1.459,0,0,1,1.322,1.559h0A1.459,1.459,0,0,1,34.912,13.242Z"/>
    <path id="Tracé_2" data-name="Tracé 2" class="cls-1" d="M34.912,19.992H5.822A1.459,1.459,0,0,1,4.5,18.434h0a1.459,1.459,0,0,1,1.322-1.559h29.09a1.459,1.459,0,0,1,1.322,1.559h0A1.459,1.459,0,0,1,34.912,19.992Z" transform="translate(0 3.883)"/>
    <path id="Tracé_3" data-name="Tracé 3" class="cls-1" d="M34.912,26.742H5.822A1.459,1.459,0,0,1,4.5,25.184h0a1.459,1.459,0,0,1,1.322-1.559h29.09a1.459,1.459,0,0,1,1.322,1.559h0A1.459,1.459,0,0,1,34.912,26.742Z" transform="translate(0 7.766)"/>
  </g>
</svg>
