<svg xmlns="http://www.w3.org/2000/svg" xmlns:xlink="http://www.w3.org/1999/xlink" width="65" height="65" viewBox="0 0 65 65">
  <defs>
    <style>
      .cls-1 {
        fill: #fff;
      }

      .cls-2 {
        fill: #03b898;
      }

      .cls-3 {
        filter: url(#Rectangle_110);
      }
    </style>
    <filter id="Rectangle_110" x="0" y="0" width="65" height="65" filterUnits="userSpaceOnUse">
      <feOffset dy="3" input="SourceAlpha"/>
      <feGaussianBlur stdDeviation="3" result="blur"/>
      <feFlood flood-opacity="0.161"/>
      <feComposite operator="in" in2="blur"/>
      <feComposite in="SourceGraphic"/>
    </filter>
  </defs>
  <g id="Menu" transform="translate(9 6.38)">
    <g class="cls-3" transform="matrix(1, 0, 0, 1, -9, -6.38)">
      <rect id="Rectangle_110-2" data-name="Rectangle 110" class="cls-1" width="47" height="47" rx="10" transform="translate(9 6)"/>
    </g>
    <path id="Tracé_1" data-name="Tracé 1" class="cls-2" d="M28.531,12.588H5.545A1.153,1.153,0,0,1,4.5,11.357h0a1.153,1.153,0,0,1,1.045-1.232H28.531a1.153,1.153,0,0,1,1.045,1.232h0A1.153,1.153,0,0,1,28.531,12.588Z" transform="translate(6.562 3.308)"/>
    <path id="Tracé_2" data-name="Tracé 2" class="cls-2" d="M28.531,19.338H5.545A1.153,1.153,0,0,1,4.5,18.107h0a1.153,1.153,0,0,1,1.045-1.232H28.531a1.153,1.153,0,0,1,1.045,1.232h0A1.153,1.153,0,0,1,28.531,19.338Z" transform="translate(6.562 4.96)"/>
    <path id="Tracé_3" data-name="Tracé 3" class="cls-2" d="M28.531,26.088H5.545A1.153,1.153,0,0,1,4.5,24.857h0a1.153,1.153,0,0,1,1.045-1.232H28.531a1.153,1.153,0,0,1,1.045,1.232h0A1.153,1.153,0,0,1,28.531,26.088Z" transform="translate(6.562 6.611)"/>
  </g>
</svg>
