<svg xmlns="http://www.w3.org/2000/svg" width="24" height="24" viewBox="0 0 24 24">
  <defs>
    <style>
      .cls-1 {
        fill: #fff;
      }

      .cls-2 {
        fill: #03b898;
      }
    </style>
  </defs>
  <g id="Twitter" transform="translate(-159 -4343)">
    <circle id="Ellipse_42" data-name="Ellipse 42" class="cls-1" cx="12" cy="12" r="12" transform="translate(159 4343)"/>
    <path id="Icon_awesome-twitter" data-name="Icon awesome-twitter" class="cls-2" d="M14.351,6.618c.01.142.01.284.01.426a9.263,9.263,0,0,1-9.327,9.327A9.264,9.264,0,0,1,0,14.9a6.781,6.781,0,0,0,.792.041,6.565,6.565,0,0,0,4.07-1.4A3.284,3.284,0,0,1,1.8,11.267a4.134,4.134,0,0,0,.619.051,3.467,3.467,0,0,0,.863-.112A3.279,3.279,0,0,1,.65,7.988V7.948a3.3,3.3,0,0,0,1.482.416A3.283,3.283,0,0,1,1.116,3.98,9.318,9.318,0,0,0,7.876,7.41a3.7,3.7,0,0,1-.081-.751,3.281,3.281,0,0,1,5.673-2.243,6.454,6.454,0,0,0,2.081-.792,3.269,3.269,0,0,1-1.441,1.807,6.572,6.572,0,0,0,1.888-.507,7.047,7.047,0,0,1-1.644,1.695Z" transform="translate(163.152 4345.176)"/>
  </g>
</svg>
