<svg id="up-btn" xmlns="http://www.w3.org/2000/svg" width="37" height="37" viewBox="0 0 37 37">
  <defs>
    <style>
      .cls-1 {
        fill: #03b898;
      }

      .cls-2 {
        fill: #fff;
      }
    </style>
  </defs>
  <rect id="Rectangle_108" data-name="Rectangle 108" class="cls-1" width="37" height="37" rx="8"/>
  <path id="Icon_awesome-hand-point-up" data-name="Icon awesome-hand-point-up" class="cls-2" d="M5.741,0A1.908,1.908,0,0,1,7.6,1.9V6.122a2.082,2.082,0,0,1,3,.267,1.939,1.939,0,0,1,2.637.7c2.08-.38,3.016.929,3.016,3.072,0,.116-.009.562-.008.677.007,2.623-1.315,3.254-1.622,5.236a1.015,1.015,0,0,1-1,.858H6.359a2.031,2.031,0,0,1-1.856-1.2c-.55-1.222-2.075-4.038-3.272-4.551A1.8,1.8,0,0,1,0,9.48,2.033,2.033,0,0,1,2.832,7.613a5.752,5.752,0,0,1,1.055.6V1.9A1.939,1.939,0,0,1,5.741,0Zm.015,17.605h8.126A1.016,1.016,0,0,1,14.9,18.621v2.031a1.016,1.016,0,0,1-1.016,1.016H5.756A1.016,1.016,0,0,1,4.74,20.652V18.621A1.016,1.016,0,0,1,5.756,17.605Zm7.11,1.185a.846.846,0,1,0,.846.846A.846.846,0,0,0,12.865,18.79Z" transform="translate(10.412 7.375)"/>
</svg>
