<svg xmlns="http://www.w3.org/2000/svg" width="38.957" height="36.138" viewBox="0 0 38.957 36.138">
  <defs>
    <style>
      .cls-1 {
        fill: #e6e7e8;
      }

      .cls-2 {
        fill: #fff;
      }

      .cls-3 {
        fill: #d1d3d4;
      }

      .cls-4 {
        fill: #231f20;
      }

      .cls-5 {
        fill: #03b898;
      }
    </style>
  </defs>
  <g id="web_developer" transform="translate(-81.19 -39.301)">
    <ellipse id="Ellipse_16" data-name="Ellipse 16" class="cls-1" cx="14.569" cy="1.189" rx="14.569" ry="1.189" transform="translate(81.19 73.06)"/>
    <rect id="Rectangle_15" data-name="Rectangle 15" class="cls-2" width="10.359" height="8.44" transform="translate(109.706 63.083)"/>
    <path id="Tracé_183" data-name="Tracé 183" class="cls-3" d="M265.431,192.775H255.072a.082.082,0,0,1-.082-.082v-8.442a.082.082,0,0,1,.082-.082h10.359a.083.083,0,0,1,.082.082v8.442A.083.083,0,0,1,265.431,192.775Zm-10.277-.164h10.2v-8.278H255.155Z" transform="translate(-145.366 -121.168)"/>
    <path id="Tracé_184" data-name="Tracé 184" class="cls-3" d="M265.431,190.964H255.072a.082.082,0,1,1,0-.164h10.359a.082.082,0,0,1,.082.082A.083.083,0,0,1,265.431,190.964Z" transform="translate(-145.366 -126.714)"/>
    <path id="Tracé_185" data-name="Tracé 185" class="cls-2" d="M134.767,47.732a1.145,1.145,0,0,1-.959-1.873,1.756,1.756,0,0,1-.91-1.713,3.23,3.23,0,0,1,.859-1.836,2.573,2.573,0,0,1,1.4-.924.916.916,0,0,0,.3-.085.78.78,0,0,0,.193-.195,3.417,3.417,0,0,1,1.538-1.207,1.688,1.688,0,0,1,1.818.422,1.374,1.374,0,0,1,2.264,1.211,2.367,2.367,0,0,1,1.917,1.647,2.024,2.024,0,0,1-.957,2.279c-.092.047-.2.11-.2.211a.306.306,0,0,0,.079.164,1.032,1.032,0,0,1-.164,1.224,2.9,2.9,0,0,1-1.145.672.641.641,0,0,1,.126.726,1.368,1.368,0,0,1-.543.569,5.614,5.614,0,0,1-3.054.425,3.543,3.543,0,0,1-2.5-1.261C134.711,48.059,134.615,47.824,134.767,47.732Z" transform="translate(-43.245 -0.418)"/>
    <path id="Tracé_186" data-name="Tracé 186" class="cls-4" d="M138.038,49.125h-.478c-.213,0-.435-.01-.645,0a3.6,3.6,0,0,1-2.562-1.288.561.561,0,0,1-.164-.411.059.059,0,0,1,0-.018,1.22,1.22,0,0,1-.926-1.94,1.854,1.854,0,0,1-.867-1.746,3.24,3.24,0,0,1,.879-1.885,2.608,2.608,0,0,1,1.443-.951l.056-.01a.468.468,0,0,0,.386-.232,3.469,3.469,0,0,1,1.582-1.242,1.794,1.794,0,0,1,1.854.384,1.458,1.458,0,0,1,2.344,1.263,2.454,2.454,0,0,1,1.908,1.688,2.11,2.11,0,0,1-1,2.374c-.082.041-.155.087-.154.136a.215.215,0,0,0,.047.092l.015.021a1.1,1.1,0,0,1-.177,1.324,2.827,2.827,0,0,1-1.057.654.762.762,0,0,1,.062.735,1.414,1.414,0,0,1-.568.6A3.507,3.507,0,0,1,138.038,49.125Zm-.941-.177h.466a4.063,4.063,0,0,0,2.359-.417,1.261,1.261,0,0,0,.512-.533.558.558,0,0,0-.106-.638.082.082,0,0,1-.028-.075.083.083,0,0,1,.051-.064,2.841,2.841,0,0,0,1.108-.654.941.941,0,0,0,.164-1.121l-.015-.018a.327.327,0,0,1-.079-.183c0-.164.155-.242.242-.286a1.943,1.943,0,0,0,.916-2.186,2.29,2.29,0,0,0-1.852-1.577.082.082,0,0,1-.069-.092,1.3,1.3,0,0,0-2.127-1.145.08.08,0,0,1-.061.02.078.078,0,0,1-.056-.029,1.6,1.6,0,0,0-1.728-.394,3.3,3.3,0,0,0-1.5,1.18.834.834,0,0,1-.214.214.761.761,0,0,1-.278.085l-.052.01a2.465,2.465,0,0,0-1.351.9,3.091,3.091,0,0,0-.838,1.788,1.671,1.671,0,0,0,.862,1.636.083.083,0,0,1,.046.056.082.082,0,0,1-.018.07,1.058,1.058,0,0,0,.89,1.739.08.08,0,0,1,.085.057.082.082,0,0,1-.036.095.07.07,0,0,0-.036.056.4.4,0,0,0,.121.276,3.423,3.423,0,0,0,2.436,1.234Z" transform="translate(-42.825 0)"/>
    <path id="Tracé_187" data-name="Tracé 187" class="cls-2" d="M206.811,234.73a15.433,15.433,0,0,1,4.475.952c1.307.649,1.59.7,1.325,1.577s-2.567,1.093-4.319.762a11.822,11.822,0,0,1-3.231-1.175Z" transform="translate(-103.605 -163.457)"/>
    <path id="Tracé_188" data-name="Tracé 188" class="cls-4" d="M209.561,237.862a8.915,8.915,0,0,1-1.665-.164,11.956,11.956,0,0,1-3.254-1.181.082.082,0,0,1-.038-.052.074.074,0,0,1,.016-.061l1.751-2.117a.069.069,0,0,1,.056-.028h.016a15.1,15.1,0,0,1,4.492.96l.294.146c1.049.514,1.332.654,1.07,1.521C212.135,237.437,211.058,237.862,209.561,237.862Zm-4.767-1.432a11.835,11.835,0,0,0,3.13,1.124c1.759.327,3.99.095,4.234-.71.224-.746.062-.826-.993-1.343l-.294-.146a15.247,15.247,0,0,0-4.407-.946Z" transform="translate(-103.223 -163.063)"/>
    <path id="Tracé_189" data-name="Tracé 189" class="cls-2" d="M210.61,234.68a1.008,1.008,0,0,1,.754,1.145c-.123.931-2.091.97-2.2.982A25.437,25.437,0,0,1,210.61,234.68Z" transform="translate(-107.029 -163.415)"/>
    <path id="Tracé_190" data-name="Tracé 190" class="cls-4" d="M208.787,236.445a.087.087,0,0,1-.072-.043c-.025-.049-.064-.124,1.461-2.187a.074.074,0,0,1,.079-.028,1.1,1.1,0,0,1,.818,1.22c-.124.947-1.917,1.031-2.276,1.037Zm1.472-2.1c-.479.654-1.193,1.636-1.371,1.947.448-.021,1.922-.147,2.022-.9a.916.916,0,0,0-.645-1.036Z" transform="translate(-106.656 -163.001)"/>
    <path id="Tracé_191" data-name="Tracé 191" class="cls-2" d="M93.728,236.47c-.057.029-.592.725-2.925,1s-3.2.78-3.719-.445-.164-2.017.982-2.367,4.317-.64,4.939-.054A3.4,3.4,0,0,1,93.728,236.47Z" transform="translate(-4.735 -163.073)"/>
    <path id="Tracé_192" data-name="Tracé 192" class="cls-4" d="M87.863,237.527a1.168,1.168,0,0,1-1.22-.831,1.978,1.978,0,0,1-.115-1.61,1.729,1.729,0,0,1,1.145-.857c1.076-.327,4.347-.664,5.011-.038a3.41,3.41,0,0,1,.743,1.911.079.079,0,0,1-.036.07l-.023.02a5.743,5.743,0,0,1-2.932.993c-.5.061-.934.131-1.309.193A8.615,8.615,0,0,1,87.863,237.527Zm3.02-3.544a12.894,12.894,0,0,0-3.162.388,1.59,1.59,0,0,0-1.057.779,1.825,1.825,0,0,0,.116,1.487c.384.908.952.818,2.32.594.383-.062.818-.133,1.322-.193a5.628,5.628,0,0,0,2.85-.957h0a3.279,3.279,0,0,0-.692-1.777A2.929,2.929,0,0,0,90.883,233.983Z" transform="translate(-4.361 -162.712)"/>
    <path id="Tracé_193" data-name="Tracé 193" class="cls-2" d="M117.38,236s-1.059.883-1.764.779-1.68-.491-1.288-1.252,2.92-1.219,2.92-1.219Z" transform="translate(-27.642 -163.105)"/>
    <path id="Tracé_194" data-name="Tracé 194" class="cls-4" d="M115.355,236.482a.888.888,0,0,1-.133-.01,1.9,1.9,0,0,1-1.371-.705.684.684,0,0,1,.028-.654c.406-.789,2.87-1.238,2.974-1.258a.075.075,0,0,1,.059.015.079.079,0,0,1,.029.054l.131,1.69a.077.077,0,0,1-.026.064A3.5,3.5,0,0,1,115.355,236.482Zm1.445-2.464c-.434.085-2.454.515-2.781,1.163a.538.538,0,0,0-.029.519,1.777,1.777,0,0,0,1.261.625c.6.09,1.5-.6,1.675-.738Z" transform="translate(-27.259 -162.723)"/>
    <path id="Tracé_195" data-name="Tracé 195" class="cls-4" d="M141.585,190.909s-1.116,4.352-5.188,5.183-6.179.612-7.622-2.137-.491-4.43-.491-4.43l12.851-.255Z" transform="translate(-39.132 -125.434)"/>
    <path id="Tracé_196" data-name="Tracé 196" class="cls-4" d="M132.6,196.182a4.389,4.389,0,0,1-4.337-2.608c-1.446-2.757-.525-4.439-.491-4.509a.082.082,0,0,1,.07-.041l12.851-.255a.08.08,0,0,1,.082.061l.445,1.636a.094.094,0,0,1,0,.043c-.011.044-1.175,4.417-5.252,5.243A17.109,17.109,0,0,1,132.6,196.182Zm-4.7-7c-.128.27-.772,1.87.509,4.313,1.464,2.781,3.6,2.9,7.526,2.094,3.833-.782,5.029-4.782,5.119-5.1l-.424-1.556Z" transform="translate(-38.692 -125.015)"/>
    <path id="Tracé_197" data-name="Tracé 197" class="cls-5" d="M114.521,118.052s-2.106-6.806-1.829-11.071,1.862-4.417,4.025-4.658c.96-.108,6.076-.865,7.992,1.389S130,116.526,130,116.526Z" transform="translate(-26.327 -52.538)"/>
    <path id="Tracé_198" data-name="Tracé 198" class="cls-2" d="M150.3,67.7l-.327,2.277a1.688,1.688,0,0,1-2.151.581,2.074,2.074,0,0,1-1.463-1.693l.681-4.208a8.261,8.261,0,0,0,2.15-3.953,6.321,6.321,0,0,0,3.108,2.709,17.929,17.929,0,0,1-.452,2.976A2.052,2.052,0,0,1,150.3,67.7Z" transform="translate(-54.508 -17.898)"/>
    <path id="Tracé_199" data-name="Tracé 199" class="cls-4" d="M148.132,70.388a2.088,2.088,0,0,1-.808-.173,2.127,2.127,0,0,1-1.513-1.767l.685-4.223a.09.09,0,0,1,.026-.049,8.261,8.261,0,0,0,2.127-3.91.085.085,0,0,1,.069-.061.082.082,0,0,1,.082.039c.013.023,1.274,2.189,3.056,2.67a.082.082,0,0,1,.061.085,18.044,18.044,0,0,1-.455,2.994,2.055,2.055,0,0,1-1.544,1.353l-.327,2.223a.1.1,0,0,1-.01.031A1.8,1.8,0,0,1,148.132,70.388Zm-1.472-6.111-.677,4.182a1.994,1.994,0,0,0,1.414,1.6,1.612,1.612,0,0,0,2.042-.535l.327-2.259a.077.077,0,0,1,.041-.059.127.127,0,0,1,.049-.016,1.913,1.913,0,0,0,1.451-1.247,17.237,17.237,0,0,0,.443-2.892,6.146,6.146,0,0,1-2.987-2.562A8.627,8.627,0,0,1,146.659,64.278Zm2.856,5.281Z" transform="translate(-54.048 -17.484)"/>
    <path id="Tracé_200" data-name="Tracé 200" class="cls-2" d="M146.878,80.006a.981.981,0,0,0-.249-.573,1.719,1.719,0,0,0-.481-.347.744.744,0,0,0-.306-.106.622.622,0,0,0-.224.044.766.766,0,0,0-.419.327.892.892,0,0,0-.087.424,1.812,1.812,0,0,0,.043.471,1.194,1.194,0,0,0,1.472.864" transform="translate(-53.463 -33.188)"/>
    <path id="Tracé_201" data-name="Tracé 201" class="cls-4" d="M145.9,80.808a1.278,1.278,0,0,1-1.24-.965,1.781,1.781,0,0,1-.046-.491.982.982,0,0,1,.1-.461.841.841,0,0,1,.456-.362.723.723,0,0,1,.255-.049.818.818,0,0,1,.342.116,1.811,1.811,0,0,1,.5.363,1.067,1.067,0,0,1,.27.622.083.083,0,0,1-.075.088.085.085,0,0,1-.088-.075.9.9,0,0,0-.224-.525,1.625,1.625,0,0,0-.46-.327.655.655,0,0,0-.27-.1.515.515,0,0,0-.193.039.7.7,0,0,0-.376.283.832.832,0,0,0-.075.386,1.59,1.59,0,0,0,.041.45,1.114,1.114,0,0,0,1.368.8.081.081,0,1,1,.041.157A1.224,1.224,0,0,1,145.9,80.808Z" transform="translate(-53.043 -32.769)"/>
    <path id="Tracé_202" data-name="Tracé 202" class="cls-2" d="M167.016,81.28s.643,1.268.432,1.45-.718-.018-.718-.018" transform="translate(-71.546 -35.111)"/>
    <path id="Tracé_203" data-name="Tracé 203" class="cls-4" d="M166.737,82.47a1.482,1.482,0,0,1-.491-.1.082.082,0,0,1-.046-.106.083.083,0,0,1,.106-.046c.119.046.491.152.633.031a2.9,2.9,0,0,0-.45-1.351.08.08,0,0,1,.036-.11.083.083,0,0,1,.11.036c.2.4.646,1.348.412,1.549A.491.491,0,0,1,166.737,82.47Z" transform="translate(-71.098 -34.693)"/>
    <ellipse id="Ellipse_17" data-name="Ellipse 17" class="cls-4" cx="0.275" cy="0.196" rx="0.275" ry="0.196" transform="translate(94.258 46.124) rotate(-85.34)"/>
    <ellipse id="Ellipse_18" data-name="Ellipse 18" class="cls-4" cx="0.275" cy="0.196" rx="0.275" ry="0.196" transform="translate(96.287 46.407) rotate(-85.74)"/>
    <path id="Tracé_204" data-name="Tracé 204" class="cls-4" d="M159.96,90.045a1.553,1.553,0,0,1-.721-.164,1.524,1.524,0,0,1-.744-1.162.082.082,0,0,1,.067-.095.083.083,0,0,1,.095.065,1.37,1.37,0,0,0,.654,1.045,2.213,2.213,0,0,0,1.664-.08.082.082,0,0,1,.108.041.08.08,0,0,1-.041.108A2.9,2.9,0,0,1,159.96,90.045Z" transform="translate(-64.656 -41.253)"/>
    <path id="Tracé_205" data-name="Tracé 205" class="cls-4" d="M159.042,101.018a3.832,3.832,0,0,1-2.232-.478s.646,2.045,2,2.038Z" transform="translate(-63.248 -51.22)"/>
    <path id="Tracé_206" data-name="Tracé 206" class="cls-4" d="M158.37,102.233c-1.4,0-2.048-2.011-2.076-2.1a.083.083,0,0,1,.033-.092.079.079,0,0,1,.1,0,3.78,3.78,0,0,0,2.174.46.082.082,0,0,1,.087.093l-.227,1.562A.087.087,0,0,1,158.37,102.233Zm-1.832-1.914c.208.512.8,1.7,1.769,1.749l.2-1.389a4.08,4.08,0,0,1-1.966-.36Z" transform="translate(-62.814 -50.793)"/>
    <path id="Tracé_207" data-name="Tracé 207" class="cls-5" d="M103.506,105.669c-3.022-.376-5.859,12.452-4.209,13.671,2.572,1.9,10.421-.7,10.421-.7l-.785-3.385s-5.666.27-5.769-.893,3.166-6.616,2.708-7.411S103.506,105.669,103.506,105.669Z" transform="translate(-14.738 -55.503)"/>
    <path id="Tracé_208" data-name="Tracé 208" class="cls-4" d="M183.747,125.158a.072.072,0,0,1-.074-.064c-.389-2.735-1.243-7.316-1.52-7.585a.075.075,0,0,1,.1-.108c.355.345,1.268,5.6,1.562,7.671a.075.075,0,0,1-.064.085Z" transform="translate(-84.428 -65.307)"/>
    <path id="Tracé_209" data-name="Tracé 209" class="cls-2" d="M147.666,187.792l-5.216-1.461,9.579-1.8,5.185,2.173Z" transform="translate(-51.238 -121.469)"/>
    <path id="Tracé_210" data-name="Tracé 210" class="cls-4" d="M147.139,187.417a.049.049,0,0,1-.021,0l-5.216-1.472a.082.082,0,1,1,0-.164l9.579-1.8a.074.074,0,0,1,.046,0l5.185,2.173a.082.082,0,0,1-.023.157l-9.54,1.106Zm-4.856-1.526,4.862,1.363,9.221-1.052-4.874-2.042Z" transform="translate(-50.711 -121.007)"/>
    <path id="Tracé_211" data-name="Tracé 211" class="cls-2" d="M153.688,171.48a11.3,11.3,0,0,1,3.272.654,8.03,8.03,0,0,1,1.711.982,5.511,5.511,0,0,1,.751.641c.183.2.124.394-.183.3a3.719,3.719,0,0,1-1-.491,10.657,10.657,0,0,1,1.942,2.073c.062.088.123.214.049.293s-.237,0-.327-.082l-1.618-1.535a5.132,5.132,0,0,1,1.078,1.3c.041.07.08.164.038.227-.072.119-.255.029-.353-.07a11.754,11.754,0,0,1-1.317-1.587l.874,1.309a.193.193,0,0,1-.247.119.561.561,0,0,1-.24-.19l-1.059-1.216.625.861c.1.134.2.327.083.453s-.368,0-.512-.128a10.6,10.6,0,0,0-1.9-1.379,3.585,3.585,0,0,0-.731-.427,7.381,7.381,0,0,0-1.292-.151" transform="translate(-60.338 -110.554)"/>
    <path id="Tracé_212" data-name="Tracé 212" class="cls-4" d="M159.793,175.562a.478.478,0,0,1-.288-.141l-.523-.491c.034.054.069.11.1.164a.3.3,0,0,1,.038.3.186.186,0,0,1-.141.092.447.447,0,0,1-.327-.149c-.108-.108-.213-.218-.316-.327a.074.074,0,0,1,0,.018.219.219,0,0,1-.1.146.3.3,0,0,1-.237.031.619.619,0,0,1-.275-.213l-.193-.221a.309.309,0,0,1-.046.327.26.26,0,0,1-.187.087.707.707,0,0,1-.445-.226,10.285,10.285,0,0,0-1.881-1.368,2.612,2.612,0,0,1-.242-.164,1.731,1.731,0,0,0-.473-.262,3.881,3.881,0,0,0-.872-.118c-.141-.008-.278-.016-.407-.029a.075.075,0,0,1-.065-.083.074.074,0,0,1,.082-.065c.128.013.262.021.4.029a3.984,3.984,0,0,1,.908.123,1.952,1.952,0,0,1,.514.281c.075.054.152.106.232.154a10.59,10.59,0,0,1,1.909,1.387.605.605,0,0,0,.327.172.113.113,0,0,0,.08-.038c.088-.1-.033-.285-.088-.362l-.625-.859a.072.072,0,0,1,.013-.1.074.074,0,0,1,.1,0l1.06,1.216a.481.481,0,0,0,.2.164.151.151,0,0,0,.116-.015.074.074,0,0,0,.026-.023l-.852-1.281a.074.074,0,1,1,.123-.083,11.84,11.84,0,0,0,1.309,1.577.327.327,0,0,0,.2.1.036.036,0,0,0,.031-.02c.018-.028,0-.08-.038-.152a5.025,5.025,0,0,0-.7-.933l-.365-.347a.075.075,0,0,1,.1-.11c.129.111.252.227.37.35l1.25,1.186a.308.308,0,0,0,.188.1.041.041,0,0,0,.034-.016c.038-.039,0-.128-.054-.2a10.6,10.6,0,0,0-1.927-2.058.075.075,0,0,1,.09-.119,3.6,3.6,0,0,0,.982.481c.115.036.175.021.186,0s0-.093-.08-.178a5.269,5.269,0,0,0-.741-.632,7.91,7.91,0,0,0-1.695-.97,10.173,10.173,0,0,0-2.945-.613l-.319-.036a.074.074,0,1,1,.016-.147l.327.034a10.3,10.3,0,0,1,2.979.625,8.036,8.036,0,0,1,1.728.982,5.526,5.526,0,0,1,.762.654c.118.128.154.267.095.36-.034.052-.126.131-.357.059a3.484,3.484,0,0,1-.391-.146,10.774,10.774,0,0,1,1.412,1.613c.113.164.128.3.044.388a.2.2,0,0,1-.141.064Z" transform="translate(-59.984 -110.075)"/>
    <path id="Tracé_213" data-name="Tracé 213" class="cls-2" d="M183.878,165.149l2.387-6.389-9.749.193-2.186,7.285Z" transform="translate(-77.902 -99.915)"/>
    <path id="Tracé_214" data-name="Tracé 214" class="cls-4" d="M173.914,165.932a.078.078,0,0,1-.062-.029.083.083,0,0,1-.016-.075l2.186-7.285a.085.085,0,0,1,.077-.059l9.749-.193a.083.083,0,0,1,.069.034.089.089,0,0,1,.01.075l-2.387,6.38a.083.083,0,0,1-.069.054l-9.546,1.1Zm2.248-7.287-2.127,7.11,9.374-1.07,2.326-6.23Zm7.3,6.115Z" transform="translate(-77.486 -99.522)"/>
    <path id="Tracé_215" data-name="Tracé 215" class="cls-4" d="M143.227,197.646s2.645,2.148,1.716,4.118-17.833,4.221-17.833,4.221l-.761-2.575S139.61,196.636,143.227,197.646Z" transform="translate(-37.772 -132.353)"/>
    <path id="Tracé_216" data-name="Tracé 216" class="cls-4" d="M126.69,205.649a.083.083,0,0,1-.079-.059l-.761-2.575a.079.079,0,0,1,.041-.095c.033-.018,3.359-1.711,7.086-3.262,5.014-2.086,8.327-2.93,9.846-2.508a.082.082,0,0,1,.031.016,7.173,7.173,0,0,1,1.22,1.337,2.838,2.838,0,0,1,.51,2.879c-.946,1.986-17.193,4.173-17.883,4.265Zm-.664-2.618.723,2.441c1.181-.164,16.81-2.32,17.689-4.164.864-1.819-1.472-3.843-1.675-4.008-3.439-.918-15.745,5.24-16.727,5.734Z" transform="translate(-37.351 -131.936)"/>
    <path id="Tracé_217" data-name="Tracé 217" class="cls-4" d="M103.062,190.279s13.126,5.307,16.38,6.708l-1.891,2.922s-12.12-.237-15.595-3.282S98.711,188.514,103.062,190.279Z" transform="translate(-15.359 -125.974)"/>
    <path id="Tracé_218" data-name="Tracé 218" class="cls-4" d="M117.072,199.553h0c-.029,0-3.074-.064-6.5-.5-4.614-.587-7.689-1.53-9.144-2.8-1.819-1.593-3.094-4.391-2.092-6.016.327-.54,1.2-1.317,3.285-.473h0c.131.054,13.163,5.325,16.381,6.708a.079.079,0,0,1,.046.051.085.085,0,0,1-.01.069l-1.891,2.927A.082.082,0,0,1,117.072,199.553Zm-16.1-10a1.655,1.655,0,0,0-1.5.766c-.772,1.255-.129,3.889,2.061,5.808,3.306,2.9,14.68,3.241,15.5,3.261l1.816-2.806c-3.36-1.44-16.159-6.616-16.29-6.668h0A4.293,4.293,0,0,0,100.972,189.554Z" transform="translate(-14.88 -125.533)"/>
    <path id="Tracé_219" data-name="Tracé 219" class="cls-2" d="M231.653,176.046a.465.465,0,0,0,.095.206l.255.381a.276.276,0,0,0-.38-.19.447.447,0,0,0-.234.4,1.285,1.285,0,0,0,.115.476c.182.471.592,1.16,1.186.8.4-.242.514-1.1.571-1.521.113-.838-.144-1.914-1.22-1.751a2.071,2.071,0,0,0,.442,1.13C232.307,175.815,231.6,175.552,231.653,176.046Z" transform="translate(-125.626 -113.363)"/>
    <path id="Tracé_220" data-name="Tracé 220" class="cls-4" d="M231.951,177.912a.562.562,0,0,1-.193-.033,1.536,1.536,0,0,1-.739-.918,1.374,1.374,0,0,1-.119-.5.51.51,0,0,1,.28-.47.31.31,0,0,1,.128-.028l-.036-.054a.531.531,0,0,1-.108-.242.3.3,0,0,1,.164-.327.7.7,0,0,1,.507.038,2.127,2.127,0,0,1-.275-.9.077.077,0,0,1,.064-.08,1.034,1.034,0,0,1,.928.255,1.942,1.942,0,0,1,.378,1.579c-.064.471-.178,1.317-.607,1.575A.692.692,0,0,1,231.951,177.912Zm-.635-1.8a.2.2,0,0,0-.077.015.371.371,0,0,0-.19.337,1.191,1.191,0,0,0,.108.448c.082.209.308.712.654.829a.491.491,0,0,0,.429-.064c.368-.221.479-1.052.533-1.451a1.845,1.845,0,0,0-.327-1.472.865.865,0,0,0-.731-.224,2,2,0,0,0,.42,1.019.074.074,0,0,1-.008.1.075.075,0,0,1-.1,0,.784.784,0,0,0-.633-.183c-.036.016-.082.054-.07.182h0a.443.443,0,0,0,.082.173l.137.2a.291.291,0,0,1,.131.211.075.075,0,0,1-.049.079.074.074,0,0,1-.087-.029l-.1-.15a.234.234,0,0,0-.118-.023Z" transform="translate(-125.216 -112.975)"/>
    <path id="Tracé_221" data-name="Tracé 221" class="cls-2" d="M166.254,209.9a.1.1,0,0,1-.031,0c-.286-.111-7.053-2.73-8.578-3.665a.085.085,0,0,1-.028-.116.083.083,0,0,1,.116-.028c1.512.926,8.479,3.624,8.55,3.65a.085.085,0,0,1,.049.11A.083.083,0,0,1,166.254,209.9Z" transform="translate(-63.913 -139.495)"/>
    <ellipse id="Ellipse_19" data-name="Ellipse 19" class="cls-4" cx="2.701" cy="2.557" rx="2.701" ry="2.557" transform="translate(91.747 54.611)"/>
    <path id="Tracé_222" data-name="Tracé 222" class="cls-4" d="M148.011,137.656a2.642,2.642,0,1,1,2.781-2.637A2.714,2.714,0,0,1,148.011,137.656Zm0-5.113a2.478,2.478,0,1,0,2.618,2.475A2.552,2.552,0,0,0,148.011,132.544Z" transform="translate(-53.563 -77.851)"/>
    <path id="Tracé_223" data-name="Tracé 223" class="cls-2" d="M150.174,145.134l-.654-.383v-.506l.654-.383q.327-.188.654-.383v.612c-.116.072-.232.142-.348.209s-.231.136-.348.209l.348.193.348.195v.618Z" transform="translate(-57.151 -87.135)"/>
    <path id="Tracé_224" data-name="Tracé 224" class="cls-2" d="M158.65,141.932l.771-2.932.4.182-.774,2.927Z" transform="translate(-64.787 -83.388)"/>
    <path id="Tracé_225" data-name="Tracé 225" class="cls-2" d="M167.654,143.863l.654.383v.506l-.654.383-.654.383V144.9l.348-.195.348-.193c-.116-.074-.232-.144-.348-.209s-.231-.137-.348-.209v-.612Z" transform="translate(-71.771 -87.135)"/>
    <path id="Tracé_226" data-name="Tracé 226" class="cls-4" d="M125.1,130.277a.082.082,0,1,1-.01-.164l3.926-.476.623-3.143-5.031-.425a.08.08,0,0,1-.061-.034.079.079,0,0,1-.013-.069l2.068-7.7a.085.085,0,0,1,.164.043l-2.043,7.606,5.018.416a.087.087,0,0,1,.059.033.083.083,0,0,1,.015.065l-.654,3.29a.083.083,0,0,1-.07.065l-3.99.483Z" transform="translate(-36.251 -65.994)"/>
    <rect id="Rectangle_16" data-name="Rectangle 16" class="cls-1" width="8.157" height="0.844" transform="translate(102.313 42.066)"/>
    <rect id="Rectangle_17" data-name="Rectangle 17" class="cls-1" width="8.157" height="0.844" transform="translate(111.419 42.066)"/>
    <rect id="Rectangle_18" data-name="Rectangle 18" class="cls-5" width="4.789" height="0.844" transform="translate(105.681 43.512)"/>
    <rect id="Rectangle_19" data-name="Rectangle 19" class="cls-1" width="7.246" height="0.844" transform="translate(111.419 43.512)"/>
    <rect id="Rectangle_20" data-name="Rectangle 20" class="cls-1" width="6.035" height="0.844" transform="translate(104.435 44.96)"/>
    <rect id="Rectangle_21" data-name="Rectangle 21" class="cls-1" width="3.403" height="0.844" transform="translate(111.419 44.96)"/>
    <rect id="Rectangle_22" data-name="Rectangle 22" class="cls-1" width="3.521" height="0.844" transform="translate(106.951 46.406)"/>
    <rect id="Rectangle_23" data-name="Rectangle 23" class="cls-5" width="6.665" height="0.844" transform="translate(111.419 46.406)"/>
    <rect id="Rectangle_24" data-name="Rectangle 24" class="cls-5" width="1.121" height="0.844" transform="translate(109.349 47.854)"/>
    <rect id="Rectangle_25" data-name="Rectangle 25" class="cls-1" width="4.478" height="0.844" transform="translate(111.419 47.854)"/>
    <rect id="Rectangle_26" data-name="Rectangle 26" class="cls-5" width="7.496" height="0.967" transform="translate(102.833 53.802)"/>
    <rect id="Rectangle_27" data-name="Rectangle 27" class="cls-1" width="4.604" height="0.967" transform="translate(111.533 53.802)"/>
    <rect id="Rectangle_28" data-name="Rectangle 28" class="cls-1" width="6.086" height="0.967" transform="translate(104.241 55.458)"/>
    <rect id="Rectangle_29" data-name="Rectangle 29" class="cls-1" width="6.703" height="0.967" transform="translate(111.533 55.458)"/>
    <rect id="Rectangle_30" data-name="Rectangle 30" class="cls-1" width="3.043" height="0.967" transform="translate(107.284 57.115)"/>
    <rect id="Rectangle_31" data-name="Rectangle 31" class="cls-1" width="7.971" height="0.967" transform="translate(111.533 57.115)"/>
    <rect id="Rectangle_32" data-name="Rectangle 32" class="cls-1" width="1.14" height="0.967" transform="translate(109.187 58.773)"/>
    <rect id="Rectangle_33" data-name="Rectangle 33" class="cls-5" width="8.471" height="0.967" transform="translate(111.533 58.773)"/>
    <rect id="Rectangle_34" data-name="Rectangle 34" class="cls-1" width="5.69" height="0.967" transform="translate(111.533 60.428)"/>
    <path id="Tracé_227" data-name="Tracé 227" class="cls-1" d="M281.145,109.683l-.615-.245v-.327l.615-.245.615-.245v.389c-.111.047-.221.092-.327.134s-.219.087-.327.134l.327.124.327.124v.4Z" transform="translate(-166.728 -57.978)"/>
    <path id="Tracé_228" data-name="Tracé 228" class="cls-1" d="M289.16,107.657l.73-1.877.383.115-.735,1.885Z" transform="translate(-173.946 -55.603)"/>
    <path id="Tracé_229" data-name="Tracé 229" class="cls-1" d="M297.675,108.9l.615.245v.327l-.615.245-.615.245v-.4l.327-.124.327-.124c-.111-.047-.221-.092-.327-.134s-.219-.087-.327-.134v-.391Z" transform="translate(-180.553 -58.003)"/>
    <path id="Tracé_230" data-name="Tracé 230" class="cls-1" d="M211.61,42.453a.25.25,0,0,1,.025-.11.257.257,0,0,1,.064-.092.3.3,0,0,1,.093-.059.306.306,0,0,1,.116-.023.286.286,0,0,1,.11.023.314.314,0,0,1,.092.059.3.3,0,0,1,.062.092.274.274,0,0,1,.023.11.282.282,0,0,1-.023.111.3.3,0,0,1-.062.087.294.294,0,0,1-.317.059.275.275,0,0,1-.093-.059.254.254,0,0,1-.064-.087A.257.257,0,0,1,211.61,42.453Zm0,.959a.283.283,0,0,1,.088-.2.278.278,0,0,1,.093-.061.306.306,0,0,1,.116-.021.285.285,0,0,1,.11.021.288.288,0,0,1,.092.061.294.294,0,0,1,.062.09.278.278,0,0,1,0,.221.287.287,0,0,1-.062.088.314.314,0,0,1-.092.059.285.285,0,0,1-.11.021.306.306,0,0,1-.116-.021.3.3,0,0,1-.093-.059.245.245,0,0,1-.064-.088.252.252,0,0,1-.025-.111Z" transform="translate(-109.083 -2.4)"/>
    <path id="Tracé_231" data-name="Tracé 231" class="cls-1" d="M270,204.832a.289.289,0,0,0,.182-.052c.046-.034.067-.106.067-.218v-.507a.949.949,0,0,1,.033-.249.623.623,0,0,1,.1-.209.523.523,0,0,1,.177-.144.579.579,0,0,1,.262-.054h.368v.527h-.129a.164.164,0,0,0-.152.072.314.314,0,0,0-.041.164v.517a.475.475,0,0,1-.034.191.44.44,0,0,1-.082.128.339.339,0,0,1-.106.077.282.282,0,0,1-.1.031h0a.433.433,0,0,1,.1.033.328.328,0,0,1,.106.074.451.451,0,0,1,.116.319v.519a.3.3,0,0,0,.041.164.164.164,0,0,0,.152.074h.129v.527h-.368a.579.579,0,0,1-.262-.054.523.523,0,0,1-.177-.144.64.64,0,0,1-.1-.209.971.971,0,0,1-.033-.25v-.507a.262.262,0,0,0-.067-.216.289.289,0,0,0-.182-.052Z" transform="translate(-157.92 -137.251)"/>
    <path id="Tracé_232" data-name="Tracé 232" class="cls-1" d="M298.451,205.377a.3.3,0,0,0-.183.052.267.267,0,0,0-.067.216v.507a.972.972,0,0,1-.033.25.609.609,0,0,1-.1.209.491.491,0,0,1-.177.144.579.579,0,0,1-.262.054h-.368v-.532h.131a.164.164,0,0,0,.151-.074.3.3,0,0,0,.041-.164v-.519a.475.475,0,0,1,.034-.19.44.44,0,0,1,.083-.129.327.327,0,0,1,.1-.074.472.472,0,0,1,.1-.033h0a.3.3,0,0,1-.1-.031.327.327,0,0,1-.1-.077.411.411,0,0,1-.083-.128.476.476,0,0,1-.034-.191v-.519a.314.314,0,0,0-.041-.164.164.164,0,0,0-.151-.072h-.131V203.4h.368a.579.579,0,0,1,.262.054.491.491,0,0,1,.177.144.594.594,0,0,1,.1.209.952.952,0,0,1,.033.249v.507a.268.268,0,0,0,.067.218.294.294,0,0,0,.183.052Z" transform="translate(-180.721 -137.251)"/>
  </g>
</svg>
